<svg width="62" height="60" viewBox="0 0 62 60" fill="none" xmlns="http://www.w3.org/2000/svg">
<g filter="url(#filter0_d_1054_63)">
<path fill-rule="evenodd" clip-rule="evenodd" d="M31.595 6.35687C18.856 5.96672 8.2119 15.7478 7.60068 28.4781C7.27687 35.2222 10.0045 41.4777 14.5062 45.9609L13.6642 54.0729C13.5853 54.8334 14.3544 55.3976 15.0561 55.0938L23.2996 51.5253C25.9007 52.4495 28.6995 52.9179 31.595 52.8292C44.5544 52.4322 54.7841 41.4286 54.1622 28.4781C53.5702 16.1513 43.9302 6.73465 31.595 6.35687ZM31.595 16.4363C21.8726 16.0479 13.8446 24.1965 14.2013 34.2759C14.334 38.0223 24.4036 40.5261 31.595 40.3414C38.2955 40.1694 47.2939 38.1115 47.6507 34.2759C48.5027 25.1172 40.9604 16.8104 31.595 16.4363Z" fill="#35408E"/>
<path d="M56.3921 35.9707C58.7568 35.9707 60.6737 34.0538 60.6737 31.6892V24.7317C60.6737 23.2046 59.4357 21.9666 57.9085 21.9666H56.3921V35.9707Z" fill="#FFC300"/>
<path d="M55.5002 21.9666V35.0787C55.5002 35.5713 55.8995 35.9707 56.3921 35.9707V21.9666H55.5002Z" fill="#FFDE4F"/>
<path d="M5.9951 23.1261C5.9951 23.1261 11.1686 2.76495 31.595 3.32413C50.5051 3.8418 55.5002 21.9666 55.5002 21.9666H56.3921H57.9085C57.9085 21.9666 52.6458 1.36176 31.595 1.00497C8.67434 0.616488 3.67595 23.1261 3.67595 23.1261H5.19232H5.9951Z" fill="#4A6FB4"/>
<path d="M3.67595 23.1261C2.19806 23.1261 1 24.3242 1 25.8021V34.5435C1 35.9229 2.11819 37.0411 3.49755 37.0411H4.56793H5.19232V23.1261H3.67595Z" fill="#FFC300"/>
<path d="M5.19232 37.0411C5.63569 37.0411 5.9951 36.6817 5.9951 36.2383V23.1261H5.19232V37.0411Z" fill="#FFDE4F"/>
<path d="M10.0162 49.7002C10.9658 49.0517 11.2498 47.7779 10.6657 46.7873L8.38823 42.9256C7.95286 42.1874 7.00235 41.9404 6.2627 42.3734L5.45992 42.8433C4.61798 43.3362 4.32589 44.4125 4.80319 45.2634L6.87983 48.9652C7.50698 50.0832 8.9576 50.4231 10.0162 49.7002Z" fill="#2D3678"/>
<path d="M3.49755 37.0411C3.49755 37.0411 3.90431 38.9144 4.30034 40.0738C4.67935 41.1834 5.45992 42.8433 5.45992 42.8433L6.2627 42.3734C6.2627 42.3734 5.52303 40.8409 5.19232 39.8062C4.85526 38.7517 4.56793 37.0411 4.56793 37.0411H3.49755Z" fill="#4A6FB4"/>
<path d="M14.2013 34.2759C13.8446 24.1965 21.8726 16.0479 31.595 16.4363C40.9604 16.8104 48.5027 25.1172 47.6507 34.2759C47.2939 38.1115 38.2955 40.1694 31.595 40.3414C24.4036 40.5261 14.334 38.0223 14.2013 34.2759Z" fill="white"/>
<path d="M31.6104 5.85742C44.2047 6.24316 54.0566 15.8651 54.6611 28.4541C55.2965 41.6856 44.8475 52.9236 31.6104 53.3291C28.7202 53.4176 25.925 52.9613 23.3203 52.0605L15.2549 55.5527C14.2024 56.0084 13.0488 55.1622 13.167 54.0215L13.9844 46.1426C9.49243 41.5804 6.77455 35.265 7.10156 28.4541C7.72595 15.4497 18.6004 5.45897 31.6104 5.85742ZM31.6035 0.504883C42.3186 0.6865 49.0287 6.03176 53.0439 11.3174C55.0484 13.9561 56.3837 16.5809 57.2178 18.5459C57.6351 19.529 57.9274 20.349 58.1162 20.9248C58.1909 21.1524 58.2475 21.3426 58.291 21.4893C59.914 21.6787 61.1737 23.0577 61.1738 24.7314V31.6895C61.1737 34.3299 59.033 36.4705 56.3926 36.4707C55.6239 36.4707 55.0002 35.8477 55 35.0791V22.0381C54.9908 22.007 54.9784 21.9644 54.9619 21.9111C54.9224 21.7836 54.8611 21.594 54.7764 21.3516C54.607 20.8667 54.3431 20.1701 53.9678 19.3311C53.2164 17.6514 52.0211 15.4066 50.2461 13.1484C46.7017 8.63922 40.853 4.07804 31.5811 3.82422C21.5669 3.55017 15.3073 8.39242 11.5322 13.3193C9.64104 15.7876 8.37541 18.2761 7.58301 20.1484C7.18717 21.0837 6.90995 21.8633 6.73242 22.4072C6.64367 22.6791 6.58041 22.8924 6.53906 23.0361C6.51984 23.1029 6.50485 23.1546 6.49512 23.1904V36.2383C6.49512 36.9578 5.91186 37.541 5.19238 37.541H5.16895C5.19149 37.6587 5.21587 37.7899 5.24414 37.9287C5.35743 38.4849 5.50912 39.1543 5.66895 39.6543C5.82576 40.1448 6.08377 40.7661 6.30859 41.2754C6.38345 41.4449 6.45529 41.6001 6.51562 41.7314C7.38596 41.4972 8.33948 41.8582 8.81934 42.6719L11.0967 46.5332C11.8145 47.7505 11.4649 49.3163 10.2979 50.1133C8.99697 51.0015 7.21403 50.5838 6.44336 49.21L4.36719 45.5078C3.83323 44.5559 4.05124 43.3826 4.83496 42.6816C4.76026 42.5173 4.66662 42.3084 4.56445 42.0752C4.3209 41.5192 4.02375 40.8109 3.82715 40.2354C3.62173 39.634 3.41648 38.858 3.26465 38.2422C3.19447 37.9575 3.13477 37.7039 3.09082 37.5127C1.6279 37.3142 0.500204 36.0613 0.5 34.5439V25.8018C0.50017 24.1822 1.71262 22.8466 3.2793 22.6514C3.3219 22.4892 3.38003 22.2761 3.45605 22.0186C3.64106 21.3917 3.93034 20.4998 4.34961 19.4326C5.18773 17.2994 6.54803 14.4563 8.6377 11.623C12.8256 5.94489 19.9465 0.307308 31.6035 0.504883Z" stroke="black"/>
<path d="M21.75 24.5C21.75 23.6716 22.4216 23 23.25 23C24.0784 23 24.75 23.6716 24.75 24.5V27.75C24.75 28.5784 24.0784 29.25 23.25 29.25C22.4216 29.25 21.75 28.5784 21.75 27.75V24.5Z" fill="black"/>
<path d="M36.75 24.5C36.75 23.6716 37.4216 23 38.25 23C39.0784 23 39.75 23.6716 39.75 24.5V27.75C39.75 28.5785 39.0784 29.25 38.25 29.25C37.4216 29.25 36.75 28.5785 36.75 27.75V24.5Z" fill="black"/>
<path d="M20.75 34.125C20.75 34.8844 19.0151 35.5 16.875 35.5C14.7349 35.5 13 34.8844 13 34.125C13 33.3656 14.7349 32.75 16.875 32.75C19.0151 32.75 20.75 33.3656 20.75 34.125Z" fill="#F9A9E7"/>
<path d="M49 34.125C49 34.8844 47.2651 35.5 45.125 35.5C42.9849 35.5 41.25 34.8844 41.25 34.125C41.25 33.3656 42.9849 32.75 45.125 32.75C47.2651 32.75 49 33.3656 49 34.125Z" fill="#F9A9E7"/>
<path d="M28.5369 35.1907C28.5779 34.9856 28.8267 34.8812 29.016 34.9702C29.3922 35.1471 30.0284 35.3673 30.875 35.375C31.7775 35.3832 32.515 35.1453 32.9494 34.9606C33.1405 34.8794 33.375 35.0181 33.375 35.2257C33.375 35.3184 33.3269 35.4039 33.2443 35.446C32.9231 35.6097 32.0355 36 30.875 36C29.77 36 28.9832 35.6461 28.6614 35.4709C28.5612 35.4164 28.5145 35.3025 28.5369 35.1907Z" fill="black"/>
</g>
<defs>
<filter id="filter0_d_1054_63" x="0" y="0" width="61.6738" height="59.179" filterUnits="userSpaceOnUse" color-interpolation-filters="sRGB">
<feFlood flood-opacity="0" result="BackgroundImageFix"/>
<feColorMatrix in="SourceAlpha" type="matrix" values="0 0 0 0 0 0 0 0 0 0 0 0 0 0 0 0 0 0 127 0" result="hardAlpha"/>
<feOffset dy="3"/>
<feComposite in2="hardAlpha" operator="out"/>
<feColorMatrix type="matrix" values="0 0 0 0 0 0 0 0 0 0 0 0 0 0 0 0 0 0 0.25 0"/>
<feBlend mode="normal" in2="BackgroundImageFix" result="effect1_dropShadow_1054_63"/>
<feBlend mode="normal" in="SourceGraphic" in2="effect1_dropShadow_1054_63" result="shape"/>
</filter>
</defs>
</svg>
