<svg width="46" height="60" viewBox="0 0 46 60" fill="none" xmlns="http://www.w3.org/2000/svg">
<g filter="url(#filter0_d_838_271)">
<path fill-rule="evenodd" clip-rule="evenodd" d="M40.5196 4.66667C40.5196 2.64162 38.878 1 36.8529 1H6.2846V45H40.5196V44.0833V32.1667V30.3333V18.4167V16.5833V4.66667ZM28.075 23C32.4006 23 35.8983 19.4764 35.8664 15.1509C35.8349 10.8702 32.3558 7.41667 28.075 7.41667H17.8674C13.5642 7.41667 10.0757 10.9051 10.0757 15.2083C10.0757 19.5116 13.5642 23 17.8674 23H28.075ZM34.8903 37.6667C34.8903 38.1729 34.4799 38.5833 33.9737 38.5833H11.9114C11.4052 38.5833 10.9948 38.1729 10.9948 37.6667C10.9948 37.1604 11.4052 36.75 11.9114 36.75H33.9737C34.4799 36.75 34.8903 37.1604 34.8903 37.6667ZM10.9948 30.3333C10.9948 29.8271 11.4052 29.4167 11.9114 29.4167H33.9737C34.4799 29.4167 34.8903 29.8271 34.8903 30.3333C34.8903 30.8396 34.4799 31.25 33.9737 31.25H11.9114C11.4052 31.25 10.9948 30.8396 10.9948 30.3333ZM34.8903 34C34.8903 33.4937 34.4799 33.0833 33.9737 33.0833H11.9114C11.4052 33.0833 10.9948 33.4937 10.9948 34C10.9948 34.5063 11.4052 34.9167 11.9114 34.9167H33.9737C34.4799 34.9167 34.8903 34.5063 34.8903 34Z" fill="#35408E"/>
<path d="M6.2846 1L5.20925 1.67617C2.58968 3.32334 1 6.20074 1 9.29514V45V48.8958C1.91906 46.9479 2.83812 45.8021 5.02089 45H6.2846V1Z" fill="#2D3678"/>
<path d="M1 48.8958C1 52.8194 4.18064 56 8.10416 56H37.7696C39.2884 56 40.5196 54.7688 40.5196 53.25H6.3923C4.87351 53.25 3.6423 52.0188 3.6423 50.5C3.6423 48.9812 4.87351 47.75 6.3923 47.75H40.5196V45H6.2846H5.02089C2.83812 45.8021 1.91906 46.9479 1 48.8958Z" fill="#4A6FB4"/>
<path d="M40.5196 44.0833H44C44.5523 44.0833 45 43.6356 45 43.0833V33.1667C45 32.6144 44.5523 32.1667 44 32.1667H40.5196V44.0833Z" fill="#FFC300"/>
<path d="M40.5196 30.3333H44C44.5523 30.3333 45 29.8856 45 29.3333V19.4167C45 18.8644 44.5523 18.4167 44 18.4167H40.5196V30.3333Z" fill="#FFC300"/>
<path d="M40.5196 16.5833H44C44.5523 16.5833 45 16.1356 45 15.5833V5.66667C45 5.11438 44.5523 4.66667 44 4.66667H40.5196V16.5833Z" fill="#FFC300"/>
<path d="M25.8146 12.6875H28.9164L25.5741 18.387C25.4422 18.6119 25.4629 18.8948 25.6259 19.0981C25.7452 19.2468 25.9255 19.3333 26.1162 19.3333H31.2141V17.7292H27.7676L30.9259 12.0809C31.0343 11.887 31.0396 11.6519 30.94 11.4533C30.8263 11.2265 30.5944 11.0833 30.3407 11.0833H25.8146V12.6875Z" fill="#FFC300"/>
<path fill-rule="evenodd" clip-rule="evenodd" d="M17.7728 11.0833C17.1603 11.0833 16.6213 11.488 16.4504 12.0762L14.6897 18.1347C14.5555 18.5965 14.8415 19.0751 15.3118 19.1757C15.7299 19.265 16.1473 19.0214 16.2752 18.6134L16.624 17.5H19.0366L19.3938 18.6401C19.5166 19.0322 19.9191 19.265 20.3202 19.176C20.7725 19.0757 21.0422 18.61 20.9041 18.1677L18.9658 11.9606C18.8029 11.4387 18.3196 11.0833 17.7728 11.0833ZM16.9687 16.2396L17.7728 13.2604L18.577 16.2396H16.9687Z" fill="#FFC300"/>
<path d="M21.3342 15.2083C21.3342 14.8286 21.642 14.5208 22.0217 14.5208H24.5527C24.9324 14.5208 25.2402 14.8286 25.2402 15.2083C25.2402 15.588 24.9324 15.8958 24.5527 15.8958H22.0217C21.642 15.8958 21.3342 15.588 21.3342 15.2083Z" fill="#FFC300"/>
<path fill-rule="evenodd" clip-rule="evenodd" d="M28.075 7.41667C32.3558 7.41667 35.8349 10.8702 35.8664 15.1509C35.8983 19.4764 32.4006 23 28.075 23H17.8674C13.5642 23 10.0757 19.5116 10.0757 15.2083C10.0757 10.9051 13.5642 7.41667 17.8674 7.41667H28.075ZM16.4504 12.0762C16.6213 11.488 17.1603 11.0833 17.7728 11.0833C18.3196 11.0833 18.8029 11.4387 18.9658 11.9606L20.9041 18.1677C21.0422 18.61 20.7725 19.0757 20.3202 19.176C19.9191 19.265 19.5166 19.0322 19.3938 18.6401L19.0366 17.5H16.624L16.2752 18.6134C16.1473 19.0214 15.7299 19.265 15.3118 19.1757C14.8415 19.0751 14.5555 18.5965 14.6897 18.1347L16.4504 12.0762ZM25.2402 15.2083C25.2402 14.8286 24.9324 14.5208 24.5527 14.5208H22.0217C21.642 14.5208 21.3342 14.8286 21.3342 15.2083C21.3342 15.588 21.642 15.8958 22.0217 15.8958H24.5527C24.9324 15.8958 25.2402 15.588 25.2402 15.2083ZM28.9164 12.6875H25.8146V11.0833H30.3407C30.5944 11.0833 30.8263 11.2265 30.94 11.4533C31.0396 11.6519 31.0343 11.887 30.9259 12.0809L27.7676 17.7292H31.2141V19.3333H26.1162C25.9255 19.3333 25.7452 19.2468 25.6259 19.0981C25.4629 18.8948 25.4422 18.6119 25.5741 18.387L28.9164 12.6875Z" fill="white"/>
<path d="M34.8903 30.3333C34.8903 29.8271 34.4799 29.4167 33.9737 29.4167H11.9114C11.4052 29.4167 10.9948 29.8271 10.9948 30.3333C10.9948 30.8396 11.4052 31.25 11.9114 31.25H33.9737C34.4799 31.25 34.8903 30.8396 34.8903 30.3333Z" fill="white"/>
<path d="M10.9948 34C10.9948 33.4937 11.4052 33.0833 11.9114 33.0833H33.9737C34.4799 33.0833 34.8903 33.4937 34.8903 34C34.8903 34.5063 34.4799 34.9167 33.9737 34.9167H11.9114C11.4052 34.9167 10.9948 34.5063 10.9948 34Z" fill="white"/>
<path d="M10.9948 37.6667C10.9948 38.1729 11.4052 38.5833 11.9114 38.5833H33.9737C34.4799 38.5833 34.8903 38.1729 34.8903 37.6667C34.8903 37.1604 34.4799 36.75 33.9737 36.75H11.9114C11.4052 36.75 10.9948 37.1604 10.9948 37.6667Z" fill="white"/>
<path d="M40.5196 47.75H6.3923C4.87351 47.75 3.6423 48.9812 3.6423 50.5C3.6423 52.0188 4.87351 53.25 6.3923 53.25H40.5196V47.75Z" fill="white"/>
<path d="M17.7728 13.2604L16.9687 16.2396H18.577L17.7728 13.2604Z" fill="white"/>
<path d="M6.78418 0.5H36.8525C38.9846 0.5 40.7413 2.10148 40.9883 4.16699H44C44.8284 4.16699 45.5 4.83857 45.5 5.66699V15.583C45.5 16.4114 44.8284 17.083 44 17.083H41.0195V17.917H44C44.8284 17.917 45.5 18.5886 45.5 19.417V29.333C45.5 30.1614 44.8284 30.833 44 30.833H41.0195V31.667H44C44.8284 31.667 45.5 32.3386 45.5 33.167V43.083C45.5 43.9114 44.8284 44.583 44 44.583H41.0195V53.75H40.9814C40.7409 55.3076 39.3944 56.5 37.7695 56.5H8.10449C4.03605 56.5 0.713408 53.3049 0.509766 49.2871L0.5 48.8955V9.29492C0.500075 6.0287 2.17832 2.99157 4.94336 1.25293L5.78418 0.724609V0.5H6.14062L6.78418 0.0947266V0.5Z" stroke="black"/>
</g>
<defs>
<filter id="filter0_d_838_271" x="0" y="0" width="46" height="60" filterUnits="userSpaceOnUse" color-interpolation-filters="sRGB">
<feFlood flood-opacity="0" result="BackgroundImageFix"/>
<feColorMatrix in="SourceAlpha" type="matrix" values="0 0 0 0 0 0 0 0 0 0 0 0 0 0 0 0 0 0 127 0" result="hardAlpha"/>
<feOffset dy="3"/>
<feComposite in2="hardAlpha" operator="out"/>
<feColorMatrix type="matrix" values="0 0 0 0 0 0 0 0 0 0 0 0 0 0 0 0 0 0 0.25 0"/>
<feBlend mode="normal" in2="BackgroundImageFix" result="effect1_dropShadow_838_271"/>
<feBlend mode="normal" in="SourceGraphic" in2="effect1_dropShadow_838_271" result="shape"/>
</filter>
</defs>
</svg>
