<svg width="60" height="61" viewBox="0 0 60 61" fill="none" xmlns="http://www.w3.org/2000/svg">
<g filter="url(#filter0_d_838_276)">
<path d="M30.2276 56L53.6748 42.3866V28.1639L31.5935 40.7983L30.2276 38.9539V56Z" fill="#2D3678"/>
<path fill-rule="evenodd" clip-rule="evenodd" d="M17.4797 21.7395L6.3252 24.566V42.3866L19.0732 49.6471V38.7563L26.3577 42.8403V53.7959L30.2276 56V38.9539L17.4797 21.7395ZM10.4228 33.084V27.1849L15.6585 30.1345V36.0336L10.4228 33.084Z" fill="#35408E"/>
<path d="M19.0732 38.7563V49.6471L26.3577 53.7959V42.8403L19.0732 38.7563Z" fill="white"/>
<path d="M10.4228 27.1849V33.084L15.6585 36.0336V30.1345L10.4228 27.1849Z" fill="white"/>
<path d="M58 23.5546L42.2927 2L18.6179 14.9328L33.6423 36.9412L58 23.5546Z" fill="#E7B202"/>
<path d="M2 19.6975L4.04878 25.1429L6.3252 24.566L17.4797 21.7395L30.2276 38.9539L31.5935 40.7983L33.6423 36.9412L18.6179 14.9328L2 19.6975Z" fill="#FFDE4F"/>
<path fill-rule="evenodd" clip-rule="evenodd" d="M2 19.6975L12.6992 13.5714V7.44538L18.6179 3.58824L24.3089 6.9916L26.813 5.40336L42.2927 2L18.6179 14.9328L2 19.6975Z" fill="#FFC300"/>
<path d="M56.1789 26.7311L58 23.5546L33.6423 36.9412L31.5935 40.7983L53.6748 28.1639L56.1789 26.7311Z" fill="#FFC300"/>
<path d="M42.6963 1.70508L58.1445 22.9033L59.3193 22.2588L58.5947 23.5215L58.7383 23.7188L58.3633 23.9248L56.6123 26.9795L56.5449 27.0977L56.4268 27.165L54.1748 28.4531V42.6748L53.9258 42.8193L30.7275 56.2871V56.8604L30.2295 56.5762L29.7275 56.8682V56.29L26.8574 54.6553V54.6562L26.1104 54.2305L25.8574 54.0869V54.0859L18.8262 50.0811L18.5732 49.9375V49.9365L6.07812 42.8213L5.8252 42.6768V25.208L4.17188 25.6279L3.73828 25.7373L3.58105 25.3193L1.53223 19.874L1.34082 19.3662L1.80566 19.2324L12.1992 13.2812V7.1748L12.4258 7.02637L18.3447 3.16895L18.6064 2.99902L18.874 3.15918L24.3008 6.4043L26.5449 4.98145L26.6191 4.93359L26.7061 4.91504L42.1152 1.52734L42.4385 1.35059L42.6963 1.70508Z" stroke="black"/>
</g>
<defs>
<filter id="filter0_d_838_276" x="0.76416" y="0.883057" width="58.4258" height="59.2705" filterUnits="userSpaceOnUse" color-interpolation-filters="sRGB">
<feFlood flood-opacity="0" result="BackgroundImageFix"/>
<feColorMatrix in="SourceAlpha" type="matrix" values="0 0 0 0 0 0 0 0 0 0 0 0 0 0 0 0 0 0 127 0" result="hardAlpha"/>
<feOffset dy="3"/>
<feComposite in2="hardAlpha" operator="out"/>
<feColorMatrix type="matrix" values="0 0 0 0 0 0 0 0 0 0 0 0 0 0 0 0 0 0 0.25 0"/>
<feBlend mode="normal" in2="BackgroundImageFix" result="effect1_dropShadow_838_276"/>
<feBlend mode="normal" in="SourceGraphic" in2="effect1_dropShadow_838_276" result="shape"/>
</filter>
</defs>
</svg>
