<svg width="46" height="60" viewBox="0 0 46 60" fill="none" xmlns="http://www.w3.org/2000/svg">
<g filter="url(#filter0_d_838_275)">
<mask id="path-1-outside-1_838_275" maskUnits="userSpaceOnUse" x="0" y="0" width="46" height="57" fill="black">
<rect fill="white" width="46" height="57"/>
<path fill-rule="evenodd" clip-rule="evenodd" d="M3 39.0217C1.89543 39.0217 1 39.9172 1 41.0217V48.0217C1 49.1263 1.89543 50.0217 3 50.0217H10.2391C11.3437 50.0217 12.2391 49.1263 12.2391 48.0217V41.0217C12.2391 39.9172 11.3437 39.0217 10.2391 39.0217L9.13043 39.0217L5.54348 39.0217L3 39.0217ZM3.43478 48.8261C2.8825 48.8261 2.43478 48.3784 2.43478 47.8261V41.2174C2.43478 40.6651 2.8825 40.2174 3.43478 40.2174H9.80435C10.3566 40.2174 10.8043 40.6651 10.8043 41.2174V47.8261C10.8043 48.3784 10.3566 48.8261 9.80435 48.8261H3.43478Z"/>
<path d="M3.43478 40.2174C2.8825 40.2174 2.43478 40.6651 2.43478 41.2174V47.8261C2.43478 48.3784 2.8825 48.8261 3.43478 48.8261H9.80435C10.3566 48.8261 10.8043 48.3784 10.8043 47.8261V41.2174C10.8043 40.6651 10.3566 40.2174 9.80435 40.2174H3.43478Z"/>
<path d="M9.13043 39.0217C9.13043 39.0217 11.6309 35.5485 13.6739 33.7609C15.587 32.0869 19.3432 30.8913 19.3432 30.8913C19.2453 30.6716 19.1155 30.445 18.9348 30.1739C18.576 29.6357 18.2066 29.1717 17.8571 28.7325C17.6492 28.4713 17.4483 28.2189 17.2609 27.965C17.2609 27.965 16.5923 28.2631 15.6544 28.7391C14.2766 29.4385 12.3175 30.522 11.0435 31.6087C8.30081 33.9479 5.54348 39.0217 5.54348 39.0217L9.13043 39.0217Z"/>
<path d="M15.6544 28.7391C16.5923 28.2631 17.2609 27.965 17.2609 27.965C16.726 27.2404 16.3003 26.5034 16.1324 25.5136C16.1324 25.5136 13.2185 23.826 11.7609 22.2826C10.3737 20.8138 8.8913 17.9782 8.8913 17.9782L5.06522 17.9783C5.06522 17.9783 7.347 22.467 9.6087 24.6739C11.645 26.6609 15.6544 28.7391 15.6544 28.7391Z"/>
<path d="M3.43478 8.17392C2.8825 8.17392 2.43478 8.62163 2.43478 9.17392V15.7826C2.43478 16.3349 2.8825 16.7826 3.43478 16.7826H9.80435C10.3566 16.7826 10.8043 16.3349 10.8043 15.7826V9.17391C10.8043 8.62163 10.3566 8.17392 9.80435 8.17392H3.43478Z"/>
<path fill-rule="evenodd" clip-rule="evenodd" d="M3 6.97826C1.89543 6.97826 1 7.87369 1 8.97826V15.9783C1 17.0828 1.89543 17.9783 3 17.9783H5.06522L8.8913 17.9782L10.2391 17.9783C11.3437 17.9783 12.2391 17.0828 12.2391 15.9783V8.97826C12.2391 7.87369 11.3437 6.97826 10.2391 6.97826H3ZM3.43478 16.7826C2.8825 16.7826 2.43478 16.3349 2.43478 15.7826V9.17392C2.43478 8.62163 2.8825 8.17392 3.43478 8.17392H9.80435C10.3566 8.17392 10.8043 8.62163 10.8043 9.17391V15.7826C10.8043 16.3349 10.3566 16.7826 9.80435 16.7826H3.43478Z"/>
<path d="M21.3261 17.7104C21.8624 17.5732 22.4231 17.5 23 17.5C23.4928 17.5 23.9726 17.5533 24.4348 17.6544V12.6011C24.0479 12.6774 23.648 12.7174 23.2391 12.7174C22.5716 12.7174 21.9279 12.6109 21.3261 12.4134V17.7104Z"/>
<path fill-rule="evenodd" clip-rule="evenodd" d="M23.2391 1C19.9374 1 17.1935 3.67725 17.2609 6.97826C17.3133 9.54655 19.01 11.6535 21.3261 12.4134C21.9279 12.6109 22.5716 12.7174 23.2391 12.7174C23.648 12.7174 24.0479 12.6774 24.4348 12.6011C27.11 12.0731 29.1597 9.80515 29.2174 6.97826C29.2848 3.67725 26.5408 1 23.2391 1ZM18.6957 6.97826C18.6279 4.46988 20.7298 2.43478 23.2391 2.43479C25.7484 2.43479 27.8504 4.46989 27.7826 6.97826C27.7166 9.42152 25.6833 11.2826 23.2391 11.2826C20.795 11.2826 18.7617 9.42153 18.6957 6.97826Z"/>
<path d="M23.2391 2.43479C20.7298 2.43478 18.6279 4.46988 18.6957 6.97826C18.7617 9.42153 20.795 11.2826 23.2391 11.2826C25.6833 11.2826 27.7166 9.42152 27.7826 6.97826C27.8504 4.46989 25.7484 2.43479 23.2391 2.43479Z"/>
<path d="M36.1957 7.93479C35.6434 7.93479 35.1957 8.3825 35.1957 8.93479V15.5435C35.1957 16.0958 35.6434 16.5435 36.1957 16.5435H42.5652C43.1175 16.5435 43.5652 16.0958 43.5652 15.5435V8.93478C43.5652 8.3825 43.1175 7.93479 42.5652 7.93479H36.1957Z"/>
<path fill-rule="evenodd" clip-rule="evenodd" d="M35.7609 6.73913C34.6563 6.73913 33.7609 7.63456 33.7609 8.73913V15.7391C33.7609 16.8437 34.6563 17.7391 35.7609 17.7391H37.3478H40.9348H43C44.1046 17.7391 45 16.8437 45 15.7391V8.73913C45 7.63456 44.1046 6.73913 43 6.73913H35.7609ZM36.1957 16.5435C35.6434 16.5435 35.1957 16.0958 35.1957 15.5435V8.93479C35.1957 8.3825 35.6434 7.93479 36.1957 7.93479H42.5652C43.1175 7.93479 43.5652 8.3825 43.5652 8.93478V15.5435C43.5652 16.0958 43.1175 16.5435 42.5652 16.5435H36.1957Z"/>
<path d="M29.8815 25.5136C29.7436 26.4885 29.3718 27.2342 28.8857 27.965C28.8857 27.965 29.6866 28.3358 30.7589 28.9077C30.7589 28.9077 34.4811 26.6546 36.3913 24.6739C38.6389 22.3434 40.9348 17.7391 40.9348 17.7391H37.3478C37.3478 17.7391 35.5428 20.7087 34 22.2826C32.569 23.7425 29.8815 25.5136 29.8815 25.5136Z"/>
<path d="M36.1957 40.2174C35.6434 40.2174 35.1957 40.6651 35.1957 41.2174V47.8261C35.1957 48.3784 35.6434 48.8261 36.1957 48.8261H42.5652C43.1175 48.8261 43.5652 48.3784 43.5652 47.8261V41.2174C43.5652 40.6651 43.1175 40.2174 42.5652 40.2174H36.1957Z"/>
<path d="M27.3044 30.1739C27.1505 30.4047 26.9915 30.5958 26.8402 30.7777C26.8084 30.8159 26.777 30.8537 26.746 30.8913C26.746 30.8913 30.3854 32.2647 32.3261 33.7609C34.476 35.4183 36.8696 39.0217 36.8696 39.0217H40.4565C40.4565 39.0217 37.6894 33.9594 34.9565 31.6087C33.8012 30.615 32.0755 29.6099 30.7589 28.9077C29.6866 28.3358 28.8857 27.965 28.8857 27.965C28.6667 28.2941 28.4246 28.6202 28.1702 28.9628C27.8915 29.3381 27.5981 29.7332 27.3044 30.1739Z"/>
<path fill-rule="evenodd" clip-rule="evenodd" d="M35.7609 39.0217C34.6563 39.0217 33.7609 39.9172 33.7609 41.0217V48.0217C33.7609 49.1263 34.6563 50.0217 35.7609 50.0217H43C44.1046 50.0217 45 49.1263 45 48.0217V41.0217C45 39.9172 44.1046 39.0217 43 39.0217H40.4565H36.8696H35.7609ZM36.1957 48.8261C35.6434 48.8261 35.1957 48.3784 35.1957 47.8261V41.2174C35.1957 40.6651 35.6434 40.2174 36.1957 40.2174H42.5652C43.1175 40.2174 43.5652 40.6651 43.5652 41.2174V47.8261C43.5652 48.3784 43.1175 48.8261 42.5652 48.8261H36.1957Z"/>
<path fill-rule="evenodd" clip-rule="evenodd" d="M17.0217 50.2609C17.0878 53.4965 19.7637 56 23 56C26.2363 56 28.9122 53.4965 28.9783 50.2609C29.0356 47.453 27.0588 45.0964 24.4348 44.455C23.974 44.3424 23.4932 44.2826 23 44.2826C22.4208 44.2826 21.8588 44.365 21.3261 44.5187C18.8221 45.2411 16.9662 47.5389 17.0217 50.2609ZM18.4565 50.2609C18.3887 47.7525 20.4907 45.7174 23 45.7174C25.5093 45.7174 27.6113 47.7525 27.5435 50.2609C27.4774 52.7041 25.4442 54.5652 23 54.5652C20.5559 54.5652 18.5226 52.7041 18.4565 50.2609Z"/>
<path d="M21.3261 44.5187C21.8588 44.365 22.4208 44.2826 23 44.2826C23.4932 44.2826 23.974 44.3424 24.4348 44.455V38.5435L21.3261 38.5435V44.5187Z"/>
<path d="M23 45.7174C20.4907 45.7174 18.3887 47.7525 18.4565 50.2609C18.5226 52.7041 20.5559 54.5652 23 54.5652C25.4442 54.5652 27.4774 52.7041 27.5435 50.2609C27.6113 47.7525 25.5093 45.7174 23 45.7174Z"/>
<path d="M20.6087 37.3478L20.6087 37.8261C20.6087 38.2223 20.9299 38.5435 21.3261 38.5435L24.4348 38.5435C24.9631 38.5435 25.3913 38.1152 25.3913 37.5869V37.3478H20.6087Z"/>
<path d="M20.6087 37.3478H25.3913L25.3913 36.6304H20.6087V37.3478Z"/>
<path d="M20.6087 36.6304H25.3913L25.3913 35.7751H20.6087L20.6087 36.6304Z"/>
<path d="M20.6087 35.7751H25.3913L25.3913 35.0071H20.6087L20.6087 35.7751Z"/>
<path d="M25.3913 34.2391H20.6087V35.0071H25.3913L25.3913 34.2391Z"/>
<path fill-rule="evenodd" clip-rule="evenodd" d="M25.3913 34.2391H20.6087C20.6087 34.2391 20.1189 33.9295 19.8913 33.5217C19.7094 33.1958 19.7003 32.9133 19.6902 32.5972C19.6851 32.4388 19.6797 32.272 19.6522 32.087C19.5791 31.5959 19.5044 31.2531 19.3432 30.8913C19.2453 30.6716 19.1155 30.445 18.9348 30.1739C18.576 29.6357 18.2066 29.1717 17.8571 28.7325C17.6492 28.4713 17.4483 28.2189 17.2609 27.965C16.726 27.2404 16.3003 26.5034 16.1324 25.5136C16.1001 25.3234 16.0774 25.1237 16.0652 24.913C15.87 21.5313 18.1773 18.5164 21.3261 17.7104C21.8624 17.5732 22.4231 17.5 23 17.5C23.4928 17.5 23.9726 17.5533 24.4348 17.6544C27.6905 18.3661 30.07 21.4442 29.9348 24.913C29.9266 25.1231 29.9085 25.3228 29.8815 25.5136C29.7436 26.4885 29.3718 27.2342 28.8857 27.965C28.6667 28.2941 28.4246 28.6202 28.1702 28.9628C27.8915 29.3381 27.5981 29.7332 27.3044 30.1739C27.1505 30.4047 26.9915 30.5958 26.8402 30.7777C26.8084 30.8159 26.777 30.8537 26.746 30.8913C26.466 31.2317 26.2238 31.5613 26.1087 32.087C26.055 32.3323 26.0998 32.5453 26.143 32.7508C26.1962 33.0037 26.247 33.2452 26.1087 33.5217C25.9315 33.8761 25.3913 34.2391 25.3913 34.2391ZM25.3913 21H22.5L19.3432 26.5H23L22.1056 30.1739L26.5 24H23.5L25.3913 21Z"/>
<path d="M22.5 21H25.3913L23.5 24H26.5L22.1056 30.1739L23 26.5H19.3432L22.5 21Z"/>
</mask>
<path fill-rule="evenodd" clip-rule="evenodd" d="M3 39.0217C1.89543 39.0217 1 39.9172 1 41.0217V48.0217C1 49.1263 1.89543 50.0217 3 50.0217H10.2391C11.3437 50.0217 12.2391 49.1263 12.2391 48.0217V41.0217C12.2391 39.9172 11.3437 39.0217 10.2391 39.0217L9.13043 39.0217L5.54348 39.0217L3 39.0217ZM3.43478 48.8261C2.8825 48.8261 2.43478 48.3784 2.43478 47.8261V41.2174C2.43478 40.6651 2.8825 40.2174 3.43478 40.2174H9.80435C10.3566 40.2174 10.8043 40.6651 10.8043 41.2174V47.8261C10.8043 48.3784 10.3566 48.8261 9.80435 48.8261H3.43478Z" fill="#273574"/>
<path d="M3.43478 40.2174C2.8825 40.2174 2.43478 40.6651 2.43478 41.2174V47.8261C2.43478 48.3784 2.8825 48.8261 3.43478 48.8261H9.80435C10.3566 48.8261 10.8043 48.3784 10.8043 47.8261V41.2174C10.8043 40.6651 10.3566 40.2174 9.80435 40.2174H3.43478Z" fill="#35408E"/>
<path d="M9.13043 39.0217C9.13043 39.0217 11.6309 35.5485 13.6739 33.7609C15.587 32.0869 19.3432 30.8913 19.3432 30.8913C19.2453 30.6716 19.1155 30.445 18.9348 30.1739C18.576 29.6357 18.2066 29.1717 17.8571 28.7325C17.6492 28.4713 17.4483 28.2189 17.2609 27.965C17.2609 27.965 16.5923 28.2631 15.6544 28.7391C14.2766 29.4385 12.3175 30.522 11.0435 31.6087C8.30081 33.9479 5.54348 39.0217 5.54348 39.0217L9.13043 39.0217Z" fill="#406FC7"/>
<path d="M15.6544 28.7391C16.5923 28.2631 17.2609 27.965 17.2609 27.965C16.726 27.2404 16.3003 26.5034 16.1324 25.5136C16.1324 25.5136 13.2185 23.826 11.7609 22.2826C10.3737 20.8138 8.8913 17.9782 8.8913 17.9782L5.06522 17.9783C5.06522 17.9783 7.347 22.467 9.6087 24.6739C11.645 26.6609 15.6544 28.7391 15.6544 28.7391Z" fill="#406FC7"/>
<path d="M3.43478 8.17392C2.8825 8.17392 2.43478 8.62163 2.43478 9.17392V15.7826C2.43478 16.3349 2.8825 16.7826 3.43478 16.7826H9.80435C10.3566 16.7826 10.8043 16.3349 10.8043 15.7826V9.17391C10.8043 8.62163 10.3566 8.17392 9.80435 8.17392H3.43478Z" fill="#35408E"/>
<path fill-rule="evenodd" clip-rule="evenodd" d="M3 6.97826C1.89543 6.97826 1 7.87369 1 8.97826V15.9783C1 17.0828 1.89543 17.9783 3 17.9783H5.06522L8.8913 17.9782L10.2391 17.9783C11.3437 17.9783 12.2391 17.0828 12.2391 15.9783V8.97826C12.2391 7.87369 11.3437 6.97826 10.2391 6.97826H3ZM3.43478 16.7826C2.8825 16.7826 2.43478 16.3349 2.43478 15.7826V9.17392C2.43478 8.62163 2.8825 8.17392 3.43478 8.17392H9.80435C10.3566 8.17392 10.8043 8.62163 10.8043 9.17391V15.7826C10.8043 16.3349 10.3566 16.7826 9.80435 16.7826H3.43478Z" fill="#273574"/>
<path d="M21.3261 17.7104C21.8624 17.5732 22.4231 17.5 23 17.5C23.4928 17.5 23.9726 17.5533 24.4348 17.6544V12.6011C24.0479 12.6774 23.648 12.7174 23.2391 12.7174C22.5716 12.7174 21.9279 12.6109 21.3261 12.4134V17.7104Z" fill="#406FC7"/>
<path fill-rule="evenodd" clip-rule="evenodd" d="M23.2391 1C19.9374 1 17.1935 3.67725 17.2609 6.97826C17.3133 9.54655 19.01 11.6535 21.3261 12.4134C21.9279 12.6109 22.5716 12.7174 23.2391 12.7174C23.648 12.7174 24.0479 12.6774 24.4348 12.6011C27.11 12.0731 29.1597 9.80515 29.2174 6.97826C29.2848 3.67725 26.5408 1 23.2391 1ZM18.6957 6.97826C18.6279 4.46988 20.7298 2.43478 23.2391 2.43479C25.7484 2.43479 27.8504 4.46989 27.7826 6.97826C27.7166 9.42152 25.6833 11.2826 23.2391 11.2826C20.795 11.2826 18.7617 9.42153 18.6957 6.97826Z" fill="#FFC916"/>
<path d="M23.2391 2.43479C20.7298 2.43478 18.6279 4.46988 18.6957 6.97826C18.7617 9.42153 20.795 11.2826 23.2391 11.2826C25.6833 11.2826 27.7166 9.42152 27.7826 6.97826C27.8504 4.46989 25.7484 2.43479 23.2391 2.43479Z" fill="#FFDE4F"/>
<path d="M36.1957 7.93479C35.6434 7.93479 35.1957 8.3825 35.1957 8.93479V15.5435C35.1957 16.0958 35.6434 16.5435 36.1957 16.5435H42.5652C43.1175 16.5435 43.5652 16.0958 43.5652 15.5435V8.93478C43.5652 8.3825 43.1175 7.93479 42.5652 7.93479H36.1957Z" fill="#35408E"/>
<path fill-rule="evenodd" clip-rule="evenodd" d="M35.7609 6.73913C34.6563 6.73913 33.7609 7.63456 33.7609 8.73913V15.7391C33.7609 16.8437 34.6563 17.7391 35.7609 17.7391H37.3478H40.9348H43C44.1046 17.7391 45 16.8437 45 15.7391V8.73913C45 7.63456 44.1046 6.73913 43 6.73913H35.7609ZM36.1957 16.5435C35.6434 16.5435 35.1957 16.0958 35.1957 15.5435V8.93479C35.1957 8.3825 35.6434 7.93479 36.1957 7.93479H42.5652C43.1175 7.93479 43.5652 8.3825 43.5652 8.93478V15.5435C43.5652 16.0958 43.1175 16.5435 42.5652 16.5435H36.1957Z" fill="#273574"/>
<path d="M29.8815 25.5136C29.7436 26.4885 29.3718 27.2342 28.8857 27.965C28.8857 27.965 29.6866 28.3358 30.7589 28.9077C30.7589 28.9077 34.4811 26.6546 36.3913 24.6739C38.6389 22.3434 40.9348 17.7391 40.9348 17.7391H37.3478C37.3478 17.7391 35.5428 20.7087 34 22.2826C32.569 23.7425 29.8815 25.5136 29.8815 25.5136Z" fill="#406FC7"/>
<path d="M36.1957 40.2174C35.6434 40.2174 35.1957 40.6651 35.1957 41.2174V47.8261C35.1957 48.3784 35.6434 48.8261 36.1957 48.8261H42.5652C43.1175 48.8261 43.5652 48.3784 43.5652 47.8261V41.2174C43.5652 40.6651 43.1175 40.2174 42.5652 40.2174H36.1957Z" fill="#35408E"/>
<path d="M27.3044 30.1739C27.1505 30.4047 26.9915 30.5958 26.8402 30.7777C26.8084 30.8159 26.777 30.8537 26.746 30.8913C26.746 30.8913 30.3854 32.2647 32.3261 33.7609C34.476 35.4183 36.8696 39.0217 36.8696 39.0217H40.4565C40.4565 39.0217 37.6894 33.9594 34.9565 31.6087C33.8012 30.615 32.0755 29.6099 30.7589 28.9077C29.6866 28.3358 28.8857 27.965 28.8857 27.965C28.6667 28.2941 28.4246 28.6202 28.1702 28.9628C27.8915 29.3381 27.5981 29.7332 27.3044 30.1739Z" fill="#406FC7"/>
<path fill-rule="evenodd" clip-rule="evenodd" d="M35.7609 39.0217C34.6563 39.0217 33.7609 39.9172 33.7609 41.0217V48.0217C33.7609 49.1263 34.6563 50.0217 35.7609 50.0217H43C44.1046 50.0217 45 49.1263 45 48.0217V41.0217C45 39.9172 44.1046 39.0217 43 39.0217H40.4565H36.8696H35.7609ZM36.1957 48.8261C35.6434 48.8261 35.1957 48.3784 35.1957 47.8261V41.2174C35.1957 40.6651 35.6434 40.2174 36.1957 40.2174H42.5652C43.1175 40.2174 43.5652 40.6651 43.5652 41.2174V47.8261C43.5652 48.3784 43.1175 48.8261 42.5652 48.8261H36.1957Z" fill="#273574"/>
<path fill-rule="evenodd" clip-rule="evenodd" d="M17.0217 50.2609C17.0878 53.4965 19.7637 56 23 56C26.2363 56 28.9122 53.4965 28.9783 50.2609C29.0356 47.453 27.0588 45.0964 24.4348 44.455C23.974 44.3424 23.4932 44.2826 23 44.2826C22.4208 44.2826 21.8588 44.365 21.3261 44.5187C18.8221 45.2411 16.9662 47.5389 17.0217 50.2609ZM18.4565 50.2609C18.3887 47.7525 20.4907 45.7174 23 45.7174C25.5093 45.7174 27.6113 47.7525 27.5435 50.2609C27.4774 52.7041 25.4442 54.5652 23 54.5652C20.5559 54.5652 18.5226 52.7041 18.4565 50.2609Z" fill="#FFC916"/>
<path d="M21.3261 44.5187C21.8588 44.365 22.4208 44.2826 23 44.2826C23.4932 44.2826 23.974 44.3424 24.4348 44.455V38.5435L21.3261 38.5435V44.5187Z" fill="#406FC7"/>
<path d="M23 45.7174C20.4907 45.7174 18.3887 47.7525 18.4565 50.2609C18.5226 52.7041 20.5559 54.5652 23 54.5652C25.4442 54.5652 27.4774 52.7041 27.5435 50.2609C27.6113 47.7525 25.5093 45.7174 23 45.7174Z" fill="#FFDE4F"/>
<path d="M20.6087 37.3478L20.6087 37.8261C20.6087 38.2223 20.9299 38.5435 21.3261 38.5435L24.4348 38.5435C24.9631 38.5435 25.3913 38.1152 25.3913 37.5869V37.3478H20.6087Z" fill="#FFC916"/>
<path d="M20.6087 37.3478H25.3913L25.3913 36.6304H20.6087V37.3478Z" fill="#FFDE4F"/>
<path d="M20.6087 36.6304H25.3913L25.3913 35.7751H20.6087L20.6087 36.6304Z" fill="#FFC916"/>
<path d="M20.6087 35.7751H25.3913L25.3913 35.0071H20.6087L20.6087 35.7751Z" fill="#FFDE4F"/>
<path d="M25.3913 34.2391H20.6087V35.0071H25.3913L25.3913 34.2391Z" fill="#FFC916"/>
<path fill-rule="evenodd" clip-rule="evenodd" d="M25.3913 34.2391H20.6087C20.6087 34.2391 20.1189 33.9295 19.8913 33.5217C19.7094 33.1958 19.7003 32.9133 19.6902 32.5972C19.6851 32.4388 19.6797 32.272 19.6522 32.087C19.5791 31.5959 19.5044 31.2531 19.3432 30.8913C19.2453 30.6716 19.1155 30.445 18.9348 30.1739C18.576 29.6357 18.2066 29.1717 17.8571 28.7325C17.6492 28.4713 17.4483 28.2189 17.2609 27.965C16.726 27.2404 16.3003 26.5034 16.1324 25.5136C16.1001 25.3234 16.0774 25.1237 16.0652 24.913C15.87 21.5313 18.1773 18.5164 21.3261 17.7104C21.8624 17.5732 22.4231 17.5 23 17.5C23.4928 17.5 23.9726 17.5533 24.4348 17.6544C27.6905 18.3661 30.07 21.4442 29.9348 24.913C29.9266 25.1231 29.9085 25.3228 29.8815 25.5136C29.7436 26.4885 29.3718 27.2342 28.8857 27.965C28.6667 28.2941 28.4246 28.6202 28.1702 28.9628C27.8915 29.3381 27.5981 29.7332 27.3044 30.1739C27.1505 30.4047 26.9915 30.5958 26.8402 30.7777C26.8084 30.8159 26.777 30.8537 26.746 30.8913C26.466 31.2317 26.2238 31.5613 26.1087 32.087C26.055 32.3323 26.0998 32.5453 26.143 32.7508C26.1962 33.0037 26.247 33.2452 26.1087 33.5217C25.9315 33.8761 25.3913 34.2391 25.3913 34.2391ZM25.3913 21H22.5L19.3432 26.5H23L22.1056 30.1739L26.5 24H23.5L25.3913 21Z" fill="white"/>
<path d="M22.5 21H25.3913L23.5 24H26.5L22.1056 30.1739L23 26.5H19.3432L22.5 21Z" fill="#FDD116"/>
<path d="M18.9348 30.1739L18.5188 30.4513L18.9348 30.1739ZM23 17.5V18V17.5ZM27.3044 30.1739L26.8883 29.8966L27.3044 30.1739ZM23 45.7174V45.2174V45.7174ZM18.4565 50.2609L17.9567 50.2744L18.4565 50.2609ZM23 54.5652V55.0652V54.5652ZM27.5435 50.2609L28.0433 50.2744L27.5435 50.2609ZM23.2391 12.7174V12.2174V12.7174ZM23.2391 2.43479V1.93479V2.43479ZM18.6957 6.97826L18.1958 6.99177L18.6957 6.97826ZM23.2391 11.2826V11.7826V11.2826ZM27.7826 6.97826L28.2824 6.99177L27.7826 6.97826ZM17.2609 27.965L17.6631 27.668V27.668L17.2609 27.965ZM22.5 21V20.5H22.2105L22.0664 20.7511L22.5 21ZM25.3913 21L25.8143 21.2667L26.2976 20.5H25.3913V21ZM23.5 24L23.077 23.7334L22.5937 24.5H23.5V24ZM26.5 24L26.9074 24.2899L27.4696 23.5H26.5V24ZM22.1056 30.1739L21.6198 30.0556L22.5129 30.4639L22.1056 30.1739ZM23 26.5L23.4858 26.6183L23.6363 26H23V26.5ZM19.3432 26.5L18.9095 26.2511L18.4797 27H19.3432V26.5ZM17.8571 28.7325L18.2483 28.4211L18.2483 28.4211L17.8571 28.7325ZM28.1702 28.9628L28.5716 29.2609V29.2609L28.1702 28.9628ZM26.8402 30.7777L26.4558 30.4579L26.4558 30.4579L26.8402 30.7777ZM25.3913 34.2391V33.7391H20.6087V34.2391V34.7391H25.3913V34.2391ZM2.43478 41.2174H1.93478V47.8261H2.43478H2.93478V41.2174H2.43478ZM3.43478 48.8261V49.3261H9.80435V48.8261V48.3261H3.43478V48.8261ZM10.8043 47.8261H11.3043V41.2174H10.8043H10.3043V47.8261H10.8043ZM9.80435 40.2174V39.7174H3.43478V40.2174V40.7174H9.80435V40.2174ZM2.43478 9.17392H1.93478V15.7826H2.43478H2.93478V9.17392H2.43478ZM3.43478 16.7826V17.2826H9.80435V16.7826V16.2826H3.43478V16.7826ZM10.8043 15.7826H11.3043V9.17391H10.8043H10.3043V15.7826H10.8043ZM9.80435 8.17392V7.67392H3.43478V8.17392V8.67392H9.80435V8.17392ZM35.1957 8.93479H34.6957V15.5435H35.1957H35.6957V8.93479H35.1957ZM36.1957 16.5435V17.0435H42.5652V16.5435V16.0435H36.1957V16.5435ZM43.5652 15.5435H44.0652V8.93478H43.5652H43.0652V15.5435H43.5652ZM42.5652 7.93479V7.43479H36.1957V7.93479V8.43479H42.5652V7.93479ZM35.1957 41.2174H34.6957V47.8261H35.1957H35.6957V41.2174H35.1957ZM36.1957 48.8261V49.3261H42.5652V48.8261V48.3261H36.1957V48.8261ZM43.5652 47.8261H44.0652V41.2174H43.5652H43.0652V47.8261H43.5652ZM42.5652 40.2174V39.7174H36.1957V40.2174V40.7174H42.5652V40.2174ZM23 45.7174V45.2174C20.2272 45.2174 17.8808 47.4671 17.9567 50.2744L18.4565 50.2609L18.9563 50.2474C18.8966 48.0379 20.7542 46.2174 23 46.2174V45.7174ZM18.4565 50.2609L17.9567 50.2744C18.0305 53.0057 20.3026 55.0652 23 55.0652V54.5652V54.0652C20.8091 54.0652 19.0146 52.4026 18.9563 50.2474L18.4565 50.2609ZM23 54.5652V55.0652C25.6974 55.0652 27.9695 53.0057 28.0433 50.2744L27.5435 50.2609L27.0437 50.2474C26.9854 52.4026 25.1909 54.0652 23 54.0652V54.5652ZM27.5435 50.2609L28.0433 50.2744C28.1192 47.4671 25.7728 45.2174 23 45.2174V45.7174V46.2174C25.2458 46.2174 27.1034 48.0379 27.0437 50.2474L27.5435 50.2609ZM23.2391 2.43479V1.93479C20.4663 1.93478 18.12 4.18448 18.1958 6.99177L18.6957 6.97826L19.1955 6.96475C19.1358 4.75528 20.9934 2.93478 23.2391 2.93479V2.43479ZM18.6957 6.97826L18.1958 6.99177C18.2697 9.72309 20.5417 11.7826 23.2391 11.7826V11.2826V10.7826C21.0482 10.7826 19.2537 9.11996 19.1955 6.96475L18.6957 6.97826ZM23.2391 11.2826V11.7826C25.9366 11.7826 28.2086 9.72309 28.2824 6.99177L27.7826 6.97826L27.2828 6.96475C27.2245 9.11995 25.43 10.7826 23.2391 10.7826V11.2826ZM27.7826 6.97826L28.2824 6.99177C28.3583 4.18449 26.012 1.93479 23.2391 1.93479V2.43479V2.93479C25.4849 2.93479 27.3425 4.75529 27.2828 6.96475L27.7826 6.97826ZM20.6087 37.3478V37.8478H25.3913V37.3478V36.8478H20.6087V37.3478ZM25.3913 36.6304V36.1304H20.6087V36.6304V37.1304H25.3913V36.6304ZM20.6087 35.7751V36.2751H25.3913V35.7751V35.2751H20.6087V35.7751ZM25.3913 35.0071V34.5071H20.6087V35.0071V35.5071H25.3913V35.0071ZM19.3432 30.8913L19.7999 30.6878C19.6869 30.4343 19.5413 30.1822 19.3508 29.8966L18.9348 30.1739L18.5188 30.4513C18.6897 30.7077 18.8037 30.909 18.8865 31.0948L19.3432 30.8913ZM9.13043 39.0217L9.13043 38.5217L5.54348 38.5217L5.54348 39.0217L5.54348 39.5217L9.13044 39.5217L9.13043 39.0217ZM23 44.2826V43.7826C22.3732 43.7826 21.7646 43.8718 21.1875 44.0383L21.3261 44.5187L21.4647 44.9991C21.953 44.8582 22.4684 44.7826 23 44.7826V44.2826ZM21.3261 38.5435L21.3261 39.0435L24.4348 39.0435L24.4348 38.5435L24.4348 38.0435L21.3261 38.0435L21.3261 38.5435ZM24.4348 44.455L24.5535 43.9693C24.0543 43.8473 23.5337 43.7826 23 43.7826V44.2826V44.7826C23.4527 44.7826 23.8936 44.8374 24.3161 44.9407L24.4348 44.455ZM21.3261 17.7104L21.4501 18.1948C21.9465 18.0678 22.4656 18 23 18V17.5V17C22.3806 17 21.7783 17.0786 21.2021 17.2261L21.3261 17.7104ZM21.3261 12.4134L21.1702 12.8885C21.8219 13.1023 22.5182 13.2174 23.2391 13.2174V12.7174V12.2174C22.625 12.2174 22.0339 12.1194 21.482 11.9383L21.3261 12.4134ZM23 17.5V18C23.4566 18 23.9006 18.0494 24.328 18.1428L24.4348 17.6544L24.5416 17.1659C24.0446 17.0573 23.529 17 23 17V17.5ZM23.2391 12.7174V13.2174C23.6806 13.2174 24.113 13.1742 24.5316 13.0916L24.4348 12.6011L24.338 12.1106C23.9829 12.1806 23.6154 12.2174 23.2391 12.2174V12.7174ZM17.2609 27.965C17.0573 27.5083 17.0572 27.5083 17.0572 27.5083C17.0572 27.5083 17.0572 27.5083 17.0572 27.5083C17.0571 27.5084 17.0571 27.5084 17.057 27.5084C17.0569 27.5085 17.0567 27.5085 17.0565 27.5086C17.0561 27.5088 17.0555 27.5091 17.0548 27.5094C17.0533 27.5101 17.0512 27.511 17.0485 27.5122C17.043 27.5147 17.035 27.5183 17.0246 27.523C17.0037 27.5324 16.9732 27.5463 16.9337 27.5643C16.8548 27.6004 16.7402 27.6534 16.5962 27.7212C16.3082 27.857 15.9021 28.0527 15.4281 28.2933L15.6544 28.7391L15.8807 29.185C16.3446 28.9495 16.7417 28.7581 17.0225 28.6258C17.1629 28.5596 17.274 28.5083 17.3498 28.4736C17.3877 28.4563 17.4167 28.4431 17.4361 28.4344C17.4457 28.43 17.453 28.4268 17.4578 28.4246C17.4602 28.4235 17.4619 28.4228 17.4631 28.4223C17.4636 28.422 17.464 28.4218 17.4643 28.4217C17.4644 28.4217 17.4645 28.4216 17.4645 28.4216C17.4645 28.4216 17.4645 28.4216 17.4645 28.4216C17.4645 28.4216 17.4645 28.4216 17.4645 28.4216C17.4645 28.4216 17.4645 28.4216 17.2609 27.965ZM5.06522 17.9783L5.06522 18.4783L8.89131 18.4782L8.8913 17.9782L8.8913 17.4782L5.06522 17.4783L5.06522 17.9783ZM17.2609 27.965L17.6631 27.668C17.1515 26.975 16.7749 26.3115 16.6254 25.43L16.1324 25.5136L15.6394 25.5973C15.8257 26.6954 16.3004 27.5059 16.8586 28.2619L17.2609 27.965ZM40.4565 39.0217V38.5217H36.8696V39.0217V39.5217H40.4565V39.0217ZM29.8815 25.5136L29.3865 25.4436C29.2625 26.3195 28.9308 26.9944 28.4694 27.688L28.8857 27.965L29.302 28.2419C29.8128 27.474 30.2246 26.6574 30.3766 25.5837L29.8815 25.5136ZM37.3478 17.7391V18.2391H40.9348V17.7391V17.2391H37.3478V17.7391ZM28.8857 27.965C28.6756 28.4187 28.6756 28.4187 28.6755 28.4187C28.6755 28.4187 28.6755 28.4187 28.6755 28.4187C28.6755 28.4187 28.6756 28.4187 28.6756 28.4187C28.6756 28.4187 28.6757 28.4187 28.6759 28.4188C28.6762 28.4189 28.6767 28.4192 28.6773 28.4195C28.6787 28.4201 28.6808 28.4211 28.6837 28.4225C28.6895 28.4251 28.6982 28.4292 28.7098 28.4347C28.733 28.4455 28.7676 28.4619 28.8127 28.4833C28.9028 28.5262 29.0346 28.5895 29.1997 28.6707C29.53 28.8329 29.9933 29.0661 30.5236 29.3489L30.7589 28.9077L30.9942 28.4665C30.4522 28.1775 29.9788 27.9392 29.6406 27.7731C29.4715 27.69 29.336 27.6249 29.2424 27.5804C29.1957 27.5581 29.1594 27.541 29.1346 27.5294C29.1222 27.5235 29.1127 27.5191 29.1062 27.5161C29.1029 27.5146 29.1004 27.5134 29.0987 27.5126C29.0978 27.5122 29.0971 27.5119 29.0967 27.5116C29.0964 27.5115 29.0962 27.5114 29.0961 27.5114C29.096 27.5113 29.0959 27.5113 29.0959 27.5113C29.0959 27.5113 29.0958 27.5113 29.0958 27.5113C29.0958 27.5113 29.0958 27.5112 28.8857 27.965ZM22.5 21V21.5H25.3913V21V20.5H22.5V21ZM25.3913 21L24.9683 20.7333L23.077 23.7334L23.5 24L23.923 24.2667L25.8143 21.2667L25.3913 21ZM23.5 24V24.5H26.5V24V23.5H23.5V24ZM26.5 24L26.0926 23.7101L21.6982 29.884L22.1056 30.1739L22.5129 30.4639L26.9074 24.2899L26.5 24ZM22.1056 30.1739L22.5914 30.2922L23.4858 26.6183L23 26.5L22.5142 26.3817L21.6198 30.0556L22.1056 30.1739ZM23 26.5V26H19.3432V26.5V27H23V26.5ZM19.3432 26.5L19.7768 26.7489L22.9336 21.2489L22.5 21L22.0664 20.7511L18.9095 26.2511L19.3432 26.5ZM18.9348 30.1739L19.3508 29.8966C18.9787 29.3384 18.5967 28.8588 18.2483 28.4211L17.8571 28.7325L17.4659 29.0439C17.8166 29.4845 18.1733 29.9331 18.5188 30.4513L18.9348 30.1739ZM17.8571 28.7325L18.2483 28.4211C18.0393 28.1586 17.8443 27.9133 17.6631 27.668L17.2609 27.965L16.8586 28.2619C17.0524 28.5244 17.2591 28.784 17.4659 29.0439L17.8571 28.7325ZM28.8857 27.965L28.4694 27.688C28.2589 28.0045 28.0247 28.32 27.7688 28.6647L28.1702 28.9628L28.5716 29.2609C28.8245 28.9203 29.0746 28.5837 29.302 28.2419L28.8857 27.965ZM28.1702 28.9628L27.7688 28.6647C27.4908 29.039 27.1901 29.4438 26.8883 29.8966L27.3044 30.1739L27.7204 30.4513C28.0061 30.0226 28.2922 29.6372 28.5716 29.2609L28.1702 28.9628ZM27.3044 30.1739L26.8883 29.8966C26.7512 30.1023 26.6083 30.2746 26.4558 30.4579L26.8402 30.7777L27.2245 31.0975C27.3746 30.9171 27.5499 30.707 27.7204 30.4513L27.3044 30.1739ZM26.8402 30.7777L26.4558 30.4579C26.4242 30.4959 26.3919 30.5347 26.3599 30.5736L26.746 30.8913L27.1321 31.2089C27.162 31.1726 27.1926 31.1359 27.2245 31.0975L26.8402 30.7777ZM43.5652 41.2174H44.0652C44.0652 40.389 43.3936 39.7174 42.5652 39.7174V40.2174V40.7174C42.8414 40.7174 43.0652 40.9413 43.0652 41.2174H43.5652ZM42.5652 48.8261V49.3261C43.3936 49.3261 44.0652 48.6545 44.0652 47.8261H43.5652H43.0652C43.0652 48.1022 42.8414 48.3261 42.5652 48.3261V48.8261ZM35.1957 47.8261H34.6957C34.6957 48.6545 35.3672 49.3261 36.1957 49.3261V48.8261V48.3261C35.9195 48.3261 35.6957 48.1022 35.6957 47.8261H35.1957ZM35.1957 41.2174H35.6957C35.6957 40.9413 35.9195 40.7174 36.1957 40.7174V40.2174V39.7174C35.3672 39.7174 34.6957 40.389 34.6957 41.2174H35.1957ZM43.5652 8.93478H44.0652C44.0652 8.10636 43.3936 7.43479 42.5652 7.43479V7.93479V8.43479C42.8414 8.43479 43.0652 8.65864 43.0652 8.93478H43.5652ZM42.5652 16.5435V17.0435C43.3936 17.0435 44.0652 16.3719 44.0652 15.5435H43.5652H43.0652C43.0652 15.8196 42.8414 16.0435 42.5652 16.0435V16.5435ZM35.1957 15.5435H34.6957C34.6957 16.3719 35.3672 17.0435 36.1957 17.0435V16.5435V16.0435C35.9195 16.0435 35.6957 15.8196 35.6957 15.5435H35.1957ZM35.1957 8.93479H35.6957C35.6957 8.65864 35.9195 8.43479 36.1957 8.43479V7.93479V7.43479C35.3672 7.43479 34.6957 8.10636 34.6957 8.93479H35.1957ZM10.8043 9.17391H11.3043C11.3043 8.34549 10.6328 7.67392 9.80435 7.67392V8.17392V8.67392C10.0805 8.67392 10.3043 8.89777 10.3043 9.17391H10.8043ZM9.80435 16.7826V17.2826C10.6328 17.2826 11.3043 16.611 11.3043 15.7826H10.8043H10.3043C10.3043 16.0588 10.0805 16.2826 9.80435 16.2826V16.7826ZM2.43478 15.7826H1.93478C1.93478 16.611 2.60636 17.2826 3.43478 17.2826V16.7826V16.2826C3.15864 16.2826 2.93478 16.0588 2.93478 15.7826H2.43478ZM10.8043 41.2174H11.3043C11.3043 40.389 10.6328 39.7174 9.80435 39.7174V40.2174V40.7174C10.0805 40.7174 10.3043 40.9413 10.3043 41.2174H10.8043ZM9.80435 48.8261V49.3261C10.6328 49.3261 11.3043 48.6545 11.3043 47.8261H10.8043H10.3043C10.3043 48.1022 10.0805 48.3261 9.80435 48.3261V48.8261ZM2.43478 47.8261H1.93478C1.93478 48.6545 2.60636 49.3261 3.43478 49.3261V48.8261V48.3261C3.15864 48.3261 2.93478 48.1022 2.93478 47.8261H2.43478ZM2.43478 41.2174H2.93478C2.93478 40.9413 3.15864 40.7174 3.43478 40.7174V40.2174V39.7174C2.60636 39.7174 1.93478 40.389 1.93478 41.2174H2.43478ZM2.43478 9.17392H2.93478C2.93478 8.89777 3.15864 8.67392 3.43478 8.67392V8.17392V7.67392C2.60636 7.67392 1.93478 8.34549 1.93478 9.17392H2.43478ZM17.0217 50.2609L18.0215 50.2405L17.0217 50.2609ZM28.9783 50.2609L27.9785 50.2405L28.9783 50.2609ZM20.6087 34.2391H21.6087V33.6883L21.1431 33.3939L20.6087 34.2391ZM25.3913 34.2391L24.8336 33.4091L24.3913 33.7063L24.3913 34.2391L25.3913 34.2391ZM19.8913 33.5217L19.0181 34.0091L19.8913 33.5217ZM19.6522 32.087L20.6413 31.9398L19.6522 32.087ZM16.0652 24.913L17.0636 24.8554L16.0652 24.913ZM29.9348 24.913L30.934 24.952L29.9348 24.913ZM26.1087 32.087L27.0856 32.3009L27.0856 32.3009L26.1087 32.087ZM26.1087 33.5217L25.2143 33.0745L26.1087 33.5217ZM17.2609 6.97826L18.2607 6.95786L17.2609 6.97826ZM29.2174 6.97826L28.2176 6.95786L29.2174 6.97826ZM20.6087 37.3478H19.6087V37.3478L20.6087 37.3478ZM25.3913 37.3478H26.3913V37.3478L25.3913 37.3478ZM25.3913 36.6304H24.3913V36.6304L25.3913 36.6304ZM20.6087 36.6304H19.6087H20.6087ZM20.6087 35.7751L19.6087 35.7751V35.7751H20.6087ZM25.3913 35.7751L24.3913 35.7751V35.7751H25.3913ZM25.3913 35.0071L24.3913 35.0071L25.3913 35.0071ZM20.6087 35.0071L21.6087 35.0071V35.0071H20.6087ZM9.13043 39.0217L8.31887 38.4375L7.17832 40.0217L9.13043 40.0217L9.13043 39.0217ZM13.6739 33.7609L13.0154 33.0083L13.6739 33.7609ZM19.3432 30.8913L20.2566 30.4842L19.8924 29.667L19.0399 29.9384L19.3432 30.8913ZM11.0435 31.6087L11.6924 32.3695L11.0435 31.6087ZM5.54348 39.0217L5.54348 40.0217H6.13816L6.42212 39.4992L5.54348 39.0217ZM21.3261 44.5187L21.6033 45.4795L22.3261 45.271V44.5187H21.3261ZM24.4348 44.455H23.4348V45.24L24.1973 45.4264L24.4348 44.455ZM21.3261 17.7104L21.574 18.6792L22.3261 18.4867V17.7104H21.3261ZM21.3261 12.4134H22.3261V11.6891L21.6378 11.4633L21.3261 12.4134ZM24.4348 17.6544H23.4348V18.4594L24.2212 18.6313L24.4348 17.6544ZM24.4348 12.6011L24.2412 11.62L23.4348 11.7792V12.6011H24.4348ZM15.6544 28.7391L16.1071 29.6308L17.8454 28.7484L16.1146 27.8513L15.6544 28.7391ZM9.6087 24.6739L8.91032 25.3896L9.6087 24.6739ZM5.06522 17.9783L5.95665 17.5251L5.67867 16.9783H5.06522V17.9783ZM8.8913 17.9782L8.89131 16.9782L7.24009 16.9782L8.00511 18.4416L8.8913 17.9782ZM11.7609 22.2826L12.4879 21.596L11.7609 22.2826ZM16.1324 25.5136L15.6312 26.379L17.4745 27.4466L17.1183 25.3464L16.1324 25.5136ZM26.746 30.8913L27.0991 29.9557L26.4288 29.7028L25.9737 30.256L26.746 30.8913ZM32.3261 33.7609L31.7155 34.5528L32.3261 33.7609ZM36.8696 39.0217V40.0217H38.7343L37.7025 38.4684L36.8696 39.0217ZM34.9565 31.6087L34.3044 32.3668L34.9565 31.6087ZM40.4565 39.0217L39.5791 39.5014L39.8635 40.0217H40.4565V39.0217ZM29.8815 25.5136L28.8914 25.3735L28.5807 27.5686L30.4318 26.3486L29.8815 25.5136ZM34 22.2826L34.7141 22.9826L34 22.2826ZM37.3478 17.7391L38.2024 18.2585L39.1259 16.7391H37.3478V17.7391ZM40.9348 17.7391V16.7391H40.316L40.0399 17.2929L40.9348 17.7391ZM36.3913 24.6739L35.6715 23.9797L36.3913 24.6739ZM30.7589 28.9077L30.2411 28.0523L28.737 28.9627L30.2883 29.7901L30.7589 28.9077ZM19.6902 32.5972L20.6896 32.5651L19.6902 32.5972ZM26.143 32.7508L25.1644 32.9566L25.1644 32.9566L26.143 32.7508ZM10.2391 17.9783L10.2391 16.9783L10.2391 17.9783ZM10.2391 39.0217L10.2391 38.0217L10.2391 39.0217ZM3 39.0217L3 38.0217L3 39.0217ZM20.6087 37.8261L21.6087 37.8261L20.6087 37.8261ZM17.0217 50.2609L16.022 50.2813C16.0996 54.0874 19.2459 57 23 57V56V55C20.2814 55 18.0759 52.9057 18.0215 50.2405L17.0217 50.2609ZM23 56V57C26.7541 57 29.9004 54.0874 29.9781 50.2813L28.9783 50.2609L27.9785 50.2405C27.9241 52.9057 25.7186 55 23 55V56ZM20.6087 34.2391C21.1431 33.3939 21.1432 33.394 21.1434 33.3941C21.1434 33.3941 21.1436 33.3942 21.1437 33.3943C21.1439 33.3944 21.1441 33.3945 21.1443 33.3946C21.1446 33.3949 21.145 33.3951 21.1453 33.3953C21.1459 33.3957 21.1464 33.396 21.1468 33.3963C21.1477 33.3968 21.1481 33.3971 21.1481 33.3971C21.1481 33.3971 21.1465 33.396 21.1435 33.394C21.1375 33.39 21.1261 33.3822 21.1105 33.3711C21.0789 33.3485 21.0334 33.3142 20.9833 33.2717C20.869 33.1744 20.7934 33.0861 20.7645 33.0344L19.8913 33.5217L19.0181 34.0091C19.2168 34.3651 19.4999 34.6355 19.6874 34.795C19.7882 34.8808 19.8794 34.9495 19.9467 34.9976C19.9806 35.0219 20.0092 35.0415 20.0309 35.056C20.0418 35.0633 20.0509 35.0693 20.0582 35.074C20.0619 35.0764 20.065 35.0785 20.0677 35.0802C20.0691 35.081 20.0703 35.0818 20.0714 35.0825C20.072 35.0829 20.0725 35.0832 20.073 35.0835C20.0732 35.0837 20.0734 35.0838 20.0737 35.084C20.0738 35.084 20.0739 35.0841 20.074 35.0842C20.0742 35.0843 20.0743 35.0844 20.6087 34.2391ZM26.1087 33.5217L25.2143 33.0745C25.2253 33.0524 25.222 33.0662 25.1789 33.114C25.1402 33.1569 25.0893 33.2055 25.0319 33.2548C24.9758 33.303 24.9224 33.3443 24.8832 33.3733C24.864 33.3876 24.8491 33.3982 24.8401 33.4045C24.8356 33.4077 24.8327 33.4097 24.8315 33.4105C24.831 33.4109 24.8308 33.411 24.8311 33.4108C24.8313 33.4106 24.8316 33.4105 24.832 33.4102C24.8322 33.41 24.8324 33.4099 24.8327 33.4097C24.8328 33.4096 24.8329 33.4095 24.8331 33.4094C24.8332 33.4094 24.8333 33.4093 24.8333 33.4093C24.8334 33.4092 24.8336 33.4091 25.3913 34.2391C25.9491 35.0691 25.9492 35.0691 25.9493 35.069C25.9494 35.0689 25.9495 35.0689 25.9496 35.0688C25.9498 35.0687 25.9499 35.0685 25.9501 35.0684C25.9505 35.0681 25.951 35.0679 25.9514 35.0675C25.9523 35.0669 25.9534 35.0662 25.9546 35.0654C25.957 35.0638 25.9599 35.0618 25.9633 35.0594C25.9701 35.0548 25.979 35.0486 25.9896 35.0411C26.0109 35.0262 26.0396 35.0057 26.0738 34.9804C26.1414 34.9303 26.2341 34.8587 26.3352 34.7718C26.5071 34.6242 26.8196 34.3361 27.0031 33.9689L26.1087 33.5217ZM1 41.0217H0V48.0217H1H2V41.0217H1ZM3 50.0217V51.0217H10.2391V50.0217V49.0217H3V50.0217ZM12.2391 48.0217H13.2391V41.0217H12.2391H11.2391V48.0217H12.2391ZM1 8.97826H0V15.9783H1H2V8.97826H1ZM12.2391 15.9783H13.2391V8.97826H12.2391H11.2391V15.9783H12.2391ZM10.2391 6.97826V5.97826H3V6.97826V7.97826H10.2391V6.97826ZM33.7609 8.73913H32.7609V15.7391H33.7609H34.7609V8.73913H33.7609ZM45 15.7391H46V8.73913H45H44V15.7391H45ZM43 6.73913V5.73913H35.7609V6.73913V7.73913H43V6.73913ZM33.7609 41.0217H32.7609V48.0217H33.7609H34.7609V41.0217H33.7609ZM35.7609 50.0217V51.0217H43V50.0217V49.0217H35.7609V50.0217ZM45 48.0217H46V41.0217H45H44V48.0217H45ZM23.2391 1V0C19.4041 0 16.1817 3.11094 16.2611 6.99867L17.2609 6.97826L18.2607 6.95786C18.2053 4.24355 20.4708 2 23.2391 2V1ZM29.2174 6.97826L30.2172 6.99867C30.2965 3.11094 27.0742 0 23.2391 0V1V2C26.0075 2 28.273 4.24355 28.2176 6.95786L29.2174 6.97826ZM20.6087 37.3478L19.6087 37.3478L19.6087 37.8261L20.6087 37.8261L21.6087 37.8261L21.6087 37.3478L20.6087 37.3478ZM25.3913 37.5869H26.3913V37.3478H25.3913H24.3913V37.5869H25.3913ZM25.3913 37.3478L26.3913 37.3478L26.3913 36.6304L25.3913 36.6304L24.3913 36.6304L24.3913 37.3478L25.3913 37.3478ZM20.6087 36.6304H19.6087V37.3478H20.6087H21.6087V36.6304H20.6087ZM20.6087 35.7751H19.6087L19.6087 36.6304H20.6087L21.6087 36.6304L21.6087 35.7751L20.6087 35.7751ZM25.3913 36.6304L26.3913 36.6304L26.3913 35.7751L25.3913 35.7751H24.3913L24.3913 36.6304H25.3913ZM25.3913 35.7751L26.3913 35.7751L26.3913 35.0071L25.3913 35.0071L24.3913 35.0071L24.3913 35.7751L25.3913 35.7751ZM25.3913 35.0071L26.3913 35.0071L26.3913 34.2391L25.3913 34.2391L24.3913 34.2391L24.3913 35.0071L25.3913 35.0071ZM20.6087 34.2391H19.6087V35.0071H20.6087H21.6087V34.2391H20.6087ZM20.6087 35.0071L19.6087 35.0071L19.6087 35.7751L20.6087 35.7751L21.6087 35.7751L21.6087 35.0071L20.6087 35.0071ZM10.2391 39.0217L10.2391 38.0217L9.13044 38.0217L9.13043 39.0217L9.13043 40.0217L10.2391 40.0217L10.2391 39.0217ZM9.13043 39.0217C9.942 39.606 9.94197 39.606 9.94194 39.6061C9.94195 39.6061 9.94194 39.6061 9.94195 39.6061C9.94197 39.606 9.94203 39.606 9.94212 39.6058C9.94232 39.6056 9.94266 39.6051 9.94316 39.6044C9.94414 39.603 9.94572 39.6008 9.94789 39.5978C9.95223 39.5918 9.95891 39.5826 9.96783 39.5704C9.98569 39.5458 10.0125 39.509 10.0477 39.4612C10.1179 39.3656 10.2212 39.2261 10.3518 39.0528C10.6131 38.7059 10.9826 38.2248 11.4145 37.6894C12.2885 36.6057 13.3796 35.3472 14.3324 34.5134L13.6739 33.7609L13.0154 33.0083C11.9253 33.9621 10.7447 35.334 9.85766 36.4339C9.40899 36.9902 9.02569 37.4892 8.75434 37.8494C8.61856 38.0296 8.51054 38.1755 8.43608 38.2768C8.39884 38.3275 8.36997 38.367 8.3502 38.3942C8.34031 38.4078 8.3327 38.4183 8.32745 38.4256C8.32482 38.4292 8.32279 38.432 8.32136 38.434C8.32064 38.435 8.32007 38.4358 8.31966 38.4364C8.31945 38.4367 8.31928 38.4369 8.31915 38.4371C8.31909 38.4372 8.31902 38.4373 8.31898 38.4373C8.31892 38.4374 8.31887 38.4375 9.13043 39.0217ZM19.6522 32.087L20.6413 31.9398C20.5637 31.4185 20.473 30.9699 20.2566 30.4842L19.3432 30.8913L18.4298 31.2984C18.5358 31.5362 18.5945 31.7734 18.6631 32.2341L19.6522 32.087ZM13.6739 33.7609L14.3324 34.5134C15.1659 33.7841 16.4627 33.1166 17.622 32.6166C18.1886 32.3722 18.6987 32.1777 19.0667 32.0446C19.2503 31.9781 19.3977 31.9272 19.4981 31.8933C19.5483 31.8764 19.5867 31.8637 19.6119 31.8554C19.6245 31.8513 19.6338 31.8483 19.6396 31.8464C19.6425 31.8455 19.6446 31.8448 19.6457 31.8444C19.6463 31.8443 19.6467 31.8441 19.6468 31.8441C19.6469 31.8441 19.6469 31.8441 19.6468 31.8441C19.6468 31.8441 19.6467 31.8441 19.6467 31.8441C19.6466 31.8442 19.6465 31.8442 19.3432 30.8913C19.0399 29.9384 19.0397 29.9384 19.0396 29.9385C19.0395 29.9385 19.0394 29.9386 19.0392 29.9386C19.0389 29.9387 19.0386 29.9388 19.0382 29.9389C19.0374 29.9392 19.0364 29.9395 19.0352 29.9399C19.0327 29.9407 19.0294 29.9418 19.0251 29.9431C19.0166 29.9459 19.0046 29.9498 18.9892 29.9548C18.9585 29.9649 18.9142 29.9795 18.858 29.9985C18.7455 30.0366 18.5845 30.0922 18.3861 30.1639C17.99 30.3073 17.4414 30.5164 16.8299 30.7801C15.6328 31.2964 14.095 32.0637 13.0154 33.0083L13.6739 33.7609ZM5.54348 39.0217L5.54348 38.0217L3 38.0217L3 39.0217L3 40.0217L5.54348 40.0217L5.54348 39.0217ZM11.0435 31.6087L10.3945 30.8478C8.91031 32.1138 7.47163 34.067 6.43086 35.6408C5.90297 36.4391 5.46325 37.1618 5.15527 37.6853C5.00113 37.9473 4.8796 38.1601 4.79611 38.3082C4.75436 38.3823 4.72209 38.4403 4.7 38.4803C4.68895 38.5003 4.68044 38.5157 4.67455 38.5265C4.67161 38.5318 4.66932 38.536 4.6677 38.539C4.66689 38.5405 4.66624 38.5417 4.66577 38.5425C4.66553 38.543 4.66533 38.5433 4.66518 38.5436C4.6651 38.5438 4.66502 38.5439 4.66498 38.544C4.6649 38.5441 4.66484 38.5442 5.54348 39.0217C6.42212 39.4992 6.42207 39.4993 6.42204 39.4994C6.42205 39.4994 6.42203 39.4994 6.42203 39.4994C6.42205 39.4994 6.4221 39.4993 6.4222 39.4991C6.42239 39.4987 6.42275 39.4981 6.42328 39.4971C6.42433 39.4952 6.42604 39.492 6.4284 39.4877C6.43311 39.4791 6.44042 39.4658 6.45023 39.4481C6.46986 39.4126 6.49952 39.3593 6.53852 39.2901C6.61654 39.1516 6.73185 38.9497 6.87906 38.6995C7.17379 38.1985 7.59482 37.5066 8.0991 36.744C9.12266 35.1962 10.434 33.4429 11.6924 32.3695L11.0435 31.6087ZM21.3261 44.5187L21.0489 43.5579C18.1407 44.3969 15.9565 47.0747 16.022 50.2813L17.0217 50.2609L18.0215 50.2405C17.9759 48.0031 19.5035 46.0853 21.6033 45.4795L21.3261 44.5187ZM21.3261 44.5187H22.3261V38.5435H21.3261H20.3261V44.5187H21.3261ZM28.9783 50.2609L29.9781 50.2813C30.0456 46.9735 27.7199 44.2285 24.6722 43.4836L24.4348 44.455L24.1973 45.4264C26.3976 45.9642 28.0256 47.9325 27.9785 50.2405L28.9783 50.2609ZM24.4348 38.5435H23.4348V44.455H24.4348H25.4348V38.5435H24.4348ZM16.0652 24.913L17.0636 24.8554C16.8965 21.962 18.8782 19.3692 21.574 18.6792L21.3261 17.7104L21.0781 16.7417C17.4763 17.6635 14.8435 21.1007 15.0669 24.9707L16.0652 24.913ZM17.2609 6.97826L16.2611 6.99867C16.3227 10.0162 18.3187 12.4792 21.0143 13.3636L21.3261 12.4134L21.6378 11.4633C19.7012 10.8279 18.3039 9.07686 18.2607 6.95786L17.2609 6.97826ZM21.3261 17.7104H22.3261V12.4134H21.3261H20.3261V17.7104H21.3261ZM24.4348 17.6544L24.2212 18.6313C26.9916 19.2369 29.0524 21.8773 28.9355 24.8741L29.9348 24.913L30.934 24.952C31.0877 21.0111 28.3894 17.4952 24.6483 16.6774L24.4348 17.6544ZM24.4348 12.6011L24.6284 13.5822C27.7385 12.9684 30.1494 10.3216 30.2172 6.99867L29.2174 6.97826L28.2176 6.95786C28.17 9.28867 26.4815 11.1779 24.2412 11.62L24.4348 12.6011ZM24.4348 17.6544H25.4348V12.6011H24.4348H23.4348V17.6544H24.4348ZM15.6544 28.7391L15.2018 27.8474C13.8198 28.5489 11.7667 29.6775 10.3945 30.8478L11.0435 31.6087L11.6924 32.3695C12.8684 31.3666 14.7334 30.3281 16.1071 29.6308L15.6544 28.7391ZM15.6544 28.7391C16.1146 27.8513 16.1147 27.8513 16.1147 27.8514C16.1147 27.8514 16.1148 27.8514 16.1148 27.8514C16.1147 27.8514 16.1147 27.8513 16.1145 27.8513C16.1143 27.8511 16.1138 27.8508 16.113 27.8505C16.1115 27.8497 16.109 27.8484 16.1057 27.8466C16.0989 27.8431 16.0884 27.8376 16.0744 27.8302C16.0464 27.8155 16.0043 27.7932 15.9495 27.764C15.8399 27.7054 15.6798 27.6189 15.4808 27.5086C15.0824 27.2879 14.5302 26.9732 13.9166 26.5983C12.6708 25.8372 11.2404 24.8689 10.3071 23.9582L9.6087 24.6739L8.91032 25.3896C10.0133 26.4659 11.6058 27.5302 12.8738 28.305C13.517 28.6979 14.0945 29.027 14.5115 29.2581C14.7202 29.3737 14.8893 29.4651 15.0069 29.5279C15.0657 29.5593 15.1117 29.5837 15.1434 29.6003C15.1593 29.6087 15.1715 29.6151 15.1801 29.6196C15.1843 29.6218 15.1877 29.6235 15.19 29.6248C15.1912 29.6254 15.1922 29.6259 15.1929 29.6262C15.1932 29.6264 15.1935 29.6266 15.1937 29.6267C15.1939 29.6267 15.194 29.6268 15.194 29.6268C15.1941 29.6269 15.1942 29.6269 15.6544 28.7391ZM3 17.9783V18.9783H5.06522V17.9783V16.9783H3V17.9783ZM9.6087 24.6739L10.3071 23.9582C9.27066 22.9469 8.18817 21.3635 7.34243 19.9776C6.92584 19.2949 6.57785 18.6789 6.33424 18.2339C6.21256 18.0116 6.11724 17.8326 6.05277 17.71C6.02054 17.6487 5.99603 17.6016 5.97982 17.5702C5.97172 17.5545 5.96569 17.5428 5.9618 17.5352C5.95986 17.5314 5.95845 17.5286 5.95759 17.527C5.95716 17.5261 5.95687 17.5255 5.95671 17.5252C5.95663 17.5251 5.95659 17.525 5.95658 17.525C5.95657 17.525 5.95659 17.525 5.95659 17.525C5.95662 17.525 5.95665 17.5251 5.06522 17.9783C4.17378 18.4314 4.17383 18.4315 4.1739 18.4316C4.17393 18.4317 4.174 18.4318 4.17406 18.432C4.17419 18.4322 4.17436 18.4325 4.17456 18.4329C4.17495 18.4337 4.17549 18.4348 4.17617 18.4361C4.17752 18.4387 4.17942 18.4425 4.18186 18.4472C4.18675 18.4568 4.19381 18.4705 4.20297 18.4882C4.22128 18.5237 4.24801 18.5751 4.28259 18.6409C4.35174 18.7724 4.45235 18.9613 4.57993 19.1943C4.83483 19.6599 5.19865 20.304 5.63521 21.0194C6.49579 22.4296 7.68504 24.1941 8.91032 25.3896L9.6087 24.6739ZM8.8913 17.9782L8.8913 18.9782L10.2391 18.9783L10.2391 17.9783L10.2391 16.9783L8.89131 16.9782L8.8913 17.9782ZM8.8913 17.9782C8.00511 18.4416 8.00515 18.4416 8.0052 18.4417C8.00522 18.4418 8.00528 18.4419 8.00533 18.442C8.00543 18.4422 8.00555 18.4424 8.00569 18.4427C8.00597 18.4432 8.00635 18.4439 8.00681 18.4448C8.00774 18.4466 8.00903 18.449 8.01067 18.4522C8.01395 18.4584 8.01865 18.4673 8.0247 18.4787C8.03681 18.5016 8.05438 18.5345 8.07701 18.5766C8.12227 18.6608 8.18788 18.7815 8.27073 18.9304C8.43623 19.2279 8.67162 19.6401 8.95203 20.1001C9.50242 21.0031 10.2645 22.1546 11.0338 22.9692L11.7609 22.2826L12.4879 21.596C11.8701 20.9419 11.1974 19.9412 10.6598 19.0592C10.3962 18.6267 10.1743 18.2382 10.0185 17.9581C9.94069 17.8183 9.87964 17.7059 9.83841 17.6293C9.8178 17.591 9.80217 17.5616 9.79188 17.5422C9.78674 17.5325 9.78294 17.5253 9.78053 17.5207C9.77932 17.5184 9.77846 17.5168 9.77796 17.5158C9.7777 17.5153 9.77754 17.515 9.77746 17.5149C9.77742 17.5148 9.77741 17.5148 9.77742 17.5148C9.77742 17.5148 9.77744 17.5148 9.77744 17.5148C9.77747 17.5149 9.7775 17.5149 8.8913 17.9782ZM16.1324 25.5136L17.1183 25.3464C17.0924 25.1936 17.0737 25.0306 17.0636 24.8554L16.0652 24.913L15.0669 24.9707C15.0811 25.2168 15.1079 25.4531 15.1465 25.6809L16.1324 25.5136ZM11.7609 22.2826L11.0338 22.9692C11.8424 23.8253 13.0124 24.6837 13.9337 25.3057C14.4031 25.6226 14.8249 25.8894 15.1298 26.0772C15.2824 26.1713 15.4062 26.2458 15.4926 26.2972C15.5357 26.323 15.5696 26.3429 15.5931 26.3567C15.6048 26.3636 15.6139 26.3689 15.6203 26.3727C15.6235 26.3745 15.6261 26.376 15.6279 26.377C15.6288 26.3776 15.6295 26.378 15.6301 26.3783C15.6304 26.3785 15.6306 26.3786 15.6308 26.3787C15.6309 26.3788 15.631 26.3789 15.631 26.3789C15.6311 26.3789 15.6312 26.379 16.1324 25.5136C16.6336 24.6483 16.6336 24.6483 16.6337 24.6484C16.6337 24.6484 16.6337 24.6484 16.6338 24.6484C16.6338 24.6484 16.6337 24.6484 16.6337 24.6483C16.6335 24.6483 16.6332 24.6481 16.6327 24.6478C16.6317 24.6472 16.63 24.6462 16.6277 24.6449C16.6229 24.6421 16.6155 24.6378 16.6056 24.6319C16.5856 24.6202 16.5555 24.6024 16.5161 24.579C16.4374 24.5321 16.3222 24.4627 16.1789 24.3744C15.8918 24.1976 15.4941 23.946 15.0528 23.6481C14.1527 23.0404 13.137 22.2833 12.4879 21.596L11.7609 22.2826ZM26.746 30.8913L25.9737 30.256C25.6641 30.6324 25.2986 31.1116 25.1318 31.873L26.1087 32.087L27.0856 32.3009C27.149 32.0109 27.2679 31.831 27.5183 31.5266L26.746 30.8913ZM26.746 30.8913C26.3929 31.8269 26.3929 31.8269 26.3928 31.8268L26.3928 31.8268C26.3928 31.8268 26.3928 31.8268 26.3929 31.8269C26.3931 31.827 26.3936 31.8271 26.3942 31.8274C26.3955 31.8279 26.3977 31.8287 26.4007 31.8298C26.4067 31.8321 26.4161 31.8357 26.4287 31.8405C26.4538 31.8502 26.4918 31.8649 26.5414 31.8843C26.6404 31.9231 26.7854 31.9807 26.966 32.0547C27.3277 32.2028 27.8298 32.4155 28.3902 32.6734C29.5308 33.1983 30.8394 33.8774 31.7155 34.5528L32.3261 33.7609L32.9367 32.9689C31.8721 32.1482 30.3907 31.3924 29.2264 30.8566C28.6344 30.5842 28.1053 30.36 27.7239 30.2038C27.533 30.1257 27.3785 30.0643 27.271 30.0221C27.2172 30.0011 27.1751 29.9848 27.146 29.9736C27.1315 29.968 27.1202 29.9637 27.1123 29.9607C27.1084 29.9592 27.1053 29.958 27.1031 29.9572C27.1019 29.9568 27.1011 29.9565 27.1004 29.9562C27.1001 29.9561 27.0998 29.956 27.0996 29.9559C27.0994 29.9558 27.0993 29.9558 27.0993 29.9558C27.0991 29.9557 27.0991 29.9557 26.746 30.8913ZM36.8696 39.0217V38.0217H35.7609V39.0217V40.0217H36.8696V39.0217ZM32.3261 33.7609L31.7155 34.5528C32.6859 35.3009 33.7582 36.5323 34.6165 37.6292C35.0383 38.1681 35.3951 38.6572 35.6463 39.0114C35.7718 39.1882 35.8705 39.3308 35.9373 39.4285C35.9707 39.4773 35.9961 39.5148 36.0129 39.5397C36.0212 39.5521 36.0275 39.5614 36.0314 39.5673C36.0334 39.5703 36.0349 39.5725 36.0357 39.5738C36.0362 39.5744 36.0364 39.5748 36.0366 39.5751C36.0367 39.5752 36.0367 39.5752 36.0367 39.5752L36.0367 39.5752C36.0366 39.5751 36.0366 39.5751 36.8696 39.0217C37.7025 38.4684 37.7025 38.4683 37.7024 38.4682C37.7024 38.4682 37.7023 38.468 37.7022 38.4679C37.7021 38.4677 37.7019 38.4674 37.7017 38.4671C37.7012 38.4665 37.7006 38.4656 37.6999 38.4645C37.6985 38.4623 37.6964 38.4592 37.6938 38.4554C37.6886 38.4476 37.6811 38.4364 37.6715 38.4221C37.6521 38.3934 37.624 38.3519 37.5878 38.2989C37.5153 38.193 37.4102 38.0411 37.2776 37.8543C37.0128 37.4809 36.6369 36.9657 36.1915 36.3966C35.3156 35.2773 34.1162 33.8783 32.9367 32.9689L32.3261 33.7609ZM43 39.0217V38.0217H40.4565V39.0217V40.0217H43V39.0217ZM34.9565 31.6087L34.3044 32.3668C35.5605 33.4472 36.8729 35.2025 37.8978 36.7491C38.4028 37.5113 38.8249 38.2025 39.1205 38.7027C39.2682 38.9526 39.3839 39.1542 39.4622 39.2925C39.5013 39.3616 39.5311 39.4148 39.5508 39.4503C39.5606 39.468 39.568 39.4813 39.5727 39.4899C39.5751 39.4942 39.5768 39.4973 39.5779 39.4992C39.5784 39.5002 39.5788 39.5009 39.579 39.5012C39.5791 39.5014 39.5791 39.5015 39.5791 39.5015C39.5791 39.5015 39.5791 39.5015 39.5791 39.5015C39.5791 39.5014 39.5791 39.5014 40.4565 39.0217C41.334 38.5421 41.3339 38.542 41.3339 38.5419C41.3338 38.5418 41.3337 38.5416 41.3337 38.5415C41.3335 38.5412 41.3333 38.5409 41.3331 38.5404C41.3326 38.5396 41.332 38.5384 41.3311 38.5369C41.3295 38.5339 41.3272 38.5298 41.3243 38.5244C41.3184 38.5137 41.3098 38.4983 41.2988 38.4784C41.2766 38.4385 41.2443 38.3807 41.2024 38.3068C41.1187 38.159 40.9969 37.9468 40.8424 37.6853C40.5337 37.1629 40.0932 36.4416 39.5649 35.6443C38.523 34.0721 37.0855 32.1209 35.6086 30.8506L34.9565 31.6087ZM29.9348 24.913L28.9355 24.8741C28.9286 25.0515 28.9135 25.2174 28.8914 25.3735L29.8815 25.5136L30.8717 25.6538C30.9036 25.4282 30.9246 25.1947 30.934 24.952L29.9348 24.913ZM29.8815 25.5136C30.4318 26.3486 30.4319 26.3486 30.432 26.3485C30.432 26.3485 30.4321 26.3484 30.4322 26.3484C30.4323 26.3483 30.4325 26.3482 30.4328 26.348C30.4332 26.3477 30.4339 26.3473 30.4347 26.3467C30.4363 26.3457 30.4385 26.3442 30.4414 26.3423C30.4471 26.3385 30.4554 26.333 30.466 26.326C30.4873 26.3118 30.5182 26.2912 30.5577 26.2646C30.6368 26.2114 30.7504 26.1345 30.8909 26.0378C31.1716 25.8445 31.5609 25.5714 31.9964 25.2513C32.8549 24.6203 33.9391 23.7732 34.7141 22.9826L34 22.2826L33.2859 21.5826C32.6299 22.2518 31.6548 23.0203 30.8119 23.6398C30.3966 23.945 30.0246 24.206 29.7567 24.3904C29.6229 24.4826 29.5154 24.5554 29.4419 24.6048C29.4051 24.6295 29.3769 24.6484 29.3581 24.6608C29.3487 24.6671 29.3417 24.6717 29.3372 24.6747C29.3349 24.6762 29.3333 24.6773 29.3323 24.678C29.3318 24.6783 29.3315 24.6785 29.3313 24.6786C29.3312 24.6787 29.3312 24.6787 29.3311 24.6787C29.3311 24.6787 29.3312 24.6787 29.3312 24.6787C29.3312 24.6787 29.3312 24.6787 29.8815 25.5136ZM35.7609 17.7391V18.7391H37.3478V17.7391V16.7391H35.7609V17.7391ZM34 22.2826L34.7141 22.9826C35.5497 22.1302 36.4272 20.934 37.0771 19.9862C37.4068 19.5056 37.6869 19.0756 37.8847 18.7656C37.9837 18.6104 38.0624 18.4849 38.1166 18.3976C38.1437 18.354 38.1648 18.3198 38.1792 18.2963C38.1865 18.2845 38.1921 18.2754 38.1959 18.2691C38.1979 18.2659 38.1994 18.2634 38.2004 18.2617C38.201 18.2608 38.2014 18.2601 38.2017 18.2596C38.2019 18.2593 38.202 18.2591 38.2021 18.2589C38.2022 18.2588 38.2022 18.2587 38.2023 18.2587C38.2023 18.2586 38.2024 18.2585 37.3478 17.7391C36.4933 17.2197 36.4933 17.2197 36.4934 17.2196C36.4934 17.2196 36.4934 17.2196 36.4934 17.2196C36.4934 17.2196 36.4933 17.2197 36.4933 17.2198C36.4932 17.22 36.4929 17.2203 36.4926 17.2209C36.4919 17.222 36.4908 17.2238 36.4893 17.2263C36.4862 17.2313 36.4815 17.2391 36.4751 17.2494C36.4624 17.2702 36.4431 17.3014 36.4179 17.342C36.3674 17.4232 36.293 17.542 36.1987 17.6898C36.0098 17.9858 35.7422 18.3966 35.4278 18.855C34.7896 19.7856 33.9931 20.8611 33.2859 21.5826L34 22.2826ZM40.9348 17.7391V18.7391H43V17.7391V16.7391H40.9348V17.7391ZM40.9348 17.7391C40.0399 17.2929 40.0399 17.2928 40.0399 17.2928C40.0399 17.2928 40.0399 17.2928 40.0399 17.2928C40.0399 17.2928 40.0399 17.2929 40.0398 17.2931C40.0396 17.2934 40.0393 17.294 40.0389 17.2949C40.038 17.2967 40.0365 17.2995 40.0346 17.3035C40.0306 17.3113 40.0245 17.3235 40.0163 17.3397C39.9999 17.372 39.9752 17.4206 39.9427 17.4837C39.8777 17.61 39.7816 17.7943 39.6591 18.0233C39.414 18.4817 39.064 19.1169 38.6456 19.8227C37.7976 21.2536 36.7102 22.9027 35.6715 23.9797L36.3913 24.6739L37.1111 25.3681C38.32 24.1146 39.5044 22.2964 40.3661 20.8425C40.8027 20.1059 41.1672 19.4444 41.4227 18.9666C41.5506 18.7275 41.6515 18.5339 41.7208 18.3993C41.7555 18.332 41.7823 18.2794 41.8006 18.2432C41.8098 18.2251 41.8168 18.2111 41.8217 18.2014C41.8241 18.1965 41.826 18.1927 41.8274 18.1901C41.828 18.1887 41.8286 18.1877 41.8289 18.1869C41.8291 18.1865 41.8293 18.1862 41.8294 18.1859C41.8295 18.1858 41.8296 18.1857 41.8296 18.1856C41.8296 18.1855 41.8297 18.1854 40.9348 17.7391ZM30.7589 28.9077L30.2883 29.7901C31.5976 30.4883 33.2389 31.4503 34.3044 32.3668L34.9565 31.6087L35.6086 30.8506C34.3636 29.7796 32.5533 28.7314 31.2295 28.0254L30.7589 28.9077ZM36.3913 24.6739L35.6715 23.9797C34.7885 24.8953 33.4487 25.9076 32.2889 26.7118C31.7168 27.1086 31.2026 27.4451 30.8317 27.6822C30.6464 27.8006 30.4974 27.894 30.3953 27.9574C30.3442 27.989 30.305 28.0132 30.2788 28.0292C30.2657 28.0372 30.2559 28.0432 30.2496 28.0471C30.2464 28.049 30.2441 28.0504 30.2427 28.0513C30.242 28.0517 30.2415 28.052 30.2412 28.0522C30.2411 28.0523 30.241 28.0523 30.241 28.0523C30.2409 28.0523 30.241 28.0523 30.241 28.0523C30.241 28.0523 30.2411 28.0523 30.7589 28.9077C31.2768 29.7632 31.2768 29.7631 31.2769 29.7631C31.277 29.7631 31.2771 29.763 31.2772 29.7629C31.2774 29.7628 31.2777 29.7626 31.278 29.7625C31.2786 29.7621 31.2795 29.7616 31.2806 29.7609C31.2827 29.7596 31.2858 29.7577 31.2897 29.7553C31.2976 29.7505 31.3089 29.7436 31.3235 29.7347C31.3528 29.7167 31.3954 29.6905 31.4499 29.6567C31.5588 29.5891 31.7155 29.491 31.909 29.3672C32.2957 29.12 32.8314 28.7694 33.4286 28.3553C34.6075 27.5378 36.0839 26.4332 37.1111 25.3681L36.3913 24.6739ZM19.8913 33.5217L20.7645 33.0344C20.7343 32.9802 20.7207 32.9369 20.7115 32.8842C20.6993 32.814 20.6951 32.7348 20.6896 32.5651L19.6902 32.5972L18.6907 32.6294C18.7008 32.9436 18.7061 33.45 19.0181 34.0091L19.8913 33.5217ZM19.6902 32.5972L20.6896 32.5651C20.6847 32.4107 20.6784 32.1895 20.6413 31.9398L19.6522 32.087L18.6631 32.2341C18.681 32.3544 18.6855 32.467 18.6907 32.6294L19.6902 32.5972ZM26.1087 32.087L25.1319 31.873C25.0265 32.3543 25.1242 32.7655 25.1644 32.9566L26.143 32.7508L27.1216 32.545C27.0753 32.3251 27.0835 32.3103 27.0856 32.3009L26.1087 32.087ZM26.143 32.7508L25.1644 32.9566C25.1785 33.0239 25.1866 33.0631 25.1923 33.0982C25.1974 33.1304 25.1978 33.1428 25.1978 33.1437C25.1978 33.1437 25.1977 33.1405 25.1982 33.1349C25.1987 33.1291 25.1997 33.1217 25.2015 33.1133C25.2054 33.0948 25.211 33.0811 25.2143 33.0745L26.1087 33.5217L27.0031 33.9689C27.3144 33.3464 27.1707 32.7785 27.1216 32.545L26.143 32.7508ZM45 41.0217H46C46 39.3649 44.6569 38.0217 43 38.0217V39.0217V40.0217C43.5523 40.0217 44 40.4695 44 41.0217H45ZM43 50.0217V51.0217C44.6569 51.0217 46 49.6786 46 48.0217H45H44C44 48.574 43.5523 49.0217 43 49.0217V50.0217ZM33.7609 48.0217H32.7609C32.7609 49.6786 34.104 51.0217 35.7609 51.0217V50.0217V49.0217C35.2086 49.0217 34.7609 48.574 34.7609 48.0217H33.7609ZM33.7609 41.0217H34.7609C34.7609 40.4695 35.2086 40.0217 35.7609 40.0217V39.0217V38.0217C34.104 38.0217 32.7609 39.3649 32.7609 41.0217H33.7609ZM45 8.73913H46C46 7.08228 44.6569 5.73913 43 5.73913V6.73913V7.73913C43.5523 7.73913 44 8.18685 44 8.73913H45ZM45 15.7391H44C44 16.2914 43.5523 16.7391 43 16.7391V17.7391V18.7391C44.6569 18.7391 46 17.396 46 15.7391H45ZM33.7609 15.7391H32.7609C32.7609 17.396 34.104 18.7391 35.7609 18.7391V17.7391V16.7391C35.2086 16.7391 34.7609 16.2914 34.7609 15.7391H33.7609ZM33.7609 8.73913H34.7609C34.7609 8.18685 35.2086 7.73913 35.7609 7.73913V6.73913V5.73913C34.104 5.73913 32.7609 7.08228 32.7609 8.73913H33.7609ZM12.2391 15.9783H11.2391C11.2391 16.5305 10.7914 16.9783 10.2391 16.9783L10.2391 17.9783L10.2391 18.9783C11.896 18.9783 13.2391 17.6351 13.2391 15.9783H12.2391ZM1 15.9783H0C0 17.6351 1.34315 18.9783 3 18.9783V17.9783V16.9783C2.44772 16.9783 2 16.5305 2 15.9783H1ZM1 8.97826H2C2 8.42598 2.44771 7.97826 3 7.97826V6.97826V5.97826C1.34314 5.97826 0 7.32141 0 8.97826H1ZM12.2391 41.0217H13.2391C13.2391 39.3649 11.896 38.0217 10.2391 38.0217L10.2391 39.0217L10.2391 40.0217C10.7914 40.0217 11.2391 40.4695 11.2391 41.0217H12.2391ZM10.2391 50.0217V51.0217C11.896 51.0217 13.2391 49.6786 13.2391 48.0217H12.2391H11.2391C11.2391 48.574 10.7914 49.0217 10.2391 49.0217V50.0217ZM1 48.0217H0C0 49.6786 1.34315 51.0217 3 51.0217V50.0217V49.0217C2.44772 49.0217 2 48.574 2 48.0217H1ZM1 41.0217H2C2 40.4695 2.44771 40.0217 3 40.0217L3 39.0217L3 38.0217C1.34314 38.0217 0 39.3649 0 41.0217H1ZM25.3913 37.5869H24.3913C24.3913 37.5629 24.4108 37.5435 24.4348 37.5435L24.4348 38.5435L24.4348 39.5435C25.5153 39.5435 26.3913 38.6675 26.3913 37.5869H25.3913ZM12.2391 8.97826H13.2391C13.2391 7.32141 11.896 5.97826 10.2391 5.97826V6.97826V7.97826C10.7914 7.97826 11.2391 8.42598 11.2391 8.97826H12.2391ZM20.6087 37.8261L19.6087 37.8261C19.6087 38.7746 20.3776 39.5435 21.3261 39.5435V38.5435V37.5435C21.4822 37.5435 21.6087 37.67 21.6087 37.8261L20.6087 37.8261Z" fill="black" mask="url(#path-1-outside-1_838_275)"/>
</g>
<defs>
<filter id="filter0_d_838_275" x="0" y="0" width="46" height="60" filterUnits="userSpaceOnUse" color-interpolation-filters="sRGB">
<feFlood flood-opacity="0" result="BackgroundImageFix"/>
<feColorMatrix in="SourceAlpha" type="matrix" values="0 0 0 0 0 0 0 0 0 0 0 0 0 0 0 0 0 0 127 0" result="hardAlpha"/>
<feOffset dy="3"/>
<feComposite in2="hardAlpha" operator="out"/>
<feColorMatrix type="matrix" values="0 0 0 0 0 0 0 0 0 0 0 0 0 0 0 0 0 0 0.25 0"/>
<feBlend mode="normal" in2="BackgroundImageFix" result="effect1_dropShadow_838_275"/>
<feBlend mode="normal" in="SourceGraphic" in2="effect1_dropShadow_838_275" result="shape"/>
</filter>
</defs>
</svg>
