<svg width="48" height="48" viewBox="0 0 48 48" fill="none" xmlns="http://www.w3.org/2000/svg">
<path d="M45.2823 23.8567C45.2823 35.601 35.6954 45.1331 23.8552 45.1331C12.015 45.1331 2.4281 35.601 2.4281 23.8567C2.4281 12.1124 12.015 2.58032 23.8552 2.58032C35.6954 2.58032 45.2823 12.1124 45.2823 23.8567Z" stroke="white" stroke-width="2"/>
<ellipse cx="23.855" cy="23.8572" rx="19.2544" ry="19.7689" fill="#CCCCCC" fill-opacity="0.04"/>
<g filter="url(#filter0_i_4196_2363)">
<path d="M18.2993 14.093L23.1216 18.8345C23.727 19.4299 24.6951 19.4389 25.3111 18.8549L30.3007 14.1248C30.9266 13.5315 31.9133 13.5516 32.5149 14.17L34.2964 16.0013C34.898 16.6197 34.8909 17.6068 34.2803 18.2161L29.6453 22.8414C29.025 23.4603 29.0289 24.4665 29.6539 25.081L34.1965 29.5475C34.8272 30.1677 34.8245 31.1851 34.1905 31.8015L32.1313 33.8037C31.5115 34.4064 30.5217 34.397 29.9129 33.7827L25.2847 29.1122C24.676 28.4979 23.6862 28.4886 23.0664 29.0912L18.2714 33.7534C17.6479 34.3596 16.651 34.3461 16.0438 33.7231L14.1128 31.7419C13.5046 31.1179 13.5178 30.1189 14.1424 29.5117L18.7326 25.0486C19.3609 24.4377 19.37 23.4316 18.7531 22.809L14.167 18.1811C13.5501 17.5585 13.5592 16.5523 14.1874 15.9415L16.0954 14.0864C16.7095 13.4893 17.6883 13.4922 18.2993 14.093Z" fill="#FFFDFD"/>
</g>
<g filter="url(#filter1_i_4196_2363)">
<path d="M18.2993 14.093L23.1215 18.8345C23.727 19.4299 24.695 19.4389 25.311 18.8549L30.3006 14.1248C30.9265 13.5315 31.9133 13.5516 32.5149 14.17L34.2963 16.0013C34.898 16.6197 34.8908 17.6068 34.2803 18.2161L29.6452 22.8414C29.025 23.4603 29.0289 24.4665 29.6539 25.081L34.1964 29.5475C34.8271 30.1677 34.8245 31.1851 34.1905 31.8015L32.1313 33.8037C31.5114 34.4064 30.5216 34.397 29.9129 33.7827L25.2847 29.1122C24.676 28.4979 23.6861 28.4886 23.0663 29.0912L18.2713 33.7534C17.6478 34.3596 16.6509 34.3461 16.0438 33.7231L14.1128 31.7419C13.5045 31.1179 13.5178 30.1189 14.1424 29.5117L18.7326 25.0486C19.3608 24.4377 19.37 23.4316 18.753 22.809L14.167 18.1811C13.55 17.5585 13.5592 16.5523 14.1874 15.9415L16.0954 14.0864C16.7095 13.4893 17.6883 13.4922 18.2993 14.093Z" fill="#FFFDFD"/>
</g>
<defs>
<filter id="filter0_i_4196_2363" x="13.6652" y="13.6404" width="21.0778" height="23.2361" filterUnits="userSpaceOnUse" color-interpolation-filters="sRGB">
<feFlood flood-opacity="0" result="BackgroundImageFix"/>
<feBlend mode="normal" in="SourceGraphic" in2="BackgroundImageFix" result="shape"/>
<feColorMatrix in="SourceAlpha" type="matrix" values="0 0 0 0 0 0 0 0 0 0 0 0 0 0 0 0 0 0 127 0" result="hardAlpha"/>
<feOffset dy="2.627"/>
<feGaussianBlur stdDeviation="2.1016"/>
<feComposite in2="hardAlpha" operator="arithmetic" k2="-1" k3="1"/>
<feColorMatrix type="matrix" values="0 0 0 0 0 0 0 0 0 0 0 0 0 0 0 0 0 0 0.25 0"/>
<feBlend mode="normal" in2="shape" result="effect1_innerShadow_4196_2363"/>
</filter>
<filter id="filter1_i_4196_2363" x="13.6651" y="13.6404" width="21.0778" height="23.2361" filterUnits="userSpaceOnUse" color-interpolation-filters="sRGB">
<feFlood flood-opacity="0" result="BackgroundImageFix"/>
<feBlend mode="normal" in="SourceGraphic" in2="BackgroundImageFix" result="shape"/>
<feColorMatrix in="SourceAlpha" type="matrix" values="0 0 0 0 0 0 0 0 0 0 0 0 0 0 0 0 0 0 127 0" result="hardAlpha"/>
<feOffset dy="2.627"/>
<feGaussianBlur stdDeviation="2.1016"/>
<feComposite in2="hardAlpha" operator="arithmetic" k2="-1" k3="1"/>
<feColorMatrix type="matrix" values="0 0 0 0 0 0 0 0 0 0 0 0 0 0 0 0 0 0 0.25 0"/>
<feBlend mode="normal" in2="shape" result="effect1_innerShadow_4196_2363"/>
</filter>
</defs>
</svg>
