<svg width="412" height="179" viewBox="0 0 412 179" fill="none" xmlns="http://www.w3.org/2000/svg">
<g filter="url(#filter0_d_4993_2568)">
<mask id="path-1-outside-1_4993_2568" maskUnits="userSpaceOnUse" x="22" y="142" width="367" height="30" fill="black">
<rect fill="white" x="22" y="142" width="367" height="30"/>
<path d="M42.4211 170.076C40.2171 170.076 39.0265 169.721 38.8491 169.012L37.5951 164.11H31.5531L30.4511 168.822C30.2991 169.607 29.0831 170 26.8031 170C25.5871 170 24.6878 169.937 24.1051 169.81C23.5225 169.658 23.2311 169.544 23.2311 169.468L29.9571 143.742C29.9571 143.539 31.6925 143.438 35.1631 143.438C38.6338 143.438 40.3691 143.539 40.3691 143.742L46.9431 169.506C46.9431 169.683 46.3605 169.823 45.1951 169.924C44.0298 170.025 43.1051 170.076 42.4211 170.076ZM32.5031 159.284H36.4931L34.7831 151.418H34.5551L32.5031 159.284ZM55.5216 143.78C55.4456 143.501 56.725 143.362 59.3596 143.362C62.273 143.362 63.7676 143.603 63.8436 144.084L65.7056 160.082L69.7336 143.894C69.8603 143.514 70.8483 143.324 72.6976 143.324C74.547 143.324 75.535 143.501 75.6616 143.856L79.6136 160.158L81.8176 144.008C81.8683 143.729 82.451 143.539 83.5656 143.438C84.6803 143.337 85.5796 143.286 86.2636 143.286C88.9236 143.286 90.2156 143.463 90.1396 143.818L85.5416 169.012C85.4403 169.392 84.7183 169.671 83.3756 169.848C82.033 170.025 80.9436 170.114 80.1076 170.114C76.9663 170.114 75.3196 169.759 75.1676 169.05L72.5836 158.6L69.7716 169.012C69.6703 169.468 68.7836 169.797 67.1116 170C66.2503 170.076 65.389 170.114 64.5276 170.114L62.0956 170C60.4236 169.823 59.537 169.506 59.4356 169.05L55.5216 143.78ZM103.386 170.38C99.8395 170.38 96.9389 169.215 94.6842 166.884C92.4549 164.553 91.3402 161.159 91.3402 156.7C91.3402 152.216 92.4675 148.821 94.7222 146.516C97.0022 144.211 99.9282 143.058 103.5 143.058C107.098 143.058 109.998 144.198 112.202 146.478C114.406 148.733 115.508 152.165 115.508 156.776C115.508 161.361 114.381 164.781 112.126 167.036C109.872 169.265 106.958 170.38 103.386 170.38ZM103.424 150.354C102.208 150.354 101.182 150.911 100.346 152.026C99.5355 153.141 99.1302 154.711 99.1302 156.738C99.1302 158.739 99.5229 160.285 100.308 161.374C101.094 162.438 102.12 162.97 103.386 162.97C104.678 162.97 105.717 162.425 106.502 161.336C107.313 160.247 107.718 158.689 107.718 156.662C107.718 154.635 107.3 153.077 106.464 151.988C105.654 150.899 104.64 150.354 103.424 150.354ZM125.817 169.468C125.817 169.873 124.614 170.076 122.207 170.076C119.775 170.076 118.559 169.886 118.559 169.506V144.73C118.559 143.843 119.028 143.4 119.965 143.4H127.223C133.886 143.4 137.217 145.997 137.217 151.19C137.217 152.761 136.913 154.192 136.305 155.484C135.697 156.751 134.836 157.764 133.721 158.524L138.509 166.504C138.307 167.112 137.648 167.809 136.533 168.594C135.013 169.683 133.759 170.228 132.771 170.228C131.783 170.228 131.049 169.873 130.567 169.164L126.995 160.842H125.817V169.468ZM125.817 150.126V155.826H126.007C128.414 155.826 129.617 154.825 129.617 152.824C129.617 151.912 129.377 151.241 128.895 150.81C128.439 150.354 127.679 150.126 126.615 150.126H125.817ZM140.593 167.758V144.122C140.593 143.59 141.873 143.324 144.431 143.324C147.015 143.324 148.307 143.59 148.307 144.122V162.742H154.159C154.615 162.742 154.932 163.337 155.109 164.528C155.185 165.111 155.223 165.706 155.223 166.314C155.223 166.922 155.185 167.543 155.109 168.176C154.907 169.392 154.577 170 154.121 170H142.417C141.86 170 141.417 169.772 141.087 169.316C140.758 168.86 140.593 168.341 140.593 167.758ZM157.487 168.252V145.452C157.487 144.819 157.639 144.325 157.943 143.97C158.272 143.59 158.69 143.4 159.197 143.4H165.543C169.571 143.4 172.624 144.413 174.701 146.44C176.804 148.467 177.855 151.659 177.855 156.016C177.855 165.339 173.878 170 165.923 170H159.425C158.133 170 157.487 169.417 157.487 168.252ZM164.783 150.62V161.982C164.783 162.514 164.821 162.856 164.897 163.008C164.973 163.135 165.201 163.198 165.581 163.198C166.974 163.198 168.026 162.679 168.735 161.64C169.47 160.601 169.837 158.879 169.837 156.472C169.837 154.04 169.457 152.457 168.697 151.722C167.962 150.987 166.784 150.62 165.163 150.62H164.783ZM199.503 169.392C199.503 169.899 198.249 170.152 195.741 170.152C193.233 170.152 191.979 169.899 191.979 169.392V150.316H187.419C186.988 150.316 186.684 149.733 186.507 148.568C186.431 148.011 186.393 147.441 186.393 146.858C186.393 146.275 186.431 145.705 186.507 145.148C186.684 143.983 186.988 143.4 187.419 143.4H203.949C204.38 143.4 204.684 143.983 204.861 145.148C204.937 145.705 204.975 146.275 204.975 146.858C204.975 147.441 204.937 148.011 204.861 148.568C204.684 149.733 204.38 150.316 203.949 150.316H199.503V169.392ZM218.425 170.38C214.879 170.38 211.978 169.215 209.723 166.884C207.494 164.553 206.379 161.159 206.379 156.7C206.379 152.216 207.507 148.821 209.761 146.516C212.041 144.211 214.967 143.058 218.539 143.058C222.137 143.058 225.037 144.198 227.241 146.478C229.445 148.733 230.547 152.165 230.547 156.776C230.547 161.361 229.42 164.781 227.165 167.036C224.911 169.265 221.997 170.38 218.425 170.38ZM218.463 150.354C217.247 150.354 216.221 150.911 215.385 152.026C214.575 153.141 214.169 154.711 214.169 156.738C214.169 158.739 214.562 160.285 215.347 161.374C216.133 162.438 217.159 162.97 218.425 162.97C219.717 162.97 220.756 162.425 221.541 161.336C222.352 160.247 222.757 158.689 222.757 156.662C222.757 154.635 222.339 153.077 221.503 151.988C220.693 150.899 219.679 150.354 218.463 150.354ZM253.11 153.964C253.592 153.964 253.832 154.851 253.832 156.624C253.832 157.156 253.769 157.789 253.642 158.524C253.541 159.233 253.338 159.588 253.034 159.588H248.208V163.388H255.2C255.631 163.388 255.922 163.945 256.074 165.06C256.15 165.541 256.188 166.061 256.188 166.618C256.188 167.15 256.112 167.847 255.96 168.708C255.808 169.569 255.555 170 255.2 170H242.204C241.242 170 240.76 169.607 240.76 168.822V144.388C240.76 143.729 241.052 143.4 241.634 143.4H255.238C255.77 143.4 256.036 144.527 256.036 146.782C256.036 149.011 255.77 150.126 255.238 150.126H248.208V153.964H253.11ZM273.599 144.426C273.903 143.666 275.486 143.286 278.349 143.286C279.083 143.286 279.983 143.349 281.047 143.476C282.136 143.577 282.681 143.679 282.681 143.78L276.221 156.928L282.909 169.506C282.985 169.633 282.44 169.759 281.275 169.886C280.109 169.987 279.121 170.038 278.311 170.038C275.093 170.038 273.333 169.607 273.029 168.746L270.179 161.488L267.595 168.974C267.341 169.683 265.72 170.038 262.731 170.038C261.996 170.038 261.084 169.987 259.995 169.886C258.905 169.785 258.411 169.645 258.513 169.468L264.441 156.32L258.285 143.78C258.209 143.653 258.728 143.539 259.843 143.438C260.983 143.311 261.945 143.248 262.731 143.248C265.923 143.248 267.671 143.704 267.975 144.616L270.597 151L273.599 144.426ZM288.746 170.076C286.441 170.076 285.288 169.823 285.288 169.316V144.692C285.288 143.831 285.681 143.4 286.466 143.4H293.154C296.903 143.4 299.601 144.173 301.248 145.718C302.92 147.263 303.756 149.505 303.756 152.444C303.756 154.876 302.971 157.105 301.4 159.132C300.615 160.145 299.462 160.956 297.942 161.564C296.422 162.172 294.649 162.476 292.622 162.476V169.278C292.622 169.582 292.141 169.797 291.178 169.924C290.241 170.025 289.43 170.076 288.746 170.076ZM292.622 150.012V156.016H293.116C294.003 156.016 294.75 155.737 295.358 155.18C295.966 154.623 296.27 153.837 296.27 152.824C296.27 151.811 296.055 151.089 295.624 150.658C295.219 150.227 294.484 150.012 293.42 150.012H292.622ZM306.732 167.758V144.122C306.732 143.59 308.011 143.324 310.57 143.324C313.154 143.324 314.446 143.59 314.446 144.122V162.742H320.298C320.754 162.742 321.071 163.337 321.248 164.528C321.324 165.111 321.362 165.706 321.362 166.314C321.362 166.922 321.324 167.543 321.248 168.176C321.045 169.392 320.716 170 320.26 170H308.556C307.999 170 307.555 169.772 307.226 169.316C306.897 168.86 306.732 168.341 306.732 167.758ZM334.912 170.38C331.365 170.38 328.464 169.215 326.21 166.884C323.98 164.553 322.866 161.159 322.866 156.7C322.866 152.216 323.993 148.821 326.248 146.516C328.528 144.211 331.454 143.058 335.026 143.058C338.623 143.058 341.524 144.198 343.728 146.478C345.932 148.733 347.034 152.165 347.034 156.776C347.034 161.361 345.906 164.781 343.652 167.036C341.397 169.265 338.484 170.38 334.912 170.38ZM334.95 150.354C333.734 150.354 332.708 150.911 331.872 152.026C331.061 153.141 330.656 154.711 330.656 156.738C330.656 158.739 331.048 160.285 331.834 161.374C332.619 162.438 333.645 162.97 334.912 162.97C336.204 162.97 337.242 162.425 338.028 161.336C338.838 160.247 339.244 158.689 339.244 156.662C339.244 154.635 338.826 153.077 337.99 151.988C337.179 150.899 336.166 150.354 334.95 150.354ZM357.343 169.468C357.343 169.873 356.139 170.076 353.733 170.076C351.301 170.076 350.085 169.886 350.085 169.506V144.73C350.085 143.843 350.553 143.4 351.491 143.4H358.749C365.411 143.4 368.743 145.997 368.743 151.19C368.743 152.761 368.439 154.192 367.831 155.484C367.223 156.751 366.361 157.764 365.247 158.524L370.035 166.504C369.832 167.112 369.173 167.809 368.059 168.594C366.539 169.683 365.285 170.228 364.297 170.228C363.309 170.228 362.574 169.873 362.093 169.164L358.521 160.842H357.343V169.468ZM357.343 150.126V155.826H357.533C359.939 155.826 361.143 154.825 361.143 152.824C361.143 151.912 360.902 151.241 360.421 150.81C359.965 150.354 359.205 150.126 358.141 150.126H357.343ZM384.849 153.964C385.33 153.964 385.571 154.851 385.571 156.624C385.571 157.156 385.507 157.789 385.381 158.524C385.279 159.233 385.077 159.588 384.773 159.588H379.947V163.388H386.939C387.369 163.388 387.661 163.945 387.813 165.06C387.889 165.541 387.927 166.061 387.927 166.618C387.927 167.15 387.851 167.847 387.699 168.708C387.547 169.569 387.293 170 386.939 170H373.943C372.98 170 372.499 169.607 372.499 168.822V144.388C372.499 143.729 372.79 143.4 373.373 143.4H386.977C387.509 143.4 387.775 144.527 387.775 146.782C387.775 149.011 387.509 150.126 386.977 150.126H379.947V153.964H384.849Z"/>
</mask>
<path d="M42.4211 170.076C40.2171 170.076 39.0265 169.721 38.8491 169.012L37.5951 164.11H31.5531L30.4511 168.822C30.2991 169.607 29.0831 170 26.8031 170C25.5871 170 24.6878 169.937 24.1051 169.81C23.5225 169.658 23.2311 169.544 23.2311 169.468L29.9571 143.742C29.9571 143.539 31.6925 143.438 35.1631 143.438C38.6338 143.438 40.3691 143.539 40.3691 143.742L46.9431 169.506C46.9431 169.683 46.3605 169.823 45.1951 169.924C44.0298 170.025 43.1051 170.076 42.4211 170.076ZM32.5031 159.284H36.4931L34.7831 151.418H34.5551L32.5031 159.284ZM55.5216 143.78C55.4456 143.501 56.725 143.362 59.3596 143.362C62.273 143.362 63.7676 143.603 63.8436 144.084L65.7056 160.082L69.7336 143.894C69.8603 143.514 70.8483 143.324 72.6976 143.324C74.547 143.324 75.535 143.501 75.6616 143.856L79.6136 160.158L81.8176 144.008C81.8683 143.729 82.451 143.539 83.5656 143.438C84.6803 143.337 85.5796 143.286 86.2636 143.286C88.9236 143.286 90.2156 143.463 90.1396 143.818L85.5416 169.012C85.4403 169.392 84.7183 169.671 83.3756 169.848C82.033 170.025 80.9436 170.114 80.1076 170.114C76.9663 170.114 75.3196 169.759 75.1676 169.05L72.5836 158.6L69.7716 169.012C69.6703 169.468 68.7836 169.797 67.1116 170C66.2503 170.076 65.389 170.114 64.5276 170.114L62.0956 170C60.4236 169.823 59.537 169.506 59.4356 169.05L55.5216 143.78ZM103.386 170.38C99.8395 170.38 96.9389 169.215 94.6842 166.884C92.4549 164.553 91.3402 161.159 91.3402 156.7C91.3402 152.216 92.4675 148.821 94.7222 146.516C97.0022 144.211 99.9282 143.058 103.5 143.058C107.098 143.058 109.998 144.198 112.202 146.478C114.406 148.733 115.508 152.165 115.508 156.776C115.508 161.361 114.381 164.781 112.126 167.036C109.872 169.265 106.958 170.38 103.386 170.38ZM103.424 150.354C102.208 150.354 101.182 150.911 100.346 152.026C99.5355 153.141 99.1302 154.711 99.1302 156.738C99.1302 158.739 99.5229 160.285 100.308 161.374C101.094 162.438 102.12 162.97 103.386 162.97C104.678 162.97 105.717 162.425 106.502 161.336C107.313 160.247 107.718 158.689 107.718 156.662C107.718 154.635 107.3 153.077 106.464 151.988C105.654 150.899 104.64 150.354 103.424 150.354ZM125.817 169.468C125.817 169.873 124.614 170.076 122.207 170.076C119.775 170.076 118.559 169.886 118.559 169.506V144.73C118.559 143.843 119.028 143.4 119.965 143.4H127.223C133.886 143.4 137.217 145.997 137.217 151.19C137.217 152.761 136.913 154.192 136.305 155.484C135.697 156.751 134.836 157.764 133.721 158.524L138.509 166.504C138.307 167.112 137.648 167.809 136.533 168.594C135.013 169.683 133.759 170.228 132.771 170.228C131.783 170.228 131.049 169.873 130.567 169.164L126.995 160.842H125.817V169.468ZM125.817 150.126V155.826H126.007C128.414 155.826 129.617 154.825 129.617 152.824C129.617 151.912 129.377 151.241 128.895 150.81C128.439 150.354 127.679 150.126 126.615 150.126H125.817ZM140.593 167.758V144.122C140.593 143.59 141.873 143.324 144.431 143.324C147.015 143.324 148.307 143.59 148.307 144.122V162.742H154.159C154.615 162.742 154.932 163.337 155.109 164.528C155.185 165.111 155.223 165.706 155.223 166.314C155.223 166.922 155.185 167.543 155.109 168.176C154.907 169.392 154.577 170 154.121 170H142.417C141.86 170 141.417 169.772 141.087 169.316C140.758 168.86 140.593 168.341 140.593 167.758ZM157.487 168.252V145.452C157.487 144.819 157.639 144.325 157.943 143.97C158.272 143.59 158.69 143.4 159.197 143.4H165.543C169.571 143.4 172.624 144.413 174.701 146.44C176.804 148.467 177.855 151.659 177.855 156.016C177.855 165.339 173.878 170 165.923 170H159.425C158.133 170 157.487 169.417 157.487 168.252ZM164.783 150.62V161.982C164.783 162.514 164.821 162.856 164.897 163.008C164.973 163.135 165.201 163.198 165.581 163.198C166.974 163.198 168.026 162.679 168.735 161.64C169.47 160.601 169.837 158.879 169.837 156.472C169.837 154.04 169.457 152.457 168.697 151.722C167.962 150.987 166.784 150.62 165.163 150.62H164.783ZM199.503 169.392C199.503 169.899 198.249 170.152 195.741 170.152C193.233 170.152 191.979 169.899 191.979 169.392V150.316H187.419C186.988 150.316 186.684 149.733 186.507 148.568C186.431 148.011 186.393 147.441 186.393 146.858C186.393 146.275 186.431 145.705 186.507 145.148C186.684 143.983 186.988 143.4 187.419 143.4H203.949C204.38 143.4 204.684 143.983 204.861 145.148C204.937 145.705 204.975 146.275 204.975 146.858C204.975 147.441 204.937 148.011 204.861 148.568C204.684 149.733 204.38 150.316 203.949 150.316H199.503V169.392ZM218.425 170.38C214.879 170.38 211.978 169.215 209.723 166.884C207.494 164.553 206.379 161.159 206.379 156.7C206.379 152.216 207.507 148.821 209.761 146.516C212.041 144.211 214.967 143.058 218.539 143.058C222.137 143.058 225.037 144.198 227.241 146.478C229.445 148.733 230.547 152.165 230.547 156.776C230.547 161.361 229.42 164.781 227.165 167.036C224.911 169.265 221.997 170.38 218.425 170.38ZM218.463 150.354C217.247 150.354 216.221 150.911 215.385 152.026C214.575 153.141 214.169 154.711 214.169 156.738C214.169 158.739 214.562 160.285 215.347 161.374C216.133 162.438 217.159 162.97 218.425 162.97C219.717 162.97 220.756 162.425 221.541 161.336C222.352 160.247 222.757 158.689 222.757 156.662C222.757 154.635 222.339 153.077 221.503 151.988C220.693 150.899 219.679 150.354 218.463 150.354ZM253.11 153.964C253.592 153.964 253.832 154.851 253.832 156.624C253.832 157.156 253.769 157.789 253.642 158.524C253.541 159.233 253.338 159.588 253.034 159.588H248.208V163.388H255.2C255.631 163.388 255.922 163.945 256.074 165.06C256.15 165.541 256.188 166.061 256.188 166.618C256.188 167.15 256.112 167.847 255.96 168.708C255.808 169.569 255.555 170 255.2 170H242.204C241.242 170 240.76 169.607 240.76 168.822V144.388C240.76 143.729 241.052 143.4 241.634 143.4H255.238C255.77 143.4 256.036 144.527 256.036 146.782C256.036 149.011 255.77 150.126 255.238 150.126H248.208V153.964H253.11ZM273.599 144.426C273.903 143.666 275.486 143.286 278.349 143.286C279.083 143.286 279.983 143.349 281.047 143.476C282.136 143.577 282.681 143.679 282.681 143.78L276.221 156.928L282.909 169.506C282.985 169.633 282.44 169.759 281.275 169.886C280.109 169.987 279.121 170.038 278.311 170.038C275.093 170.038 273.333 169.607 273.029 168.746L270.179 161.488L267.595 168.974C267.341 169.683 265.72 170.038 262.731 170.038C261.996 170.038 261.084 169.987 259.995 169.886C258.905 169.785 258.411 169.645 258.513 169.468L264.441 156.32L258.285 143.78C258.209 143.653 258.728 143.539 259.843 143.438C260.983 143.311 261.945 143.248 262.731 143.248C265.923 143.248 267.671 143.704 267.975 144.616L270.597 151L273.599 144.426ZM288.746 170.076C286.441 170.076 285.288 169.823 285.288 169.316V144.692C285.288 143.831 285.681 143.4 286.466 143.4H293.154C296.903 143.4 299.601 144.173 301.248 145.718C302.92 147.263 303.756 149.505 303.756 152.444C303.756 154.876 302.971 157.105 301.4 159.132C300.615 160.145 299.462 160.956 297.942 161.564C296.422 162.172 294.649 162.476 292.622 162.476V169.278C292.622 169.582 292.141 169.797 291.178 169.924C290.241 170.025 289.43 170.076 288.746 170.076ZM292.622 150.012V156.016H293.116C294.003 156.016 294.75 155.737 295.358 155.18C295.966 154.623 296.27 153.837 296.27 152.824C296.27 151.811 296.055 151.089 295.624 150.658C295.219 150.227 294.484 150.012 293.42 150.012H292.622ZM306.732 167.758V144.122C306.732 143.59 308.011 143.324 310.57 143.324C313.154 143.324 314.446 143.59 314.446 144.122V162.742H320.298C320.754 162.742 321.071 163.337 321.248 164.528C321.324 165.111 321.362 165.706 321.362 166.314C321.362 166.922 321.324 167.543 321.248 168.176C321.045 169.392 320.716 170 320.26 170H308.556C307.999 170 307.555 169.772 307.226 169.316C306.897 168.86 306.732 168.341 306.732 167.758ZM334.912 170.38C331.365 170.38 328.464 169.215 326.21 166.884C323.98 164.553 322.866 161.159 322.866 156.7C322.866 152.216 323.993 148.821 326.248 146.516C328.528 144.211 331.454 143.058 335.026 143.058C338.623 143.058 341.524 144.198 343.728 146.478C345.932 148.733 347.034 152.165 347.034 156.776C347.034 161.361 345.906 164.781 343.652 167.036C341.397 169.265 338.484 170.38 334.912 170.38ZM334.95 150.354C333.734 150.354 332.708 150.911 331.872 152.026C331.061 153.141 330.656 154.711 330.656 156.738C330.656 158.739 331.048 160.285 331.834 161.374C332.619 162.438 333.645 162.97 334.912 162.97C336.204 162.97 337.242 162.425 338.028 161.336C338.838 160.247 339.244 158.689 339.244 156.662C339.244 154.635 338.826 153.077 337.99 151.988C337.179 150.899 336.166 150.354 334.95 150.354ZM357.343 169.468C357.343 169.873 356.139 170.076 353.733 170.076C351.301 170.076 350.085 169.886 350.085 169.506V144.73C350.085 143.843 350.553 143.4 351.491 143.4H358.749C365.411 143.4 368.743 145.997 368.743 151.19C368.743 152.761 368.439 154.192 367.831 155.484C367.223 156.751 366.361 157.764 365.247 158.524L370.035 166.504C369.832 167.112 369.173 167.809 368.059 168.594C366.539 169.683 365.285 170.228 364.297 170.228C363.309 170.228 362.574 169.873 362.093 169.164L358.521 160.842H357.343V169.468ZM357.343 150.126V155.826H357.533C359.939 155.826 361.143 154.825 361.143 152.824C361.143 151.912 360.902 151.241 360.421 150.81C359.965 150.354 359.205 150.126 358.141 150.126H357.343ZM384.849 153.964C385.33 153.964 385.571 154.851 385.571 156.624C385.571 157.156 385.507 157.789 385.381 158.524C385.279 159.233 385.077 159.588 384.773 159.588H379.947V163.388H386.939C387.369 163.388 387.661 163.945 387.813 165.06C387.889 165.541 387.927 166.061 387.927 166.618C387.927 167.15 387.851 167.847 387.699 168.708C387.547 169.569 387.293 170 386.939 170H373.943C372.98 170 372.499 169.607 372.499 168.822V144.388C372.499 143.729 372.79 143.4 373.373 143.4H386.977C387.509 143.4 387.775 144.527 387.775 146.782C387.775 149.011 387.509 150.126 386.977 150.126H379.947V153.964H384.849Z" fill="white" shape-rendering="crispEdges"/>
<path d="M38.8491 169.012L39.8193 168.769L39.8179 168.764L38.8491 169.012ZM37.5951 164.11L38.5639 163.862L38.3715 163.11H37.5951V164.11ZM31.5531 164.11V163.11H30.76L30.5794 163.882L31.5531 164.11ZM30.4511 168.822L29.4774 168.594L29.473 168.613L29.4694 168.632L30.4511 168.822ZM24.1051 169.81L23.8527 170.778L23.8726 170.783L23.8927 170.787L24.1051 169.81ZM23.2311 169.468L22.2637 169.215L22.2311 169.339V169.468H23.2311ZM29.9571 143.742L30.9246 143.995L30.9571 143.871V143.742H29.9571ZM40.3691 143.742H39.3691V143.868L39.4002 143.989L40.3691 143.742ZM46.9431 169.506H47.9431V169.38L47.9121 169.259L46.9431 169.506ZM45.1951 169.924L45.1085 168.928L45.1951 169.924ZM32.5031 159.284L31.5355 159.032L31.2088 160.284H32.5031V159.284ZM36.4931 159.284V160.284H37.7339L37.4703 159.072L36.4931 159.284ZM34.7831 151.418L35.7603 151.206L35.5891 150.418H34.7831V151.418ZM34.5551 151.418V150.418H33.7825L33.5875 151.166L34.5551 151.418ZM42.4211 169.076C41.3534 169.076 40.6181 168.988 40.1606 168.852C39.6614 168.703 39.7749 168.592 39.8193 168.769L37.879 169.255C38.1007 170.142 38.8982 170.562 39.5897 170.768C40.3228 170.987 41.2849 171.076 42.4211 171.076V169.076ZM39.8179 168.764L38.5639 163.862L36.6263 164.358L37.8803 169.26L39.8179 168.764ZM37.5951 163.11H31.5531V165.11H37.5951V163.11ZM30.5794 163.882L29.4774 168.594L31.4249 169.05L32.5269 164.338L30.5794 163.882ZM29.4694 168.632C29.4977 168.486 29.6002 168.598 29.1178 168.754C28.658 168.902 27.907 169 26.8031 169V171C27.9792 171 28.9762 170.901 29.7324 170.657C30.4661 170.42 31.2526 169.944 31.4329 169.012L29.4694 168.632ZM26.8031 169C25.6009 169 24.7905 168.936 24.3176 168.833L23.8927 170.787C24.5851 170.938 25.5734 171 26.8031 171V169ZM24.3576 168.842C24.0763 168.769 23.9036 168.714 23.814 168.679C23.763 168.659 23.7829 168.663 23.832 168.695C23.8553 168.71 23.9287 168.759 24.006 168.85C24.0795 168.936 24.2311 169.149 24.2311 169.468H22.2311C22.2311 169.806 22.3919 170.039 22.4835 170.147C22.5791 170.259 22.6798 170.331 22.7395 170.37C22.8614 170.449 22.9906 170.505 23.0852 170.542C23.287 170.621 23.5513 170.699 23.8527 170.778L24.3576 168.842ZM24.1986 169.721L30.9246 143.995L28.9897 143.489L22.2637 169.215L24.1986 169.721ZM30.9571 143.742C30.9571 144.123 30.7451 144.362 30.6364 144.457C30.531 144.55 30.4365 144.588 30.4168 144.596C30.3702 144.615 30.3671 144.609 30.4551 144.594C30.6134 144.566 30.8922 144.537 31.3169 144.512C32.1544 144.463 33.4322 144.438 35.1631 144.438V142.438C33.4235 142.438 32.0982 142.463 31.2003 142.516C30.7575 142.542 30.3854 142.576 30.11 142.624C29.981 142.647 29.8152 142.682 29.6601 142.745C29.5863 142.775 29.451 142.837 29.3186 142.953C29.1827 143.072 28.9571 143.336 28.9571 143.742H30.9571ZM35.1631 144.438C36.8941 144.438 38.1719 144.463 39.0093 144.512C39.4341 144.537 39.7128 144.566 39.8712 144.594C39.9592 144.609 39.9561 144.615 39.9094 144.596C39.8898 144.588 39.7953 144.55 39.6899 144.457C39.5811 144.362 39.3691 144.123 39.3691 143.742H41.3691C41.3691 143.336 41.1436 143.072 41.0077 142.953C40.8752 142.837 40.74 142.775 40.6662 142.745C40.5111 142.682 40.3452 142.647 40.2163 142.624C39.9409 142.576 39.5688 142.542 39.1259 142.516C38.2281 142.463 36.9028 142.438 35.1631 142.438V144.438ZM39.4002 143.989L45.9742 169.753L47.9121 169.259L41.3381 143.495L39.4002 143.989ZM45.9431 169.506C45.9431 169.231 46.0623 169.029 46.1606 168.915C46.2495 168.813 46.3343 168.765 46.3564 168.753C46.3992 168.73 46.3907 168.743 46.2736 168.771C46.0563 168.823 45.679 168.878 45.1085 168.928L45.2818 170.92C45.8766 170.869 46.3733 170.803 46.7387 170.716C46.9129 170.674 47.1229 170.613 47.3114 170.51C47.4281 170.447 47.9431 170.151 47.9431 169.506H45.9431ZM45.1085 168.928C43.9549 169.028 43.063 169.076 42.4211 169.076V171.076C43.1472 171.076 44.1047 171.023 45.2818 170.92L45.1085 168.928ZM32.5031 160.284H36.4931V158.284H32.5031V160.284ZM37.4703 159.072L35.7603 151.206L33.806 151.63L35.516 159.496L37.4703 159.072ZM34.7831 150.418H34.5551V152.418H34.7831V150.418ZM33.5875 151.166L31.5355 159.032L33.4707 159.536L35.5228 151.67L33.5875 151.166ZM55.5216 143.78L56.5098 143.627L56.5012 143.571L56.4864 143.517L55.5216 143.78ZM63.8436 144.084L64.8369 143.968L64.8346 143.948L64.8314 143.928L63.8436 144.084ZM65.7056 160.082L64.7123 160.198L66.676 160.323L65.7056 160.082ZM69.7336 143.894L68.785 143.578L68.7726 143.615L68.7632 143.653L69.7336 143.894ZM75.6616 143.856L76.6335 143.62L76.6211 143.569L76.6034 143.52L75.6616 143.856ZM79.6136 160.158L78.6418 160.394L80.6044 160.293L79.6136 160.158ZM81.8176 144.008L80.8338 143.829L80.8298 143.851L80.8268 143.873L81.8176 144.008ZM83.5656 143.438L83.4751 142.442L83.5656 143.438ZM90.1396 143.818L89.1618 143.608L89.1586 143.623L89.1559 143.638L90.1396 143.818ZM85.5416 169.012L86.5079 169.27L86.5182 169.231L86.5254 169.192L85.5416 169.012ZM83.3756 169.848L83.2447 168.857L83.3756 169.848ZM75.1676 169.05L76.1454 168.84L76.1422 168.825L76.1384 168.81L75.1676 169.05ZM72.5836 158.6L73.5544 158.36L72.6263 154.607L71.6182 158.339L72.5836 158.6ZM69.7716 169.012L68.8062 168.751L68.8003 168.773L68.7954 168.795L69.7716 169.012ZM67.1116 170L67.1995 170.996L67.2158 170.995L67.232 170.993L67.1116 170ZM64.5276 170.114L64.4808 171.113L64.5042 171.114H64.5276V170.114ZM62.0956 170L61.9902 170.994L62.0194 170.998L62.0488 170.999L62.0956 170ZM59.4356 169.05L58.4474 169.203L58.4524 169.235L58.4594 169.267L59.4356 169.05ZM56.4864 143.517C56.6001 143.934 56.3985 144.265 56.2368 144.415C56.1179 144.525 56.0165 144.552 56.0469 144.542C56.0858 144.528 56.2278 144.494 56.5324 144.461C57.1156 144.397 58.0493 144.362 59.3596 144.362V142.362C58.0353 142.362 57.012 142.397 56.3159 142.472C55.9808 142.509 55.6526 142.562 55.3906 142.652C55.2706 142.694 55.0612 142.778 54.8766 142.949C54.6491 143.16 54.4242 143.557 54.5569 144.043L56.4864 143.517ZM59.3596 144.362C60.8022 144.362 61.84 144.422 62.5067 144.53C62.8472 144.585 63.0282 144.642 63.103 144.677C63.2265 144.734 62.9191 144.64 62.8559 144.24L64.8314 143.928C64.7302 143.287 64.2074 142.983 63.9383 142.86C63.6204 142.713 63.2314 142.621 62.8246 142.555C61.9966 142.422 60.8304 142.362 59.3596 142.362V144.362ZM62.8503 144.2L64.7123 160.198L66.6989 159.966L64.8369 143.968L62.8503 144.2ZM66.676 160.323L70.704 144.135L68.7632 143.653L64.7352 159.841L66.676 160.323ZM70.6823 144.21C70.5948 144.473 70.4122 144.552 70.4454 144.535C70.4656 144.525 70.5553 144.488 70.7585 144.449C71.1587 144.372 71.7931 144.324 72.6976 144.324V142.324C71.7528 142.324 70.9686 142.371 70.3808 142.484C70.09 142.54 69.7933 142.622 69.5348 142.754C69.2894 142.88 68.9358 143.125 68.785 143.578L70.6823 144.21ZM72.6976 144.324C73.6036 144.324 74.2429 144.368 74.649 144.441C74.8555 144.478 74.95 144.514 74.9744 144.526C75.0204 144.548 74.8195 144.471 74.7199 144.192L76.6034 143.52C76.4404 143.063 76.0685 142.832 75.8359 142.721C75.5816 142.599 75.2897 142.524 75.0023 142.473C74.4204 142.368 73.641 142.324 72.6976 142.324V144.324ZM74.6898 144.092L78.6418 160.394L80.5855 159.922L76.6335 143.62L74.6898 144.092ZM80.6044 160.293L82.8084 144.143L80.8268 143.873L78.6228 160.023L80.6044 160.293ZM82.8015 144.187C82.7535 144.451 82.595 144.586 82.5502 144.619C82.5088 144.65 82.509 144.638 82.6027 144.607C82.7869 144.547 83.123 144.482 83.6562 144.434L83.4751 142.442C82.8936 142.495 82.3811 142.576 81.9826 142.706C81.785 142.77 81.5603 142.864 81.3605 143.012C81.1575 143.162 80.9071 143.426 80.8338 143.829L82.8015 144.187ZM83.6562 144.434C84.757 144.334 85.6227 144.286 86.2636 144.286V142.286C85.5366 142.286 84.6036 142.34 83.4751 142.442L83.6562 144.434ZM86.2636 144.286C87.5847 144.286 88.5164 144.331 89.0917 144.41C89.232 144.429 89.3402 144.449 89.4208 144.468C89.4606 144.477 89.4903 144.485 89.5114 144.492C89.5329 144.499 89.5412 144.502 89.5393 144.501C89.5383 144.501 89.5184 144.492 89.4876 144.472C89.4577 144.452 89.403 144.412 89.3447 144.344C89.2043 144.18 89.097 143.911 89.1618 143.608L91.1174 144.028C91.2013 143.636 91.0702 143.284 90.8633 143.043C90.6894 142.84 90.4788 142.729 90.341 142.669C90.0579 142.545 89.7079 142.476 89.3636 142.428C88.6469 142.33 87.6026 142.286 86.2636 142.286V144.286ZM89.1559 143.638L84.5579 168.832L86.5254 169.192L91.1234 143.998L89.1559 143.638ZM84.5754 168.754C84.6211 168.583 84.7169 168.503 84.7246 168.497C84.7295 168.493 84.6894 168.525 84.5641 168.573C84.312 168.67 83.8867 168.772 83.2447 168.857L83.5066 170.839C84.2072 170.747 84.8143 170.62 85.2842 170.439C85.678 170.287 86.3219 169.967 86.5079 169.27L84.5754 168.754ZM83.2447 168.857C81.9224 169.031 80.8815 169.114 80.1076 169.114V171.114C81.0058 171.114 82.1435 171.019 83.5066 170.839L83.2447 168.857ZM80.1076 169.114C78.5582 169.114 77.4456 169.025 76.7272 168.87C76.3646 168.792 76.1642 168.71 76.071 168.655C75.9789 168.6 76.1031 168.643 76.1454 168.84L74.1898 169.26C74.3082 169.812 74.6952 170.165 75.0527 170.376C75.4092 170.587 75.8453 170.726 76.3061 170.826C77.2344 171.026 78.5158 171.114 80.1076 171.114V169.114ZM76.1384 168.81L73.5544 158.36L71.6129 158.84L74.1969 169.29L76.1384 168.81ZM71.6182 158.339L68.8062 168.751L70.737 169.273L73.549 158.861L71.6182 158.339ZM68.7954 168.795C68.8348 168.618 68.9331 168.542 68.9261 168.547C68.9155 168.556 68.8494 168.602 68.6824 168.664C68.3485 168.788 67.7998 168.909 66.9913 169.007L67.232 170.993C68.0955 170.888 68.8261 170.744 69.3788 170.538C69.6552 170.436 69.9343 170.301 70.1706 170.113C70.4106 169.922 70.6578 169.634 70.7478 169.229L68.7954 168.795ZM67.0237 169.004C66.1915 169.077 65.3595 169.114 64.5276 169.114V171.114C65.4184 171.114 66.3091 171.075 67.1995 170.996L67.0237 169.004ZM64.5745 169.115L62.1425 169.001L62.0488 170.999L64.4808 171.113L64.5745 169.115ZM62.2011 169.006C61.3927 168.92 60.8452 168.806 60.513 168.688C60.4341 168.66 60.3759 168.634 60.3347 168.613C60.3144 168.603 60.2996 168.594 60.2895 168.588C60.2793 168.582 60.2749 168.578 60.2749 168.578C60.2749 168.578 60.2804 168.582 60.2895 168.592C60.2987 168.601 60.312 168.616 60.3271 168.637C60.3584 168.682 60.3929 168.748 60.4118 168.833L58.4594 169.267C58.55 169.674 58.7994 169.963 59.0428 170.154C59.2817 170.34 59.5631 170.472 59.8403 170.571C60.3947 170.769 61.1266 170.903 61.9902 170.994L62.2011 169.006ZM60.4239 168.897L56.5098 143.627L54.5334 143.933L58.4474 169.203L60.4239 168.897ZM94.6842 166.884L93.9615 167.575L93.9655 167.579L94.6842 166.884ZM94.7222 146.516L94.0112 145.813L94.0073 145.817L94.7222 146.516ZM112.202 146.478L111.483 147.173L111.487 147.177L112.202 146.478ZM112.126 167.036L112.829 167.747L112.833 167.743L112.126 167.036ZM100.346 152.026L99.5462 151.426L99.5418 151.432L99.5375 151.438L100.346 152.026ZM100.308 161.374L99.497 161.959L99.5036 161.968L100.308 161.374ZM106.502 161.336L105.7 160.739L105.695 160.745L105.691 160.751L106.502 161.336ZM106.464 151.988L105.662 152.585L105.666 152.591L105.671 152.597L106.464 151.988ZM103.386 169.38C100.082 169.38 97.4505 168.305 95.4029 166.189L93.9655 167.579C96.4272 170.124 99.5967 171.38 103.386 171.38V169.38ZM95.4068 166.193C93.4142 164.11 92.3402 161.001 92.3402 156.7H90.3402C90.3402 161.316 91.4955 164.997 93.9616 167.575L95.4068 166.193ZM92.3402 156.7C92.3402 152.374 93.4267 149.271 95.4371 147.215L94.0073 145.817C91.5084 148.372 90.3402 152.058 90.3402 156.7H92.3402ZM95.4332 147.219C97.5053 145.124 100.165 144.058 103.5 144.058V142.058C99.6909 142.058 96.4991 143.297 94.0112 145.813L95.4332 147.219ZM103.5 144.058C106.866 144.058 109.494 145.115 111.483 147.173L112.921 145.783C110.503 143.281 107.329 142.058 103.5 142.058V144.058ZM111.487 147.177C113.439 149.174 114.508 152.306 114.508 156.776H116.508C116.508 152.024 115.374 148.292 112.917 145.779L111.487 147.177ZM114.508 156.776C114.508 161.213 113.417 164.331 111.419 166.329L112.833 167.743C115.344 165.232 116.508 161.51 116.508 156.776H114.508ZM111.423 166.325C109.38 168.345 106.731 169.38 103.386 169.38V171.38C107.185 171.38 110.363 170.186 112.829 167.747L111.423 166.325ZM103.424 149.354C101.845 149.354 100.54 150.101 99.5462 151.426L101.146 152.626C101.825 151.721 102.572 151.354 103.424 151.354V149.354ZM99.5375 151.438C98.5564 152.787 98.1302 154.595 98.1302 156.738H100.13C100.13 154.828 100.515 153.495 101.155 152.614L99.5375 151.438ZM98.1302 156.738C98.1302 158.852 98.5421 160.634 99.497 161.959L101.119 160.789C100.504 159.935 100.13 158.627 100.13 156.738H98.1302ZM99.5036 161.968C100.468 163.274 101.786 163.97 103.386 163.97V161.97C102.453 161.97 101.719 161.602 101.113 160.78L99.5036 161.968ZM103.386 163.97C105.014 163.97 106.349 163.259 107.313 161.921L105.691 160.751C105.085 161.592 104.342 161.97 103.386 161.97V163.97ZM107.304 161.933C108.293 160.605 108.718 158.803 108.718 156.662H106.718C106.718 158.574 106.333 159.889 105.7 160.739L107.304 161.933ZM108.718 156.662C108.718 154.516 108.278 152.709 107.258 151.379L105.671 152.597C106.322 153.446 106.718 154.755 106.718 156.662H108.718ZM107.266 151.391C106.292 150.082 104.996 149.354 103.424 149.354V151.354C104.284 151.354 105.015 151.715 105.662 152.585L107.266 151.391ZM136.305 155.484L137.207 155.917L137.21 155.91L136.305 155.484ZM133.721 158.524L133.158 157.698L132.378 158.229L132.864 159.038L133.721 158.524ZM138.509 166.504L139.458 166.82L139.603 166.384L139.367 165.99L138.509 166.504ZM136.533 168.594L135.957 167.776L135.951 167.781L136.533 168.594ZM130.567 169.164L129.648 169.558L129.686 169.646L129.74 169.726L130.567 169.164ZM126.995 160.842L127.914 160.448L127.654 159.842H126.995V160.842ZM125.817 160.842V159.842H124.817V160.842H125.817ZM125.817 150.126V149.126H124.817V150.126H125.817ZM125.817 155.826H124.817V156.826H125.817V155.826ZM128.895 150.81L128.188 151.517L128.208 151.537L128.228 151.555L128.895 150.81ZM124.817 169.468C124.817 169.247 124.906 169.072 124.998 168.964C125.04 168.915 125.077 168.884 125.101 168.867C125.124 168.85 125.139 168.842 125.141 168.841C125.141 168.841 125.112 168.855 125.039 168.876C124.969 168.895 124.874 168.917 124.749 168.938C124.232 169.025 123.397 169.076 122.207 169.076V171.076C123.424 171.076 124.394 171.026 125.081 170.91C125.414 170.854 125.757 170.771 126.043 170.627C126.292 170.501 126.817 170.154 126.817 169.468H124.817ZM122.207 169.076C121.003 169.076 120.154 169.028 119.626 168.945C119.497 168.925 119.398 168.905 119.324 168.886C119.288 168.876 119.26 168.868 119.241 168.861C119.231 168.858 119.224 168.855 119.219 168.853C119.214 168.851 119.211 168.85 119.212 168.85C119.212 168.85 119.215 168.852 119.221 168.855C119.227 168.858 119.236 168.864 119.248 168.872C119.271 168.887 119.31 168.917 119.354 168.965C119.452 169.071 119.559 169.259 119.559 169.506H117.559C117.559 170.225 118.142 170.557 118.363 170.661C118.644 170.793 118.983 170.869 119.317 170.922C120.004 171.029 120.979 171.076 122.207 171.076V169.076ZM119.559 169.506V144.73H117.559V169.506H119.559ZM119.559 144.73C119.559 144.455 119.629 144.43 119.598 144.459C119.577 144.479 119.637 144.4 119.965 144.4V142.4C119.356 142.4 118.713 142.543 118.223 143.006C117.724 143.479 117.559 144.118 117.559 144.73H119.559ZM119.965 144.4H127.223V142.4H119.965V144.4ZM127.223 144.4C130.452 144.4 132.69 145.034 134.104 146.136C135.471 147.202 136.217 148.823 136.217 151.19H138.217C138.217 148.363 137.298 146.09 135.333 144.559C133.416 143.064 130.657 142.4 127.223 142.4V144.4ZM136.217 151.19C136.217 152.628 135.94 153.912 135.4 155.058L137.21 155.91C137.887 154.472 138.217 152.893 138.217 151.19H136.217ZM135.404 155.051C134.869 156.166 134.121 157.041 133.158 157.698L134.285 159.35C135.551 158.487 136.526 157.335 137.207 155.917L135.404 155.051ZM132.864 159.038L137.652 167.018L139.367 165.99L134.579 158.01L132.864 159.038ZM137.561 166.188C137.468 166.465 137.057 167.002 135.957 167.777L137.109 169.411C138.239 168.615 139.145 167.759 139.458 166.82L137.561 166.188ZM135.951 167.781C134.471 168.842 133.433 169.228 132.771 169.228V171.228C134.085 171.228 135.555 170.525 137.116 169.407L135.951 167.781ZM132.771 169.228C132.056 169.228 131.659 168.992 131.395 168.602L129.74 169.726C130.438 170.754 131.51 171.228 132.771 171.228V169.228ZM131.486 168.77L127.914 160.448L126.076 161.236L129.648 169.558L131.486 168.77ZM126.995 159.842H125.817V161.842H126.995V159.842ZM124.817 160.842V169.468H126.817V160.842H124.817ZM124.817 150.126V155.826H126.817V150.126H124.817ZM125.817 156.826H126.007V154.826H125.817V156.826ZM126.007 156.826C127.324 156.826 128.498 156.556 129.354 155.844C130.245 155.103 130.617 154.032 130.617 152.824H128.617C128.617 153.617 128.388 154.047 128.075 154.307C127.728 154.596 127.097 154.826 126.007 154.826V156.826ZM130.617 152.824C130.617 151.748 130.331 150.753 129.562 150.065L128.228 151.555C128.422 151.728 128.617 152.076 128.617 152.824H130.617ZM129.602 150.103C128.868 149.369 127.781 149.126 126.615 149.126V151.126C127.578 151.126 128.01 151.339 128.188 151.517L129.602 150.103ZM126.615 149.126H125.817V151.126H126.615V149.126ZM148.307 162.742H147.307V163.742H148.307V162.742ZM155.109 164.528L156.101 164.399L156.1 164.39L156.098 164.381L155.109 164.528ZM155.109 168.176L156.096 168.34L156.099 168.318L156.102 168.295L155.109 168.176ZM141.087 169.316L141.898 168.731L141.087 169.316ZM141.593 167.758V144.122H139.593V167.758H141.593ZM141.593 144.122C141.593 144.27 141.544 144.404 141.477 144.501C141.447 144.545 141.418 144.576 141.398 144.594C141.378 144.612 141.364 144.62 141.362 144.621C141.361 144.622 141.388 144.606 141.46 144.581C141.53 144.556 141.627 144.529 141.756 144.503C142.292 144.391 143.168 144.324 144.431 144.324V142.324C143.135 142.324 142.092 142.39 141.349 142.544C140.986 142.62 140.611 142.733 140.304 142.924C139.985 143.123 139.593 143.511 139.593 144.122H141.593ZM144.431 144.324C145.707 144.324 146.593 144.391 147.137 144.503C147.268 144.53 147.366 144.557 147.438 144.582C147.511 144.607 147.54 144.624 147.54 144.624C147.538 144.623 147.525 144.615 147.505 144.597C147.485 144.579 147.456 144.549 147.425 144.505C147.357 144.407 147.307 144.273 147.307 144.122H149.307C149.307 143.506 148.909 143.119 148.59 142.922C148.282 142.732 147.906 142.619 147.54 142.544C146.791 142.39 145.74 142.324 144.431 142.324V144.324ZM147.307 144.122V162.742H149.307V144.122H147.307ZM148.307 163.742H154.159V161.742H148.307V163.742ZM154.159 163.742C154.037 163.742 153.93 163.696 153.865 163.646C153.814 163.607 153.82 163.59 153.856 163.658C153.934 163.805 154.037 164.119 154.12 164.675L156.098 164.381C156.004 163.747 155.86 163.167 155.622 162.719C155.382 162.268 154.919 161.742 154.159 161.742V163.742ZM154.118 164.657C154.188 165.196 154.223 165.748 154.223 166.314H156.223C156.223 165.664 156.183 165.026 156.101 164.399L154.118 164.657ZM154.223 166.314C154.223 166.88 154.188 167.461 154.116 168.057L156.102 168.295C156.183 167.624 156.223 166.964 156.223 166.314H154.223ZM154.123 168.012C154.028 168.582 153.917 168.909 153.831 169.068C153.791 169.142 153.781 169.131 153.827 169.095C153.888 169.048 153.994 169 154.121 169V171C154.885 171 155.349 170.465 155.59 170.02C155.833 169.571 155.988 168.986 156.096 168.34L154.123 168.012ZM154.121 169H142.417V171H154.121V169ZM142.417 169C142.185 169 142.041 168.929 141.898 168.731L140.277 169.901C140.792 170.615 141.535 171 142.417 171V169ZM141.898 168.731C141.696 168.451 141.593 168.139 141.593 167.758H139.593C139.593 168.543 139.82 169.269 140.277 169.901L141.898 168.731ZM157.943 143.97L157.187 143.315L157.184 143.319L157.943 143.97ZM174.701 146.44L174.003 147.156L174.007 147.16L174.701 146.44ZM164.783 150.62V149.62H163.783V150.62H164.783ZM164.897 163.008L164.002 163.455L164.02 163.49L164.039 163.522L164.897 163.008ZM168.735 161.64L167.919 161.063L167.914 161.069L167.909 161.076L168.735 161.64ZM168.697 151.722L167.99 152.429L167.996 152.435L168.002 152.441L168.697 151.722ZM158.487 168.252V145.452H156.487V168.252H158.487ZM158.487 145.452C158.487 144.972 158.601 144.739 158.702 144.621L157.184 143.319C156.677 143.911 156.487 144.665 156.487 145.452H158.487ZM158.699 144.625C158.836 144.466 158.978 144.4 159.197 144.4V142.4C158.403 142.4 157.708 142.714 157.187 143.315L158.699 144.625ZM159.197 144.4H165.543V142.4H159.197V144.4ZM165.543 144.4C169.413 144.4 172.174 145.372 174.003 147.156L175.399 145.724C173.073 143.454 169.729 142.4 165.543 142.4V144.4ZM174.007 147.16C175.835 148.922 176.855 151.797 176.855 156.016H178.855C178.855 151.52 177.772 148.011 175.395 145.72L174.007 147.16ZM176.855 156.016C176.855 160.559 175.883 163.779 174.111 165.855C172.366 167.901 169.701 169 165.923 169V171C170.1 171 173.401 169.769 175.633 167.153C177.839 164.568 178.855 160.796 178.855 156.016H176.855ZM165.923 169H159.425V171H165.923V169ZM159.425 169C158.909 169 158.709 168.881 158.641 168.82C158.593 168.777 158.487 168.652 158.487 168.252H156.487C156.487 169.017 156.704 169.766 157.302 170.306C157.88 170.827 158.649 171 159.425 171V169ZM163.783 150.62V161.982H165.783V150.62H163.783ZM163.783 161.982C163.783 162.267 163.793 162.526 163.818 162.748C163.839 162.941 163.881 163.213 164.002 163.455L165.791 162.561C165.82 162.619 165.826 162.652 165.821 162.634C165.818 162.62 165.812 162.587 165.805 162.527C165.792 162.407 165.783 162.229 165.783 161.982H163.783ZM164.039 163.522C164.269 163.906 164.638 164.053 164.857 164.114C165.095 164.18 165.348 164.198 165.581 164.198V162.198C165.513 162.198 165.463 162.195 165.428 162.192C165.392 162.188 165.383 162.184 165.393 162.187C165.4 162.189 165.448 162.203 165.512 162.243C165.58 162.285 165.677 162.364 165.754 162.494L164.039 163.522ZM165.581 164.198C167.263 164.198 168.643 163.548 169.561 162.204L167.909 161.076C167.408 161.809 166.686 162.198 165.581 162.198V164.198ZM169.551 162.217C170.472 160.916 170.837 158.928 170.837 156.472H168.837C168.837 158.829 168.467 160.287 167.919 161.063L169.551 162.217ZM170.837 156.472C170.837 155.212 170.739 154.123 170.524 153.227C170.312 152.343 169.964 151.556 169.392 151.003L168.002 152.441C168.19 152.623 168.412 152.995 168.58 153.694C168.745 154.382 168.837 155.3 168.837 156.472H170.837ZM169.404 151.015C168.4 150.011 166.905 149.62 165.163 149.62V151.62C166.664 151.62 167.525 151.964 167.99 152.429L169.404 151.015ZM165.163 149.62H164.783V151.62H165.163V149.62ZM191.979 150.316H192.979V149.316H191.979V150.316ZM186.507 148.568L185.516 148.703L185.517 148.711L185.518 148.718L186.507 148.568ZM186.507 145.148L185.518 144.998L185.517 145.005L185.516 145.013L186.507 145.148ZM204.861 145.148L205.852 145.013L205.851 145.005L205.85 144.998L204.861 145.148ZM204.861 148.568L205.85 148.718L205.851 148.711L205.852 148.703L204.861 148.568ZM199.503 150.316V149.316H198.503V150.316H199.503ZM198.503 169.392C198.503 169.233 198.557 169.093 198.628 168.993C198.69 168.904 198.749 168.869 198.75 168.869C198.752 168.868 198.726 168.884 198.655 168.907C198.586 168.93 198.491 168.956 198.365 168.982C197.838 169.088 196.979 169.152 195.741 169.152V171.152C197.011 171.152 198.033 171.089 198.761 170.942C199.116 170.87 199.483 170.763 199.786 170.58C200.096 170.392 200.503 170.011 200.503 169.392H198.503ZM195.741 169.152C194.503 169.152 193.644 169.088 193.118 168.982C192.991 168.956 192.896 168.93 192.827 168.907C192.757 168.884 192.73 168.868 192.732 168.869C192.733 168.869 192.792 168.904 192.854 168.993C192.925 169.093 192.979 169.233 192.979 169.392H190.979C190.979 170.011 191.386 170.392 191.696 170.58C191.999 170.763 192.366 170.87 192.722 170.942C193.449 171.089 194.471 171.152 195.741 171.152V169.152ZM192.979 169.392V150.316H190.979V169.392H192.979ZM191.979 149.316H187.419V151.316H191.979V149.316ZM187.419 149.316C187.557 149.316 187.673 149.369 187.741 149.423C187.794 149.465 187.79 149.484 187.755 149.416C187.679 149.271 187.579 148.963 187.496 148.418L185.518 148.718C185.613 149.338 185.753 149.904 185.981 150.342C186.206 150.772 186.656 151.316 187.419 151.316V149.316ZM187.498 148.433C187.428 147.922 187.393 147.397 187.393 146.858H185.393C185.393 147.484 185.434 148.099 185.516 148.703L187.498 148.433ZM187.393 146.858C187.393 146.319 187.428 145.794 187.498 145.283L185.516 145.013C185.434 145.617 185.393 146.232 185.393 146.858H187.393ZM187.496 145.298C187.579 144.753 187.679 144.445 187.755 144.3C187.79 144.232 187.794 144.251 187.741 144.293C187.673 144.347 187.557 144.4 187.419 144.4V142.4C186.656 142.4 186.206 142.944 185.981 143.374C185.753 143.812 185.613 144.378 185.518 144.998L187.496 145.298ZM187.419 144.4H203.949V142.4H187.419V144.4ZM203.949 144.4C203.811 144.4 203.695 144.347 203.627 144.293C203.574 144.251 203.578 144.232 203.613 144.3C203.689 144.445 203.789 144.753 203.872 145.298L205.85 144.998C205.755 144.378 205.615 143.812 205.387 143.374C205.162 142.944 204.712 142.4 203.949 142.4V144.4ZM203.87 145.283C203.94 145.794 203.975 146.319 203.975 146.858H205.975C205.975 146.232 205.934 145.617 205.852 145.013L203.87 145.283ZM203.975 146.858C203.975 147.397 203.94 147.922 203.87 148.433L205.852 148.703C205.934 148.099 205.975 147.484 205.975 146.858H203.975ZM203.872 148.418C203.789 148.963 203.689 149.271 203.613 149.416C203.578 149.484 203.574 149.465 203.627 149.423C203.695 149.369 203.811 149.316 203.949 149.316V151.316C204.712 151.316 205.162 150.772 205.387 150.342C205.615 149.904 205.755 149.338 205.85 148.718L203.872 148.418ZM203.949 149.316H199.503V151.316H203.949V149.316ZM198.503 150.316V169.392H200.503V150.316H198.503ZM209.723 166.884L209.001 167.575L209.005 167.579L209.723 166.884ZM209.761 146.516L209.05 145.813L209.046 145.817L209.761 146.516ZM227.241 146.478L226.522 147.173L226.526 147.177L227.241 146.478ZM227.165 167.036L227.868 167.747L227.872 167.743L227.165 167.036ZM215.385 152.026L214.585 151.426L214.581 151.432L214.577 151.438L215.385 152.026ZM215.347 161.374L214.536 161.959L214.543 161.968L215.347 161.374ZM221.541 161.336L220.739 160.739L220.735 160.745L220.73 160.751L221.541 161.336ZM221.503 151.988L220.701 152.585L220.705 152.591L220.71 152.597L221.503 151.988ZM218.425 169.38C215.121 169.38 212.49 168.305 210.442 166.189L209.005 167.579C211.466 170.124 214.636 171.38 218.425 171.38V169.38ZM210.446 166.193C208.453 164.11 207.379 161.001 207.379 156.7H205.379C205.379 161.316 206.535 164.997 209.001 167.575L210.446 166.193ZM207.379 156.7C207.379 152.374 208.466 149.271 210.476 147.215L209.046 145.817C206.547 148.372 205.379 152.058 205.379 156.7H207.379ZM210.472 147.219C212.544 145.124 215.205 144.058 218.539 144.058V142.058C214.73 142.058 211.538 143.297 209.05 145.813L210.472 147.219ZM218.539 144.058C221.905 144.058 224.533 145.115 226.522 147.173L227.96 145.783C225.542 143.281 222.368 142.058 218.539 142.058V144.058ZM226.526 147.177C228.478 149.174 229.547 152.306 229.547 156.776H231.547C231.547 152.024 230.413 148.292 227.956 145.779L226.526 147.177ZM229.547 156.776C229.547 161.213 228.456 164.331 226.458 166.329L227.872 167.743C230.384 165.232 231.547 161.51 231.547 156.776H229.547ZM226.462 166.325C224.419 168.345 221.77 169.38 218.425 169.38V171.38C222.224 171.38 225.402 170.186 227.868 167.747L226.462 166.325ZM218.463 149.354C216.884 149.354 215.579 150.101 214.585 151.426L216.185 152.626C216.864 151.721 217.611 151.354 218.463 151.354V149.354ZM214.577 151.438C213.595 152.787 213.169 154.595 213.169 156.738H215.169C215.169 154.828 215.554 153.495 216.194 152.614L214.577 151.438ZM213.169 156.738C213.169 158.852 213.581 160.634 214.536 161.959L216.158 160.789C215.543 159.935 215.169 158.627 215.169 156.738H213.169ZM214.543 161.968C215.507 163.274 216.825 163.97 218.425 163.97V161.97C217.492 161.97 216.758 161.602 216.152 160.78L214.543 161.968ZM218.425 163.97C220.053 163.97 221.388 163.259 222.352 161.921L220.73 160.751C220.124 161.592 219.381 161.97 218.425 161.97V163.97ZM222.343 161.933C223.332 160.605 223.757 158.803 223.757 156.662H221.757C221.757 158.574 221.372 159.889 220.739 160.739L222.343 161.933ZM223.757 156.662C223.757 154.516 223.317 152.709 222.297 151.379L220.71 152.597C221.361 153.446 221.757 154.755 221.757 156.662H223.757ZM222.305 151.391C221.331 150.082 220.035 149.354 218.463 149.354V151.354C219.323 151.354 220.054 151.715 220.701 152.585L222.305 151.391ZM253.642 158.524L252.657 158.354L252.654 158.368L252.652 158.383L253.642 158.524ZM248.208 159.588V158.588H247.208V159.588H248.208ZM248.208 163.388H247.208V164.388H248.208V163.388ZM256.074 165.06L255.084 165.195L255.085 165.206L255.087 165.216L256.074 165.06ZM255.96 168.708L254.976 168.534V168.534L255.96 168.708ZM248.208 150.126V149.126H247.208V150.126H248.208ZM248.208 153.964H247.208V154.964H248.208V153.964ZM253.11 154.964C252.872 154.964 252.711 154.835 252.651 154.762C252.615 154.718 252.644 154.732 252.687 154.891C252.771 155.203 252.832 155.76 252.832 156.624H254.832C254.832 155.715 254.773 154.942 254.617 154.367C254.54 154.083 254.418 153.764 254.202 153.499C253.961 153.203 253.589 152.964 253.11 152.964V154.964ZM252.832 156.624C252.832 157.082 252.777 157.655 252.657 158.354L254.628 158.694C254.761 157.924 254.832 157.23 254.832 156.624H252.832ZM252.652 158.383C252.632 158.527 252.608 158.636 252.586 158.715C252.563 158.796 252.546 158.827 252.546 158.826C252.546 158.826 252.58 158.765 252.67 158.702C252.772 158.631 252.901 158.588 253.034 158.588V160.588C253.666 160.588 254.073 160.185 254.283 159.818C254.477 159.478 254.575 159.065 254.632 158.665L252.652 158.383ZM253.034 158.588H248.208V160.588H253.034V158.588ZM247.208 159.588V163.388H249.208V159.588H247.208ZM248.208 164.388H255.2V162.388H248.208V164.388ZM255.2 164.388C255.073 164.388 254.96 164.341 254.886 164.284C254.827 164.239 254.826 164.212 254.856 164.269C254.921 164.395 255.013 164.677 255.084 165.195L257.065 164.925C256.984 164.329 256.854 163.775 256.628 163.343C256.399 162.904 255.947 162.388 255.2 162.388V164.388ZM255.087 165.216C255.153 165.639 255.188 166.106 255.188 166.618H257.188C257.188 166.016 257.147 165.444 257.062 164.904L255.087 165.216ZM255.188 166.618C255.188 167.067 255.123 167.699 254.976 168.534L256.945 168.882C257.102 167.995 257.188 167.233 257.188 166.618H255.188ZM254.976 168.534C254.943 168.719 254.908 168.863 254.873 168.974C254.838 169.087 254.808 169.146 254.794 169.17C254.78 169.195 254.798 169.154 254.869 169.103C254.953 169.044 255.071 169 255.2 169V171C255.868 171 256.294 170.566 256.518 170.184C256.735 169.816 256.862 169.355 256.945 168.882L254.976 168.534ZM255.2 169H242.204V171H255.2V169ZM242.204 169C241.833 169 241.741 168.92 241.753 168.931C241.757 168.934 241.763 168.94 241.769 168.947C241.775 168.955 241.777 168.96 241.776 168.959C241.775 168.956 241.76 168.918 241.76 168.822H239.76C239.76 169.429 239.956 170.046 240.489 170.48C240.983 170.883 241.613 171 242.204 171V169ZM241.76 168.822V144.388H239.76V168.822H241.76ZM241.76 144.388C241.76 144.294 241.771 144.249 241.774 144.239C241.776 144.232 241.767 144.265 241.728 144.31C241.709 144.331 241.687 144.35 241.663 144.367C241.64 144.382 241.619 144.392 241.605 144.398C241.577 144.408 241.58 144.4 241.634 144.4V142.4C241.155 142.4 240.622 142.541 240.23 142.984C239.858 143.404 239.76 143.933 239.76 144.388H241.76ZM241.634 144.4H255.238V142.4H241.634V144.4ZM255.238 144.4C254.953 144.4 254.797 144.226 254.771 144.189C254.763 144.178 254.809 144.245 254.864 144.475C254.969 144.923 255.036 145.674 255.036 146.782H257.036C257.036 145.636 256.971 144.696 256.81 144.016C256.731 143.682 256.611 143.327 256.404 143.034C256.178 142.715 255.79 142.4 255.238 142.4V144.4ZM255.036 146.782C255.036 147.877 254.969 148.618 254.864 149.058C254.81 149.284 254.765 149.348 254.774 149.335C254.802 149.296 254.958 149.126 255.238 149.126V151.126C255.785 151.126 256.173 150.817 256.401 150.499C256.61 150.207 256.73 149.853 256.81 149.522C256.971 148.847 257.036 147.916 257.036 146.782H255.036ZM255.238 149.126H248.208V151.126H255.238V149.126ZM247.208 150.126V153.964H249.208V150.126H247.208ZM248.208 154.964H253.11V152.964H248.208V154.964ZM273.599 144.426L274.508 144.841L274.518 144.82L274.527 144.797L273.599 144.426ZM281.047 143.476L280.928 144.469L280.941 144.471L280.954 144.472L281.047 143.476ZM282.681 143.78L283.578 144.221L283.681 144.012V143.78H282.681ZM276.221 156.928L275.323 156.487L275.098 156.946L275.338 157.397L276.221 156.928ZM282.909 169.506L282.026 169.975L282.038 169.998L282.051 170.021L282.909 169.506ZM281.275 169.886L281.361 170.882L281.372 170.881L281.383 170.88L281.275 169.886ZM273.029 168.746L273.972 168.413L273.966 168.397L273.959 168.38L273.029 168.746ZM270.179 161.488L271.109 161.122L270.118 158.598L269.233 161.162L270.179 161.488ZM267.595 168.974L268.536 169.31L268.54 169.3L267.595 168.974ZM259.995 169.886L259.902 170.882L259.995 169.886ZM258.513 169.468L259.381 169.964L259.405 169.923L259.424 169.879L258.513 169.468ZM264.441 156.32L265.352 156.731L265.546 156.302L265.338 155.879L264.441 156.32ZM258.285 143.78L259.182 143.339L259.164 143.302L259.142 143.266L258.285 143.78ZM259.843 143.438L259.933 144.434L259.943 144.433L259.953 144.432L259.843 143.438ZM267.975 144.616L267.026 144.932L267.037 144.964L267.05 144.996L267.975 144.616ZM270.597 151L269.672 151.38L270.548 153.514L271.506 151.415L270.597 151ZM274.527 144.797C274.48 144.915 274.484 144.726 275.247 144.543C275.926 144.381 276.946 144.286 278.349 144.286V142.286C276.888 142.286 275.685 142.381 274.781 142.599C273.96 142.796 273.021 143.177 272.67 144.055L274.527 144.797ZM278.349 144.286C279.03 144.286 279.888 144.345 280.928 144.469L281.165 142.483C280.078 142.354 279.136 142.286 278.349 142.286V144.286ZM280.954 144.472C281.491 144.522 281.863 144.569 282.089 144.611C282.21 144.634 282.244 144.647 282.23 144.641C282.229 144.641 282.152 144.614 282.058 144.544C281.991 144.494 281.681 144.247 281.681 143.78H283.681C283.681 143.287 283.353 143.015 283.252 142.94C283.124 142.844 282.996 142.793 282.927 142.767C282.777 142.711 282.607 142.673 282.455 142.645C282.136 142.586 281.691 142.532 281.139 142.48L280.954 144.472ZM281.783 143.339L275.323 156.487L277.118 157.369L283.578 144.221L281.783 143.339ZM275.338 157.397L282.026 169.975L283.792 169.037L277.104 156.459L275.338 157.397ZM282.051 170.021C281.977 169.896 281.913 169.724 281.916 169.517C281.918 169.311 281.985 169.143 282.06 169.024C282.188 168.818 282.353 168.732 282.374 168.721C282.44 168.686 282.453 168.693 282.331 168.722C282.12 168.771 281.743 168.829 281.167 168.892L281.383 170.88C281.972 170.816 282.449 170.748 282.784 170.67C282.933 170.635 283.141 170.58 283.325 170.481C283.404 170.438 283.608 170.321 283.756 170.083C283.84 169.948 283.913 169.764 283.915 169.542C283.918 169.32 283.85 169.132 283.766 168.992L282.051 170.021ZM281.188 168.89C280.04 168.99 279.083 169.038 278.311 169.038V171.038C279.16 171.038 280.178 170.985 281.361 170.882L281.188 168.89ZM278.311 169.038C276.73 169.038 275.579 168.931 274.815 168.744C274.433 168.65 274.195 168.548 274.06 168.464C273.93 168.382 273.951 168.354 273.972 168.413L272.086 169.079C272.259 169.569 272.613 169.917 272.999 170.159C273.38 170.397 273.841 170.564 274.339 170.686C275.335 170.93 276.673 171.038 278.311 171.038V169.038ZM273.959 168.38L271.109 161.122L269.248 161.854L272.098 169.111L273.959 168.38ZM269.233 161.162L266.649 168.648L268.54 169.3L271.124 161.814L269.233 161.162ZM266.653 168.638C266.699 168.509 266.769 168.505 266.654 168.57C266.541 168.634 266.329 168.718 265.975 168.795C265.269 168.949 264.201 169.038 262.731 169.038V171.038C264.25 171.038 265.487 170.949 266.402 170.749C266.859 170.649 267.286 170.511 267.642 170.309C267.996 170.108 268.364 169.794 268.536 169.31L266.653 168.638ZM262.731 169.038C262.038 169.038 261.159 168.99 260.087 168.89L259.902 170.882C261.009 170.985 261.954 171.038 262.731 171.038V169.038ZM260.087 168.89C259.551 168.84 259.232 168.786 259.079 168.743C258.978 168.715 259.059 168.721 259.176 168.815C259.244 168.87 259.394 169.011 259.465 169.26C259.544 169.542 259.477 169.796 259.381 169.964L257.644 168.972C257.523 169.184 257.449 169.482 257.54 169.805C257.623 170.096 257.804 170.278 257.92 170.372C258.136 170.546 258.389 170.627 258.536 170.668C258.876 170.764 259.349 170.83 259.902 170.882L260.087 168.89ZM259.424 169.879L265.352 156.731L263.529 155.909L257.601 169.057L259.424 169.879ZM265.338 155.879L259.182 143.339L257.387 144.221L263.543 156.761L265.338 155.879ZM259.142 143.266C259.212 143.382 259.275 143.545 259.277 143.744C259.28 143.944 259.22 144.115 259.145 144.241C259.016 144.46 258.843 144.552 258.816 144.566C258.74 144.608 258.715 144.602 258.831 144.576C259.026 144.533 259.382 144.484 259.933 144.434L259.752 142.442C259.188 142.493 258.727 142.552 258.403 142.623C258.259 142.654 258.049 142.707 257.862 142.809C257.78 142.853 257.57 142.975 257.423 143.225C257.339 143.367 257.275 143.553 257.277 143.769C257.28 143.983 257.348 144.162 257.427 144.294L259.142 143.266ZM259.953 144.432C261.071 144.308 261.995 144.248 262.731 144.248V142.248C261.896 142.248 260.894 142.315 259.732 142.444L259.953 144.432ZM262.731 144.248C264.296 144.248 265.431 144.362 266.183 144.558C267.006 144.772 267.047 144.997 267.026 144.932L268.923 144.3C268.598 143.323 267.613 142.864 266.688 142.622C265.692 142.362 264.357 142.248 262.731 142.248V144.248ZM267.05 144.996L269.672 151.38L271.522 150.62L268.9 144.236L267.05 144.996ZM271.506 151.415L274.508 144.841L272.689 144.011L269.687 150.585L271.506 151.415ZM301.248 145.718L300.564 146.447L300.569 146.452L301.248 145.718ZM301.4 159.132L302.19 159.745L301.4 159.132ZM297.942 161.564L297.571 160.636L297.942 161.564ZM292.622 162.476V161.476H291.622V162.476H292.622ZM291.178 169.924L291.286 170.918L291.297 170.917L291.309 170.915L291.178 169.924ZM292.622 150.012V149.012H291.622V150.012H292.622ZM292.622 156.016H291.622V157.016H292.622V156.016ZM295.358 155.18L296.034 155.917V155.917L295.358 155.18ZM295.624 150.658L294.896 151.343L294.906 151.354L294.917 151.365L295.624 150.658ZM288.746 169.076C287.611 169.076 286.835 169.012 286.367 168.909C286.126 168.856 286.049 168.81 286.055 168.814C286.079 168.83 286.288 168.991 286.288 169.316H284.288C284.288 169.894 284.641 170.277 284.954 170.483C285.248 170.677 285.603 170.789 285.938 170.863C286.623 171.013 287.576 171.076 288.746 171.076V169.076ZM286.288 169.316V144.692H284.288V169.316H286.288ZM286.288 144.692C286.288 144.394 286.358 144.357 286.322 144.397C286.303 144.417 286.286 144.423 286.294 144.42C286.307 144.415 286.358 144.4 286.466 144.4V142.4C285.894 142.4 285.289 142.561 284.844 143.049C284.414 143.52 284.288 144.129 284.288 144.692H286.288ZM286.466 144.4H293.154V142.4H286.466V144.4ZM293.154 144.4C296.807 144.4 299.192 145.16 300.564 146.447L301.932 144.989C300.011 143.185 297 142.4 293.154 142.4V144.4ZM300.569 146.452C301.981 147.757 302.756 149.698 302.756 152.444H304.756C304.756 149.312 303.859 146.77 301.927 144.984L300.569 146.452ZM302.756 152.444C302.756 154.642 302.052 156.658 300.61 158.519L302.19 159.745C303.889 157.553 304.756 155.11 304.756 152.444H302.756ZM300.61 158.519C299.96 159.358 298.97 160.076 297.571 160.636L298.313 162.492C299.954 161.836 301.27 160.933 302.19 159.745L300.61 158.519ZM297.571 160.636C296.193 161.186 294.551 161.476 292.622 161.476V163.476C294.747 163.476 296.651 163.157 298.313 162.492L297.571 160.636ZM291.622 162.476V169.278H293.622V162.476H291.622ZM291.622 169.278C291.622 169.061 291.717 168.897 291.798 168.81C291.863 168.74 291.905 168.731 291.853 168.755C291.746 168.803 291.499 168.873 291.048 168.933L291.309 170.915C291.82 170.848 292.295 170.748 292.669 170.58C292.988 170.438 293.622 170.061 293.622 169.278H291.622ZM291.071 168.93C290.157 169.029 289.384 169.076 288.746 169.076V171.076C289.476 171.076 290.325 171.022 291.286 170.918L291.071 168.93ZM291.622 150.012V156.016H293.622V150.012H291.622ZM292.622 157.016H293.116V155.016H292.622V157.016ZM293.116 157.016C294.232 157.016 295.227 156.657 296.034 155.917L294.682 154.443C294.273 154.818 293.773 155.016 293.116 155.016V157.016ZM296.034 155.917C296.894 155.128 297.27 154.049 297.27 152.824H295.27C295.27 153.626 295.038 154.117 294.682 154.443L296.034 155.917ZM297.27 152.824C297.27 151.712 297.041 150.661 296.331 149.951L294.917 151.365C295.068 151.516 295.27 151.909 295.27 152.824H297.27ZM296.352 149.973C295.653 149.23 294.557 149.012 293.42 149.012V151.012C294.411 151.012 294.784 151.225 294.896 151.343L296.352 149.973ZM293.42 149.012H292.622V151.012H293.42V149.012ZM314.446 162.742H313.446V163.742H314.446V162.742ZM321.248 164.528L322.24 164.399L322.238 164.39L322.237 164.381L321.248 164.528ZM321.248 168.176L322.234 168.34L322.238 168.318L322.241 168.295L321.248 168.176ZM307.226 169.316L308.037 168.731L307.226 169.316ZM307.732 167.758V144.122H305.732V167.758H307.732ZM307.732 144.122C307.732 144.27 307.683 144.404 307.616 144.501C307.586 144.545 307.556 144.576 307.536 144.594C307.516 144.612 307.503 144.62 307.501 144.621C307.5 144.622 307.527 144.606 307.599 144.581C307.669 144.556 307.766 144.529 307.895 144.503C308.431 144.391 309.307 144.324 310.57 144.324V142.324C309.274 142.324 308.231 142.39 307.488 142.544C307.124 142.62 306.75 142.733 306.443 142.924C306.124 143.123 305.732 143.511 305.732 144.122H307.732ZM310.57 144.324C311.846 144.324 312.732 144.391 313.275 144.503C313.406 144.53 313.505 144.557 313.576 144.582C313.65 144.607 313.678 144.624 313.678 144.624C313.677 144.623 313.664 144.615 313.644 144.597C313.624 144.579 313.594 144.549 313.564 144.505C313.496 144.407 313.446 144.273 313.446 144.122H315.446C315.446 143.506 315.048 143.119 314.729 142.922C314.421 142.732 314.045 142.619 313.679 142.544C312.93 142.39 311.878 142.324 310.57 142.324V144.324ZM313.446 144.122V162.742H315.446V144.122H313.446ZM314.446 163.742H320.298V161.742H314.446V163.742ZM320.298 163.742C320.175 163.742 320.069 163.696 320.003 163.646C319.953 163.607 319.958 163.59 319.995 163.658C320.073 163.805 320.176 164.119 320.259 164.675L322.237 164.381C322.143 163.747 321.999 163.167 321.76 162.719C321.521 162.268 321.058 161.742 320.298 161.742V163.742ZM320.256 164.657C320.327 165.196 320.362 165.748 320.362 166.314H322.362C322.362 165.664 322.321 165.026 322.24 164.399L320.256 164.657ZM320.362 166.314C320.362 166.88 320.327 167.461 320.255 168.057L322.241 168.295C322.321 167.624 322.362 166.964 322.362 166.314H320.362ZM320.262 168.012C320.166 168.582 320.056 168.909 319.97 169.068C319.929 169.142 319.92 169.131 319.966 169.095C320.026 169.048 320.132 169 320.26 169V171C321.024 171 321.488 170.465 321.728 170.02C321.972 169.571 322.127 168.986 322.234 168.34L320.262 168.012ZM320.26 169H308.556V171H320.26V169ZM308.556 169C308.323 169 308.18 168.929 308.037 168.731L306.415 169.901C306.931 170.615 307.674 171 308.556 171V169ZM308.037 168.731C307.835 168.451 307.732 168.139 307.732 167.758H305.732C305.732 168.543 305.958 169.269 306.415 169.901L308.037 168.731ZM326.21 166.884L325.487 167.575L325.491 167.579L326.21 166.884ZM326.248 146.516L325.537 145.813L325.533 145.817L326.248 146.516ZM343.728 146.478L343.009 147.173L343.012 147.177L343.728 146.478ZM343.652 167.036L344.355 167.747L344.359 167.743L343.652 167.036ZM331.872 152.026L331.072 151.426L331.067 151.432L331.063 151.438L331.872 152.026ZM331.834 161.374L331.022 161.959L331.029 161.968L331.834 161.374ZM338.028 161.336L337.225 160.739L337.221 160.745L337.216 160.751L338.028 161.336ZM337.99 151.988L337.187 152.585L337.192 152.591L337.196 152.597L337.99 151.988ZM334.912 169.38C331.608 169.38 328.976 168.305 326.928 166.189L325.491 167.579C327.953 170.124 331.122 171.38 334.912 171.38V169.38ZM326.932 166.193C324.94 164.11 323.866 161.001 323.866 156.7H321.866C321.866 161.316 323.021 164.997 325.487 167.575L326.932 166.193ZM323.866 156.7C323.866 152.374 324.952 149.271 326.962 147.215L325.533 145.817C323.034 148.372 321.866 152.058 321.866 156.7H323.866ZM326.959 147.219C329.031 145.124 331.691 144.058 335.026 144.058V142.058C331.216 142.058 328.024 143.297 325.537 145.813L326.959 147.219ZM335.026 144.058C338.392 144.058 341.019 145.115 343.009 147.173L344.447 145.783C342.028 143.281 338.854 142.058 335.026 142.058V144.058ZM343.012 147.177C344.964 149.174 346.034 152.306 346.034 156.776H348.034C348.034 152.024 346.899 148.292 344.443 145.779L343.012 147.177ZM346.034 156.776C346.034 161.213 344.943 164.331 342.944 166.329L344.359 167.743C346.87 165.232 348.034 161.51 348.034 156.776H346.034ZM342.948 166.325C340.905 168.345 338.257 169.38 334.912 169.38V171.38C338.711 171.38 341.889 170.186 344.355 167.747L342.948 166.325ZM334.95 149.354C333.37 149.354 332.065 150.101 331.072 151.426L332.672 152.626C333.35 151.721 334.097 151.354 334.95 151.354V149.354ZM331.063 151.438C330.082 152.787 329.656 154.595 329.656 156.738H331.656C331.656 154.828 332.04 153.495 332.68 152.614L331.063 151.438ZM329.656 156.738C329.656 158.852 330.067 160.634 331.022 161.959L332.645 160.789C332.029 159.935 331.656 158.627 331.656 156.738H329.656ZM331.029 161.968C331.993 163.274 333.311 163.97 334.912 163.97V161.97C333.978 161.97 333.245 161.602 332.638 160.78L331.029 161.968ZM334.912 163.97C336.54 163.97 337.874 163.259 338.839 161.921L337.216 160.751C336.61 161.592 335.868 161.97 334.912 161.97V163.97ZM338.83 161.933C339.818 160.605 340.244 158.803 340.244 156.662H338.244C338.244 158.574 337.858 159.889 337.225 160.739L338.83 161.933ZM340.244 156.662C340.244 154.516 339.803 152.709 338.783 151.379L337.196 152.597C337.848 153.446 338.244 154.755 338.244 156.662H340.244ZM338.792 151.391C337.818 150.082 336.522 149.354 334.95 149.354V151.354C335.809 151.354 336.54 151.715 337.187 152.585L338.792 151.391ZM367.831 155.484L368.732 155.917L368.735 155.91L367.831 155.484ZM365.247 158.524L364.683 157.698L363.904 158.229L364.389 159.038L365.247 158.524ZM370.035 166.504L370.983 166.82L371.129 166.384L370.892 165.99L370.035 166.504ZM368.059 168.594L367.483 167.776L367.476 167.781L368.059 168.594ZM362.093 169.164L361.174 169.558L361.211 169.646L361.265 169.726L362.093 169.164ZM358.521 160.842L359.439 160.448L359.18 159.842H358.521V160.842ZM357.343 160.842V159.842H356.343V160.842H357.343ZM357.343 150.126V149.126H356.343V150.126H357.343ZM357.343 155.826H356.343V156.826H357.343V155.826ZM360.421 150.81L359.713 151.517L359.733 151.537L359.754 151.555L360.421 150.81ZM356.343 169.468C356.343 169.247 356.432 169.072 356.524 168.964C356.565 168.915 356.603 168.884 356.626 168.867C356.65 168.85 356.665 168.842 356.666 168.841C356.666 168.841 356.637 168.855 356.565 168.876C356.495 168.895 356.399 168.917 356.274 168.938C355.757 169.025 354.923 169.076 353.733 169.076V171.076C354.949 171.076 355.919 171.026 356.606 170.91C356.94 170.854 357.283 170.771 357.568 170.627C357.817 170.501 358.343 170.154 358.343 169.468H356.343ZM353.733 169.076C352.529 169.076 351.68 169.028 351.151 168.945C351.022 168.925 350.923 168.905 350.85 168.886C350.813 168.876 350.786 168.868 350.766 168.861C350.756 168.858 350.749 168.855 350.744 168.853C350.739 168.851 350.737 168.85 350.737 168.85C350.737 168.85 350.741 168.852 350.746 168.855C350.752 168.858 350.762 168.864 350.773 168.872C350.796 168.887 350.836 168.917 350.88 168.965C350.977 169.071 351.085 169.259 351.085 169.506H349.085C349.085 170.225 349.667 170.557 349.888 170.661C350.169 170.793 350.509 170.869 350.842 170.922C351.529 171.029 352.505 171.076 353.733 171.076V169.076ZM351.085 169.506V144.73H349.085V169.506H351.085ZM351.085 144.73C351.085 144.455 351.154 144.43 351.123 144.459C351.103 144.479 351.163 144.4 351.491 144.4V142.4C350.881 142.4 350.238 142.543 349.749 143.006C349.249 143.479 349.085 144.118 349.085 144.73H351.085ZM351.491 144.4H358.749V142.4H351.491V144.4ZM358.749 144.4C361.978 144.4 364.215 145.034 365.629 146.136C366.996 147.202 367.743 148.823 367.743 151.19H369.743C369.743 148.363 368.823 146.09 366.859 144.559C364.942 143.064 362.182 142.4 358.749 142.4V144.4ZM367.743 151.19C367.743 152.628 367.465 153.912 366.926 155.058L368.735 155.91C369.412 154.472 369.743 152.893 369.743 151.19H367.743ZM366.929 155.051C366.394 156.166 365.646 157.041 364.683 157.698L365.81 159.35C367.076 158.487 368.051 157.335 368.732 155.917L366.929 155.051ZM364.389 159.038L369.177 167.018L370.892 165.99L366.104 158.01L364.389 159.038ZM369.086 166.188C368.994 166.465 368.582 167.002 367.483 167.777L368.635 169.411C369.764 168.615 370.67 167.759 370.983 166.82L369.086 166.188ZM367.476 167.781C365.996 168.842 364.959 169.228 364.297 169.228V171.228C365.61 171.228 367.081 170.525 368.641 169.407L367.476 167.781ZM364.297 169.228C363.581 169.228 363.185 168.992 362.92 168.602L361.265 169.726C361.963 170.754 363.036 171.228 364.297 171.228V169.228ZM363.012 168.77L359.439 160.448L357.602 161.236L361.174 169.558L363.012 168.77ZM358.521 159.842H357.343V161.842H358.521V159.842ZM356.343 160.842V169.468H358.343V160.842H356.343ZM356.343 150.126V155.826H358.343V150.126H356.343ZM357.343 156.826H357.533V154.826H357.343V156.826ZM357.533 156.826C358.85 156.826 360.024 156.556 360.879 155.844C361.77 155.103 362.143 154.032 362.143 152.824H360.143C360.143 153.617 359.913 154.047 359.601 154.307C359.253 154.596 358.622 154.826 357.533 154.826V156.826ZM362.143 152.824C362.143 151.748 361.857 150.753 361.087 150.065L359.754 151.555C359.947 151.728 360.143 152.076 360.143 152.824H362.143ZM361.128 150.103C360.394 149.369 359.306 149.126 358.141 149.126V151.126C359.103 151.126 359.536 151.339 359.713 151.517L361.128 150.103ZM358.141 149.126H357.343V151.126H358.141V149.126ZM385.381 158.524L384.395 158.354L384.393 158.368L384.391 158.383L385.381 158.524ZM379.947 159.588V158.588H378.947V159.588H379.947ZM379.947 163.388H378.947V164.388H379.947V163.388ZM387.813 165.06L386.822 165.195L386.823 165.206L386.825 165.216L387.813 165.06ZM387.699 168.708L386.714 168.534V168.534L387.699 168.708ZM379.947 150.126V149.126H378.947V150.126H379.947ZM379.947 153.964H378.947V154.964H379.947V153.964ZM384.849 154.964C384.611 154.964 384.449 154.835 384.389 154.762C384.353 154.718 384.382 154.732 384.425 154.891C384.51 155.203 384.571 155.76 384.571 156.624H386.571C386.571 155.715 386.511 154.942 386.355 154.367C386.278 154.083 386.156 153.764 385.94 153.499C385.699 153.203 385.327 152.964 384.849 152.964V154.964ZM384.571 156.624C384.571 157.082 384.516 157.655 384.395 158.354L386.366 158.694C386.499 157.924 386.571 157.23 386.571 156.624H384.571ZM384.391 158.383C384.37 158.527 384.347 158.636 384.324 158.715C384.301 158.796 384.284 158.827 384.284 158.826C384.284 158.826 384.318 158.765 384.408 158.702C384.51 158.631 384.64 158.588 384.773 158.588V160.588C385.405 160.588 385.811 160.185 386.021 159.818C386.215 159.478 386.313 159.065 386.371 158.665L384.391 158.383ZM384.773 158.588H379.947V160.588H384.773V158.588ZM378.947 159.588V163.388H380.947V159.588H378.947ZM379.947 164.388H386.939V162.388H379.947V164.388ZM386.939 164.388C386.812 164.388 386.698 164.341 386.624 164.284C386.566 164.239 386.564 164.212 386.594 164.269C386.659 164.395 386.751 164.677 386.822 165.195L388.803 164.925C388.722 164.329 388.592 163.775 388.366 163.343C388.137 162.904 387.685 162.388 386.939 162.388V164.388ZM386.825 165.216C386.892 165.639 386.927 166.106 386.927 166.618H388.927C388.927 166.016 388.886 165.444 388.8 164.904L386.825 165.216ZM386.927 166.618C386.927 167.067 386.861 167.699 386.714 168.534L388.683 168.882C388.84 167.995 388.927 167.233 388.927 166.618H386.927ZM386.714 168.534C386.681 168.719 386.646 168.863 386.611 168.974C386.576 169.087 386.547 169.146 386.533 169.17C386.518 169.195 386.536 169.154 386.608 169.103C386.692 169.044 386.809 169 386.939 169V171C387.606 171 388.032 170.566 388.257 170.184C388.473 169.816 388.6 169.355 388.683 168.882L386.714 168.534ZM386.939 169H373.943V171H386.939V169ZM373.943 169C373.572 169 373.479 168.92 373.492 168.931C373.496 168.934 373.502 168.94 373.507 168.947C373.513 168.955 373.515 168.96 373.515 168.959C373.514 168.956 373.499 168.918 373.499 168.822H371.499C371.499 169.429 371.694 170.046 372.228 170.48C372.722 170.883 373.351 171 373.943 171V169ZM373.499 168.822V144.388H371.499V168.822H373.499ZM373.499 144.388C373.499 144.294 373.509 144.249 373.512 144.239C373.514 144.232 373.506 144.265 373.466 144.31C373.447 144.331 373.425 144.35 373.401 144.367C373.378 144.382 373.357 144.392 373.343 144.398C373.315 144.408 373.319 144.4 373.373 144.4V142.4C372.893 142.4 372.36 142.541 371.968 142.984C371.597 143.404 371.499 143.933 371.499 144.388H373.499ZM373.373 144.4H386.977V142.4H373.373V144.4ZM386.977 144.4C386.691 144.4 386.535 144.226 386.51 144.189C386.501 144.178 386.548 144.245 386.602 144.475C386.707 144.923 386.775 145.674 386.775 146.782H388.775C388.775 145.636 388.709 144.696 388.548 144.016C388.47 143.682 388.35 143.327 388.142 143.034C387.917 142.715 387.528 142.4 386.977 142.4V144.4ZM386.775 146.782C386.775 147.877 386.707 148.618 386.602 149.058C386.549 149.284 386.503 149.348 386.513 149.335C386.541 149.296 386.696 149.126 386.977 149.126V151.126C387.523 151.126 387.911 150.817 388.139 150.499C388.348 150.207 388.469 149.853 388.548 149.522C388.709 148.847 388.775 147.916 388.775 146.782H386.775ZM386.977 149.126H379.947V151.126H386.977V149.126ZM378.947 150.126V153.964H380.947V150.126H378.947ZM379.947 154.964H384.849V152.964H379.947V154.964Z" fill="black" fill-opacity="0.3" mask="url(#path-1-outside-1_4993_2568)"/>
</g>
<g filter="url(#filter1_d_4993_2568)">
<g filter="url(#filter2_d_4993_2568)">
<path d="M96.9752 98.4367L88.2748 59.0714C87.6001 56.0183 84.6937 53.9953 81.5962 54.4226L74.6133 55.3859L8.96295 69.2789C7.3415 69.622 6.81704 71.6753 8.07531 72.754L31.1345 92.5224C33.0987 94.2063 33.7623 96.9596 32.781 99.3534L22.0551 125.518C21.4207 127.065 22.8569 128.74 24.4894 128.377C31.3967 126.842 48.2278 123.555 82.4003 119.074C92.3547 117.769 99.1418 108.24 96.9752 98.4367Z" fill="url(#paint0_linear_4993_2568)"/>
<path d="M81.624 54.6211C84.5245 54.2212 87.251 56.0435 88.0117 58.8408L88.0791 59.1143L96.7803 98.4795C98.8877 108.015 92.4216 117.291 82.833 118.81L82.374 118.876C50.3337 123.077 33.5328 126.229 25.8604 127.873L24.4463 128.182C23.0141 128.5 21.7502 127.081 22.1924 125.725L22.2402 125.594L32.9658 99.4297C33.9482 97.0334 33.3355 94.2883 31.4512 92.5371L31.2646 92.3701L8.20508 72.6025C7.10814 71.6621 7.51701 69.898 8.87012 69.5078L9.00391 69.4746L74.6533 55.582L81.624 54.6211Z" stroke="url(#paint1_linear_4993_2568)" stroke-width="0.4"/>
</g>
<path d="M86.1441 100.622L79.439 67.661C78.9816 65.4124 77.2816 63.6215 75.0598 63.0477L71.2446 62.0623C70.3038 61.8193 69.318 61.8085 68.372 62.0307L22.8856 72.7163C22.0955 72.9019 21.8439 73.9018 22.4521 74.4392L40.5593 90.4403C43.2009 92.7746 44.0032 96.5629 42.5347 99.7676L33.9964 118.401C33.6574 119.141 34.2972 119.96 35.0977 119.813C39.3634 119.029 51.4426 116.87 77.9426 112.494C83.5405 111.57 87.2751 106.182 86.1441 100.622Z" stroke="url(#paint2_linear_4993_2568)" stroke-width="1.3" stroke-linecap="round" stroke-linejoin="round" stroke-dasharray="5 5"/>
<path d="M82.2613 53.666C85.076 53.666 87.5122 55.6227 88.1197 58.3711L96.9751 98.4365C99.1418 108.24 92.3544 117.769 82.3999 119.074C48.2282 123.555 31.3972 126.842 24.4898 128.377C22.8573 128.74 21.4209 127.065 22.0552 125.518L32.7808 99.3535C33.7622 96.9597 33.0985 94.2064 31.1343 92.5225L10.9742 75.2393C8.49046 73.1097 9.4746 69.0613 12.6587 68.3096L74.0113 53.8262C74.4628 53.7196 74.9253 53.666 75.3892 53.666H82.2613Z" fill="#273574"/>
<g filter="url(#filter3_d_4993_2568)">
<path d="M314.701 98.4367L323.402 59.0714C324.076 56.0183 326.983 53.9953 330.08 54.4226L337.063 55.3859L402.714 69.2789C404.335 69.622 404.859 71.6753 403.601 72.754L380.542 92.5224C378.578 94.2063 377.914 96.9596 378.896 99.3534L389.621 125.518C390.256 127.065 388.82 128.74 387.187 128.377C380.28 126.842 363.449 123.555 329.276 119.074C319.322 117.769 312.535 108.24 314.701 98.4367Z" fill="url(#paint3_linear_4993_2568)"/>
<path d="M330.052 54.6211C327.152 54.2212 324.425 56.0435 323.665 58.8408L323.597 59.1143L314.896 98.4795C312.789 108.015 319.255 117.291 328.844 118.81L329.302 118.876C361.343 123.077 378.144 126.229 385.816 127.873L387.23 128.182C388.662 128.5 389.926 127.081 389.484 125.725L389.436 125.594L378.711 99.4297C377.728 97.0334 378.341 94.2883 380.225 92.5371L380.412 92.3701L403.471 72.6025C404.568 71.6621 404.159 69.898 402.806 69.5078L402.673 69.4746L337.023 55.582L330.052 54.6211Z" stroke="url(#paint4_linear_4993_2568)" stroke-width="0.4"/>
</g>
<path d="M325.532 100.622L332.237 67.661C332.695 65.4124 334.395 63.6215 336.616 63.0477L340.432 62.0623C341.372 61.8193 342.358 61.8085 343.304 62.0307L388.791 72.7163C389.581 72.9019 389.832 73.9018 389.224 74.4392L371.117 90.4403C368.475 92.7746 367.673 96.5629 369.142 99.7676L377.68 118.401C378.019 119.141 377.379 119.96 376.579 119.813C372.313 119.029 360.234 116.87 333.734 112.494C328.136 111.57 324.401 106.182 325.532 100.622Z" stroke="url(#paint5_linear_4993_2568)" stroke-width="1.3" stroke-linecap="round" stroke-linejoin="round" stroke-dasharray="5 5"/>
<path d="M329.415 53.666C326.601 53.666 324.164 55.6227 323.557 58.3711L314.701 98.4365C312.535 108.24 319.322 117.769 329.277 119.074C363.448 123.555 380.279 126.842 387.187 128.377C388.819 128.74 390.256 127.065 389.621 125.518L378.896 99.3535C377.914 96.9597 378.578 94.2064 380.542 92.5225L400.702 75.2393C403.186 73.1097 402.202 69.0613 399.018 68.3096L337.665 53.8262C337.214 53.7196 336.751 53.666 336.287 53.666H329.415Z" fill="#273574"/>
<g filter="url(#filter4_d_4993_2568)">
<path d="M48.2951 49.411C47.3666 46.2003 49.2031 42.8801 52.452 42.0959C70.6846 37.6953 129.891 25 206.151 25C282.402 25 340.082 37.6921 357.795 42.0943C360.975 42.8848 362.786 46.1165 361.935 49.2815L347.166 104.241C346.326 107.368 343.187 109.285 340.017 108.629C322.991 105.109 269.389 95.1846 206.151 95.1846C142.669 95.1846 88.3042 105.185 71.2893 108.67C68.1675 109.309 65.0797 107.453 64.1945 104.392L48.2951 49.411Z" fill="#273574"/>
<path d="M206.151 25.25C282.375 25.25 340.035 37.9379 357.735 42.3369C360.773 43.0922 362.51 46.1808 361.694 49.2168L346.924 104.176C346.119 107.174 343.11 109.014 340.068 108.385C323.033 104.862 269.412 94.9346 206.151 94.9346C142.645 94.9346 88.2619 104.939 71.2388 108.425C68.2443 109.038 65.284 107.258 64.4351 104.323L48.5356 49.3418C47.645 46.262 49.4061 43.0883 52.5103 42.3389C70.7309 37.9411 129.917 25.25 206.151 25.25Z" stroke="url(#paint6_linear_4993_2568)" stroke-width="0.5"/>
</g>
<path d="M329.834 57.6367C327.346 57.3004 325.008 58.8596 324.346 61.2559L324.287 61.4912L316.914 94.1709C314.859 103.281 321.031 112.177 330.217 113.618L330.656 113.681C358.316 117.266 373.187 119.975 380.243 121.442L381.552 121.719C382.365 121.894 383.073 121.094 382.889 120.351L382.84 120.203L373.41 97.6689C372.265 94.9312 372.972 91.7793 375.151 89.7939L375.365 89.6055L395.71 72.5205C396.31 72.017 396.117 71.0734 395.417 70.8174L395.27 70.7754L335.741 58.4336L329.834 57.6367Z" fill="#FFDE4F" stroke="#FFC300" stroke-width="2"/>
<path d="M78.6055 58.209C81.1312 57.8453 83.5111 59.4408 84.1533 61.8838L84.21 62.1221L91.2383 95.3066C93.1463 104.316 87.0644 113.039 78.0176 114.537L77.584 114.604C52.1423 118.129 38.2989 120.802 31.6094 122.275L30.3662 122.555C29.546 122.742 28.824 121.944 28.9883 121.203L29.0332 121.056L38.0225 98.1748C39.0589 95.5364 38.3989 92.5433 36.374 90.585L36.1738 90.3984L16.8174 73.0811C16.2479 72.5716 16.4434 71.6581 17.126 71.4014L17.2686 71.3594L73.4482 58.9521L78.6055 58.209Z" fill="#FFDE4F" stroke="#FFC300" stroke-width="2"/>
<g filter="url(#filter5_d_4993_2568)">
<path d="M85.4678 89.3367L81.23 68.3711C80.5965 65.2367 77.616 63.15 74.454 63.6269L72.0728 63.9861L30.9068 73.5117C29.3485 73.8723 28.8229 75.8255 29.9899 76.9194L43.2801 89.3776C45.0479 91.0347 45.6454 93.5925 44.7948 95.8613L38.6672 112.205C38.082 113.766 39.5713 115.414 41.1959 115.039C45.7925 113.981 54.8886 112.133 71.0389 109.707C80.7719 108.245 87.4177 98.9839 85.4678 89.3367Z" fill="#406FC7"/>
<path d="M74.4834 63.8252C77.4445 63.3785 80.2411 65.2573 80.9697 68.1299L81.0342 68.4111L85.2715 89.376C87.1681 98.7594 80.8349 107.777 71.458 109.436L71.0088 109.509C56.8743 111.632 48.1392 113.313 43.0928 114.41L41.1514 114.845C39.7219 115.174 38.4117 113.773 38.8105 112.407L38.8545 112.275L44.9824 95.9316C45.8339 93.6605 45.2811 91.1086 43.585 89.3945L43.417 89.2314L30.127 76.7734C29.1095 75.8197 29.5214 74.1403 30.8232 73.7412L30.9521 73.707L72.1104 64.1816L74.4834 63.8252Z" stroke="url(#paint7_linear_4993_2568)" stroke-width="0.4"/>
</g>
<g filter="url(#filter6_d_4993_2568)">
<path d="M320.741 88.368L324.998 69.4014C325.672 66.3965 328.512 64.3898 331.57 64.7575L335.174 65.1909L381.202 73.9125C382.867 74.2281 383.409 76.3427 382.101 77.4209L367.894 89.1288C365.812 90.8451 365.131 93.7405 366.23 96.2046L372.927 111.212C373.611 112.744 372.207 114.472 370.559 114.158C365.431 113.178 354.854 111.412 335.549 109.122C325.447 107.924 318.513 98.2944 320.741 88.368Z" fill="#406FC7"/>
<path d="M331.545 64.9559C328.682 64.6118 326.017 66.4218 325.261 69.1758L325.193 69.4451L320.937 88.4118C318.769 98.0672 325.375 107.442 335.107 108.862L335.573 108.923C352.467 110.927 362.68 112.53 368.409 113.557L370.597 113.961C372.044 114.238 373.281 112.77 372.797 111.423L372.745 111.293L366.048 96.2857C364.947 93.8192 365.573 90.9349 367.57 89.1447L367.767 88.9748L381.974 77.267C383.115 76.3269 382.692 74.5111 381.302 74.1405L381.165 74.1086L335.151 65.3889L335.15 65.3899L331.545 64.9559Z" stroke="url(#paint8_linear_4993_2568)" stroke-width="0.4"/>
</g>
<g filter="url(#filter7_d_4993_2568)">
<path d="M54.7002 53.9474C53.6432 50.6446 55.5815 47.1626 58.9709 46.4295C77.1701 42.4929 133.616 31.7148 206.085 31.7148C278.551 31.7148 333.565 42.4919 351.245 46.4289C354.563 47.1679 356.477 50.5538 355.508 53.8126L341.744 100.094C340.852 103.091 337.841 104.918 334.768 104.344C318.431 101.291 266.893 92.6639 206.085 92.6639C145.032 92.6639 92.7537 101.36 76.4371 104.381C73.4159 104.94 70.4558 103.177 69.5192 100.251L54.7002 53.9474Z" fill="#FFDE4F"/>
<path d="M206.085 32.7148C276.194 32.7148 329.944 42.8164 349.265 47.0176L351.027 47.4053C353.674 47.9948 355.259 50.6326 354.619 53.2725L354.55 53.5273L340.785 99.8096C340.064 102.234 337.68 103.746 335.192 103.4L334.951 103.361C318.582 100.302 266.978 91.6641 206.085 91.6641C148.768 91.6641 99.1793 99.3166 79.7351 102.767L76.2546 103.397C73.8056 103.851 71.4082 102.481 70.5496 100.172L70.4714 99.9453L55.6531 53.6426C54.7975 50.9692 56.2905 48.1901 58.9236 47.4697L59.1824 47.4072C77.3379 43.4801 133.709 32.7149 206.085 32.7148Z" stroke="#FFC300" stroke-width="2"/>
</g>
<g filter="url(#filter8_d_4993_2568)">
<path d="M63.5363 59.4017C62.4727 56.0631 64.4702 52.5541 67.9069 51.8709C85.333 48.4067 137.155 39.3936 204.63 39.3936C272.329 39.3936 324.776 48.4664 342.222 51.9051C345.619 52.5745 347.637 56.0118 346.654 59.3311L336.691 92.9757C335.816 95.9323 332.873 97.7588 329.833 97.2432C313.772 94.5191 263.314 86.8209 206.023 86.8209C148.514 86.8209 97.2606 94.754 81.182 97.5116C78.1863 98.0254 75.2792 96.2619 74.3566 93.3659L63.5363 59.4017Z" fill="#406FC7"/>
<path d="M204.631 39.6436C270.193 39.6436 321.445 48.156 340.437 51.8125L342.174 52.1504C345.32 52.7706 347.234 55.8754 346.494 58.9619L346.414 59.2598L336.452 92.9043C335.639 95.6505 332.965 97.3803 330.148 97.0361L329.875 96.9971C313.806 94.2718 263.334 86.5713 206.023 86.5713C152.09 86.5713 103.658 93.5455 84.5613 96.6904L81.1394 97.2656C78.3563 97.7427 75.6537 96.1702 74.6833 93.5469L74.5945 93.29L63.7742 59.3262C62.7862 56.2249 64.5535 52.9791 67.6521 52.1855L67.9558 52.1162C85.3714 48.654 137.176 39.6436 204.631 39.6436Z" stroke="url(#paint9_linear_4993_2568)" stroke-width="0.5"/>
</g>
<g filter="url(#filter9_d_4993_2568)">
<path d="M117.511 51.7012C119.913 51.3156 122.075 51.3232 123.996 51.7239C125.945 52.0863 127.012 52.8436 127.197 53.9955C127.381 55.1474 127.167 56.6504 126.553 58.5044C125.967 60.3203 125.377 61.2757 124.785 61.3708C124.62 61.3972 124.41 61.3466 124.153 61.219C123.924 61.0532 123.398 60.935 122.577 60.8643C121.783 60.7554 121.106 60.7458 120.546 60.8356C118.637 61.1419 117.199 62.0648 116.231 63.6044C115.295 65.1386 115.052 67.3045 115.501 70.1021C115.945 72.8667 116.867 74.8286 118.268 75.9879C119.703 77.1419 121.341 77.571 123.184 77.2753C123.941 77.1538 124.765 76.9204 125.655 76.575C126.572 76.1915 127.197 75.7705 127.528 75.3122C127.584 75.2358 127.71 75.1818 127.907 75.1501C128.105 75.1184 128.528 75.4388 129.176 76.1113C129.851 76.7456 130.517 77.6346 131.174 78.7784C131.824 79.8893 132.203 80.7739 132.308 81.4321C132.514 82.7157 131.691 83.8944 129.837 84.9683C127.984 86.0422 125.708 86.7957 123.009 87.2287C118.665 87.9259 114.848 86.9685 111.56 84.3566C108.271 81.7447 106.18 77.6576 105.288 72.0955C104.39 66.5004 105.116 61.8768 107.468 58.2249C109.852 54.5676 113.199 52.393 117.511 51.7012Z" fill="white"/>
<path d="M166.732 81.5358C166.779 82.1005 165.125 82.5239 161.771 82.806C158.416 83.088 156.715 82.9467 156.667 82.3821L155.704 70.9225L148.728 71.509L149.692 82.9686C149.739 83.5332 148.086 83.9566 144.731 84.2387C141.376 84.5208 139.675 84.3795 139.627 83.8148L136.85 50.7813C136.791 50.0838 138.439 49.594 141.794 49.3119C145.149 49.0298 146.856 49.2376 146.914 49.9351L147.899 61.6438L154.874 61.0573L153.898 49.4483C153.859 48.9832 154.661 48.5813 156.305 48.2423C157.164 48.1033 158.008 47.9988 158.838 47.929L161.388 47.815C163.065 47.8747 163.923 48.137 163.963 48.602L166.732 81.5358Z" fill="white"/>
<path d="M189.176 81.7838C184.515 82.0322 180.623 80.7043 177.497 77.7999C174.404 74.8937 172.702 70.5115 172.39 64.6531C172.076 58.7615 173.319 54.2222 176.12 51.0352C178.954 47.8465 182.718 46.127 187.411 45.8768C192.138 45.6248 196.029 46.9195 199.085 49.7608C202.139 52.5689 203.827 57.002 204.15 63.06C204.471 69.0848 203.229 73.6574 200.425 76.7778C197.619 79.8649 193.869 81.5336 189.176 81.7838ZM187.823 55.4685C186.225 55.5537 184.916 56.3578 183.895 57.881C182.908 59.4024 182.486 61.4945 182.628 64.1574C182.768 66.787 183.392 68.7899 184.5 70.1662C185.607 71.5092 186.992 72.1363 188.656 72.0476C190.354 71.9571 191.681 71.1687 192.636 69.6824C193.625 68.1943 194.048 66.1188 193.906 63.4559C193.765 60.793 193.106 58.7752 191.931 57.4025C190.79 56.028 189.42 55.3833 187.823 55.4685Z" fill="white"/>
<path d="M224.821 82.0693C220.158 81.892 216.402 80.2147 213.554 77.0375C210.74 73.8616 209.444 69.3424 209.667 63.48C209.891 57.5843 211.543 53.1772 214.623 50.2588C217.736 47.3416 221.641 45.9724 226.337 46.1509C231.067 46.3308 234.824 47.9748 237.608 51.0828C240.393 54.1575 241.671 58.726 241.44 64.7883C241.211 70.8173 239.558 75.2577 236.48 78.1094C233.404 80.9279 229.518 82.2479 224.821 82.0693ZM225.873 55.7402C224.274 55.6794 222.897 56.3609 221.742 57.7847C220.62 59.2098 220.009 61.2547 219.908 63.9195C219.807 66.5509 220.247 68.6024 221.225 70.0739C222.204 71.5122 223.526 72.263 225.192 72.3263C226.891 72.3909 228.284 71.7267 229.371 70.3337C230.491 68.9419 231.102 66.9137 231.203 64.2489C231.305 61.5842 230.833 59.5148 229.788 58.0407C228.777 56.5678 227.472 55.801 225.873 55.7402Z" fill="white"/>
<path d="M249.493 69.5579C250.097 70.0928 251.14 70.8362 252.622 71.788C254.138 72.7417 255.594 73.2581 256.992 73.3371C258.423 73.4179 259.17 72.9093 259.232 71.811C259.26 71.3118 259.085 70.8679 258.706 70.4792C258.329 70.0573 257.622 69.5666 256.586 69.0072C255.549 68.4478 254.772 68.02 254.254 67.7236C253.739 67.394 253.05 66.8876 252.187 66.2045C251.359 65.49 250.732 64.7702 250.306 64.0449C249.082 62.0727 248.553 59.6223 248.718 56.6936C248.884 53.765 250.104 51.3634 252.38 49.4888C254.692 47.5829 257.611 46.7296 261.139 46.929C263.535 47.0644 265.733 47.4558 267.733 48.103C269.735 48.7169 270.746 49.4418 270.765 50.2776C270.76 50.3774 270.754 50.4772 270.748 50.5771C270.682 51.7419 270.233 53.2022 269.399 54.9579C268.567 56.6804 267.996 57.633 267.685 57.8157C265.617 56.5971 263.735 55.9398 262.037 55.8439C260.373 55.7498 259.507 56.3019 259.44 57.4999C259.398 58.2321 259.977 58.9159 261.177 59.5512C261.435 59.6994 261.808 59.9041 262.294 60.1653C262.78 60.4264 263.33 60.7413 263.943 61.1098C264.592 61.447 265.268 61.8858 265.972 62.4264C266.711 62.9356 267.491 63.614 268.311 64.4617C269.981 66.2254 270.738 68.4717 270.584 71.2007C270.383 74.7617 269.237 77.6182 267.145 79.7703C265.054 81.9223 261.959 82.916 257.862 82.7512C255.865 82.6383 254.061 82.3694 252.449 81.9444C250.87 81.5213 249.509 80.7933 248.366 79.7605C247.222 78.7277 246.689 77.529 246.766 76.1645C246.843 74.8 247.169 73.4663 247.744 72.1633C248.32 70.827 248.903 69.9585 249.493 69.5579Z" fill="white"/>
<path d="M294.638 65.7141C295.266 65.7982 295.425 66.9966 295.115 69.3092C295.022 70.003 294.828 70.8179 294.535 71.7539C294.279 72.6612 293.952 73.0883 293.556 73.0352L287.262 72.1916L286.598 77.1473L295.716 78.3695C296.278 78.4448 296.561 79.2225 296.564 80.7027C296.579 81.3437 296.538 82.0277 296.44 82.7545C296.347 83.4483 296.126 84.3436 295.778 85.4403C295.429 86.537 295.023 87.0544 294.561 86.9924L277.612 84.7207C276.357 84.5524 275.798 83.9562 275.935 82.932L280.206 51.067C280.321 50.208 280.759 49.8294 281.519 49.9313L299.26 52.3092C299.954 52.4022 300.104 53.9189 299.709 56.8593C299.32 59.7666 298.778 61.1738 298.084 61.0808L288.916 59.852L288.245 64.8572L294.638 65.7141Z" fill="white"/>
</g>
</g>
<defs>
<filter id="filter0_d_4993_2568" x="18.2312" y="141.058" width="374.696" height="37.3223" filterUnits="userSpaceOnUse" color-interpolation-filters="sRGB">
<feFlood flood-opacity="0" result="BackgroundImageFix"/>
<feColorMatrix in="SourceAlpha" type="matrix" values="0 0 0 0 0 0 0 0 0 0 0 0 0 0 0 0 0 0 127 0" result="hardAlpha"/>
<feOffset dy="3"/>
<feGaussianBlur stdDeviation="2"/>
<feComposite in2="hardAlpha" operator="out"/>
<feColorMatrix type="matrix" values="0 0 0 0 0 0 0 0 0 0 0 0 0 0 0 0 0 0 0.35 0"/>
<feBlend mode="normal" in2="BackgroundImageFix" result="effect1_dropShadow_4993_2568"/>
<feBlend mode="normal" in="SourceGraphic" in2="effect1_dropShadow_4993_2568" result="shape"/>
</filter>
<filter id="filter1_d_4993_2568" x="-25" y="0" width="461.677" height="164.343" filterUnits="userSpaceOnUse" color-interpolation-filters="sRGB">
<feFlood flood-opacity="0" result="BackgroundImageFix"/>
<feColorMatrix in="SourceAlpha" type="matrix" values="0 0 0 0 0 0 0 0 0 0 0 0 0 0 0 0 0 0 127 0" result="hardAlpha"/>
<feOffset dy="5"/>
<feGaussianBlur stdDeviation="15"/>
<feComposite in2="hardAlpha" operator="out"/>
<feColorMatrix type="matrix" values="0 0 0 0 1 0 0 0 0 0.964706 0 0 0 0 0.686275 0 0 0 0.5 0"/>
<feBlend mode="normal" in2="BackgroundImageFix" result="effect1_dropShadow_4993_2568"/>
<feBlend mode="normal" in="SourceGraphic" in2="effect1_dropShadow_4993_2568" result="shape"/>
</filter>
<filter id="filter2_d_4993_2568" x="4.37549" y="53.3652" width="96.0037" height="80.0615" filterUnits="userSpaceOnUse" color-interpolation-filters="sRGB">
<feFlood flood-opacity="0" result="BackgroundImageFix"/>
<feColorMatrix in="SourceAlpha" type="matrix" values="0 0 0 0 0 0 0 0 0 0 0 0 0 0 0 0 0 0 127 0" result="hardAlpha"/>
<feOffset dy="2"/>
<feGaussianBlur stdDeviation="1.5"/>
<feColorMatrix type="matrix" values="0 0 0 0 0.382764 0 0 0 0 0.291629 0 0 0 0 0.207505 0 0 0 0.4 0"/>
<feBlend mode="normal" in2="BackgroundImageFix" result="effect1_dropShadow_4993_2568"/>
<feBlend mode="normal" in="SourceGraphic" in2="effect1_dropShadow_4993_2568" result="shape"/>
</filter>
<filter id="filter3_d_4993_2568" x="311.297" y="53.3652" width="96.0037" height="80.0615" filterUnits="userSpaceOnUse" color-interpolation-filters="sRGB">
<feFlood flood-opacity="0" result="BackgroundImageFix"/>
<feColorMatrix in="SourceAlpha" type="matrix" values="0 0 0 0 0 0 0 0 0 0 0 0 0 0 0 0 0 0 127 0" result="hardAlpha"/>
<feOffset dy="2"/>
<feGaussianBlur stdDeviation="1.5"/>
<feColorMatrix type="matrix" values="0 0 0 0 0.382764 0 0 0 0 0.291629 0 0 0 0 0.207505 0 0 0 0.4 0"/>
<feBlend mode="normal" in2="BackgroundImageFix" result="effect1_dropShadow_4993_2568"/>
<feBlend mode="normal" in="SourceGraphic" in2="effect1_dropShadow_4993_2568" result="shape"/>
</filter>
<filter id="filter4_d_4993_2568" x="45.0544" y="24" width="320.09" height="89.7959" filterUnits="userSpaceOnUse" color-interpolation-filters="sRGB">
<feFlood flood-opacity="0" result="BackgroundImageFix"/>
<feColorMatrix in="SourceAlpha" type="matrix" values="0 0 0 0 0 0 0 0 0 0 0 0 0 0 0 0 0 0 127 0" result="hardAlpha"/>
<feOffset dy="2"/>
<feGaussianBlur stdDeviation="1.5"/>
<feColorMatrix type="matrix" values="0 0 0 0 0.382764 0 0 0 0 0.291629 0 0 0 0 0.207505 0 0 0 0.4 0"/>
<feBlend mode="normal" in2="BackgroundImageFix" result="effect1_dropShadow_4993_2568"/>
<feBlend mode="normal" in="SourceGraphic" in2="effect1_dropShadow_4993_2568" result="shape"/>
</filter>
<filter id="filter5_d_4993_2568" x="26.3562" y="62.5596" width="62.4519" height="57.5332" filterUnits="userSpaceOnUse" color-interpolation-filters="sRGB">
<feFlood flood-opacity="0" result="BackgroundImageFix"/>
<feColorMatrix in="SourceAlpha" type="matrix" values="0 0 0 0 0 0 0 0 0 0 0 0 0 0 0 0 0 0 127 0" result="hardAlpha"/>
<feOffset dy="2"/>
<feGaussianBlur stdDeviation="1.5"/>
<feColorMatrix type="matrix" values="0 0 0 0 0.382764 0 0 0 0 0.291629 0 0 0 0 0.207505 0 0 0 0.4 0"/>
<feBlend mode="normal" in2="BackgroundImageFix" result="effect1_dropShadow_4993_2568"/>
<feBlend mode="normal" in="SourceGraphic" in2="effect1_dropShadow_4993_2568" result="shape"/>
</filter>
<filter id="filter6_d_4993_2568" x="317.323" y="63.7139" width="68.5076" height="55.4814" filterUnits="userSpaceOnUse" color-interpolation-filters="sRGB">
<feFlood flood-opacity="0" result="BackgroundImageFix"/>
<feColorMatrix in="SourceAlpha" type="matrix" values="0 0 0 0 0 0 0 0 0 0 0 0 0 0 0 0 0 0 127 0" result="hardAlpha"/>
<feOffset dy="2"/>
<feGaussianBlur stdDeviation="1.5"/>
<feColorMatrix type="matrix" values="0 0 0 0 0.382764 0 0 0 0 0.291629 0 0 0 0 0.207505 0 0 0 0.4 0"/>
<feBlend mode="normal" in2="BackgroundImageFix" result="effect1_dropShadow_4993_2568"/>
<feBlend mode="normal" in="SourceGraphic" in2="effect1_dropShadow_4993_2568" result="shape"/>
</filter>
<filter id="filter7_d_4993_2568" x="50.4114" y="31.7148" width="309.349" height="80.7686" filterUnits="userSpaceOnUse" color-interpolation-filters="sRGB">
<feFlood flood-opacity="0" result="BackgroundImageFix"/>
<feColorMatrix in="SourceAlpha" type="matrix" values="0 0 0 0 0 0 0 0 0 0 0 0 0 0 0 0 0 0 127 0" result="hardAlpha"/>
<feOffset dy="4"/>
<feGaussianBlur stdDeviation="2"/>
<feColorMatrix type="matrix" values="0 0 0 0 0.382764 0 0 0 0 0.291629 0 0 0 0 0.207505 0 0 0 0.4 0"/>
<feBlend mode="normal" in2="BackgroundImageFix" result="effect1_dropShadow_4993_2568"/>
<feBlend mode="normal" in="SourceGraphic" in2="effect1_dropShadow_4993_2568" result="shape"/>
</filter>
<filter id="filter8_d_4993_2568" x="60.25" y="38.3936" width="289.653" height="64.207" filterUnits="userSpaceOnUse" color-interpolation-filters="sRGB">
<feFlood flood-opacity="0" result="BackgroundImageFix"/>
<feColorMatrix in="SourceAlpha" type="matrix" values="0 0 0 0 0 0 0 0 0 0 0 0 0 0 0 0 0 0 127 0" result="hardAlpha"/>
<feOffset dy="2"/>
<feGaussianBlur stdDeviation="1.5"/>
<feColorMatrix type="matrix" values="0 0 0 0 0.382764 0 0 0 0 0.291629 0 0 0 0 0.207505 0 0 0 0.4 0"/>
<feBlend mode="normal" in2="BackgroundImageFix" result="effect1_dropShadow_4993_2568"/>
<feBlend mode="normal" in="SourceGraphic" in2="effect1_dropShadow_4993_2568" result="shape"/>
</filter>
<filter id="filter9_d_4993_2568" x="98.4041" y="45.0352" width="206.095" height="52.5859" filterUnits="userSpaceOnUse" color-interpolation-filters="sRGB">
<feFlood flood-opacity="0" result="BackgroundImageFix"/>
<feColorMatrix in="SourceAlpha" type="matrix" values="0 0 0 0 0 0 0 0 0 0 0 0 0 0 0 0 0 0 127 0" result="hardAlpha"/>
<feOffset dy="4"/>
<feGaussianBlur stdDeviation="2"/>
<feComposite in2="hardAlpha" operator="out"/>
<feColorMatrix type="matrix" values="0 0 0 0 0 0 0 0 0 0 0 0 0 0 0 0 0 0 0.25 0"/>
<feBlend mode="normal" in2="BackgroundImageFix" result="effect1_dropShadow_4993_2568"/>
<feBlend mode="normal" in="SourceGraphic" in2="effect1_dropShadow_4993_2568" result="shape"/>
</filter>
<linearGradient id="paint0_linear_4993_2568" x1="53.3464" y1="53.666" x2="53.3464" y2="129.343" gradientUnits="userSpaceOnUse">
<stop stop-color="#4A6FB4"/>
<stop offset="1" stop-color="#273574"/>
</linearGradient>
<linearGradient id="paint1_linear_4993_2568" x1="53.0091" y1="53.666" x2="42.1257" y2="84.6782" gradientUnits="userSpaceOnUse">
<stop stop-color="white"/>
<stop offset="1" stop-color="white" stop-opacity="0"/>
</linearGradient>
<linearGradient id="paint2_linear_4993_2568" x1="55.4822" y1="128.28" x2="57.9845" y2="53.2292" gradientUnits="userSpaceOnUse">
<stop stop-color="#F77F7A"/>
<stop offset="1" stop-color="#FCC0BE"/>
</linearGradient>
<linearGradient id="paint3_linear_4993_2568" x1="358.33" y1="53.666" x2="358.33" y2="129.343" gradientUnits="userSpaceOnUse">
<stop stop-color="#4A6FB4"/>
<stop offset="1" stop-color="#273574"/>
</linearGradient>
<linearGradient id="paint4_linear_4993_2568" x1="358.667" y1="53.666" x2="369.551" y2="84.6782" gradientUnits="userSpaceOnUse">
<stop stop-color="white"/>
<stop offset="1" stop-color="white" stop-opacity="0"/>
</linearGradient>
<linearGradient id="paint5_linear_4993_2568" x1="356.194" y1="128.28" x2="353.692" y2="53.2292" gradientUnits="userSpaceOnUse">
<stop stop-color="#F77F7A"/>
<stop offset="1" stop-color="#FCC0BE"/>
</linearGradient>
<linearGradient id="paint6_linear_4993_2568" x1="198.637" y1="14.6804" x2="198.266" y2="49.0837" gradientUnits="userSpaceOnUse">
<stop stop-color="white" stop-opacity="0.58"/>
<stop offset="1" stop-color="white" stop-opacity="0"/>
</linearGradient>
<linearGradient id="paint7_linear_4993_2568" x1="58.1641" y1="62.7754" x2="49.9627" y2="84.1481" gradientUnits="userSpaceOnUse">
<stop stop-color="white"/>
<stop offset="1" stop-color="white" stop-opacity="0"/>
</linearGradient>
<linearGradient id="paint8_linear_4993_2568" x1="350.719" y1="63.8734" x2="357.974" y2="85.1152" gradientUnits="userSpaceOnUse">
<stop stop-color="white"/>
<stop offset="1" stop-color="white" stop-opacity="0"/>
</linearGradient>
<linearGradient id="paint9_linear_4993_2568" x1="199.219" y1="33.3916" x2="199.026" y2="56.9824" gradientUnits="userSpaceOnUse">
<stop stop-color="white" stop-opacity="0.58"/>
<stop offset="1" stop-color="white" stop-opacity="0"/>
</linearGradient>
</defs>
</svg>
