<svg width="32" height="32" viewBox="0 0 32 32" fill="none" xmlns="http://www.w3.org/2000/svg">
<path d="M21.434 11.167C21.7703 11.1671 22.1176 11.3249 22.3978 11.6504L22.7767 11.3242L22.3988 11.6504C22.5305 11.8032 22.6397 11.9933 22.7162 12.2109C22.7926 12.4287 22.8333 12.6664 22.8334 12.9082C22.8334 13.1501 22.7926 13.3877 22.7162 13.6055C22.6589 13.7687 22.5835 13.9168 22.4935 14.0449L22.3988 14.167L22.3959 14.1699L16.9789 20.5645L16.973 20.5723C16.3151 21.3818 15.8401 21.9623 15.4476 22.3467C15.0445 22.7415 14.824 22.8303 14.6859 22.834C14.5551 22.8375 14.341 22.7677 13.9408 22.3877C13.6474 22.1091 13.3061 21.7148 12.8744 21.1885L12.4105 20.6182C12.1282 20.2391 11.7333 19.8205 11.3666 19.415C10.9812 18.989 10.6072 18.5562 10.3217 18.1113C10.0356 17.6656 9.86154 17.2426 9.8363 16.8389C9.81246 16.4559 9.91962 16.0432 10.2845 15.5898C10.6447 15.1939 10.9328 15.091 11.1508 15.0859C11.3862 15.0806 11.6579 15.1864 11.9789 15.4326C12.2978 15.6773 12.6166 16.0224 12.9408 16.4102C13.243 16.7717 13.5908 17.2236 13.8793 17.5547V17.5537C14.0744 17.7795 14.3552 17.9296 14.6722 17.9297C14.9503 17.9297 15.201 17.8144 15.39 17.6338L15.4672 17.5518L15.4701 17.5488L20.472 11.6475L20.4711 11.6465C20.7158 11.3635 21.0123 11.2093 21.307 11.1748L21.434 11.167Z" fill="url(#paint0_linear_4300_2367)" stroke="#FDD116"/>
<circle cx="16" cy="16" r="14" stroke="#FDD116" stroke-width="4"/>
<defs>
<linearGradient id="paint0_linear_4300_2367" x1="14.9393" y1="10.5862" x2="25.2411" y2="31.1875" gradientUnits="userSpaceOnUse">
<stop offset="0.2" stop-color="#FFC400"/>
<stop offset="0.44" stop-color="#FDD116"/>
<stop offset="0.69" stop-color="#FCF400"/>
</linearGradient>
</defs>
</svg>
