<svg width="89" height="60" viewBox="0 0 89 60" fill="none" xmlns="http://www.w3.org/2000/svg">
<g filter="url(#filter0_d_1054_78)">
<path d="M39.8393 30.2188H48.6429L78.1607 48.8147L80.2321 50.1197L83.6753 52.2888L85.4409 53.4011L87.0727 51.1767C87.6059 49.997 87.197 48.6047 86.1105 47.9006L51.75 25.6354L47.6071 21.0521H45.5357H43.4643H41.9107L37.7679 25.6354L3.11928 47.7711C1.90261 48.5484 1.44111 50.101 2.03571 51.4167L3.32071 53.5491L5.29345 52.2888L9.54351 49.5736L11.3571 48.4149L39.8393 30.2188Z" fill="#35408E"/>
<path d="M11.3571 52.2888V54.8542H78.1607V52.2888H11.3571Z" fill="#406FC7"/>
<path d="M78.1607 56H80.2321V54.8542V52.2888V50.1197L78.1607 48.8147V52.2888V54.8542V56Z" fill="#FFC400"/>
<path d="M9.54351 56H11.3571V54.8542V52.2888V48.4149L9.54351 49.5736V52.2888V54.8542V56Z" fill="#FFC300"/>
<path d="M9.54351 52.2888H5.29345L3.32071 53.5491L3.52399 53.8864C3.88588 54.487 4.53584 54.8542 5.237 54.8542H9.54351V52.2888Z" fill="#406FC7"/>
<path d="M80.2321 54.8542H83.3617C83.9987 54.8542 84.5976 54.5508 84.9743 54.0372L85.4409 53.4011L83.6753 52.2888H80.2321V54.8542Z" fill="#406FC7"/>
<path d="M43.4643 14.75V21.0521H45.5357V15.8958C45.5357 15.8958 51.2321 14.1771 51.2321 8.44792C51.2321 3.29167 48.125 1 44.5 1C40.4865 1 38.3393 4.78545 37.5763 6.48871C37.3679 6.95387 37.5728 7.48065 38.0188 7.72736C38.6567 8.08022 39.48 7.70215 39.7473 7.02394C40.3488 5.49777 41.7022 3.29167 44.5 3.29167C46.9352 3.29167 48.8918 4.62441 49.1607 7.30209C49.6786 12.4583 43.4643 14.75 43.4643 14.75Z" fill="#FFC300"/>
<path d="M44.5 0.5C46.4164 0.5 48.2356 1.10678 49.5771 2.43457C50.9218 3.76561 51.7324 5.76747 51.7324 8.44824C51.7323 11.5043 50.2038 13.4978 48.6973 14.71C47.9469 15.3137 47.1989 15.7273 46.6387 15.9902C46.4008 16.1019 46.1948 16.1858 46.0361 16.2471V20.5518H47.8291L47.9785 20.7168L52.0781 25.252L86.3828 47.4814C87.6764 48.32 88.1632 49.978 87.5283 51.3828L87.5068 51.4307L87.4756 51.4727L85.8438 53.6973L85.3779 54.333C84.907 54.975 84.1575 55.3545 83.3613 55.3545H80.7324V56.5H77.6611V55.3545H11.8574V56.5H9.04395V55.3545H5.2373C4.40054 55.3545 3.62259 54.9353 3.16016 54.2441L3.15723 54.2471L2.89258 53.8076L2.64062 53.3896V53.3887L1.60742 51.6748L1.5918 51.6494L1.58008 51.623C0.883213 50.0811 1.42381 48.2607 2.84961 47.3496L37.4395 25.251L41.54 20.7168L41.6885 20.5518H42.9639V14.4014L43.291 14.2812C43.2913 14.2811 43.292 14.2807 43.293 14.2803C43.295 14.2795 43.2988 14.2782 43.3037 14.2764C43.3135 14.2726 43.3291 14.2669 43.3496 14.2588C43.3908 14.2424 43.4527 14.2169 43.5322 14.1826C43.692 14.1138 43.9226 14.0089 44.1982 13.8672C44.7514 13.5827 45.4806 13.1527 46.1904 12.5723C47.6162 11.4063 48.8979 9.69268 48.6631 7.35254C48.5406 6.133 48.0411 5.25731 47.3281 4.68164C46.6081 4.10044 45.6289 3.79199 44.5 3.79199C42.0294 3.79199 40.7968 5.72562 40.2129 7.20703C39.8561 8.11235 38.7265 8.69062 37.7764 8.16504C37.1267 7.8055 36.7949 7.01018 37.1201 6.28418C37.5137 5.4057 38.2703 3.97421 39.4619 2.75586C40.6586 1.53244 42.3199 0.5 44.5 0.5ZM80.7324 51.7891H81.9443L80.7324 51.0254V51.7891ZM11.8574 48.6875V51.7891H77.6611V49.0898L48.498 30.7188H39.9844L11.8574 48.6875ZM7.00391 51.7891H9.04395V50.4854L7.00391 51.7891Z" stroke="black"/>
</g>
<defs>
<filter id="filter0_d_1054_78" x="0.777344" y="0" width="87.5283" height="60" filterUnits="userSpaceOnUse" color-interpolation-filters="sRGB">
<feFlood flood-opacity="0" result="BackgroundImageFix"/>
<feColorMatrix in="SourceAlpha" type="matrix" values="0 0 0 0 0 0 0 0 0 0 0 0 0 0 0 0 0 0 127 0" result="hardAlpha"/>
<feOffset dy="3"/>
<feComposite in2="hardAlpha" operator="out"/>
<feColorMatrix type="matrix" values="0 0 0 0 0 0 0 0 0 0 0 0 0 0 0 0 0 0 0.25 0"/>
<feBlend mode="normal" in2="BackgroundImageFix" result="effect1_dropShadow_1054_78"/>
<feBlend mode="normal" in="SourceGraphic" in2="effect1_dropShadow_1054_78" result="shape"/>
</filter>
</defs>
</svg>
