<svg width="50" height="60" viewBox="0 0 50 60" fill="none" xmlns="http://www.w3.org/2000/svg">
<g filter="url(#filter0_d_1464_69)">
<path d="M18.2662 5.03905C11.178 4.81018 5.24491 10.328 5.01425 17.3635C4.77622 24.624 10.9512 30.7531 18.2662 30.5169C25.3546 30.2881 30.9139 24.399 30.6832 17.3635C30.4602 10.5604 25.1203 5.26035 18.2662 5.03905Z" fill="white"/>
<path fill-rule="evenodd" clip-rule="evenodd" d="M18.2662 1.00456C8.94844 0.790898 1.23538 8.11538 1.00512 17.3635C0.769214 26.8379 8.72034 34.7702 18.2662 34.5513C20.7402 34.4946 23.0768 33.9112 25.1708 32.9119C27.2761 31.9071 29.1361 30.4817 30.6439 28.7484C33.2941 25.7016 34.8559 21.703 34.7478 17.3635C34.5229 8.33144 27.3663 1.21323 18.2662 1.00456ZM5.01425 17.3635C5.24491 10.328 11.178 4.81018 18.2662 5.03905C25.1203 5.26035 30.4602 10.5604 30.6832 17.3635C30.9139 24.399 25.3546 30.2881 18.2662 30.5169C10.9512 30.7531 4.77622 24.624 5.01425 17.3635Z" fill="#273574"/>
<path d="M25.1708 32.9119L26.6185 34.883L28.79 33.2359L29.5696 32.6447L30.6439 31.8299L32.5207 30.4064L30.6439 28.7484C29.1361 30.4817 27.2761 31.9071 25.1708 32.9119Z" fill="#35408E"/>
<path d="M46.1068 53.2315L48 50.6339L30.6439 31.8299L29.5696 32.6447L43.3785 53.1209L46.1068 53.2315Z" fill="#FFDE4F"/>
<path d="M28.79 33.2359L41.8194 55L46.1068 53.2315L43.3785 53.1209L29.5696 32.6447L28.79 33.2359Z" fill="#FFC300"/>
<path d="M18.2773 0.504883C27.6418 0.719614 35.0163 8.04976 35.248 17.3506C35.3549 21.6424 33.8736 25.61 31.3398 28.6963L32.8516 30.0312L33.3096 30.4355L32.8232 30.8047L31.3848 31.8955L48.3672 50.2949L48.6455 50.5967L48.4043 50.9287L46.5107 53.5264L46.3535 53.7422L46.1943 53.7354L42.0098 55.4619L41.6113 55.627L41.3906 55.2568L28.6475 33.9707L26.9209 35.2812L26.5156 35.5879L26.2158 35.1787L25.0088 33.5361C22.9502 34.4587 20.676 34.9958 18.2773 35.0508C8.44887 35.2759 0.261807 27.1131 0.504883 17.3506C0.742291 7.82469 8.68663 0.285151 18.2773 0.504883Z" stroke="black"/>
</g>
<defs>
<filter id="filter0_d_1464_69" x="0" y="0" width="49.292" height="59.2531" filterUnits="userSpaceOnUse" color-interpolation-filters="sRGB">
<feFlood flood-opacity="0" result="BackgroundImageFix"/>
<feColorMatrix in="SourceAlpha" type="matrix" values="0 0 0 0 0 0 0 0 0 0 0 0 0 0 0 0 0 0 127 0" result="hardAlpha"/>
<feOffset dy="3"/>
<feComposite in2="hardAlpha" operator="out"/>
<feColorMatrix type="matrix" values="0 0 0 0 0 0 0 0 0 0 0 0 0 0 0 0 0 0 0.25 0"/>
<feBlend mode="normal" in2="BackgroundImageFix" result="effect1_dropShadow_1464_69"/>
<feBlend mode="normal" in="SourceGraphic" in2="effect1_dropShadow_1464_69" result="shape"/>
</filter>
</defs>
</svg>
