<svg width="121" height="272" viewBox="0 0 121 272" fill="none" xmlns="http://www.w3.org/2000/svg">
<rect x="0.980469" y="16.5518" width="119.499" height="254.482" fill="url(#paint0_linear_4852_5970)"/>
<path d="M18.3621 0H103.097L120.479 16.5517H0.980469L18.3621 0Z" fill="#5267C7"/>
<path d="M78.1293 117.3C78.1293 118.433 74.7293 119 67.9293 119C61.196 119 57.8293 118.433 57.8293 117.3V68L47.0293 68.1C45.0293 68.1 44.0293 64.9 44.0293 58.5C44.0293 56.3 44.2293 54.1667 44.6293 52.1C45.096 50.0333 45.8626 49 46.9293 49H74.3293C75.4626 49 76.3626 49.2667 77.0293 49.8C77.7626 50.2667 78.1293 50.8667 78.1293 51.6V117.3Z" fill="white"/>
<defs>
<linearGradient id="paint0_linear_4852_5970" x1="60.7298" y1="16.5518" x2="60.7298" y2="195.517" gradientUnits="userSpaceOnUse">
<stop offset="0.192308" stop-color="#35408E"/>
<stop offset="1" stop-color="#3D70C9"/>
</linearGradient>
</defs>
</svg>
