<svg width="113" height="227" viewBox="0 0 113 227" fill="none" xmlns="http://www.w3.org/2000/svg">
<rect y="20.1777" width="112.98" height="206.822" fill="url(#paint0_linear_4852_5965)"/>
<path d="M15.4064 0H112.98V20.1778H0L15.4064 0Z" fill="#5267C7"/>
<path d="M69.6968 103H43.1368C41.2701 103 39.9635 101.187 39.2168 97.56C38.8435 95.5867 38.6568 94.0933 38.6568 93.08C38.6568 92.0667 38.8168 91.4 39.1368 91.08C51.0835 78.76 57.0568 70.3867 57.0568 65.96C57.0568 64.4667 56.6568 63.3467 55.8568 62.6C55.1101 61.8533 53.8835 61.48 52.1768 61.48C50.5235 61.48 48.8435 61.8 47.1368 62.44C45.4835 63.08 44.1768 63.7733 43.2168 64.52C41.1368 62.0133 39.6968 59.3733 38.8968 56.6C38.6301 55.6933 38.4968 54.8667 38.4968 54.12C38.4968 53.32 38.6301 52.5733 38.8968 51.88C39.3235 50.4933 41.2968 49.1867 44.8168 47.96C48.3901 46.7333 52.1501 46.12 56.0968 46.12C68.0435 46.12 74.0168 51.4267 74.0168 62.04C74.0168 66.7333 72.4168 71.5067 69.2168 76.36C66.0168 81.16 62.2835 85.32 58.0168 88.84L74.1768 88.2C74.4435 91.0267 74.5768 93.48 74.5768 95.56C74.5768 97.64 74.1501 99.4 73.2968 100.84C72.4435 102.28 71.2435 103 69.6968 103Z" fill="white"/>
<defs>
<linearGradient id="paint0_linear_4852_5965" x1="56.4902" y1="20.1777" x2="56.4902" y2="227" gradientUnits="userSpaceOnUse">
<stop stop-color="#273574"/>
<stop offset="1" stop-color="#3D70C9"/>
</linearGradient>
</defs>
</svg>
