<svg width="114" height="205" viewBox="0 0 114 205" fill="none" xmlns="http://www.w3.org/2000/svg">
<rect x="0.47998" y="18.4102" width="112.98" height="186.59" fill="url(#paint0_linear_4852_5960)"/>
<path d="M0.47998 0.206055H97.027L113.46 18.41H0.47998L0.47998 0.206055Z" fill="#5267C7"/>
<path d="M41.7774 77.7988C41.7774 76.6788 42.0574 75.4188 42.6174 74.0188C43.1774 72.5788 43.7174 71.4388 44.2374 70.5988C44.7574 69.7188 45.0574 69.2788 45.1374 69.2788C47.4574 70.6788 49.8974 71.3788 52.4574 71.3788C54.0574 71.3788 55.3374 71.0588 56.2974 70.4188C57.2974 69.7788 57.7974 68.8988 57.7974 67.7788C57.7974 66.6188 57.3374 65.8788 56.4174 65.5588C55.5374 65.2388 54.1174 65.0188 52.1574 64.8988H49.9974C49.5174 64.8988 49.0574 64.3188 48.6174 63.1588C48.2174 61.9588 48.0174 60.7988 48.0174 59.6788C48.0174 57.7988 48.5774 56.8388 49.6974 56.7988L51.4374 56.7388C52.5174 56.7388 53.6374 56.4388 54.7974 55.8388C55.9974 55.1988 56.5974 54.3988 56.5974 53.4388C56.5974 51.7588 55.0974 50.9188 52.0974 50.9188C49.8574 50.9188 47.6974 51.3588 45.6174 52.2388C43.8174 48.9988 42.9174 46.4788 42.9174 44.6788C42.9174 42.8388 44.1774 41.4588 46.6974 40.5388C49.2574 39.6188 52.4574 39.1588 56.2974 39.1588C60.1374 39.1588 63.1374 39.9588 65.2974 41.5588C67.4574 43.1588 68.5374 45.3388 68.5374 48.0988C68.5374 52.9388 66.4574 56.6588 62.2974 59.2588C67.3374 61.2988 69.8574 64.7588 69.8574 69.6388C69.8574 73.4388 68.5174 76.5188 65.8374 78.8788C63.1574 81.1988 59.3174 82.3588 54.3174 82.3588C51.1574 82.3588 48.2774 81.9188 45.6774 81.0388C43.0774 80.1188 41.7774 79.0388 41.7774 77.7988Z" fill="white"/>
<defs>
<linearGradient id="paint0_linear_4852_5960" x1="56.9702" y1="18.4102" x2="56.9702" y2="205" gradientUnits="userSpaceOnUse">
<stop stop-color="#273574"/>
<stop offset="1" stop-color="#3D70C9"/>
</linearGradient>
</defs>
</svg>
