<svg width="58" height="60" viewBox="0 0 58 60" fill="none" xmlns="http://www.w3.org/2000/svg">
<g filter="url(#filter0_d_986_2)">
<path d="M28.5758 13.8364C20.7181 13.5409 13.435 21.793 14.3637 29.668C14.8232 33.5642 16.6869 36.714 19.4544 38.6976C19.4544 38.6976 14.1513 30.0959 20.3029 22.3941C27.9529 12.816 37.6968 18.3322 37.6968 18.3322C35.6623 15.6647 32.5081 13.9843 28.5758 13.8364Z" fill="#FFC300"/>
<path fill-rule="evenodd" clip-rule="evenodd" d="M14.3751 3.8478C13.7171 4.31406 13.4394 5.14393 13.6489 5.92268L14.702 9.83745C14.9022 10.5815 14.6516 11.3687 14.0962 11.9028C13.1499 12.8131 12.2789 13.8128 11.4954 14.8871C10.9814 15.592 10.0969 15.9447 9.25399 15.7196L6.41478 14.9613C5.39711 14.6895 4.34305 15.2536 4.0047 16.2511L2.40127 20.9782C2.08347 21.9151 2.49846 22.9436 3.37748 23.3976L6.65832 25.0922C7.00263 25.27 7.19506 25.6459 7.15151 26.031V26.031C6.97474 27.5936 6.97381 29.1319 7.13208 30.6263C7.21554 31.4143 6.88337 32.1994 6.22223 32.6362L2.52486 35.0787C1.66139 35.6492 1.37569 36.7841 1.86618 37.6954L5.0303 43.574L9.8489 41.5905C10.6855 41.2461 11.6416 41.5133 12.2432 42.1889C12.6477 42.6431 13.0721 43.0791 13.5152 43.4952C13.8164 43.7782 14.1263 44.0521 14.4444 44.3164C15.1618 44.9123 15.4583 45.8973 15.1043 46.7601L14.2344 48.8807C13.8311 49.8639 14.2671 50.9909 15.2272 51.4466L16.2197 51.9177L19.2203 53.3418C20.0931 53.7561 21.1372 53.4872 21.7014 52.703L23.846 49.7219C24.2767 49.1234 25.0012 48.8185 25.7367 48.8718C26.3222 48.9142 26.9154 48.9315 27.5151 48.9225C28.2435 48.9117 28.9598 48.8617 29.6626 48.7746C30.4277 48.6797 31.1997 48.9746 31.656 49.596L33.0303 51.4679L34.0909 52.9124L34.4545 53.1315L40.0786 50.5384C41.0138 50.1072 41.4687 49.0364 41.1298 48.0639L40.2702 45.5972C39.9978 44.8159 40.2415 43.9541 40.8354 43.3781C41.8029 42.4399 42.6811 41.4037 43.4585 40.2861C43.9666 39.5557 44.8649 39.1794 45.7257 39.4047L48.9607 40.2513C49.7223 40.4506 50.5318 40.1862 50.9916 39.5472C51.5367 38.7897 52.2228 37.7555 52.5455 36.9419C53.1253 35.4798 53.1818 32.877 53.1818 32.877L51.2727 31.8282L48.4988 30.3043C47.7963 29.9184 47.4 29.1505 47.4343 28.3497C47.4521 27.9358 47.4589 27.5193 47.4545 27.1007C47.4462 26.2988 47.4019 25.5092 47.3225 24.7341C47.243 23.9574 47.5762 23.1873 48.2271 22.756L51.5497 20.5539C52.368 20.0115 52.6717 18.9553 52.2664 18.0611L49.5758 12.1249L44.9425 13.7615C44.1 14.059 43.1707 13.7544 42.5981 13.0685C42.385 12.8132 42.1653 12.5638 41.9394 12.3204C41.3595 11.6958 40.7378 11.1113 40.0764 10.5705C39.4301 10.0421 39.1084 9.19705 39.3175 8.38885L40.4545 3.99516L34.6726 1.66255C33.7351 1.28433 32.6627 1.66518 32.1738 2.55001L30.164 6.18722C30.1016 6.3002 29.9766 6.3635 29.8484 6.34852V6.34852C28.9178 6.23981 27.9974 6.20224 27.0909 6.23117C26.4756 6.2508 25.8667 6.30107 25.2654 6.38052C24.4438 6.48909 23.6132 6.15094 23.1651 5.45368L20.303 1C20.303 1 17.9383 1.70867 16.4849 2.49758C15.7867 2.87651 14.9944 3.40891 14.3751 3.8478ZM14.3637 29.668C13.435 21.793 20.7181 13.5409 28.5758 13.8364C32.5081 13.9843 35.6623 15.6647 37.6968 18.3322C39.4538 20.6359 40.3757 23.6758 40.2423 27.1007C39.9662 34.1856 34.541 40.7625 27.5151 41.0068C24.4248 41.1143 21.6541 40.2743 19.4544 38.6976C16.6869 36.714 14.8232 33.5642 14.3637 29.668Z" fill="#FFDE4F"/>
<path d="M50.9916 39.5472C50.5318 40.1862 49.7223 40.4506 48.9607 40.2513L45.7257 39.4047C44.8649 39.1794 43.9666 39.5557 43.4585 40.2861C42.6811 41.4037 41.8029 42.4399 40.8354 43.3781C40.2415 43.9541 39.9978 44.8159 40.2702 45.5972L41.1298 48.0639C41.4687 49.0364 41.0138 50.1072 40.0786 50.5384L34.4545 53.1315L37.4315 54.9251C37.874 55.1918 38.4031 55.2783 38.9009 55.1399C39.7906 54.8927 41.2401 54.4321 42.1515 53.8431C43.1051 53.2269 44.0603 52.0761 44.6207 51.3332C44.9517 50.8944 45.0505 50.3308 44.9256 49.7956L44.4927 47.9401C44.3538 47.3445 44.495 46.718 44.8761 46.2396L46.5076 44.1916C47.0117 43.5588 47.8474 43.292 48.6249 43.5157L51.2451 44.2696C52.0306 44.4956 52.8755 44.222 53.3587 43.5628C53.7914 42.9724 54.3069 42.2426 54.6667 41.6485C55.4249 40.3966 55.9281 38.4262 56.1781 37.2588C56.3074 36.6555 56.1179 36.0357 55.6978 35.5838L53.1818 32.877C53.1818 32.877 53.1253 35.4798 52.5455 36.9419C52.2228 37.7555 51.5367 38.7897 50.9916 39.5472Z" fill="#FFC300"/>
<path d="M49.5758 12.1249L52.2664 18.0611C52.6717 18.9553 52.368 20.0115 51.5497 20.5539L48.2271 22.756C47.5762 23.1873 47.243 23.9574 47.3225 24.7341C47.4019 25.5092 47.4462 26.2988 47.4545 27.1007C47.4589 27.5193 47.4521 27.9358 47.4343 28.3497C47.4 29.1505 47.7963 29.9184 48.4988 30.3043L51.2727 31.8282L51.8129 26.3627C51.8736 25.7484 52.2145 25.1966 52.7367 24.8675L55.6026 23.0609C56.4137 22.5496 56.7479 21.5345 56.399 20.6414L54.4874 15.7473C54.3285 15.3403 54.0412 14.9973 53.6692 14.7683C52.0576 13.7764 49.6386 12.2635 49.5758 12.1249Z" fill="#FFC300"/>
<path d="M31.656 49.596C31.1997 48.9746 30.4277 48.6797 29.6626 48.7746C28.9598 48.8617 28.2435 48.9117 27.5151 48.9225C26.9154 48.9315 26.3222 48.9142 25.7367 48.8718C25.0012 48.8185 24.2767 49.1234 23.846 49.7219L21.7014 52.703C21.1372 53.4872 20.0931 53.7561 19.2203 53.3418L16.2197 51.9177C16.2197 51.9177 21.7459 56.3105 23.697 55.9825C24.6311 55.8255 26.2507 54.0552 27.0464 53.1242C27.3549 52.7633 27.7709 52.5089 28.2367 52.4167L33.0303 51.4679L31.656 49.596Z" fill="#FFC300"/>
<path d="M12.2432 42.1889C11.6416 41.5133 10.6855 41.2461 9.8489 41.5905L5.0303 43.574L6.35415 45.0649C6.92511 45.7079 7.84316 45.9139 8.63415 45.5766L13.5152 43.4952C13.0721 43.0791 12.6477 42.6431 12.2432 42.1889Z" fill="#FFC300"/>
<path d="M20.303 1L23.1651 5.45368C23.6132 6.15094 24.4438 6.48909 25.2654 6.38052C25.8667 6.30107 26.4756 6.2508 27.0909 6.23117L25.5975 2.97584C25.3357 2.40523 24.8212 1.99064 24.208 1.85619L20.303 1Z" fill="#FFC300"/>
<path d="M40.4545 3.99516L39.3175 8.38885C39.1084 9.19705 39.4301 10.0421 40.0764 10.5705C40.7378 11.1113 41.3595 11.6958 41.9394 12.3204L43.1141 7.93422C43.305 7.22143 43.088 6.46143 42.5494 5.95702L40.4545 3.99516Z" fill="#FFC300"/>
<path d="M49.9453 11.792C49.9535 11.7991 49.9719 11.8139 50.0039 11.8379C50.0695 11.8872 50.1677 11.956 50.2959 12.043C50.5508 12.2158 50.9047 12.4461 51.3105 12.7051C52.1213 13.2225 53.1268 13.8474 53.9316 14.3428C54.3957 14.6285 54.7545 15.0569 54.9531 15.5654L56.8643 20.459L56.9365 20.6699C57.2258 21.6607 56.8736 22.7308 56.0527 23.3564L55.8691 23.4844L53.0029 25.29C52.6604 25.506 52.4217 25.8501 52.3369 26.2412L52.3105 26.4121L51.8027 31.5479L53.4229 32.4385L53.4893 32.4824C53.5102 32.4987 53.5297 32.5167 53.5479 32.5361L56.0645 35.2432C56.5877 35.8061 56.8326 36.5896 56.667 37.3633C56.433 38.4554 55.9644 40.3227 55.2422 41.6494L55.0947 41.9072C54.723 42.521 54.196 43.2658 53.7617 43.8584C53.1503 44.6926 52.0861 45.0319 51.1064 44.75L48.4863 43.9961C47.9399 43.839 47.3551 44.0049 46.9727 44.417L46.8984 44.5029L45.2676 46.5508C44.9818 46.9095 44.8754 47.3795 44.9795 47.8262L45.4121 49.6816C45.5675 50.3476 45.4479 51.0669 45.0195 51.6348C44.4927 52.3331 43.5805 53.4449 42.6162 54.1318L42.4229 54.2627C41.4403 54.8977 39.9228 55.3754 39.0352 55.6221C38.3954 55.7999 37.7252 55.6856 37.1738 55.3535L34.3418 53.6475C34.1724 53.6408 34.0084 53.5752 33.8828 53.4551L33.8018 53.3623L33.6875 53.208L32.8145 52.0195L28.334 52.9072C27.9854 52.9762 27.6669 53.1682 27.4268 53.4492C27.024 53.9204 26.4059 54.6117 25.7646 55.209C25.4444 55.5073 25.1089 55.7908 24.7852 56.0127C24.5112 56.2005 24.2092 56.3703 23.9082 56.4482L23.7803 56.4756C23.4366 56.5334 23.0576 56.4827 22.6885 56.3857C22.3127 56.2871 21.908 56.1296 21.4961 55.9395C20.6722 55.5592 19.7756 55.0265 18.9541 54.4922C18.1302 53.9563 17.3692 53.4115 16.8154 53.001C16.5383 52.7955 16.3123 52.6231 16.1553 52.502C16.0768 52.4414 16.0155 52.3932 15.9736 52.3604C15.9665 52.3548 15.9601 52.3494 15.9541 52.3447L15.0127 51.8984C13.8128 51.3289 13.2677 49.9203 13.7715 48.6914L14.6416 46.5703C14.904 45.9306 14.6922 45.1725 14.125 44.7012C13.8833 44.5004 13.6483 44.2915 13.416 44.0801L8.83008 46.0361C7.90314 46.4314 6.8369 46.23 6.11914 45.541L5.98047 45.3965L4.65625 43.9062L4.58984 43.8105L1.42578 37.9326C0.812678 36.7935 1.16968 35.3742 2.24902 34.6611L5.94629 32.2188C6.43719 31.8944 6.70044 31.2988 6.63477 30.6787C6.47271 29.1483 6.47343 27.5735 6.6543 25.9746L6.65723 25.9053C6.65208 25.7688 6.58627 25.6461 6.4834 25.5703L6.42871 25.5361L3.14844 23.8418C2.04966 23.2743 1.53048 21.9885 1.92773 20.8174L3.53125 16.0908C3.95419 14.8439 5.27186 14.1388 6.54395 14.4785L9.38281 15.2363C10.0089 15.4035 10.6885 15.1457 11.0918 14.5928C11.8921 13.4953 12.7823 12.4728 13.75 11.542C14.1582 11.1491 14.3441 10.5945 14.2432 10.0713L14.2188 9.96777L13.166 6.05273C12.9049 5.08211 13.2486 4.03281 14.0859 3.43945C14.7097 2.99746 15.5214 2.45197 16.2461 2.05859L16.542 1.9043C17.2512 1.54996 18.0896 1.22539 18.7705 0.982422C19.1628 0.842429 19.5097 0.727435 19.7578 0.647461C19.8819 0.607486 19.9817 0.576093 20.0508 0.554688C20.0853 0.543993 20.1125 0.535877 20.1309 0.530273L20.1572 0.521484H20.1592C20.2406 0.497096 20.3272 0.493524 20.4102 0.511719L24.3154 1.36816C25.0818 1.53632 25.7246 2.05444 26.0518 2.76758L27.4092 5.72656C28.1922 5.71539 28.9845 5.75058 29.7842 5.83887L31.7363 2.30859C32.3475 1.20259 33.6875 0.726529 34.8594 1.19922L40.6416 3.53125L40.7236 3.57324C40.7494 3.58969 40.7735 3.60891 40.7959 3.62988L42.8916 5.5918L43.0127 5.71387C43.5574 6.29913 43.789 7.11084 43.6357 7.89551L43.5967 8.06348L42.4922 12.1875C42.6583 12.3717 42.8233 12.5574 42.9824 12.748C43.436 13.2912 44.152 13.5106 44.7764 13.29L49.4092 11.6533L49.502 11.6299C49.6686 11.6049 49.8341 11.6685 49.9453 11.792ZM31.8418 17.2705C28.6921 17.1017 24.6664 17.9994 21.043 22.2812L20.6934 22.7061C17.7316 26.4142 17.5253 30.3314 18.0645 33.3457C18.3345 34.8555 18.791 36.1346 19.1807 37.0352C19.3751 37.4845 19.5523 37.8383 19.6797 38.0781C19.7428 38.1968 19.7944 38.2874 19.8291 38.3477C21.92 39.8183 24.5492 40.6094 27.498 40.5068L27.8115 40.4922C34.3708 40.0768 39.4782 33.8552 39.7422 27.0811L39.7549 26.4629C39.7571 23.435 38.8932 20.7696 37.3584 18.7178C37.3573 18.7172 37.3556 18.7164 37.3545 18.7158C37.2869 18.6807 37.1847 18.6293 37.0508 18.5664C36.7822 18.4403 36.3869 18.2684 35.8877 18.0908C34.8876 17.735 33.4782 17.3582 31.8418 17.2705Z" stroke="black" stroke-linejoin="round"/>
</g>
<defs>
<filter id="filter0_d_986_2" x="0.626953" y="0" width="56.9095" height="60" filterUnits="userSpaceOnUse" color-interpolation-filters="sRGB">
<feFlood flood-opacity="0" result="BackgroundImageFix"/>
<feColorMatrix in="SourceAlpha" type="matrix" values="0 0 0 0 0 0 0 0 0 0 0 0 0 0 0 0 0 0 127 0" result="hardAlpha"/>
<feOffset dy="3"/>
<feComposite in2="hardAlpha" operator="out"/>
<feColorMatrix type="matrix" values="0 0 0 0 0 0 0 0 0 0 0 0 0 0 0 0 0 0 0.25 0"/>
<feBlend mode="normal" in2="BackgroundImageFix" result="effect1_dropShadow_986_2"/>
<feBlend mode="normal" in="SourceGraphic" in2="effect1_dropShadow_986_2" result="shape"/>
</filter>
</defs>
</svg>
