<svg width="412" height="567" viewBox="0 0 412 567" fill="none" xmlns="http://www.w3.org/2000/svg">
<path d="M0 379H412V378H399H385.5H372.5H359H346H332.5H319.5H307H292.5H277.5H265.5H252H239H225H212.5H198.5H186H172H159H145.5H132.5H119H106H92.5H80H66H53H39.5H26.5H12.5H0V379Z" fill="#D9D9D9"/>
<path d="M412 379H0V566.5H412V379Z" fill="#3D70C9"/>
<path d="M0 0V378H12.5V0H0Z" fill="#96ADDA"/>
<path d="M26.5 0V378H39.5V70V70C38.3954 70 37.5 69.1046 37.5 68V34.5C37.5 33.3954 38.3954 32.5 39.5 32.5V32.5V0H26.5Z" fill="#96ADDA"/>
<path d="M53 70V378H66V302.066C64.3691 300.567 63.5 299.5 63.5 299.5V183.5V173V58H58V65C58 67.7614 55.7614 70 53 70V70Z" fill="#96ADDA"/>
<path d="M80 378H92.5V311.338C91.8495 311.409 91.1829 311.463 90.5 311.5C86.6552 311.707 83.1363 311.167 80 310.215V378Z" fill="#96ADDA"/>
<path d="M106 378H119V283.5H113.03C113.658 292.898 114 299.5 114 299.5C114 299.5 111.51 303.452 106 306.83V378Z" fill="#96ADDA"/>
<path d="M132.5 283.5V378H145.5V283.5H132.5Z" fill="#96ADDA"/>
<path d="M159 283.5V378H172V283.5H159Z" fill="#96ADDA"/>
<path d="M186 283.5V378H198.5V283.5H186Z" fill="#96ADDA"/>
<path d="M212.5 283.5V378H225V283.5H213H212.5Z" fill="#96ADDA"/>
<path d="M239 283.5V378H252V283.5H239Z" fill="#96ADDA"/>
<path d="M265.5 283.5V378H277.5V283.5H265.5Z" fill="#96ADDA"/>
<path d="M298 299C298 299 298.247 292.537 298.798 283.5H292.5V378H307V307.448C301.254 303.7 298 299 298 299Z" fill="#96ADDA"/>
<path d="M321.5 312C320.821 312 320.154 311.971 319.5 311.917V378H332.5V310.273C329.286 311.321 325.615 312 321.5 312Z" fill="#96ADDA"/>
<path d="M354.5 58H349V173V183.5V299C349 299 347.988 300.384 346 302.249V378H359V70V70C356.515 70 354.5 67.9853 354.5 65.5V58Z" fill="#96ADDA"/>
<path d="M372.5 0V32.5V32.5C373.881 32.5 375 33.6193 375 35V67.5C375 68.8807 373.881 70 372.5 70V70V378H385.5V0H372.5Z" fill="#96ADDA"/>
<path d="M412 378V0H398.75L399 378H412Z" fill="#96ADDA"/>
<path d="M66 0H53V32.5V32.5C55.7614 32.5 58 34.7386 58 37.5V44H66V0Z" fill="#96ADDA"/>
<path d="M92.5 0H80V44H92.5V0Z" fill="#96ADDA"/>
<path d="M119 0H106V44H119V0Z" fill="#96ADDA"/>
<path d="M145.5 44V0H132.25V44H145.5Z" fill="#96ADDA"/>
<path d="M159 0V44H172V0H159Z" fill="#96ADDA"/>
<path d="M186 0V44H198.5V0H186Z" fill="#96ADDA"/>
<path d="M212.5 0V44H225V0H212.5Z" fill="#96ADDA"/>
<path d="M239 0V44H252V0H239Z" fill="#96ADDA"/>
<path d="M265.5 0V44H278.5V0H265.5Z" fill="#96ADDA"/>
<path d="M292.5 0V44H306V0H292.5Z" fill="#96ADDA"/>
<path d="M319.5 0V44H332.5V0H319.5Z" fill="#96ADDA"/>
<path d="M346 44H354.5V37C354.5 34.5147 356.515 32.5 359 32.5V32.5V0H346V44Z" fill="#96ADDA"/>
<path d="M12.5 0V378H26.5V0H25.5H12.5Z" fill="#FFEDB1"/>
<path d="M39.5 378H53V70H39.5V378Z" fill="#FFEDB1"/>
<path d="M53 0H39.5V32.5H53V0Z" fill="#FFEDB1"/>
<path d="M66 0V44H80V0H66Z" fill="#FFEDB1"/>
<path d="M66 302.066V378H80V310.215C79.4097 310.036 78.8329 309.842 78.2701 309.636C72.6824 307.591 68.4685 304.334 66 302.066Z" fill="#FFEDB1"/>
<path d="M92.5 378H106V306.83C102.654 308.882 98.1932 310.723 92.5 311.338V378Z" fill="#FFEDB1"/>
<path d="M119 283.5V378H132.5V283.5H119Z" fill="#FFEDB1"/>
<path d="M106 0H92.5V44H106V0Z" fill="#FFEDB1"/>
<path d="M132.25 0H119V44H119.125H132.25V0Z" fill="#FFEDB1"/>
<path d="M145.5 0V44H159V0H145.5Z" fill="#FFEDB1"/>
<path d="M172 0V44H186V0H172Z" fill="#FFEDB1"/>
<path d="M198.5 0V44H212.5V0H198.5Z" fill="#FFEDB1"/>
<path d="M225 0V44H239V0H225Z" fill="#FFEDB1"/>
<path d="M252 0V44H265.5V0H252Z" fill="#FFEDB1"/>
<path d="M278.5 0V44H292.5V0H278.5Z" fill="#FFEDB1"/>
<path d="M145.5 283.5V378H159V283.5H145.5Z" fill="#FFEDB1"/>
<path d="M172 283.5V378H186V283.5H172Z" fill="#FFEDB1"/>
<path d="M198.5 283.5V378H212.5V283.5H205H199.5H198.5Z" fill="#FFEDB1"/>
<path d="M225 283.5V378H239V283.5H225Z" fill="#FFEDB1"/>
<path d="M252 283.5V378H265.5V283.5H252Z" fill="#FFEDB1"/>
<path d="M277.5 283.5V378H292.5V283.5H277.5Z" fill="#FFEDB1"/>
<path d="M307 307.448V378H319.5V311.917C314.581 311.509 310.363 309.641 307 307.448Z" fill="#FFEDB1"/>
<path d="M346 378V302.249C343.51 304.585 339.487 307.676 334 309.745C333.512 309.93 333.012 310.106 332.5 310.273V378H346Z" fill="#FFEDB1"/>
<path d="M359 378H372.5V70H364.75H359V378Z" fill="#FFEDB1"/>
<path d="M385.5 0V378H399L398.75 0H385.5Z" fill="#FFEDB1"/>
<path d="M372.5 0H359V32.5H364.75H372.5V0Z" fill="#FFEDB1"/>
<path d="M332.5 0V44H346V0H332.5Z" fill="#FFEDB1"/>
<path d="M306 0V44H319.5V0H306Z" fill="#FFEDB1"/>
<path d="M320.5 183.5C320.5 183.5 308 208.5 302.5 244.5C300.694 256.323 299.499 271.997 298.798 283.5C298.247 292.537 298 299 298 299C298 299 301.254 303.7 307 307.448C310.363 309.641 314.581 311.509 319.5 311.917C320.154 311.971 320.821 312 321.5 312C325.615 312 329.286 311.321 332.5 310.273C333.012 310.106 333.512 309.93 334 309.745C334 309.745 327.697 306.775 324 299.5C316.886 285.5 326 243 329 226C332.059 208.667 344 183.5 344 183.5H320.5Z" fill="#35408E"/>
<path d="M277.5 58C277.5 58 277.5 87 289 116C295.234 131.721 305.158 148.85 312.2 160.184C314.115 163.266 315.817 165.92 317.173 168C319.236 171.163 320.5 173 320.5 173H349C349 173 328.999 142.337 320.5 121.5C305 83.5 307 58 307 58H277.5Z" fill="#35408E"/>
<path d="M122.5 118C130.865 95.5747 135 58 135 58H119H106C106 58 103.547 90.0334 97.5 109.5C89.1559 136.363 63.5 173 63.5 173H91.5C91.5 173 92.8032 171.143 94.9018 168C96.2987 165.908 98.048 163.246 100 160.184C107.268 148.78 117.346 131.816 122.5 118Z" fill="#35408E"/>
<path d="M109 239C105 208.5 91.5 183.5 91.5 183.5H69C69 183.5 78.2701 199.5 82.5 223.5C87.5079 251.915 97.0192 284.5 87.5 301C84.1353 306.832 78.2701 309.636 78.2701 309.636C78.8329 309.842 79.4097 310.036 80 310.215C83.1363 311.167 86.6552 311.707 90.5 311.5C91.1829 311.463 91.8495 311.409 92.5 311.338C98.1932 310.723 102.654 308.882 106 306.83C111.51 303.452 114 299.5 114 299.5C114 299.5 113.658 292.898 113.03 283.5C112.172 270.651 110.78 252.576 109 239Z" fill="#35408E"/>
<path d="M349 299V183.5H344C344 183.5 332.059 208.667 329 226C326 243 316.886 285.5 324 299.5C327.697 306.775 334 309.745 334 309.745C339.487 307.676 343.51 304.585 346 302.249C347.988 300.384 349 299 349 299Z" fill="#5966C7"/>
<path d="M349 173V58H307C307 58 305 83.5 320.5 121.5C328.999 142.337 349 173 349 173Z" fill="#5966C7"/>
<path d="M63.5 58V173C63.5 173 89.1559 136.363 97.5 109.5C103.547 90.0334 106 58 106 58H92.5H63.5Z" fill="#5966C7"/>
<path d="M63.5 183.5V299.5C63.5 299.5 64.3691 300.567 66 302.066C68.4685 304.334 72.6824 307.591 78.2701 309.636C78.2701 309.636 84.1353 306.832 87.5 301C97.0192 284.5 87.5079 251.915 82.5 223.5C78.2701 199.5 69 183.5 69 183.5H63.5Z" fill="#5966C7"/>
<path d="M349 173H320.5V174V183.5H344H349V173Z" fill="#FFEED2"/>
<path d="M63.5 173V183.5H69H91.5V174V173H63.5Z" fill="#FFEED2"/>
<path d="M58 44V52H354.5V44H346H332.5H319.5H306H292.5H278.5H265.5H252H239H225H212.5H198.5H186H172H159H145.5H132.25H119.125H119H106H92.5H80H66H58Z" fill="#FFEED2"/>
<path d="M58 52V58H63.5H92.5H106H119H135H199.5H205H213H277.5H307H349H354.5V52H58Z" fill="#DDBE8A"/>
<path d="M354.5 52V58V65.5C354.5 67.9853 356.515 70 359 70V70H364.75H372.5V70C373.881 70 375 68.8807 375 67.5V35C375 33.6193 373.881 32.5 372.5 32.5V32.5H364.75H359V32.5C356.515 32.5 354.5 34.5147 354.5 37V44V52Z" fill="#D9D9D9"/>
<path d="M58 52V44V37.5C58 34.7386 55.7614 32.5 53 32.5V32.5H39.5V32.5C38.3954 32.5 37.5 33.3954 37.5 34.5V68C37.5 69.1046 38.3954 70 39.5 70V70H53V70C55.7614 70 58 67.7614 58 65V58V52Z" fill="#D9D9D9"/>
<path d="M212.5 283.5H213V174V168H317.173C315.817 165.92 314.115 163.266 312.2 160.184H213V58H205V283.5H212.5Z" fill="#FFEED2"/>
<path d="M320.5 174V173C320.5 173 319.236 171.163 317.173 168H213V174H320.5Z" fill="#DDBE8A"/>
<path d="M91.5 173V174H199.5V283.5H205V58H199.5V160.184V168H94.9018C92.8032 171.143 91.5 173 91.5 173Z" fill="#DDBE8A"/>
<path d="M199.5 160.184H100C98.048 163.246 96.2987 165.908 94.9018 168H199.5V160.184Z" fill="#FFEED2"/>
<path d="M302.5 244.5C308 208.5 320.5 183.5 320.5 183.5V174H213V283.5H225H239H252H265.5H277.5H292.5H298.798C299.499 271.997 300.694 256.323 302.5 244.5Z" fill="url(#paint0_linear_3781_3003)"/>
<path d="M91.5 183.5C91.5 183.5 105 208.5 109 239C110.78 252.576 112.172 270.651 113.03 283.5H119H132.5H145.5H159H172H186H198.5H199.5V174H91.5V183.5Z" fill="url(#paint1_linear_3781_3003)"/>
<path d="M289 116C277.5 87 277.5 58 277.5 58H213V160.184H312.2C305.158 148.85 295.234 131.721 289 116Z" fill="#3B4260"/>
<path d="M135 58C135 58 130.865 95.5747 122.5 118C117.346 131.816 107.268 148.78 100 160.184H199.5V58H135Z" fill="url(#paint2_linear_3781_3003)"/>
<g opacity="0.15" filter="url(#filter0_f_3781_3003)">
<ellipse cx="101" cy="21.5618" rx="101" ry="21.5618" transform="matrix(1 0 0 -1 245 433.617)" fill="black"/>
</g>
<path d="M383.45 284.955H376.641V283.82L375.799 284.662C375.611 284.85 375.506 285.104 375.506 285.369V292.899H376.641H383.45H384.584V285.369C384.584 285.104 384.479 284.85 384.291 284.662L383.45 283.82V284.955Z" fill="#FF0000"/>
<path d="M409.551 284.955H402.742V283.82L401.9 284.662C401.712 284.85 401.607 285.104 401.607 285.369V292.899H402.742H409.551H410.685V285.369C410.685 285.104 410.58 284.85 410.393 284.662L409.551 283.82V284.955Z" fill="#514DCF"/>
<path fill-rule="evenodd" clip-rule="evenodd" d="M361.888 272.472V325.213C361.888 327.423 363.679 329.213 365.888 329.213H373.236L374.182 325.432C374.293 324.986 374.693 324.674 375.152 324.674H383.804C384.262 324.674 384.662 324.986 384.774 325.432L385.719 329.213H399.337L401.33 325.227C401.5 324.888 401.846 324.674 402.225 324.674H410.067C410.446 324.674 410.792 324.888 410.962 325.227L412.955 329.213H419.105C421.339 329.213 423.14 327.384 423.104 325.15L422.268 272.472H361.888ZM370.966 279.281H387.989L386.854 280.983V304.247C386.854 304.247 389.124 305.382 389.124 307.652C389.124 309.381 387.148 311.109 386.207 311.835C385.894 312.076 385.509 312.191 385.114 312.191H373.909C373.472 312.191 373.048 312.05 372.719 311.763C371.844 311 370.136 309.326 369.832 307.652C369.477 305.702 372.101 304.247 372.101 304.247V280.983L370.966 279.281ZM397.068 279.281H414.09L412.955 280.983V304.247C412.955 304.247 415.225 305.382 415.225 307.652C415.225 309.381 413.249 311.109 412.308 311.835C411.995 312.076 411.61 312.191 411.215 312.191H400.01C399.573 312.191 399.149 312.05 398.82 311.763C397.945 311 396.237 309.326 395.933 307.652C395.578 305.702 398.202 304.247 398.202 304.247V280.983L397.068 279.281Z" fill="#BBC8D6"/>
<path d="M422.081 260.671C422.055 259.033 420.719 257.719 419.081 257.719H364.888C363.231 257.719 361.888 259.062 361.888 260.719V272.472H422.268L422.081 260.671Z" fill="#BBC8D6"/>
<path d="M399.872 282.685C399.538 282.685 399.226 282.518 399.04 282.24L398.202 280.983V304.247H412.955V280.983L412.117 282.24C411.932 282.518 411.619 282.685 411.285 282.685H409.551V283.82L410.393 284.662C410.58 284.85 410.685 285.104 410.685 285.369V292.899H409.551L408.416 300.843H403.877L402.742 292.899H401.607V285.369C401.607 285.104 401.712 284.85 401.9 284.662L402.742 283.82V282.685H399.872Z" fill="#87919B"/>
<path d="M386.854 304.247H372.101C372.101 304.247 369.477 305.702 369.832 307.652C370.136 309.326 371.844 311 372.719 311.763C373.048 312.05 373.472 312.191 373.909 312.191H385.114C385.509 312.191 385.894 312.076 386.207 311.835C387.148 311.109 389.124 309.381 389.124 307.652C389.124 305.382 386.854 304.247 386.854 304.247Z" fill="white"/>
<path d="M412.955 304.247H398.202C398.202 304.247 395.578 305.702 395.933 307.652C396.237 309.326 397.945 311 398.82 311.763C399.149 312.05 399.573 312.191 400.01 312.191H411.215C411.61 312.191 411.995 312.076 412.308 311.835C413.249 311.109 415.225 309.381 415.225 307.652C415.225 305.382 412.955 304.247 412.955 304.247Z" fill="white"/>
<path d="M375.152 324.674C374.693 324.674 374.293 324.986 374.182 325.432L373.236 329.213H385.719L384.774 325.432C384.662 324.986 384.262 324.674 383.804 324.674H375.152Z" fill="white"/>
<path d="M402.225 324.674C401.846 324.674 401.5 324.888 401.33 325.227L399.337 329.213H412.955L410.962 325.227C410.792 324.888 410.446 324.674 410.067 324.674H402.225Z" fill="white"/>
<path d="M402.742 292.899L403.877 300.843H408.416L409.551 292.899H402.742Z" fill="white"/>
<path d="M376.641 292.899L377.775 300.843H382.315L383.45 292.899H376.641Z" fill="white"/>
<path d="M387.989 279.281H370.966L372.101 280.983L372.939 282.24C373.125 282.518 373.437 282.685 373.771 282.685H376.641H383.45H385.184C385.518 282.685 385.831 282.518 386.016 282.24L386.854 280.983L387.989 279.281Z" fill="white"/>
<path d="M414.09 279.281H397.068L398.202 280.983L399.04 282.24C399.226 282.518 399.538 282.685 399.872 282.685H402.742H409.551H411.285C411.619 282.685 411.932 282.518 412.117 282.24L412.955 280.983L414.09 279.281Z" fill="white"/>
<path d="M376.641 284.955H383.45V283.82V282.685H376.641V283.82V284.955Z" fill="#202020"/>
<path d="M402.742 284.955H409.551V283.82V282.685H402.742V283.82V284.955Z" fill="#4E4E4E"/>
<path d="M373.771 282.685C373.437 282.685 373.125 282.518 372.939 282.24L372.101 280.983V304.247H386.854V280.983L386.016 282.24C385.831 282.518 385.518 282.685 385.184 282.685H383.45V283.82L384.291 284.662C384.479 284.85 384.584 285.104 384.584 285.369V292.899H383.45L382.315 300.843H377.775L376.641 292.899H375.506V285.369C375.506 285.104 375.611 284.85 375.799 284.662L376.641 283.82V282.685H373.771Z" fill="#87919B"/>
<path d="M368.697 223.674V232.753H414.09V223.674H406.146H380.045H368.697Z" fill="#BBC8D6"/>
<path d="M380.045 223.674H406.146C406.146 223.674 412.149 218.141 416.36 214.596C419.354 212.074 423.829 208.547 426.164 206.72C427.138 205.958 427.708 204.793 427.708 203.556V200.978H358.483V203.592C358.483 204.808 359.034 205.957 359.983 206.719C362.459 208.709 367.476 212.763 370.966 215.73C374.555 218.782 380.045 223.674 380.045 223.674Z" fill="url(#paint3_linear_3781_3003)"/>
<path d="M429.978 200.978V191.899H427.708H358.483H356.214V200.978H358.483H427.708H429.978Z" fill="#95CFE4"/>
<path d="M358.483 191.899H427.708V166.933H358.483V191.899Z" fill="url(#paint4_linear_3781_3003)"/>
<path d="M358.483 158.989H427.708V134.022H358.483V158.989Z" fill="#D9D9D9"/>
<path d="M358.483 158.989H427.708V134.022H358.483V158.989Z" fill="url(#paint5_linear_3781_3003)"/>
<path d="M427.708 121C427.708 118.791 425.917 117 423.708 117H362.483C360.274 117 358.483 118.791 358.483 121V125.359H427.708V121Z" fill="#FF0000"/>
<path d="M427.708 121C427.708 118.791 425.917 117 423.708 117H362.483C360.274 117 358.483 118.791 358.483 121V125.359H427.708V121Z" fill="url(#paint6_linear_3781_3003)"/>
<path d="M356.214 158.989V166.933H358.483H427.708H429.978V158.989H427.708H358.483H356.214Z" fill="#95CFE4"/>
<path d="M356.214 125.359V134.022H358.483H427.708H429.978V125.359H427.708H358.483H356.214Z" fill="#95CFE4"/>
<path fill-rule="evenodd" clip-rule="evenodd" d="M351.405 232.753C350.3 232.753 349.405 233.648 349.405 234.753V414.596C349.405 415.7 350.3 416.596 351.405 416.596H432.517C433.622 416.596 434.517 415.7 434.517 414.596V234.753C434.517 233.648 433.622 232.753 432.517 232.753H414.09H368.697H351.405ZM361.888 260.719C361.888 259.062 363.231 257.719 364.888 257.719H419.081C420.719 257.719 422.055 259.033 422.081 260.671L422.268 272.472L423.104 325.15C423.14 327.384 421.339 329.213 419.105 329.213H412.955H399.337H385.719H373.236H365.888C363.679 329.213 361.888 327.423 361.888 325.213V272.472V260.719Z" fill="url(#paint7_linear_3781_3003)"/>
<path d="M254.079 409.191C254.079 411.4 255.87 413.191 258.079 413.191H286.989H314.764C316.973 413.191 318.764 411.4 318.764 409.191V405.247H254.079V409.191Z" fill="#FF0000"/>
<path d="M254.079 409.191C254.079 411.4 255.87 413.191 258.079 413.191H286.989H314.764C316.973 413.191 318.764 411.4 318.764 409.191V405.247H254.079V409.191Z" fill="url(#paint8_linear_3781_3003)"/>
<path d="M318.764 397.303V374.607H254.079V397.303H318.764Z" fill="url(#paint9_linear_3781_3003)"/>
<path d="M254.079 366.663H318.764V343.966H254.079V366.663Z" fill="url(#paint10_linear_3781_3003)"/>
<path d="M318.764 334.275C318.764 333.214 318.344 332.197 317.582 331.459C314.87 328.831 307.958 322.306 301.742 317.865C293.798 312.191 293.798 308.787 293.798 308.787H279.045C279.045 308.787 279.045 311.51 271.101 317.865C264.962 322.777 258.145 328.908 255.365 331.44C254.54 332.191 254.079 333.252 254.079 334.367V336.022H318.764V334.275Z" fill="url(#paint11_linear_3781_3003)"/>
<path d="M321.034 405.247V397.303H318.764H254.079H251.809V405.247H254.079H318.764H321.034Z" fill="#95CFE4"/>
<path d="M321.034 374.607V366.663H318.764H254.079H251.809V374.607H254.079H318.764H321.034Z" fill="#95CFE4"/>
<path d="M321.034 343.966V336.022H318.764H254.079H251.809V343.966H254.079H318.764H321.034Z" fill="#95CFE4"/>
<path d="M279.045 304.247H293.798V299.708H279.045V304.247Z" fill="url(#paint12_linear_3781_3003)"/>
<path d="M296.068 308.787V306.247C296.068 305.143 295.172 304.247 294.068 304.247H293.798H279.045H278.775C277.671 304.247 276.775 305.143 276.775 306.247V308.787H279.045H293.798H296.068Z" fill="#95CFE4"/>
<path d="M279.045 296.303H293.798V292.899H279.045V296.303Z" fill="url(#paint13_linear_3781_3003)"/>
<path d="M293.798 299.708C294.425 299.708 294.933 299.2 294.933 298.573V297.438C294.933 296.811 294.425 296.303 293.798 296.303V296.303H279.045V296.303C278.418 296.303 277.91 296.811 277.91 297.438V298.573C277.91 299.2 278.418 299.708 279.045 299.708V299.708H293.798V299.708Z" fill="#95CFE4"/>
<path d="M293.798 292.899C294.425 292.899 294.933 292.391 294.933 291.764V289.494C294.933 288.868 294.425 288.36 293.798 288.36V288.36H279.045V288.36C278.418 288.36 277.91 288.868 277.91 289.494V291.764C277.91 292.391 278.418 292.899 279.045 292.899V292.899H293.798V292.899Z" fill="#95CFE4"/>
<path d="M293.798 284.955H279.045V288.36H293.798V284.955Z" fill="#514DCF"/>
<path d="M368.697 232.753H351.405C350.3 232.753 349.405 233.648 349.405 234.753V414.596C349.405 415.7 350.3 416.596 351.405 416.596H432.517C433.622 416.596 434.517 415.7 434.517 414.596V234.753C434.517 233.648 433.622 232.753 432.517 232.753H414.09M368.697 232.753V223.674H380.045M368.697 232.753H414.09M414.09 232.753V223.674H406.146M380.045 223.674H406.146M380.045 223.674C380.045 223.674 374.555 218.782 370.966 215.73C367.476 212.763 362.459 208.709 359.983 206.719C359.034 205.957 358.483 204.808 358.483 203.592V200.978M406.146 223.674C406.146 223.674 412.149 218.141 416.36 214.596C419.354 212.074 423.829 208.547 426.164 206.72C427.138 205.958 427.708 204.793 427.708 203.556V200.978M358.483 200.978H356.214V191.899H358.483M358.483 200.978H427.708M358.483 191.899H427.708M358.483 191.899V166.933M427.708 200.978H429.978V191.899H427.708M427.708 191.899V166.933M358.483 166.933H356.214V158.989H358.483M358.483 166.933H427.708M358.483 158.989H427.708M358.483 158.989V134.022M427.708 166.933H429.978V158.989H427.708M427.708 158.989V134.022M427.708 134.022H429.978V125.359H427.708M427.708 134.022H358.483M427.708 125.359V121C427.708 118.791 425.917 117 423.708 117H362.483C360.274 117 358.483 118.791 358.483 121V125.359M427.708 125.359H358.483M358.483 125.359H356.214V134.022H358.483M361.888 272.472V260.719C361.888 259.062 363.231 257.719 364.888 257.719H419.081C420.719 257.719 422.055 259.033 422.081 260.671L422.268 272.472M361.888 272.472V325.213C361.888 327.423 363.679 329.213 365.888 329.213H373.236M361.888 272.472H422.268M422.268 272.472L423.104 325.15C423.14 327.384 421.339 329.213 419.105 329.213H412.955M372.101 280.983L372.939 282.24C373.125 282.518 373.437 282.685 373.771 282.685H376.641M372.101 280.983L370.966 279.281H387.989L386.854 280.983M372.101 280.983V304.247M372.101 304.247H386.854M372.101 304.247C372.101 304.247 369.477 305.702 369.832 307.652C370.136 309.326 371.844 311 372.719 311.763C373.048 312.05 373.472 312.191 373.909 312.191H385.114C385.509 312.191 385.894 312.076 386.207 311.835C387.148 311.109 389.124 309.381 389.124 307.652C389.124 305.382 386.854 304.247 386.854 304.247M386.854 304.247V280.983M386.854 280.983L386.016 282.24C385.831 282.518 385.518 282.685 385.184 282.685H383.45M376.641 282.685H383.45M376.641 282.685V283.82M383.45 282.685V283.82M376.641 283.82V284.955H383.45V283.82M376.641 283.82L375.799 284.662C375.611 284.85 375.506 285.104 375.506 285.369V292.899H376.641M383.45 283.82L384.291 284.662C384.479 284.85 384.584 285.104 384.584 285.369V292.899H383.45M376.641 292.899L377.775 300.843H382.315L383.45 292.899M376.641 292.899H383.45M398.202 280.983L399.04 282.24C399.226 282.518 399.538 282.685 399.872 282.685H402.742M398.202 280.983L397.068 279.281H414.09L412.955 280.983M398.202 280.983V304.247M398.202 304.247H412.955M398.202 304.247C398.202 304.247 395.578 305.702 395.933 307.652C396.237 309.326 397.945 311 398.82 311.763C399.149 312.05 399.573 312.191 400.01 312.191H411.215C411.61 312.191 411.995 312.076 412.308 311.835C413.249 311.109 415.225 309.381 415.225 307.652C415.225 305.382 412.955 304.247 412.955 304.247M412.955 304.247V280.983M412.955 280.983L412.117 282.24C411.932 282.518 411.619 282.685 411.285 282.685H409.551M402.742 282.685H409.551M402.742 282.685V283.82M409.551 282.685V283.82M402.742 283.82V284.955H409.551V283.82M402.742 283.82L401.9 284.662C401.712 284.85 401.607 285.104 401.607 285.369V292.899H402.742M409.551 283.82L410.393 284.662C410.58 284.85 410.685 285.104 410.685 285.369V292.899H409.551M402.742 292.899L403.877 300.843H408.416L409.551 292.899M402.742 292.899H409.551M373.236 329.213L374.182 325.432C374.293 324.986 374.693 324.674 375.152 324.674H383.804C384.262 324.674 384.662 324.986 384.774 325.432L385.719 329.213M373.236 329.213H385.719M385.719 329.213H399.337M399.337 329.213L401.33 325.227C401.5 324.888 401.846 324.674 402.225 324.674H410.067C410.446 324.674 410.792 324.888 410.962 325.227L412.955 329.213M399.337 329.213H412.955M279.045 308.787C279.045 308.787 279.045 311.51 271.101 317.865C264.962 322.777 258.145 328.908 255.365 331.44C254.54 332.191 254.079 333.252 254.079 334.367V336.022M279.045 308.787H293.798M279.045 308.787H276.775M293.798 308.787C293.798 308.787 293.798 312.191 301.742 317.865C307.958 322.306 314.87 328.831 317.582 331.459C318.344 332.197 318.764 333.214 318.764 334.275V336.022M293.798 308.787H296.068M296.068 308.787V306.247C296.068 305.143 295.172 304.247 294.068 304.247H293.798M296.068 308.787H276.775M276.775 308.787V306.247C276.775 305.143 277.671 304.247 278.775 304.247H279.045M279.045 304.247H293.798M279.045 304.247V299.708M293.798 304.247V299.708M293.798 296.303V296.303C294.425 296.303 294.933 296.811 294.933 297.438V298.573C294.933 299.2 294.425 299.708 293.798 299.708V299.708M293.798 296.303H279.045M293.798 296.303V292.899M293.798 299.708H279.045M279.045 296.303V296.303C278.418 296.303 277.91 296.811 277.91 297.438V298.573C277.91 299.2 278.418 299.708 279.045 299.708V299.708M279.045 296.303V292.899M279.045 288.36V284.955H293.798V288.36M279.045 288.36V288.36C278.418 288.36 277.91 288.868 277.91 289.494V291.764C277.91 292.391 278.418 292.899 279.045 292.899V292.899M279.045 288.36H293.798M279.045 292.899H293.798M293.798 292.899V292.899C294.425 292.899 294.933 292.391 294.933 291.764V289.494C294.933 288.868 294.425 288.36 293.798 288.36V288.36M318.764 405.247H321.034V397.303H318.764M318.764 405.247V409.191C318.764 411.4 316.973 413.191 314.764 413.191H286.989H258.079C255.87 413.191 254.079 411.4 254.079 409.191V405.247M318.764 405.247H254.079M318.764 397.303V374.607M318.764 397.303H254.079M318.764 374.607H321.034V366.663H318.764M318.764 374.607H254.079M318.764 366.663H254.079M318.764 366.663V343.966M254.079 405.247H251.809V397.303H254.079M254.079 397.303V374.607M254.079 374.607H251.809V366.663H254.079M254.079 366.663V343.966M254.079 343.966H251.809V336.022H254.079M254.079 343.966H318.764M254.079 336.022H318.764M318.764 336.022H321.034V343.966H318.764" stroke="black" stroke-width="3" stroke-linecap="round" stroke-linejoin="round"/>
<path d="M383.45 284.955H376.641V283.82L375.799 284.662C375.611 284.85 375.506 285.104 375.506 285.369V292.899H376.641H383.45H384.584V285.369C384.584 285.104 384.479 284.85 384.291 284.662L383.45 283.82V284.955Z" fill="#FF0000"/>
<path d="M409.551 284.955H402.742V283.82L401.9 284.662C401.712 284.85 401.607 285.104 401.607 285.369V292.899H402.742H409.551H410.685V285.369C410.685 285.104 410.58 284.85 410.393 284.662L409.551 283.82V284.955Z" fill="#514DCF"/>
<path fill-rule="evenodd" clip-rule="evenodd" d="M361.888 272.472V325.213C361.888 327.423 363.679 329.213 365.888 329.213H373.236L374.182 325.432C374.293 324.986 374.693 324.674 375.152 324.674H383.804C384.262 324.674 384.662 324.986 384.774 325.432L385.719 329.213H399.337L401.33 325.227C401.5 324.888 401.846 324.674 402.225 324.674H410.067C410.446 324.674 410.792 324.888 410.962 325.227L412.955 329.213H419.105C421.339 329.213 423.14 327.384 423.104 325.15L422.268 272.472H361.888ZM370.966 279.281H387.989L386.854 280.983V304.247C386.854 304.247 389.124 305.382 389.124 307.652C389.124 309.381 387.148 311.109 386.207 311.835C385.894 312.076 385.509 312.191 385.114 312.191H373.909C373.472 312.191 373.048 312.05 372.719 311.763C371.844 311 370.136 309.326 369.832 307.652C369.477 305.702 372.101 304.247 372.101 304.247V280.983L370.966 279.281ZM397.068 279.281H414.09L412.955 280.983V304.247C412.955 304.247 415.225 305.382 415.225 307.652C415.225 309.381 413.249 311.109 412.308 311.835C411.995 312.076 411.61 312.191 411.215 312.191H400.01C399.573 312.191 399.149 312.05 398.82 311.763C397.945 311 396.237 309.326 395.933 307.652C395.578 305.702 398.202 304.247 398.202 304.247V280.983L397.068 279.281Z" fill="#BBC8D6"/>
<path d="M422.081 260.671C422.055 259.033 420.719 257.719 419.081 257.719H364.888C363.231 257.719 361.888 259.062 361.888 260.719V272.472H422.268L422.081 260.671Z" fill="#BBC8D6"/>
<path d="M399.872 282.685C399.538 282.685 399.226 282.518 399.04 282.24L398.202 280.983V304.247H412.955V280.983L412.117 282.24C411.932 282.518 411.619 282.685 411.285 282.685H409.551V283.82L410.393 284.662C410.58 284.85 410.685 285.104 410.685 285.369V292.899H409.551L408.416 300.843H403.877L402.742 292.899H401.607V285.369C401.607 285.104 401.712 284.85 401.9 284.662L402.742 283.82V282.685H399.872Z" fill="#87919B"/>
<path d="M386.854 304.247H372.101C372.101 304.247 369.477 305.702 369.832 307.652C370.136 309.326 371.844 311 372.719 311.763C373.048 312.05 373.472 312.191 373.909 312.191H385.114C385.509 312.191 385.894 312.076 386.207 311.835C387.148 311.109 389.124 309.381 389.124 307.652C389.124 305.382 386.854 304.247 386.854 304.247Z" fill="white"/>
<path d="M412.955 304.247H398.202C398.202 304.247 395.578 305.702 395.933 307.652C396.237 309.326 397.945 311 398.82 311.763C399.149 312.05 399.573 312.191 400.01 312.191H411.215C411.61 312.191 411.995 312.076 412.308 311.835C413.249 311.109 415.225 309.381 415.225 307.652C415.225 305.382 412.955 304.247 412.955 304.247Z" fill="white"/>
<path d="M375.152 324.674C374.693 324.674 374.293 324.986 374.182 325.432L373.236 329.213H385.719L384.774 325.432C384.662 324.986 384.262 324.674 383.804 324.674H375.152Z" fill="white"/>
<path d="M402.225 324.674C401.846 324.674 401.5 324.888 401.33 325.227L399.337 329.213H412.955L410.962 325.227C410.792 324.888 410.446 324.674 410.067 324.674H402.225Z" fill="white"/>
<path d="M402.742 292.899L403.877 300.843H408.416L409.551 292.899H402.742Z" fill="white"/>
<path d="M376.641 292.899L377.775 300.843H382.315L383.45 292.899H376.641Z" fill="white"/>
<path d="M387.989 279.281H370.966L372.101 280.983L372.939 282.24C373.125 282.518 373.437 282.685 373.771 282.685H376.641H383.45H385.184C385.518 282.685 385.831 282.518 386.016 282.24L386.854 280.983L387.989 279.281Z" fill="white"/>
<path d="M414.09 279.281H397.068L398.202 280.983L399.04 282.24C399.226 282.518 399.538 282.685 399.872 282.685H402.742H409.551H411.285C411.619 282.685 411.932 282.518 412.117 282.24L412.955 280.983L414.09 279.281Z" fill="white"/>
<path d="M376.641 284.955H383.45V283.82V282.685H376.641V283.82V284.955Z" fill="#202020"/>
<path d="M402.742 284.955H409.551V283.82V282.685H402.742V283.82V284.955Z" fill="#4E4E4E"/>
<path d="M373.771 282.685C373.437 282.685 373.125 282.518 372.939 282.24L372.101 280.983V304.247H386.854V280.983L386.016 282.24C385.831 282.518 385.518 282.685 385.184 282.685H383.45V283.82L384.291 284.662C384.479 284.85 384.584 285.104 384.584 285.369V292.899H383.45L382.315 300.843H377.775L376.641 292.899H375.506V285.369C375.506 285.104 375.611 284.85 375.799 284.662L376.641 283.82V282.685H373.771Z" fill="#87919B"/>
<path d="M368.697 223.674V232.753H414.09V223.674H406.146H380.045H368.697Z" fill="#BBC8D6"/>
<path d="M380.045 223.674H406.146C406.146 223.674 412.149 218.141 416.36 214.596C419.354 212.074 423.829 208.547 426.164 206.72C427.138 205.958 427.708 204.793 427.708 203.556V200.978H358.483V203.592C358.483 204.808 359.034 205.957 359.983 206.719C362.459 208.709 367.476 212.763 370.966 215.73C374.555 218.782 380.045 223.674 380.045 223.674Z" fill="url(#paint14_linear_3781_3003)"/>
<path d="M429.978 200.978V191.899H427.708H358.483H356.214V200.978H358.483H427.708H429.978Z" fill="#95CFE4"/>
<path d="M358.483 191.899H427.708V166.933H358.483V191.899Z" fill="url(#paint15_linear_3781_3003)"/>
<path d="M358.483 158.989H427.708V134.022H358.483V158.989Z" fill="#D9D9D9"/>
<path d="M358.483 158.989H427.708V134.022H358.483V158.989Z" fill="url(#paint16_linear_3781_3003)"/>
<path d="M427.708 121C427.708 118.791 425.917 117 423.708 117H362.483C360.274 117 358.483 118.791 358.483 121V125.359H427.708V121Z" fill="#FF0000"/>
<path d="M427.708 121C427.708 118.791 425.917 117 423.708 117H362.483C360.274 117 358.483 118.791 358.483 121V125.359H427.708V121Z" fill="url(#paint17_linear_3781_3003)"/>
<path d="M356.214 158.989V166.933H358.483H427.708H429.978V158.989H427.708H358.483H356.214Z" fill="#95CFE4"/>
<path d="M356.214 125.359V134.022H358.483H427.708H429.978V125.359H427.708H358.483H356.214Z" fill="#95CFE4"/>
<path fill-rule="evenodd" clip-rule="evenodd" d="M351.405 232.753C350.3 232.753 349.405 233.648 349.405 234.753V414.596C349.405 415.7 350.3 416.596 351.405 416.596H432.517C433.622 416.596 434.517 415.7 434.517 414.596V234.753C434.517 233.648 433.622 232.753 432.517 232.753H414.09H368.697H351.405ZM361.888 260.719C361.888 259.062 363.231 257.719 364.888 257.719H419.081C420.719 257.719 422.055 259.033 422.081 260.671L422.268 272.472L423.104 325.15C423.14 327.384 421.339 329.213 419.105 329.213H412.955H399.337H385.719H373.236H365.888C363.679 329.213 361.888 327.423 361.888 325.213V272.472V260.719Z" fill="url(#paint18_linear_3781_3003)"/>
<path d="M254.079 409.191C254.079 411.4 255.87 413.191 258.079 413.191H286.989H314.764C316.973 413.191 318.764 411.4 318.764 409.191V405.247H254.079V409.191Z" fill="#FF0000"/>
<path d="M254.079 409.191C254.079 411.4 255.87 413.191 258.079 413.191H286.989H314.764C316.973 413.191 318.764 411.4 318.764 409.191V405.247H254.079V409.191Z" fill="url(#paint19_linear_3781_3003)"/>
<path d="M318.764 397.303V374.607H254.079V397.303H318.764Z" fill="url(#paint20_linear_3781_3003)"/>
<path d="M254.079 366.663H318.764V343.966H254.079V366.663Z" fill="url(#paint21_linear_3781_3003)"/>
<path d="M318.764 334.275C318.764 333.214 318.344 332.197 317.582 331.459C314.87 328.831 307.958 322.306 301.742 317.865C293.798 312.191 293.798 308.787 293.798 308.787H279.045C279.045 308.787 279.045 311.51 271.101 317.865C264.962 322.777 258.145 328.908 255.365 331.44C254.54 332.191 254.079 333.252 254.079 334.367V336.022H318.764V334.275Z" fill="url(#paint22_linear_3781_3003)"/>
<path d="M321.034 405.247V397.303H318.764H254.079H251.809V405.247H254.079H318.764H321.034Z" fill="#95CFE4"/>
<path d="M321.034 374.607V366.663H318.764H254.079H251.809V374.607H254.079H318.764H321.034Z" fill="#95CFE4"/>
<path d="M321.034 343.966V336.022H318.764H254.079H251.809V343.966H254.079H318.764H321.034Z" fill="#95CFE4"/>
<path d="M279.045 304.247H293.798V299.708H279.045V304.247Z" fill="url(#paint23_linear_3781_3003)"/>
<path d="M296.068 308.787V306.247C296.068 305.143 295.172 304.247 294.068 304.247H293.798H279.045H278.775C277.671 304.247 276.775 305.143 276.775 306.247V308.787H279.045H293.798H296.068Z" fill="#95CFE4"/>
<path d="M279.045 296.303H293.798V292.899H279.045V296.303Z" fill="url(#paint24_linear_3781_3003)"/>
<path d="M293.798 299.708C294.425 299.708 294.933 299.2 294.933 298.573V297.438C294.933 296.811 294.425 296.303 293.798 296.303V296.303H279.045V296.303C278.418 296.303 277.91 296.811 277.91 297.438V298.573C277.91 299.2 278.418 299.708 279.045 299.708V299.708H293.798V299.708Z" fill="#95CFE4"/>
<path d="M293.798 292.899C294.425 292.899 294.933 292.391 294.933 291.764V289.494C294.933 288.868 294.425 288.36 293.798 288.36V288.36H279.045V288.36C278.418 288.36 277.91 288.868 277.91 289.494V291.764C277.91 292.391 278.418 292.899 279.045 292.899V292.899H293.798V292.899Z" fill="#95CFE4"/>
<path d="M293.798 284.955H279.045V288.36H293.798V284.955Z" fill="#514DCF"/>
<path d="M368.697 232.753H351.405C350.3 232.753 349.405 233.648 349.405 234.753V414.596C349.405 415.7 350.3 416.596 351.405 416.596H432.517C433.622 416.596 434.517 415.7 434.517 414.596V234.753C434.517 233.648 433.622 232.753 432.517 232.753H414.09M368.697 232.753V223.674H380.045M368.697 232.753H414.09M414.09 232.753V223.674H406.146M380.045 223.674H406.146M380.045 223.674C380.045 223.674 374.555 218.782 370.966 215.73C367.476 212.763 362.459 208.709 359.983 206.719C359.034 205.957 358.483 204.808 358.483 203.592V200.978M406.146 223.674C406.146 223.674 412.149 218.141 416.36 214.596C419.354 212.074 423.829 208.547 426.164 206.72C427.138 205.958 427.708 204.793 427.708 203.556V200.978M358.483 200.978H356.214V191.899H358.483M358.483 200.978H427.708M358.483 191.899H427.708M358.483 191.899V166.933M427.708 200.978H429.978V191.899H427.708M427.708 191.899V166.933M358.483 166.933H356.214V158.989H358.483M358.483 166.933H427.708M358.483 158.989H427.708M358.483 158.989V134.022M427.708 166.933H429.978V158.989H427.708M427.708 158.989V134.022M427.708 134.022H429.978V125.359H427.708M427.708 134.022H358.483M427.708 125.359V121C427.708 118.791 425.917 117 423.708 117H362.483C360.274 117 358.483 118.791 358.483 121V125.359M427.708 125.359H358.483M358.483 125.359H356.214V134.022H358.483M361.888 272.472V260.719C361.888 259.062 363.231 257.719 364.888 257.719H419.081C420.719 257.719 422.055 259.033 422.081 260.671L422.268 272.472M361.888 272.472V325.213C361.888 327.423 363.679 329.213 365.888 329.213H373.236M361.888 272.472H422.268M422.268 272.472L423.104 325.15C423.14 327.384 421.339 329.213 419.105 329.213H412.955M372.101 280.983L372.939 282.24C373.125 282.518 373.437 282.685 373.771 282.685H376.641M372.101 280.983L370.966 279.281H387.989L386.854 280.983M372.101 280.983V304.247M372.101 304.247H386.854M372.101 304.247C372.101 304.247 369.477 305.702 369.832 307.652C370.136 309.326 371.844 311 372.719 311.763C373.048 312.05 373.472 312.191 373.909 312.191H385.114C385.509 312.191 385.894 312.076 386.207 311.835C387.148 311.109 389.124 309.381 389.124 307.652C389.124 305.382 386.854 304.247 386.854 304.247M386.854 304.247V280.983M386.854 280.983L386.016 282.24C385.831 282.518 385.518 282.685 385.184 282.685H383.45M376.641 282.685H383.45M376.641 282.685V283.82M383.45 282.685V283.82M376.641 283.82V284.955H383.45V283.82M376.641 283.82L375.799 284.662C375.611 284.85 375.506 285.104 375.506 285.369V292.899H376.641M383.45 283.82L384.291 284.662C384.479 284.85 384.584 285.104 384.584 285.369V292.899H383.45M376.641 292.899L377.775 300.843H382.315L383.45 292.899M376.641 292.899H383.45M398.202 280.983L399.04 282.24C399.226 282.518 399.538 282.685 399.872 282.685H402.742M398.202 280.983L397.068 279.281H414.09L412.955 280.983M398.202 280.983V304.247M398.202 304.247H412.955M398.202 304.247C398.202 304.247 395.578 305.702 395.933 307.652C396.237 309.326 397.945 311 398.82 311.763C399.149 312.05 399.573 312.191 400.01 312.191H411.215C411.61 312.191 411.995 312.076 412.308 311.835C413.249 311.109 415.225 309.381 415.225 307.652C415.225 305.382 412.955 304.247 412.955 304.247M412.955 304.247V280.983M412.955 280.983L412.117 282.24C411.932 282.518 411.619 282.685 411.285 282.685H409.551M402.742 282.685H409.551M402.742 282.685V283.82M409.551 282.685V283.82M402.742 283.82V284.955H409.551V283.82M402.742 283.82L401.9 284.662C401.712 284.85 401.607 285.104 401.607 285.369V292.899H402.742M409.551 283.82L410.393 284.662C410.58 284.85 410.685 285.104 410.685 285.369V292.899H409.551M402.742 292.899L403.877 300.843H408.416L409.551 292.899M402.742 292.899H409.551M373.236 329.213L374.182 325.432C374.293 324.986 374.693 324.674 375.152 324.674H383.804C384.262 324.674 384.662 324.986 384.774 325.432L385.719 329.213M373.236 329.213H385.719M385.719 329.213H399.337M399.337 329.213L401.33 325.227C401.5 324.888 401.846 324.674 402.225 324.674H410.067C410.446 324.674 410.792 324.888 410.962 325.227L412.955 329.213M399.337 329.213H412.955M279.045 308.787C279.045 308.787 279.045 311.51 271.101 317.865C264.962 322.777 258.145 328.908 255.365 331.44C254.54 332.191 254.079 333.252 254.079 334.367V336.022M279.045 308.787H293.798M279.045 308.787H276.775M293.798 308.787C293.798 308.787 293.798 312.191 301.742 317.865C307.958 322.306 314.87 328.831 317.582 331.459C318.344 332.197 318.764 333.214 318.764 334.275V336.022M293.798 308.787H296.068M296.068 308.787V306.247C296.068 305.143 295.172 304.247 294.068 304.247H293.798M296.068 308.787H276.775M276.775 308.787V306.247C276.775 305.143 277.671 304.247 278.775 304.247H279.045M279.045 304.247H293.798M279.045 304.247V299.708M293.798 304.247V299.708M293.798 296.303V296.303C294.425 296.303 294.933 296.811 294.933 297.438V298.573C294.933 299.2 294.425 299.708 293.798 299.708V299.708M293.798 296.303H279.045M293.798 296.303V292.899M293.798 299.708H279.045M279.045 296.303V296.303C278.418 296.303 277.91 296.811 277.91 297.438V298.573C277.91 299.2 278.418 299.708 279.045 299.708V299.708M279.045 296.303V292.899M279.045 288.36V284.955H293.798V288.36M279.045 288.36V288.36C278.418 288.36 277.91 288.868 277.91 289.494V291.764C277.91 292.391 278.418 292.899 279.045 292.899V292.899M279.045 288.36H293.798M279.045 292.899H293.798M293.798 292.899V292.899C294.425 292.899 294.933 292.391 294.933 291.764V289.494C294.933 288.868 294.425 288.36 293.798 288.36V288.36M318.764 405.247H321.034V397.303H318.764M318.764 405.247V409.191C318.764 411.4 316.973 413.191 314.764 413.191H286.989H258.079C255.87 413.191 254.079 411.4 254.079 409.191V405.247M318.764 405.247H254.079M318.764 397.303V374.607M318.764 397.303H254.079M318.764 374.607H321.034V366.663H318.764M318.764 374.607H254.079M318.764 366.663H254.079M318.764 366.663V343.966M254.079 405.247H251.809V397.303H254.079M254.079 397.303V374.607M254.079 374.607H251.809V366.663H254.079M254.079 366.663V343.966M254.079 343.966H251.809V336.022H254.079M254.079 343.966H318.764M254.079 336.022H318.764M318.764 336.022H321.034V343.966H318.764" stroke="black" stroke-width="0.5" stroke-linecap="round" stroke-linejoin="round"/>
<path d="M35.6341 407H59.9015C59.9015 407 66.696 398.535 68.9151 391.724C71.1969 384.721 70.9952 372.284 70.9952 372.284H53.6613H51.5812H48.8078H46.0344H42.5676H39.7942H22.4603C22.4603 372.284 22.6175 384.109 25.2337 391.03C27.8657 397.994 35.6341 407 35.6341 407Z" fill="#D9D9D9"/>
<path d="M16.2202 314.654C23.2373 325.178 38.4075 337.567 38.4075 337.567C38.4075 337.567 38.3927 337.053 38.3357 336.179C38.3357 336.179 31.4937 324.973 26.6205 318.126C20.8034 309.953 15.9349 306.532 10.6733 297.99C7.6211 293.035 3.73973 284.798 3.73973 284.798C-2.18431 284.798 9.07228 303.934 16.2202 314.654Z" fill="#2C6206"/>
<path d="M23.1537 307.711C15.0651 299.506 12.06 284.798 3.73973 284.798C3.73973 284.798 7.6211 293.035 10.6733 297.99C15.9349 306.532 20.8034 309.953 26.6205 318.126C31.4937 324.973 38.3357 336.179 38.3357 336.179C38.1167 332.819 37.274 324.136 34.2474 318.82C30.9269 312.988 27.8635 312.488 23.1537 307.711Z" fill="#418D0C"/>
<path d="M46.7278 313.266C48.6843 317.849 51.5812 325.069 51.5812 325.069C51.5812 325.069 53.9916 313.156 57.1281 305.627C59.3674 300.252 64.073 291.741 64.073 291.741C61.1136 289.805 58.0085 287.123 57.8214 286.186C57.5346 284.749 57.8214 282.434 57.8214 282.434C56.885 282.715 55.9576 283.039 55.048 283.409C47.498 286.475 41.1809 293.256 41.1809 302.156C41.1809 306.322 44.6314 308.354 46.7278 313.266Z" fill="#2C6206"/>
<path d="M70.3018 313.266C73.7869 306.927 75.1553 293.824 75.1553 293.824C75.1553 293.824 70.8653 294.411 68.2218 293.824C67.1912 293.595 65.6528 292.774 64.073 291.741C64.073 291.741 59.3674 300.252 57.1281 305.627C53.9916 313.156 51.5812 325.069 51.5812 325.069V327.847C51.5812 327.847 65.5694 321.872 70.3018 313.266Z" fill="#418D0C"/>
<path d="M57.8214 282.434C57.8214 282.434 57.5346 284.749 57.8214 286.186C58.0085 287.123 61.1136 289.805 64.073 291.741C65.6528 292.774 67.1912 293.595 68.2218 293.824C68.2218 293.824 70.3773 290.752 70.9952 288.27C71.6658 285.576 70.9952 281.195 70.9952 281.195C67.0584 280.73 62.3353 281.079 57.8214 282.434Z" fill="#2C6206"/>
<path d="M75.1553 293.824C75.1553 293.824 78.7736 292.463 80.0088 288.27C81.1248 284.481 76.9638 281.901 70.9952 281.195C70.9952 281.195 71.6658 285.576 70.9952 288.27C70.3773 290.752 68.2218 293.824 68.2218 293.824C70.8653 294.411 75.1553 293.824 75.1553 293.824Z" fill="#418D0C"/>
<path d="M76.542 317.431C59.9015 333.601 61.2882 344.51 61.2882 344.51C61.2882 344.51 76.722 331.853 84.1689 324.374C92.5686 315.939 101.503 303.544 101.503 303.544C99.8614 301.666 86.5453 307.711 76.542 317.431Z" fill="#418D0C"/>
<path d="M89.7158 332.706C98.6106 324.244 106.356 309.099 101.503 303.544C101.503 303.544 92.5686 315.939 84.1689 324.374C76.722 331.853 61.2882 344.51 61.2882 344.51C61.2882 344.51 75.8487 345.898 89.7158 332.706Z" fill="#2C6206"/>
<path d="M63.3683 355.619C59.3267 358.237 57.1281 361.955 57.1281 361.955C57.1281 361.955 64.2188 363.149 70.9952 363.682C70.9952 363.682 77.9394 359.451 80.7022 355.619C83.5228 351.706 84.8623 344.258 84.8623 344.258C79.6507 345.54 73.9478 348.497 70.9952 351.454C67.9081 354.546 65.9101 353.972 63.3683 355.619Z" fill="#2C6206"/>
<path d="M82.0889 363.257C87.6357 360.877 98.7294 351.454 95.2626 345.898L90.4091 350.064L86.9424 343.834C86.2633 343.942 85.5673 344.085 84.8623 344.258C84.8623 344.258 83.5228 351.706 80.7022 355.619C77.9394 359.451 70.9952 363.682 70.9952 363.682C75.6299 364.047 80.1176 364.103 82.0889 363.257Z" fill="#418D0C"/>
<path d="M86.9424 343.834L90.4091 350.064C90.4091 350.064 91.3161 347.534 91.1025 345.898C90.9818 344.974 90.4091 343.615 90.4091 343.615C89.3407 343.558 88.1693 343.639 86.9424 343.834Z" fill="#2C6206"/>
<path d="M90.4091 350.064L95.2626 345.898C94.3419 344.423 92.5899 343.731 90.4091 343.615C90.4091 343.615 90.9818 344.974 91.1025 345.898C91.3161 347.534 90.4091 350.064 90.4091 350.064Z" fill="#418D0C"/>
<path d="M30.0872 361.955L28.7005 360.48C28.7005 360.48 19.577 356.732 14.1401 357.703C6.21446 359.118 -0.420416 371.589 -0.420416 371.589C4.43307 373.672 10.4972 365.026 18.3002 363.257C22.8169 362.234 30.0872 361.955 30.0872 361.955Z" fill="#418D0C"/>
<path d="M28.7005 360.48C28.7005 360.48 25.1524 350.825 12.06 352.842C3.04637 354.231 -2.94186 370.507 -0.420416 371.589C-0.420416 371.589 6.21446 359.118 14.1401 357.703C19.577 356.732 28.7005 360.48 28.7005 360.48Z" fill="#2C6206"/>
<path d="M15.5268 341.039C21.2318 340.37 22.3465 350.478 28.0072 351.454C29.7064 351.747 31.7156 351.972 33.554 351.89C36.555 351.755 39.1008 350.801 39.1008 347.982C39.1008 343.437 31.4739 345.899 28.7005 344.51C28.6885 344.504 28.6765 344.498 28.6644 344.49C28.4542 344.368 27.3235 343.676 25.2337 341.733C22.3955 339.094 20.3803 334.096 16.2201 334.79C13.3435 335.27 12.06 338.261 12.06 338.261C11.1744 340.838 11.3666 344.511 11.3666 344.511C11.3666 344.511 12.7579 341.363 15.5268 341.039Z" fill="#2C6206"/>
<path d="M19.6869 332.013C15.579 331.556 13.4051 334.348 12.06 338.261C12.06 338.261 13.3435 335.27 16.2201 334.79C20.3803 334.096 22.3955 339.094 25.2337 341.733C27.3235 343.676 28.4542 344.368 28.6644 344.49C27.2894 343.624 25.873 332.701 19.6869 332.013Z" fill="#418D0C"/>
<path d="M12.2803 344.916C12.2814 344.914 12.2844 344.908 12.2881 344.9C12.2955 344.885 12.3085 344.859 12.3262 344.823C12.3617 344.752 12.4174 344.646 12.4932 344.515C12.6456 344.251 12.8738 343.898 13.1748 343.539C13.7919 342.803 14.621 342.152 15.6436 342.032C16.7219 341.906 17.5902 342.267 18.4297 343C19.3082 343.767 20.0915 344.885 20.9502 346.182C21.7788 347.432 22.6782 348.85 23.7354 349.998C24.8067 351.161 26.1233 352.144 27.8369 352.439C29.3955 352.708 31.2399 352.924 33.0049 352.902C33.0918 353.043 33.1963 353.212 33.3145 353.405C33.6914 354.023 34.2134 354.889 34.79 355.882C35.9489 357.878 37.3113 360.354 38.1846 362.355C39.0122 364.253 39.8655 366.792 40.5176 368.88C40.8084 369.811 41.0565 370.646 41.2422 371.283H40.2256L30.8154 361.271C30.8139 361.269 30.8121 361.267 30.8105 361.266L29.5537 359.929C29.521 359.852 29.48 359.755 29.4268 359.643C29.2903 359.353 29.083 358.951 28.793 358.479C28.2136 357.537 27.2971 356.308 25.9404 355.146C23.1963 352.795 18.7427 350.801 11.9072 351.854C9.37976 352.244 7.1347 353.663 5.25586 355.488C3.37272 357.317 1.79913 359.608 0.609375 361.864C-0.579156 364.118 -1.41078 366.387 -1.78125 368.198C-1.9648 369.096 -2.04746 369.94 -1.97168 370.638C-1.90517 371.249 -1.67113 372.089 -0.892578 372.47C-0.891611 372.47 -0.890618 372.471 -0.889648 372.472C-0.85098 372.492 -0.811405 372.509 -0.771484 372.524C0.763225 373.167 2.33095 372.937 3.82422 372.344C5.31405 371.752 6.85591 370.75 8.39941 369.692C11.5711 367.52 14.8524 365.064 18.5215 364.232C20.7079 363.737 23.5962 363.416 25.9697 363.219C27.15 363.121 28.1911 363.055 28.9365 363.014C29.2318 362.997 29.4805 362.985 29.6729 362.976L37.4814 371.283H22.46C22.1926 371.283 21.9359 371.391 21.748 371.581C21.5603 371.771 21.4564 372.029 21.46 372.297V372.3C21.46 372.302 21.4609 372.304 21.4609 372.308C21.461 372.314 21.4607 372.323 21.4609 372.334C21.4613 372.358 21.462 372.393 21.4629 372.438C21.4647 372.529 21.4679 372.662 21.4727 372.833C21.4822 373.175 21.4983 373.67 21.5264 374.285C21.5826 375.514 21.685 377.226 21.8701 379.157C22.2379 382.993 22.9402 387.792 24.2979 391.384C25.6639 394.998 28.3323 399.081 30.6123 402.215C31.7598 403.792 32.8233 405.149 33.6006 406.112C33.9894 406.594 34.3073 406.977 34.5283 407.241C34.6388 407.373 34.7251 407.475 34.7842 407.545C34.8137 407.58 34.837 407.606 34.8525 407.624C34.8603 407.633 34.866 407.641 34.8701 407.646C34.872 407.648 34.8739 407.649 34.875 407.65L34.876 407.652L34.877 407.653C35.0669 407.873 35.3431 408 35.6338 408H59.9014C60.2046 408 60.4918 407.862 60.6816 407.626V407.625L60.6836 407.624C60.6846 407.623 60.6857 407.62 60.6875 407.618C60.6911 407.614 60.6964 407.607 60.7031 407.599C60.7168 407.581 60.7368 407.556 60.7627 407.523C60.8146 407.458 60.8905 407.361 60.9873 407.236C61.1809 406.987 61.4589 406.625 61.7988 406.169C62.4785 405.258 63.4082 403.972 64.4082 402.471C66.3952 399.487 68.7127 395.574 69.8662 392.034C71.0497 388.402 71.5742 383.431 71.8096 379.437C71.9281 377.426 71.9743 375.636 71.9912 374.35C71.9997 373.706 72.0001 373.188 71.999 372.829C71.9985 372.65 71.998 372.51 71.9971 372.415C71.9966 372.368 71.9954 372.331 71.9951 372.307V372.268C71.9863 371.722 71.5411 371.283 70.9951 371.283H54.5908C54.575 371.026 54.5577 370.73 54.5459 370.415C54.5076 369.396 54.5148 368.285 54.6436 367.61C54.8565 366.494 55.6006 365.282 56.377 364.287C56.754 363.804 57.1175 363.399 57.3857 363.115C57.4161 363.083 57.4459 363.053 57.4736 363.024C57.6638 363.055 57.9036 363.094 58.1875 363.139C58.9626 363.26 60.0667 363.426 61.3828 363.609C64.0127 363.976 67.5013 364.41 70.917 364.679C70.9212 364.679 70.9255 364.679 70.9297 364.68C70.9385 364.68 70.9472 364.681 70.9561 364.682C73.2765 364.863 75.58 364.971 77.5645 364.924C79.5178 364.878 81.305 364.682 82.4834 364.177C85.4086 362.922 89.6826 359.877 92.7969 356.44C94.3563 354.719 95.6817 352.838 96.3828 350.972C97.0807 349.113 97.1945 347.153 96.1426 345.424C96.137 345.414 96.1309 345.404 96.125 345.394C96.1201 345.386 96.1163 345.377 96.1113 345.369C94.9399 343.492 92.7864 342.74 90.4619 342.616C89.3076 342.555 88.0638 342.644 86.7852 342.847C86.0836 342.958 85.368 343.104 84.6465 343.281C84.6429 343.282 84.6393 343.282 84.6357 343.283C84.6316 343.284 84.6272 343.286 84.623 343.287C79.2841 344.6 73.4009 347.628 70.2871 350.747C68.8637 352.173 67.7234 352.733 66.6279 353.142C65.5438 353.546 64.2171 353.878 62.8242 354.78C60.6963 356.159 59.064 357.819 57.9668 359.126C57.4166 359.781 56.9963 360.353 56.7119 360.765C56.5697 360.97 56.461 361.136 56.3867 361.253C56.3702 361.279 56.3549 361.302 56.3418 361.323C56.3282 361.336 56.3138 361.351 56.2979 361.367C56.209 361.455 56.0834 361.582 55.9326 361.741C55.6318 362.059 55.2255 362.512 54.8008 363.057C53.9732 364.117 52.9835 365.639 52.6787 367.235C52.6387 367.445 52.6098 367.675 52.5869 367.917C52.7087 365.546 53.0529 362.626 53.9141 360.108C54.8407 357.4 56.8722 353.659 58.7119 350.544C59.6247 348.998 60.4782 347.626 61.1035 346.641C61.3943 346.182 61.635 345.808 61.8096 345.539C61.8425 345.54 61.8767 345.543 61.9121 345.544C62.361 345.557 63.0099 345.56 63.8281 345.521C65.4641 345.442 67.7809 345.195 70.5371 344.527C76.0541 343.191 83.3262 340.165 90.4053 333.431C94.947 329.11 99.1841 323.099 101.68 317.438C102.927 314.609 103.762 311.816 103.956 309.332C104.147 306.886 103.723 304.612 102.305 302.947C102.278 302.911 102.249 302.877 102.217 302.845C101.71 302.302 100.955 302.198 100.361 302.203C99.6967 302.209 98.9071 302.352 98.0488 302.591C96.3222 303.071 94.1235 303.987 91.6963 305.251C86.8352 307.782 80.9235 311.779 75.8447 316.714C67.4326 324.888 63.5275 331.782 61.7354 336.691C60.8398 339.145 60.4752 341.095 60.3369 342.452C60.2679 343.13 60.2557 343.658 60.2617 344.026C60.263 344.104 60.267 344.175 60.2695 344.238C60.2398 344.284 60.2071 344.335 60.1709 344.391C59.9905 344.668 59.7319 345.07 59.415 345.569C58.7814 346.568 57.9156 347.959 56.9893 349.527C55.1506 352.641 53.0214 356.538 52.0215 359.461C51.0462 362.312 50.6939 365.546 50.5781 368.028C50.5199 369.277 50.5204 370.352 50.5361 371.116C50.5373 371.174 50.5407 371.229 50.542 371.283H49.7637C49.7457 370.873 49.7224 370.341 49.6982 369.708C49.638 368.13 49.5658 365.924 49.5176 363.415C49.4209 358.388 49.4218 352.18 49.8047 347.366C50.1055 343.584 50.7936 338.756 51.4102 334.856C51.7179 332.91 52.0069 331.201 52.2188 329.979C52.3246 329.369 52.4116 328.881 52.4717 328.545V328.543C52.5148 328.523 52.5611 328.504 52.6094 328.481C53.0102 328.297 53.5854 328.026 54.2891 327.673C55.6955 326.968 57.6214 325.936 59.6992 324.63C63.8175 322.042 68.683 318.284 71.1777 313.747C73.0031 310.427 74.2389 305.428 75.0176 301.355C75.4105 299.3 75.6935 297.446 75.8779 296.106C75.9702 295.436 76.0382 294.894 76.083 294.518C76.0841 294.509 76.0849 294.5 76.0859 294.491C76.1266 294.47 76.1698 294.449 76.2139 294.426C76.6181 294.208 77.164 293.873 77.751 293.394C78.9267 292.434 80.2804 290.885 80.9678 288.552C81.307 287.4 81.254 286.292 80.834 285.281C80.42 284.285 79.6792 283.45 78.75 282.77C76.9153 281.425 74.2039 280.573 71.1475 280.207C71.1433 280.206 71.139 280.207 71.1348 280.206C71.1274 280.205 71.1197 280.203 71.1123 280.202C67.0459 279.721 62.1968 280.081 57.5625 281.468C57.5529 281.47 57.5436 281.474 57.5342 281.477C56.5691 281.766 55.6118 282.101 54.6719 282.482C46.8651 285.653 40.1807 292.733 40.1807 302.156C40.1808 304.553 41.191 306.314 42.3428 307.996C43.5111 309.703 44.8099 311.321 45.8076 313.658C46.7825 315.942 47.9935 318.887 48.9619 321.264C49.4458 322.451 49.869 323.496 50.1709 324.244C50.3217 324.618 50.4425 324.917 50.5254 325.123C50.5464 325.175 50.565 325.222 50.5811 325.262V327.757C50.5786 327.771 50.5763 327.786 50.5732 327.803C50.5571 327.892 50.5332 328.023 50.5029 328.192C50.4423 328.531 50.3546 329.024 50.248 329.639C50.0349 330.868 49.7441 332.586 49.4346 334.544C48.8165 338.453 48.1178 343.345 47.8105 347.208C47.4195 352.125 47.4207 358.415 47.5176 363.454C47.5661 365.978 47.6396 368.196 47.7002 369.784C47.7228 370.377 47.7443 370.883 47.7617 371.283H46.9795C46.9643 371.025 46.9471 370.719 46.9248 370.372C46.8503 369.214 46.7345 367.598 46.5703 365.765C46.243 362.109 45.7191 357.542 44.9307 354.013C44.1685 350.601 42.7629 346.386 41.5605 343.05C40.9574 341.376 40.4015 339.913 39.9961 338.868C39.7933 338.346 39.6283 337.927 39.5137 337.639C39.4672 337.522 39.4284 337.427 39.3994 337.354C39.3972 337.3 39.3951 337.233 39.3916 337.155L39.334 336.113C39.3338 336.11 39.3333 336.107 39.333 336.104C39.2216 334.398 38.9526 331.35 38.3271 328.047C37.7038 324.755 36.7113 321.127 35.1162 318.325C33.3826 315.28 31.6973 313.607 29.8555 312.097C28.0169 310.589 26.1719 309.348 23.8662 307.009C19.9347 303.021 17.2621 297.481 14.3926 292.666C12.9847 290.304 11.5194 288.108 9.83691 286.501C8.13535 284.876 6.1524 283.798 3.74023 283.798C3.72736 283.798 3.71403 283.799 3.70117 283.799C3.69987 283.799 3.69857 283.799 3.69727 283.799C3.20903 283.804 2.73421 283.907 2.31543 284.155C1.87672 284.415 1.56696 284.794 1.37012 285.23C0.99934 286.053 1.0232 287.089 1.19922 288.123C1.55857 290.234 2.68932 293.07 4.17773 296.142C7.17384 302.325 11.8044 309.833 15.3887 315.209C18.9628 320.569 24.5784 326.361 29.2588 330.784C31.6064 333.003 33.7333 334.89 35.2734 336.223C36.0437 336.889 36.6675 337.418 37.0996 337.78C37.3012 337.949 37.4607 338.083 37.5742 338.177C37.5971 338.234 37.6247 338.301 37.6553 338.378C37.768 338.661 37.9314 339.074 38.1318 339.591C38.5328 340.624 39.0831 342.072 39.6797 343.728C40.8768 347.049 42.2453 351.166 42.9785 354.448C43.7372 357.844 44.2522 362.304 44.5781 365.943C44.7405 367.757 44.855 369.356 44.9287 370.501C44.9475 370.792 44.962 371.055 44.9756 371.283H43.3232C43.2933 371.179 43.2613 371.064 43.2256 370.94C43.032 370.272 42.7563 369.339 42.4268 368.284C41.7707 366.183 40.8908 363.558 40.0176 361.556C39.0962 359.443 37.6854 356.886 36.5195 354.878C36.0383 354.049 35.5933 353.308 35.2383 352.723C36.2307 352.561 37.1754 352.276 37.9678 351.8C39.2608 351.023 40.1005 349.765 40.1006 347.982C40.1006 347.272 39.9506 346.634 39.6338 346.085C39.3163 345.535 38.866 345.135 38.3594 344.848C37.3861 344.296 36.1443 344.129 34.9971 344.064C34.4065 344.031 33.7991 344.024 33.2158 344.021C32.6244 344.017 32.0629 344.017 31.5273 344C30.4763 343.966 29.7134 343.863 29.2314 343.651L29.2305 343.65C29.1837 343.582 29.1196 343.471 29.04 343.304C28.8801 342.968 28.7028 342.508 28.4912 341.929C28.0783 340.799 27.5611 339.281 26.8936 337.778C26.2258 336.275 25.3747 334.709 24.248 333.461C23.1116 332.202 21.6542 331.225 19.7979 331.019C17.4638 330.759 15.603 331.431 14.1592 332.763C12.9326 333.894 12.0541 335.458 11.3877 337.187L11.1143 337.937L11.0264 338.206C10.6039 339.566 10.443 341.111 10.3828 342.302C10.3503 342.946 10.3462 343.507 10.3506 343.907C10.3528 344.107 10.3566 344.269 10.3604 344.381C10.3622 344.437 10.3639 344.481 10.3652 344.512C10.3659 344.527 10.3668 344.539 10.3672 344.548C10.3674 344.552 10.368 344.555 10.3682 344.558V344.562L10.3916 344.732C10.4789 345.117 10.7874 345.421 11.1855 345.494C11.6403 345.578 12.0928 345.339 12.2803 344.916ZM12.2803 344.916V344.917L12.2812 344.916V344.915L12.2803 344.916ZM52.5293 369.754C52.5242 370.26 52.5285 370.706 52.5361 371.075C52.5376 371.148 52.5412 371.217 52.543 371.283H52.5859C52.5719 371.043 52.5585 370.774 52.5479 370.49C52.5391 370.258 52.5329 370.01 52.5293 369.754Z" stroke="black" stroke-width="2" stroke-linecap="round" stroke-linejoin="round"/>
<defs>
<filter id="filter0_f_3781_3003" x="230.7" y="376.194" width="230.6" height="71.723" filterUnits="userSpaceOnUse" color-interpolation-filters="sRGB">
<feFlood flood-opacity="0" result="BackgroundImageFix"/>
<feBlend mode="normal" in="SourceGraphic" in2="BackgroundImageFix" result="shape"/>
<feGaussianBlur stdDeviation="7.15" result="effect1_foregroundBlur_3781_3003"/>
</filter>
<linearGradient id="paint0_linear_3781_3003" x1="206" y1="0" x2="206" y2="566.5" gradientUnits="userSpaceOnUse">
<stop offset="0.230769" stop-color="#3B4260"/>
<stop offset="1" stop-color="#7A88C6"/>
</linearGradient>
<linearGradient id="paint1_linear_3781_3003" x1="206" y1="0" x2="206" y2="566.5" gradientUnits="userSpaceOnUse">
<stop offset="0.230769" stop-color="#3B4260"/>
<stop offset="1" stop-color="#7A88C6"/>
</linearGradient>
<linearGradient id="paint2_linear_3781_3003" x1="206" y1="0" x2="206" y2="566.5" gradientUnits="userSpaceOnUse">
<stop offset="0.230769" stop-color="#3B4260"/>
<stop offset="1" stop-color="#7A88C6"/>
</linearGradient>
<linearGradient id="paint3_linear_3781_3003" x1="351.674" y1="204.382" x2="429.978" y2="204.382" gradientUnits="userSpaceOnUse">
<stop offset="0.125" stop-color="#95CFE4"/>
<stop offset="0.3125" stop-color="white"/>
<stop offset="0.466346" stop-color="#95CFE4"/>
</linearGradient>
<linearGradient id="paint4_linear_3781_3003" x1="351.674" y1="204.382" x2="429.978" y2="204.382" gradientUnits="userSpaceOnUse">
<stop offset="0.125" stop-color="#95CFE4"/>
<stop offset="0.3125" stop-color="white"/>
<stop offset="0.466346" stop-color="#95CFE4"/>
</linearGradient>
<linearGradient id="paint5_linear_3781_3003" x1="351.674" y1="204.382" x2="429.978" y2="204.382" gradientUnits="userSpaceOnUse">
<stop offset="0.125" stop-color="#95CFE4"/>
<stop offset="0.3125" stop-color="white"/>
<stop offset="0.466346" stop-color="#95CFE4"/>
</linearGradient>
<linearGradient id="paint6_linear_3781_3003" x1="351.674" y1="204.382" x2="429.978" y2="204.382" gradientUnits="userSpaceOnUse">
<stop offset="0.125" stop-color="#95CFE4"/>
<stop offset="0.3125" stop-color="white"/>
<stop offset="0.466346" stop-color="#95CFE4"/>
</linearGradient>
<linearGradient id="paint7_linear_3781_3003" x1="350.539" y1="366.663" x2="428.843" y2="366.663" gradientUnits="userSpaceOnUse">
<stop stop-color="#DDE0E6"/>
<stop offset="0.269231" stop-color="white"/>
<stop offset="0.5" stop-color="#D8E0E6"/>
<stop offset="1" stop-color="#BBC8D6"/>
</linearGradient>
<linearGradient id="paint8_linear_3781_3003" x1="249.539" y1="412.056" x2="323.303" y2="413.191" gradientUnits="userSpaceOnUse">
<stop stop-color="#95CFE4"/>
<stop offset="0.264423" stop-color="white"/>
<stop offset="0.586538" stop-color="#95CFE4"/>
</linearGradient>
<linearGradient id="paint9_linear_3781_3003" x1="249.539" y1="412.056" x2="323.303" y2="413.191" gradientUnits="userSpaceOnUse">
<stop stop-color="#95CFE4"/>
<stop offset="0.264423" stop-color="white"/>
<stop offset="0.586538" stop-color="#95CFE4"/>
</linearGradient>
<linearGradient id="paint10_linear_3781_3003" x1="249.539" y1="412.056" x2="323.303" y2="413.191" gradientUnits="userSpaceOnUse">
<stop stop-color="#95CFE4"/>
<stop offset="0.264423" stop-color="white"/>
<stop offset="0.586538" stop-color="#95CFE4"/>
</linearGradient>
<linearGradient id="paint11_linear_3781_3003" x1="249.539" y1="412.056" x2="323.303" y2="413.191" gradientUnits="userSpaceOnUse">
<stop stop-color="#95CFE4"/>
<stop offset="0.264423" stop-color="white"/>
<stop offset="0.586538" stop-color="#95CFE4"/>
</linearGradient>
<linearGradient id="paint12_linear_3781_3003" x1="249.539" y1="412.056" x2="323.303" y2="413.191" gradientUnits="userSpaceOnUse">
<stop stop-color="#95CFE4"/>
<stop offset="0.264423" stop-color="white"/>
<stop offset="0.586538" stop-color="#95CFE4"/>
</linearGradient>
<linearGradient id="paint13_linear_3781_3003" x1="249.539" y1="412.056" x2="323.303" y2="413.191" gradientUnits="userSpaceOnUse">
<stop stop-color="#95CFE4"/>
<stop offset="0.264423" stop-color="white"/>
<stop offset="0.586538" stop-color="#95CFE4"/>
</linearGradient>
<linearGradient id="paint14_linear_3781_3003" x1="351.674" y1="204.382" x2="429.978" y2="204.382" gradientUnits="userSpaceOnUse">
<stop offset="0.125" stop-color="#95CFE4"/>
<stop offset="0.3125" stop-color="white"/>
<stop offset="0.466346" stop-color="#95CFE4"/>
</linearGradient>
<linearGradient id="paint15_linear_3781_3003" x1="351.674" y1="204.382" x2="429.978" y2="204.382" gradientUnits="userSpaceOnUse">
<stop offset="0.125" stop-color="#95CFE4"/>
<stop offset="0.3125" stop-color="white"/>
<stop offset="0.466346" stop-color="#95CFE4"/>
</linearGradient>
<linearGradient id="paint16_linear_3781_3003" x1="351.674" y1="204.382" x2="429.978" y2="204.382" gradientUnits="userSpaceOnUse">
<stop offset="0.125" stop-color="#95CFE4"/>
<stop offset="0.3125" stop-color="white"/>
<stop offset="0.466346" stop-color="#95CFE4"/>
</linearGradient>
<linearGradient id="paint17_linear_3781_3003" x1="351.674" y1="204.382" x2="429.978" y2="204.382" gradientUnits="userSpaceOnUse">
<stop offset="0.125" stop-color="#95CFE4"/>
<stop offset="0.3125" stop-color="white"/>
<stop offset="0.466346" stop-color="#95CFE4"/>
</linearGradient>
<linearGradient id="paint18_linear_3781_3003" x1="350.539" y1="366.663" x2="428.843" y2="366.663" gradientUnits="userSpaceOnUse">
<stop stop-color="#DDE0E6"/>
<stop offset="0.269231" stop-color="white"/>
<stop offset="0.5" stop-color="#D8E0E6"/>
<stop offset="1" stop-color="#BBC8D6"/>
</linearGradient>
<linearGradient id="paint19_linear_3781_3003" x1="249.539" y1="412.056" x2="323.303" y2="413.191" gradientUnits="userSpaceOnUse">
<stop stop-color="#95CFE4"/>
<stop offset="0.264423" stop-color="white"/>
<stop offset="0.586538" stop-color="#95CFE4"/>
</linearGradient>
<linearGradient id="paint20_linear_3781_3003" x1="249.539" y1="412.056" x2="323.303" y2="413.191" gradientUnits="userSpaceOnUse">
<stop stop-color="#95CFE4"/>
<stop offset="0.264423" stop-color="white"/>
<stop offset="0.586538" stop-color="#95CFE4"/>
</linearGradient>
<linearGradient id="paint21_linear_3781_3003" x1="249.539" y1="412.056" x2="323.303" y2="413.191" gradientUnits="userSpaceOnUse">
<stop stop-color="#95CFE4"/>
<stop offset="0.264423" stop-color="white"/>
<stop offset="0.586538" stop-color="#95CFE4"/>
</linearGradient>
<linearGradient id="paint22_linear_3781_3003" x1="249.539" y1="412.056" x2="323.303" y2="413.191" gradientUnits="userSpaceOnUse">
<stop stop-color="#95CFE4"/>
<stop offset="0.264423" stop-color="white"/>
<stop offset="0.586538" stop-color="#95CFE4"/>
</linearGradient>
<linearGradient id="paint23_linear_3781_3003" x1="249.539" y1="412.056" x2="323.303" y2="413.191" gradientUnits="userSpaceOnUse">
<stop stop-color="#95CFE4"/>
<stop offset="0.264423" stop-color="white"/>
<stop offset="0.586538" stop-color="#95CFE4"/>
</linearGradient>
<linearGradient id="paint24_linear_3781_3003" x1="249.539" y1="412.056" x2="323.303" y2="413.191" gradientUnits="userSpaceOnUse">
<stop stop-color="#95CFE4"/>
<stop offset="0.264423" stop-color="white"/>
<stop offset="0.586538" stop-color="#95CFE4"/>
</linearGradient>
</defs>
</svg>
