<svg width="412" height="567" viewBox="0 0 412 567" fill="none" xmlns="http://www.w3.org/2000/svg">
<path d="M0 379H412V378H399H385.5H372.5H359H346H332.5H319.5H307H292.5H277.5H265.5H252H239H225H212.5H198.5H186H172H159H145.5H132.5H119H106H92.5H80H66H53H39.5H26.5H12.5H0V379Z" fill="#D9D9D9"/>
<path d="M412 379H0V566.5H412V379Z" fill="#3D70C9"/>
<path d="M0 0V378H12.5V0H0Z" fill="#96ADDA"/>
<path d="M26.5 0V378H39.5V70V70C38.3954 70 37.5 69.1046 37.5 68V34.5C37.5 33.3954 38.3954 32.5 39.5 32.5V32.5V0H26.5Z" fill="#96ADDA"/>
<path d="M53 70V378H66V302.066C64.3691 300.567 63.5 299.5 63.5 299.5V183.5V173V58H58V65C58 67.7614 55.7614 70 53 70V70Z" fill="#96ADDA"/>
<path d="M80 378H92.5V311.338C91.8495 311.409 91.1829 311.463 90.5 311.5C86.6552 311.707 83.1363 311.167 80 310.215V378Z" fill="#96ADDA"/>
<path d="M106 378H119V283.5H113.03C113.658 292.898 114 299.5 114 299.5C114 299.5 111.51 303.452 106 306.83V378Z" fill="#96ADDA"/>
<path d="M132.5 283.5V378H145.5V283.5H132.5Z" fill="#96ADDA"/>
<path d="M159 283.5V378H172V283.5H159Z" fill="#96ADDA"/>
<path d="M186 283.5V378H198.5V283.5H186Z" fill="#96ADDA"/>
<path d="M212.5 283.5V378H225V283.5H213H212.5Z" fill="#96ADDA"/>
<path d="M239 283.5V378H252V283.5H239Z" fill="#96ADDA"/>
<path d="M265.5 283.5V378H277.5V283.5H265.5Z" fill="#96ADDA"/>
<path d="M298 299C298 299 298.247 292.537 298.798 283.5H292.5V378H307V307.448C301.254 303.7 298 299 298 299Z" fill="#96ADDA"/>
<path d="M321.5 312C320.821 312 320.154 311.971 319.5 311.917V378H332.5V310.273C329.286 311.321 325.615 312 321.5 312Z" fill="#96ADDA"/>
<path d="M354.5 58H349V173V183.5V299C349 299 347.988 300.384 346 302.249V378H359V70V70C356.515 70 354.5 67.9853 354.5 65.5V58Z" fill="#96ADDA"/>
<path d="M372.5 0V32.5V32.5C373.881 32.5 375 33.6193 375 35V67.5C375 68.8807 373.881 70 372.5 70V70V378H385.5V0H372.5Z" fill="#96ADDA"/>
<path d="M412 378V0H398.75L399 378H412Z" fill="#96ADDA"/>
<path d="M66 0H53V32.5V32.5C55.7614 32.5 58 34.7386 58 37.5V44H66V0Z" fill="#96ADDA"/>
<path d="M92.5 0H80V44H92.5V0Z" fill="#96ADDA"/>
<path d="M119 0H106V44H119V0Z" fill="#96ADDA"/>
<path d="M145.5 44V0H132.25V44H145.5Z" fill="#96ADDA"/>
<path d="M159 0V44H172V0H159Z" fill="#96ADDA"/>
<path d="M186 0V44H198.5V0H186Z" fill="#96ADDA"/>
<path d="M212.5 0V44H225V0H212.5Z" fill="#96ADDA"/>
<path d="M239 0V44H252V0H239Z" fill="#96ADDA"/>
<path d="M265.5 0V44H278.5V0H265.5Z" fill="#96ADDA"/>
<path d="M292.5 0V44H306V0H292.5Z" fill="#96ADDA"/>
<path d="M319.5 0V44H332.5V0H319.5Z" fill="#96ADDA"/>
<path d="M346 44H354.5V37C354.5 34.5147 356.515 32.5 359 32.5V32.5V0H346V44Z" fill="#96ADDA"/>
<path d="M12.5 0V378H26.5V0H25.5H12.5Z" fill="#FFEDB1"/>
<path d="M39.5 378H53V70H39.5V378Z" fill="#FFEDB1"/>
<path d="M53 0H39.5V32.5H53V0Z" fill="#FFEDB1"/>
<path d="M66 0V44H80V0H66Z" fill="#FFEDB1"/>
<path d="M66 302.066V378H80V310.215C79.4097 310.036 78.8329 309.842 78.2701 309.636C72.6824 307.591 68.4685 304.334 66 302.066Z" fill="#FFEDB1"/>
<path d="M92.5 378H106V306.83C102.654 308.882 98.1932 310.723 92.5 311.338V378Z" fill="#FFEDB1"/>
<path d="M119 283.5V378H132.5V283.5H119Z" fill="#FFEDB1"/>
<path d="M106 0H92.5V44H106V0Z" fill="#FFEDB1"/>
<path d="M132.25 0H119V44H119.125H132.25V0Z" fill="#FFEDB1"/>
<path d="M145.5 0V44H159V0H145.5Z" fill="#FFEDB1"/>
<path d="M172 0V44H186V0H172Z" fill="#FFEDB1"/>
<path d="M198.5 0V44H212.5V0H198.5Z" fill="#FFEDB1"/>
<path d="M225 0V44H239V0H225Z" fill="#FFEDB1"/>
<path d="M252 0V44H265.5V0H252Z" fill="#FFEDB1"/>
<path d="M278.5 0V44H292.5V0H278.5Z" fill="#FFEDB1"/>
<path d="M145.5 283.5V378H159V283.5H145.5Z" fill="#FFEDB1"/>
<path d="M172 283.5V378H186V283.5H172Z" fill="#FFEDB1"/>
<path d="M198.5 283.5V378H212.5V283.5H205H199.5H198.5Z" fill="#FFEDB1"/>
<path d="M225 283.5V378H239V283.5H225Z" fill="#FFEDB1"/>
<path d="M252 283.5V378H265.5V283.5H252Z" fill="#FFEDB1"/>
<path d="M277.5 283.5V378H292.5V283.5H277.5Z" fill="#FFEDB1"/>
<path d="M307 307.448V378H319.5V311.917C314.581 311.509 310.363 309.641 307 307.448Z" fill="#FFEDB1"/>
<path d="M346 378V302.249C343.51 304.585 339.487 307.676 334 309.745C333.512 309.93 333.012 310.106 332.5 310.273V378H346Z" fill="#FFEDB1"/>
<path d="M359 378H372.5V70H364.75H359V378Z" fill="#FFEDB1"/>
<path d="M385.5 0V378H399L398.75 0H385.5Z" fill="#FFEDB1"/>
<path d="M372.5 0H359V32.5H364.75H372.5V0Z" fill="#FFEDB1"/>
<path d="M332.5 0V44H346V0H332.5Z" fill="#FFEDB1"/>
<path d="M306 0V44H319.5V0H306Z" fill="#FFEDB1"/>
<path d="M320.5 183.5C320.5 183.5 308 208.5 302.5 244.5C300.694 256.323 299.499 271.997 298.798 283.5C298.247 292.537 298 299 298 299C298 299 301.254 303.7 307 307.448C310.363 309.641 314.581 311.509 319.5 311.917C320.154 311.971 320.821 312 321.5 312C325.615 312 329.286 311.321 332.5 310.273C333.012 310.106 333.512 309.93 334 309.745C334 309.745 327.697 306.775 324 299.5C316.886 285.5 326 243 329 226C332.059 208.667 344 183.5 344 183.5H320.5Z" fill="#35408E"/>
<path d="M277.5 58C277.5 58 277.5 87 289 116C295.234 131.721 305.158 148.85 312.2 160.184C314.115 163.266 315.817 165.92 317.173 168C319.236 171.163 320.5 173 320.5 173H349C349 173 328.999 142.337 320.5 121.5C305 83.5 307 58 307 58H277.5Z" fill="#35408E"/>
<path d="M122.5 118C130.865 95.5747 135 58 135 58H119H106C106 58 103.547 90.0334 97.5 109.5C89.1559 136.363 63.5 173 63.5 173H91.5C91.5 173 92.8032 171.143 94.9018 168C96.2987 165.908 98.048 163.246 100 160.184C107.268 148.78 117.346 131.816 122.5 118Z" fill="#35408E"/>
<path d="M109 239C105 208.5 91.5 183.5 91.5 183.5H69C69 183.5 78.2701 199.5 82.5 223.5C87.5079 251.915 97.0192 284.5 87.5 301C84.1353 306.832 78.2701 309.636 78.2701 309.636C78.8329 309.842 79.4097 310.036 80 310.215C83.1363 311.167 86.6552 311.707 90.5 311.5C91.1829 311.463 91.8495 311.409 92.5 311.338C98.1932 310.723 102.654 308.882 106 306.83C111.51 303.452 114 299.5 114 299.5C114 299.5 113.658 292.898 113.03 283.5C112.172 270.651 110.78 252.576 109 239Z" fill="#35408E"/>
<path d="M349 299V183.5H344C344 183.5 332.059 208.667 329 226C326 243 316.886 285.5 324 299.5C327.697 306.775 334 309.745 334 309.745C339.487 307.676 343.51 304.585 346 302.249C347.988 300.384 349 299 349 299Z" fill="#5966C7"/>
<path d="M349 173V58H307C307 58 305 83.5 320.5 121.5C328.999 142.337 349 173 349 173Z" fill="#5966C7"/>
<path d="M63.5 58V173C63.5 173 89.1559 136.363 97.5 109.5C103.547 90.0334 106 58 106 58H92.5H63.5Z" fill="#5966C7"/>
<path d="M63.5 183.5V299.5C63.5 299.5 64.3691 300.567 66 302.066C68.4685 304.334 72.6824 307.591 78.2701 309.636C78.2701 309.636 84.1353 306.832 87.5 301C97.0192 284.5 87.5079 251.915 82.5 223.5C78.2701 199.5 69 183.5 69 183.5H63.5Z" fill="#5966C7"/>
<path d="M349 173H320.5V174V183.5H344H349V173Z" fill="#FFEED2"/>
<path d="M63.5 173V183.5H69H91.5V174V173H63.5Z" fill="#FFEED2"/>
<path d="M58 44V52H354.5V44H346H332.5H319.5H306H292.5H278.5H265.5H252H239H225H212.5H198.5H186H172H159H145.5H132.25H119.125H119H106H92.5H80H66H58Z" fill="#FFEED2"/>
<path d="M58 52V58H63.5H92.5H106H119H135H199.5H205H213H277.5H307H349H354.5V52H58Z" fill="#DDBE8A"/>
<path d="M354.5 52V58V65.5C354.5 67.9853 356.515 70 359 70V70H364.75H372.5V70C373.881 70 375 68.8807 375 67.5V35C375 33.6193 373.881 32.5 372.5 32.5V32.5H364.75H359V32.5C356.515 32.5 354.5 34.5147 354.5 37V44V52Z" fill="#D9D9D9"/>
<path d="M58 52V44V37.5C58 34.7386 55.7614 32.5 53 32.5V32.5H39.5V32.5C38.3954 32.5 37.5 33.3954 37.5 34.5V68C37.5 69.1046 38.3954 70 39.5 70V70H53V70C55.7614 70 58 67.7614 58 65V58V52Z" fill="#D9D9D9"/>
<path d="M212.5 283.5H213V174V168H317.173C315.817 165.92 314.115 163.266 312.2 160.184H213V58H205V283.5H212.5Z" fill="#FFEED2"/>
<path d="M320.5 174V173C320.5 173 319.236 171.163 317.173 168H213V174H320.5Z" fill="#DDBE8A"/>
<path d="M91.5 173V174H199.5V283.5H205V58H199.5V160.184V168H94.9018C92.8032 171.143 91.5 173 91.5 173Z" fill="#DDBE8A"/>
<path d="M199.5 160.184H100C98.048 163.246 96.2987 165.908 94.9018 168H199.5V160.184Z" fill="#FFEED2"/>
<path d="M302.5 244.5C308 208.5 320.5 183.5 320.5 183.5V174H213V283.5H225H239H252H265.5H277.5H292.5H298.798C299.499 271.997 300.694 256.323 302.5 244.5Z" fill="url(#paint0_linear_3785_2914)"/>
<path d="M91.5 183.5C91.5 183.5 105 208.5 109 239C110.78 252.576 112.172 270.651 113.03 283.5H119H132.5H145.5H159H172H186H198.5H199.5V174H91.5V183.5Z" fill="url(#paint1_linear_3785_2914)"/>
<path d="M289 116C277.5 87 277.5 58 277.5 58H213V160.184H312.2C305.158 148.85 295.234 131.721 289 116Z" fill="#31333E"/>
<path d="M135 58C135 58 130.865 95.5747 122.5 118C117.346 131.816 107.268 148.78 100 160.184H199.5V58H135Z" fill="url(#paint2_linear_3785_2914)"/>
<g opacity="0.15" filter="url(#filter0_f_3785_2914)">
<ellipse cx="88.6262" cy="18.9202" rx="88.6262" ry="18.9202" transform="matrix(0.968679 0.248317 0.248317 -0.968679 268.006 400.684)" fill="black"/>
</g>
<path d="M418.082 304.487L412.294 303.004L412.541 302.039L411.686 302.546C411.457 302.681 411.292 302.901 411.226 303.158L409.598 309.509L410.563 309.756L416.351 311.24L417.315 311.487L418.943 305.136C419.009 304.879 418.97 304.607 418.835 304.378L418.329 303.523L418.082 304.487Z" fill="#FF0000"/>
<path d="M440.268 310.175L434.48 308.691L434.727 307.727L433.872 308.233C433.644 308.368 433.478 308.588 433.412 308.845L431.784 315.196L432.749 315.443L438.537 316.927L439.501 317.174L441.129 310.823C441.195 310.566 441.156 310.294 441.021 310.066L440.515 309.21L440.268 310.175Z" fill="#514DCF"/>
<path fill-rule="evenodd" clip-rule="evenodd" d="M402.474 289.179L391.104 333.534C390.555 335.674 391.845 337.854 393.985 338.402L399.756 339.882L401.339 336.957C401.557 336.554 402.022 336.351 402.466 336.465L409.635 338.302C410.08 338.416 410.39 338.818 410.387 339.277L410.367 342.602L421.942 345.569L424.456 342.672C424.704 342.386 425.092 342.265 425.459 342.359L431.979 344.03C432.346 344.124 432.628 344.417 432.708 344.788L433.518 348.537L438.262 349.753C440.426 350.308 442.625 348.982 443.146 346.81L453.797 302.335L402.474 289.179ZM408.707 296.944L423.176 300.654L421.841 301.853L416.772 321.628C416.772 321.628 418.454 323.087 417.959 325.016C417.591 326.451 415.621 327.476 414.637 327.907C414.275 328.065 413.872 328.08 413.49 327.982L404.117 325.58C403.694 325.471 403.317 325.229 403.072 324.867C402.484 324.002 401.457 322.262 401.561 320.812C401.684 319.078 404.232 318.413 404.232 318.413L409.301 298.639L408.707 296.944ZM430.893 302.632L445.362 306.341L444.027 307.54L438.958 327.315C438.958 327.315 440.64 328.774 440.145 330.703C439.777 332.139 437.807 333.164 436.823 333.594C436.461 333.752 436.058 333.768 435.676 333.67L426.303 331.267C425.88 331.159 425.503 330.916 425.258 330.555C424.67 329.689 423.644 327.949 423.747 326.5C423.87 324.765 426.418 324.1 426.418 324.1L431.487 304.326L430.893 302.632Z" fill="#BBC8D6"/>
<path d="M456.125 292.616C456.507 291.022 455.54 289.418 453.953 289.011L408.595 277.384C406.99 276.972 405.355 277.94 404.944 279.545L402.474 289.179L453.797 302.335L456.125 292.616Z" fill="#BBC8D6"/>
<path d="M432.599 306.153C432.275 306.07 432.014 305.831 431.904 305.515L431.487 304.326L426.418 324.1L438.958 327.315L444.027 307.54L443.089 308.382C442.841 308.606 442.497 308.69 442.173 308.607L440.762 308.246L440.515 309.21L441.021 310.066C441.156 310.294 441.195 310.566 441.129 310.823L439.501 317.174L438.537 316.927L435.841 323.432L431.983 322.443L432.749 315.443L431.784 315.196L433.412 308.845C433.478 308.588 433.644 308.368 433.872 308.233L434.727 307.727L434.974 306.762L432.599 306.153Z" fill="#87919B"/>
<path d="M416.772 321.628L404.232 318.413C404.232 318.413 401.684 319.078 401.561 320.812C401.457 322.262 402.484 324.002 403.072 324.867C403.317 325.229 403.694 325.471 404.117 325.58L413.49 327.982C413.872 328.08 414.275 328.065 414.637 327.907C415.621 327.476 417.591 326.451 417.959 325.016C418.454 323.087 416.772 321.628 416.772 321.628Z" fill="white"/>
<path d="M438.958 327.315L426.418 324.1C426.418 324.1 423.87 324.765 423.747 326.5C423.644 327.949 424.67 329.689 425.258 330.555C425.503 330.916 425.88 331.159 426.303 331.267L435.676 333.67C436.058 333.768 436.461 333.752 436.823 333.594C437.807 333.164 439.777 332.139 440.145 330.703C440.64 328.774 438.958 327.315 438.958 327.315Z" fill="white"/>
<path d="M402.466 336.465C402.022 336.351 401.557 336.554 401.339 336.957L399.756 339.882L410.367 342.602L410.387 339.277C410.39 338.818 410.08 338.416 409.635 338.302L402.466 336.465Z" fill="white"/>
<path d="M425.459 342.359C425.092 342.265 424.704 342.386 424.456 342.672L421.942 345.569L433.518 348.537L432.708 344.788C432.628 344.417 432.346 344.124 431.979 344.03L425.459 342.359Z" fill="white"/>
<path d="M432.749 315.443L431.983 322.443L435.841 323.432L438.537 316.927L432.749 315.443Z" fill="white"/>
<path d="M410.563 309.756L409.797 316.756L413.655 317.745L416.351 311.24L410.563 309.756Z" fill="white"/>
<path d="M423.176 300.654L408.707 296.944L409.301 298.639L409.718 299.828C409.828 300.143 410.089 300.383 410.413 300.466L412.788 301.075L418.576 302.558L419.987 302.92C420.311 303.003 420.655 302.919 420.903 302.695L421.841 301.853L423.176 300.654Z" fill="white"/>
<path d="M445.362 306.341L430.893 302.632L431.487 304.326L431.904 305.515C432.014 305.831 432.275 306.07 432.599 306.153L434.974 306.762L440.762 308.246L442.173 308.607C442.497 308.69 442.841 308.606 443.089 308.382L444.027 307.54L445.362 306.341Z" fill="white"/>
<path d="M412.294 303.004L418.082 304.487L418.329 303.523L418.576 302.558L412.788 301.075L412.541 302.039L412.294 303.004Z" fill="#202020"/>
<path d="M434.48 308.691L440.268 310.175L440.515 309.21L440.762 308.246L434.974 306.762L434.727 307.727L434.48 308.691Z" fill="#4E4E4E"/>
<path d="M410.413 300.466C410.089 300.383 409.828 300.143 409.718 299.828L409.301 298.639L404.232 318.413L416.772 321.628L421.841 301.853L420.903 302.695C420.655 302.919 420.311 303.003 419.987 302.92L418.576 302.558L418.329 303.523L418.835 304.378C418.97 304.607 419.009 304.879 418.943 305.136L417.315 311.487L416.351 311.24L413.655 317.745L409.797 316.756L410.563 309.756L409.598 309.509L411.226 303.158C411.292 302.901 411.457 302.681 411.686 302.546L412.541 302.039L412.788 301.075L410.413 300.466Z" fill="#87919B"/>
<path d="M418.894 249.184L416.916 256.901L455.501 266.792L457.479 259.075L450.727 257.344L428.541 251.657L418.894 249.184Z" fill="#BBC8D6"/>
<path d="M428.541 251.657L450.727 257.344C450.727 257.344 457.035 253.949 461.386 251.852C464.387 250.407 468.779 248.46 471.215 247.392C472.347 246.895 473.19 245.907 473.497 244.709L474 242.75L415.158 227.666L414.647 229.66C414.345 230.838 414.594 232.087 415.323 233.061C417.038 235.352 420.298 239.733 422.555 242.926C424.94 246.302 428.541 251.657 428.541 251.657Z" fill="url(#paint3_linear_3785_2914)"/>
<path d="M475.929 243.244L477.907 235.528L475.978 235.033L417.137 219.949L415.207 219.455L413.229 227.172L415.158 227.666L474 242.75L475.929 243.244Z" fill="#95CFE4"/>
<path d="M417.137 219.949L475.978 235.033L481.418 213.811L422.577 198.728L417.137 219.949Z" fill="url(#paint4_linear_3785_2914)"/>
<path d="M424.308 191.975L483.149 207.059L488.589 185.838L429.748 170.754L424.308 191.975Z" fill="#D9D9D9"/>
<path d="M424.308 191.975L483.149 207.059L488.589 185.838L429.748 170.754L424.308 191.975Z" fill="url(#paint5_linear_3785_2914)"/>
<path d="M491.305 175.243C491.853 173.103 490.563 170.924 488.423 170.375L437.332 157.278C435.192 156.729 433.012 158.02 432.464 160.16L431.635 163.39L490.477 178.474L491.305 175.243Z" fill="#FF0000"/>
<path d="M491.305 175.243C491.853 173.103 490.563 170.924 488.423 170.375L437.332 157.278C435.192 156.729 433.012 158.02 432.464 160.16L431.635 163.39L490.477 178.474L491.305 175.243Z" fill="url(#paint6_linear_3785_2914)"/>
<path d="M422.378 191.481L420.647 198.233L422.577 198.728L481.418 213.811L483.347 214.306L485.078 207.554L483.149 207.059L424.308 191.975L422.378 191.481Z" fill="#95CFE4"/>
<path d="M429.706 162.895L427.818 170.259L429.748 170.754L488.589 185.838L490.518 186.332L492.406 178.968L490.477 178.474L431.635 163.39L429.706 162.895Z" fill="#95CFE4"/>
<path fill-rule="evenodd" clip-rule="evenodd" d="M402.455 253.194C401.385 252.919 400.296 253.564 400.021 254.634L360.956 407.027C360.682 408.097 361.327 409.187 362.397 409.461L430.868 427.013C431.938 427.288 433.027 426.643 433.302 425.573L472.367 273.18C472.641 272.11 471.996 271.02 470.926 270.746L455.501 266.792L416.916 256.901L402.455 253.194ZM404.944 279.545C405.355 277.94 406.99 276.972 408.595 277.384L453.953 289.011C455.54 289.418 456.507 291.022 456.125 292.616L453.797 302.335L443.146 346.81C442.625 348.982 440.426 350.308 438.262 349.753L433.518 348.537L421.942 345.569L410.367 342.602L399.756 339.882L393.985 338.402C391.845 337.854 390.555 335.674 391.104 333.534L402.474 289.179L404.944 279.545Z" fill="url(#paint7_linear_3785_2914)"/>
<path d="M281.167 381.425C280.619 383.565 281.909 385.744 284.049 386.293L308.148 392.47L331.282 398.401C333.422 398.949 335.601 397.659 336.15 395.519L336.888 392.642L281.905 378.547L281.167 381.425Z" fill="#FF0000"/>
<path d="M281.167 381.425C280.619 383.565 281.909 385.744 284.049 386.293L308.148 392.47L331.282 398.401C333.422 398.949 335.601 397.659 336.15 395.519L336.888 392.642L281.905 378.547L281.167 381.425Z" fill="url(#paint8_linear_3785_2914)"/>
<path d="M338.619 385.89L343.564 366.597L288.581 352.503L283.636 371.795L338.619 385.89Z" fill="url(#paint9_linear_3785_2914)"/>
<path d="M290.312 345.75L345.295 359.845L350.24 340.553L295.258 326.458L290.312 345.75Z" fill="url(#paint10_linear_3785_2914)"/>
<path d="M352.302 332.512C352.565 331.484 352.413 330.398 351.857 329.495C350.056 326.567 345.692 319.687 341.459 314.658C335.943 308.104 336.685 305.21 336.685 305.21L324.145 301.995C324.145 301.995 323.551 304.31 315.414 307.981C309.258 310.758 302.295 314.388 299.27 315.99C298.285 316.512 297.573 317.426 297.296 318.506L296.989 319.706L351.971 333.8L352.302 332.512Z" fill="url(#paint11_linear_3785_2914)"/>
<path d="M338.817 393.136L340.548 386.384L338.619 385.89L283.636 371.795L281.707 371.3L279.976 378.053L281.905 378.547L336.888 392.642L338.817 393.136Z" fill="#95CFE4"/>
<path d="M345.493 367.092L347.224 360.34L345.295 359.845L290.312 345.75L288.383 345.256L286.652 352.008L288.581 352.503L343.564 366.597L345.493 367.092Z" fill="#95CFE4"/>
<path d="M352.17 341.047L353.901 334.295L351.971 333.8L296.989 319.706L295.059 319.211L293.328 325.964L295.258 326.458L350.24 340.553L352.17 341.047Z" fill="#95CFE4"/>
<path d="M325.134 298.137L337.674 301.351L338.663 297.493L326.123 294.278L325.134 298.137Z" fill="url(#paint12_linear_3785_2914)"/>
<path d="M338.614 305.704L339.108 303.775C339.381 302.71 338.739 301.624 337.674 301.351V301.351L325.134 298.137V298.137C324.068 297.864 322.983 298.506 322.71 299.571L322.215 301.501L324.145 301.995L336.685 305.21L338.614 305.704Z" fill="#95CFE4"/>
<path d="M326.865 291.384L339.405 294.599L340.146 291.705L327.606 288.491L326.865 291.384Z" fill="url(#paint13_linear_3785_2914)"/>
<path d="M338.663 297.493C339.196 297.629 339.738 297.308 339.875 296.775L340.122 295.811C340.258 295.278 339.937 294.736 339.405 294.599V294.599L326.865 291.384V291.384C326.332 291.248 325.789 291.569 325.653 292.102L325.406 293.066C325.269 293.599 325.59 294.142 326.123 294.278V294.278L338.663 297.493V297.493Z" fill="#95CFE4"/>
<path d="M340.146 291.705C340.679 291.842 341.222 291.521 341.358 290.988L341.853 289.059C341.989 288.526 341.668 287.983 341.136 287.847V287.847L328.596 284.632V284.632C328.063 284.496 327.52 284.817 327.384 285.349L326.889 287.279C326.753 287.811 327.074 288.354 327.606 288.491V288.491L340.146 291.705V291.705Z" fill="#95CFE4"/>
<path d="M341.877 284.953L329.337 281.738L328.596 284.632L341.136 287.847L341.877 284.953Z" fill="#514DCF"/>
<path d="M416.916 256.901L402.455 253.194C401.385 252.919 400.296 253.564 400.021 254.634L360.956 407.027C360.682 408.097 361.327 409.187 362.397 409.461L430.868 427.013C431.938 427.288 433.027 426.643 433.302 425.573L472.367 273.18C472.641 272.11 471.996 271.02 470.926 270.746L455.501 266.792M416.916 256.901L418.894 249.184L428.541 251.657M416.916 256.901L455.501 266.792M455.501 266.792L457.479 259.075L450.727 257.344M428.541 251.657L450.727 257.344M428.541 251.657C428.541 251.657 424.94 246.302 422.555 242.926C420.298 239.733 417.038 235.352 415.323 233.061C414.594 232.087 414.345 230.838 414.647 229.66L415.158 227.666M450.727 257.344C450.727 257.344 457.035 253.949 461.386 251.852C464.387 250.407 468.779 248.46 471.215 247.392C472.347 246.895 473.19 245.907 473.497 244.709L474 242.75M415.158 227.666L413.229 227.172L415.207 219.455L417.137 219.949M415.158 227.666L474 242.75M417.137 219.949L475.978 235.033M417.137 219.949L422.577 198.728M474 242.75L475.929 243.244L477.907 235.528L475.978 235.033M475.978 235.033L481.418 213.811M422.577 198.728L420.647 198.233L422.378 191.481L424.308 191.975M422.577 198.728L481.418 213.811M424.308 191.975L483.149 207.059M424.308 191.975L429.748 170.754M481.418 213.811L483.347 214.306L485.078 207.554L483.149 207.059M483.149 207.059L488.589 185.838M488.589 185.838L490.518 186.332L492.406 178.968L490.477 178.474M488.589 185.838L429.748 170.754M490.477 178.474L491.305 175.243C491.853 173.103 490.563 170.924 488.423 170.375L437.332 157.278C435.192 156.729 433.012 158.02 432.464 160.16L431.635 163.39M490.477 178.474L431.635 163.39M431.635 163.39L429.706 162.895L427.818 170.259L429.748 170.754M402.474 289.179L404.944 279.545C405.355 277.94 406.99 276.972 408.595 277.384L453.953 289.011C455.54 289.418 456.507 291.022 456.125 292.616L453.797 302.335M402.474 289.179L391.104 333.534C390.555 335.674 391.845 337.854 393.985 338.402L399.756 339.882M402.474 289.179L453.797 302.335M453.797 302.335L443.146 346.81C442.625 348.982 440.426 350.308 438.262 349.753L433.518 348.537M409.301 298.639L409.718 299.828C409.828 300.143 410.089 300.383 410.413 300.466L412.788 301.075M409.301 298.639L408.707 296.944L423.176 300.654L421.841 301.853M409.301 298.639L404.232 318.413M404.232 318.413L416.772 321.628M404.232 318.413C404.232 318.413 401.684 319.078 401.561 320.812C401.457 322.262 402.484 324.002 403.072 324.867C403.317 325.229 403.694 325.471 404.117 325.58L413.49 327.982C413.872 328.08 414.275 328.065 414.637 327.907C415.621 327.476 417.591 326.451 417.959 325.016C418.454 323.087 416.772 321.628 416.772 321.628M416.772 321.628L421.841 301.853M421.841 301.853L420.903 302.695C420.655 302.919 420.311 303.003 419.987 302.92L418.576 302.558M412.788 301.075L418.576 302.558M412.788 301.075L412.541 302.039M418.576 302.558L418.329 303.523M412.541 302.039L412.294 303.004L418.082 304.487L418.329 303.523M412.541 302.039L411.686 302.546C411.457 302.681 411.292 302.901 411.226 303.158L409.598 309.509L410.563 309.756M418.329 303.523L418.835 304.378C418.97 304.607 419.009 304.879 418.943 305.136L417.315 311.487L416.351 311.24M410.563 309.756L409.797 316.756L413.655 317.745L416.351 311.24M410.563 309.756L416.351 311.24M431.487 304.326L431.904 305.515C432.014 305.831 432.275 306.07 432.599 306.153L434.974 306.762M431.487 304.326L430.893 302.632L445.362 306.341L444.027 307.54M431.487 304.326L426.418 324.1M426.418 324.1L438.958 327.315M426.418 324.1C426.418 324.1 423.87 324.765 423.747 326.5C423.644 327.949 424.67 329.689 425.258 330.555C425.503 330.916 425.88 331.159 426.303 331.267L435.676 333.67C436.058 333.768 436.461 333.752 436.823 333.594C437.807 333.164 439.777 332.139 440.145 330.703C440.64 328.774 438.958 327.315 438.958 327.315M438.958 327.315L444.027 307.54M444.027 307.54L443.089 308.382C442.841 308.606 442.497 308.69 442.173 308.607L440.762 308.246M434.974 306.762L440.762 308.246M434.974 306.762L434.727 307.727M440.762 308.246L440.515 309.21M434.727 307.727L434.48 308.691L440.268 310.175L440.515 309.21M434.727 307.727L433.872 308.233C433.644 308.368 433.478 308.588 433.412 308.845L431.784 315.196L432.749 315.443M440.515 309.21L441.021 310.066C441.156 310.294 441.195 310.566 441.129 310.823L439.501 317.174L438.537 316.927M432.749 315.443L431.983 322.443L435.841 323.432L438.537 316.927M432.749 315.443L438.537 316.927M399.756 339.882L401.339 336.957C401.557 336.554 402.022 336.351 402.466 336.465L409.635 338.302C410.08 338.416 410.39 338.818 410.387 339.277L410.367 342.602M399.756 339.882L410.367 342.602M410.367 342.602L421.942 345.569M421.942 345.569L424.456 342.672C424.704 342.386 425.092 342.265 425.459 342.359L431.979 344.03C432.346 344.124 432.628 344.417 432.708 344.788L433.518 348.537M421.942 345.569L433.518 348.537M324.145 301.995C324.145 301.995 323.551 304.31 315.414 307.981C309.258 310.758 302.295 314.388 299.27 315.99C298.285 316.512 297.573 317.426 297.296 318.506L296.989 319.706M324.145 301.995L336.685 305.21M324.145 301.995L322.215 301.501M336.685 305.21C336.685 305.21 335.943 308.104 341.459 314.658C345.692 319.687 350.056 326.567 351.857 329.495C352.413 330.398 352.565 331.484 352.302 332.512L351.971 333.8M336.685 305.21L338.614 305.704M338.614 305.704L339.108 303.775C339.381 302.71 338.739 301.624 337.674 301.351V301.351M338.614 305.704L322.215 301.501M322.215 301.501L322.71 299.571C322.983 298.506 324.068 297.864 325.134 298.137V298.137M325.134 298.137L337.674 301.351M325.134 298.137L326.123 294.278M337.674 301.351L338.663 297.493M339.405 294.599V294.599C339.937 294.736 340.258 295.278 340.122 295.811L339.875 296.775C339.738 297.308 339.196 297.629 338.663 297.493V297.493M339.405 294.599L326.865 291.384M339.405 294.599L340.146 291.705M338.663 297.493L326.123 294.278M326.865 291.384V291.384C326.332 291.248 325.789 291.569 325.653 292.102L325.406 293.066C325.269 293.599 325.59 294.142 326.123 294.278V294.278M326.865 291.384L327.606 288.491M328.596 284.632L329.337 281.738L341.877 284.953L341.136 287.847M328.596 284.632V284.632C328.063 284.496 327.52 284.817 327.384 285.349L326.889 287.279C326.753 287.811 327.074 288.354 327.606 288.491V288.491M328.596 284.632L341.136 287.847M327.606 288.491L340.146 291.705M340.146 291.705V291.705C340.679 291.842 341.222 291.521 341.358 290.988L341.853 289.059C341.989 288.526 341.668 287.983 341.136 287.847V287.847M336.888 392.642L338.817 393.136L340.548 386.384L338.619 385.89M336.888 392.642L336.15 395.519C335.601 397.659 333.422 398.949 331.282 398.401L308.148 392.47L284.049 386.293C281.909 385.744 280.619 383.565 281.167 381.425L281.905 378.547M336.888 392.642L281.905 378.547M338.619 385.89L343.564 366.597M338.619 385.89L283.636 371.795M343.564 366.597L345.493 367.092L347.224 360.34L345.295 359.845M343.564 366.597L288.581 352.503M345.295 359.845L290.312 345.75M345.295 359.845L350.24 340.553M281.905 378.547L279.976 378.053L281.707 371.3L283.636 371.795M283.636 371.795L288.581 352.503M288.581 352.503L286.652 352.008L288.383 345.256L290.312 345.75M290.312 345.75L295.258 326.458M295.258 326.458L293.328 325.964L295.059 319.211L296.989 319.706M295.258 326.458L350.24 340.553M296.989 319.706L351.971 333.8M351.971 333.8L353.901 334.295L352.17 341.047L350.24 340.553" stroke="black" stroke-width="3" stroke-linecap="round" stroke-linejoin="round"/>
<path d="M418.082 304.487L412.294 303.004L412.541 302.039L411.686 302.546C411.457 302.681 411.292 302.901 411.226 303.158L409.598 309.509L410.563 309.756L416.351 311.24L417.315 311.487L418.943 305.136C419.009 304.879 418.97 304.607 418.835 304.378L418.329 303.523L418.082 304.487Z" fill="#FF0000"/>
<path d="M440.268 310.175L434.48 308.691L434.727 307.727L433.872 308.233C433.644 308.368 433.478 308.588 433.412 308.845L431.784 315.196L432.749 315.443L438.537 316.927L439.501 317.174L441.129 310.823C441.195 310.566 441.156 310.294 441.021 310.066L440.515 309.21L440.268 310.175Z" fill="#514DCF"/>
<path fill-rule="evenodd" clip-rule="evenodd" d="M402.474 289.179L391.104 333.534C390.555 335.674 391.845 337.854 393.985 338.402L399.756 339.882L401.339 336.957C401.557 336.554 402.022 336.351 402.466 336.465L409.635 338.302C410.08 338.416 410.39 338.818 410.387 339.277L410.367 342.602L421.942 345.569L424.456 342.672C424.704 342.386 425.092 342.265 425.459 342.359L431.979 344.03C432.346 344.124 432.628 344.417 432.708 344.788L433.518 348.537L438.262 349.753C440.426 350.308 442.625 348.982 443.146 346.81L453.797 302.335L402.474 289.179ZM408.707 296.944L423.176 300.654L421.841 301.853L416.772 321.628C416.772 321.628 418.454 323.087 417.959 325.016C417.591 326.451 415.621 327.476 414.637 327.907C414.275 328.065 413.872 328.08 413.49 327.982L404.117 325.58C403.694 325.471 403.317 325.229 403.072 324.867C402.484 324.002 401.457 322.262 401.561 320.812C401.684 319.078 404.232 318.413 404.232 318.413L409.301 298.639L408.707 296.944ZM430.893 302.632L445.362 306.341L444.027 307.54L438.958 327.315C438.958 327.315 440.64 328.774 440.145 330.703C439.777 332.139 437.807 333.164 436.823 333.594C436.461 333.752 436.058 333.768 435.676 333.67L426.303 331.267C425.88 331.159 425.503 330.916 425.258 330.555C424.67 329.689 423.644 327.949 423.747 326.5C423.87 324.765 426.418 324.1 426.418 324.1L431.487 304.326L430.893 302.632Z" fill="#BBC8D6"/>
<path d="M456.125 292.616C456.507 291.022 455.54 289.418 453.953 289.011L408.595 277.384C406.99 276.972 405.355 277.94 404.944 279.545L402.474 289.179L453.797 302.335L456.125 292.616Z" fill="#BBC8D6"/>
<path d="M432.599 306.153C432.275 306.07 432.014 305.831 431.904 305.515L431.487 304.326L426.418 324.1L438.958 327.315L444.027 307.54L443.089 308.382C442.841 308.606 442.497 308.69 442.173 308.607L440.762 308.246L440.515 309.21L441.021 310.066C441.156 310.294 441.195 310.566 441.129 310.823L439.501 317.174L438.537 316.927L435.841 323.432L431.983 322.443L432.749 315.443L431.784 315.196L433.412 308.845C433.478 308.588 433.644 308.368 433.872 308.233L434.727 307.727L434.974 306.762L432.599 306.153Z" fill="#87919B"/>
<path d="M416.772 321.628L404.232 318.413C404.232 318.413 401.684 319.078 401.561 320.812C401.457 322.262 402.484 324.002 403.072 324.867C403.317 325.229 403.694 325.471 404.117 325.58L413.49 327.982C413.872 328.08 414.275 328.065 414.637 327.907C415.621 327.476 417.591 326.451 417.959 325.016C418.454 323.087 416.772 321.628 416.772 321.628Z" fill="white"/>
<path d="M438.958 327.315L426.418 324.1C426.418 324.1 423.87 324.765 423.747 326.5C423.644 327.949 424.67 329.689 425.258 330.555C425.503 330.916 425.88 331.159 426.303 331.267L435.676 333.67C436.058 333.768 436.461 333.752 436.823 333.594C437.807 333.164 439.777 332.139 440.145 330.703C440.64 328.774 438.958 327.315 438.958 327.315Z" fill="white"/>
<path d="M402.466 336.465C402.022 336.351 401.557 336.554 401.339 336.957L399.756 339.882L410.367 342.602L410.387 339.277C410.39 338.818 410.08 338.416 409.635 338.302L402.466 336.465Z" fill="white"/>
<path d="M425.459 342.359C425.092 342.265 424.704 342.386 424.456 342.672L421.942 345.569L433.518 348.537L432.708 344.788C432.628 344.417 432.346 344.124 431.979 344.03L425.459 342.359Z" fill="white"/>
<path d="M432.749 315.443L431.983 322.443L435.841 323.432L438.537 316.927L432.749 315.443Z" fill="white"/>
<path d="M410.563 309.756L409.797 316.756L413.655 317.745L416.351 311.24L410.563 309.756Z" fill="white"/>
<path d="M423.176 300.654L408.707 296.944L409.301 298.639L409.718 299.828C409.828 300.143 410.089 300.383 410.413 300.466L412.788 301.075L418.576 302.558L419.987 302.92C420.311 303.003 420.655 302.919 420.903 302.695L421.841 301.853L423.176 300.654Z" fill="white"/>
<path d="M445.362 306.341L430.893 302.632L431.487 304.326L431.904 305.515C432.014 305.831 432.275 306.07 432.599 306.153L434.974 306.762L440.762 308.246L442.173 308.607C442.497 308.69 442.841 308.606 443.089 308.382L444.027 307.54L445.362 306.341Z" fill="white"/>
<path d="M412.294 303.004L418.082 304.487L418.329 303.523L418.576 302.558L412.788 301.075L412.541 302.039L412.294 303.004Z" fill="#202020"/>
<path d="M434.48 308.691L440.268 310.175L440.515 309.21L440.762 308.246L434.974 306.762L434.727 307.727L434.48 308.691Z" fill="#4E4E4E"/>
<path d="M410.413 300.466C410.089 300.383 409.828 300.143 409.718 299.828L409.301 298.639L404.232 318.413L416.772 321.628L421.841 301.853L420.903 302.695C420.655 302.919 420.311 303.003 419.987 302.92L418.576 302.558L418.329 303.523L418.835 304.378C418.97 304.607 419.009 304.879 418.943 305.136L417.315 311.487L416.351 311.24L413.655 317.745L409.797 316.756L410.563 309.756L409.598 309.509L411.226 303.158C411.292 302.901 411.457 302.681 411.686 302.546L412.541 302.039L412.788 301.075L410.413 300.466Z" fill="#87919B"/>
<path d="M418.894 249.184L416.916 256.901L455.501 266.792L457.479 259.075L450.727 257.344L428.541 251.657L418.894 249.184Z" fill="#BBC8D6"/>
<path d="M428.541 251.657L450.727 257.344C450.727 257.344 457.035 253.949 461.386 251.852C464.387 250.407 468.779 248.46 471.215 247.392C472.347 246.895 473.19 245.907 473.497 244.709L474 242.75L415.158 227.666L414.647 229.66C414.345 230.838 414.594 232.087 415.323 233.061C417.038 235.352 420.298 239.733 422.555 242.926C424.94 246.302 428.541 251.657 428.541 251.657Z" fill="url(#paint14_linear_3785_2914)"/>
<path d="M475.929 243.244L477.907 235.528L475.978 235.033L417.137 219.949L415.207 219.455L413.229 227.172L415.158 227.666L474 242.75L475.929 243.244Z" fill="#95CFE4"/>
<path d="M417.137 219.949L475.978 235.033L481.418 213.811L422.577 198.728L417.137 219.949Z" fill="url(#paint15_linear_3785_2914)"/>
<path d="M424.308 191.975L483.149 207.059L488.589 185.838L429.748 170.754L424.308 191.975Z" fill="#D9D9D9"/>
<path d="M424.308 191.975L483.149 207.059L488.589 185.838L429.748 170.754L424.308 191.975Z" fill="url(#paint16_linear_3785_2914)"/>
<path d="M491.305 175.243C491.853 173.103 490.563 170.924 488.423 170.375L437.332 157.278C435.192 156.729 433.012 158.02 432.464 160.16L431.635 163.39L490.477 178.474L491.305 175.243Z" fill="#FF0000"/>
<path d="M491.305 175.243C491.853 173.103 490.563 170.924 488.423 170.375L437.332 157.278C435.192 156.729 433.012 158.02 432.464 160.16L431.635 163.39L490.477 178.474L491.305 175.243Z" fill="url(#paint17_linear_3785_2914)"/>
<path d="M422.378 191.481L420.647 198.233L422.577 198.728L481.418 213.811L483.347 214.306L485.078 207.554L483.149 207.059L424.308 191.975L422.378 191.481Z" fill="#95CFE4"/>
<path d="M429.706 162.895L427.818 170.259L429.748 170.754L488.589 185.838L490.518 186.332L492.406 178.968L490.477 178.474L431.635 163.39L429.706 162.895Z" fill="#95CFE4"/>
<path fill-rule="evenodd" clip-rule="evenodd" d="M402.455 253.194C401.385 252.919 400.296 253.564 400.021 254.634L360.956 407.027C360.682 408.097 361.327 409.187 362.397 409.461L430.868 427.013C431.938 427.288 433.027 426.643 433.302 425.573L472.367 273.18C472.641 272.11 471.996 271.02 470.926 270.746L455.501 266.792L416.916 256.901L402.455 253.194ZM404.944 279.545C405.355 277.94 406.99 276.972 408.595 277.384L453.953 289.011C455.54 289.418 456.507 291.022 456.125 292.616L453.797 302.335L443.146 346.81C442.625 348.982 440.426 350.308 438.262 349.753L433.518 348.537L421.942 345.569L410.367 342.602L399.756 339.882L393.985 338.402C391.845 337.854 390.555 335.674 391.104 333.534L402.474 289.179L404.944 279.545Z" fill="url(#paint18_linear_3785_2914)"/>
<path d="M281.167 381.425C280.619 383.565 281.909 385.744 284.049 386.293L308.148 392.47L331.282 398.401C333.422 398.949 335.601 397.659 336.15 395.519L336.888 392.642L281.905 378.547L281.167 381.425Z" fill="#FF0000"/>
<path d="M281.167 381.425C280.619 383.565 281.909 385.744 284.049 386.293L308.148 392.47L331.282 398.401C333.422 398.949 335.601 397.659 336.15 395.519L336.888 392.642L281.905 378.547L281.167 381.425Z" fill="url(#paint19_linear_3785_2914)"/>
<path d="M338.619 385.89L343.564 366.597L288.581 352.503L283.636 371.795L338.619 385.89Z" fill="url(#paint20_linear_3785_2914)"/>
<path d="M290.312 345.75L345.295 359.845L350.24 340.553L295.258 326.458L290.312 345.75Z" fill="url(#paint21_linear_3785_2914)"/>
<path d="M352.302 332.512C352.565 331.484 352.413 330.398 351.857 329.495C350.056 326.567 345.692 319.687 341.459 314.658C335.943 308.104 336.685 305.21 336.685 305.21L324.145 301.995C324.145 301.995 323.551 304.31 315.414 307.981C309.258 310.758 302.295 314.388 299.27 315.99C298.285 316.512 297.573 317.426 297.296 318.506L296.989 319.706L351.971 333.8L352.302 332.512Z" fill="url(#paint22_linear_3785_2914)"/>
<path d="M338.817 393.136L340.548 386.384L338.619 385.89L283.636 371.795L281.707 371.3L279.976 378.053L281.905 378.547L336.888 392.642L338.817 393.136Z" fill="#95CFE4"/>
<path d="M345.493 367.092L347.224 360.34L345.295 359.845L290.312 345.75L288.383 345.256L286.652 352.008L288.581 352.503L343.564 366.597L345.493 367.092Z" fill="#95CFE4"/>
<path d="M352.17 341.047L353.901 334.295L351.971 333.8L296.989 319.706L295.059 319.211L293.328 325.964L295.258 326.458L350.24 340.553L352.17 341.047Z" fill="#95CFE4"/>
<path d="M325.134 298.137L337.674 301.351L338.663 297.493L326.123 294.278L325.134 298.137Z" fill="url(#paint23_linear_3785_2914)"/>
<path d="M338.614 305.704L339.108 303.775C339.381 302.71 338.739 301.624 337.674 301.351V301.351L325.134 298.137V298.137C324.068 297.864 322.983 298.506 322.71 299.571L322.215 301.501L324.145 301.995L336.685 305.21L338.614 305.704Z" fill="#95CFE4"/>
<path d="M326.865 291.384L339.405 294.599L340.146 291.705L327.606 288.491L326.865 291.384Z" fill="url(#paint24_linear_3785_2914)"/>
<path d="M338.663 297.493C339.196 297.629 339.738 297.308 339.875 296.775L340.122 295.811C340.258 295.278 339.937 294.736 339.405 294.599V294.599L326.865 291.384V291.384C326.332 291.248 325.789 291.569 325.653 292.102L325.406 293.066C325.269 293.599 325.59 294.142 326.123 294.278V294.278L338.663 297.493V297.493Z" fill="#95CFE4"/>
<path d="M340.146 291.705C340.679 291.842 341.222 291.521 341.358 290.988L341.853 289.059C341.989 288.526 341.668 287.983 341.136 287.847V287.847L328.596 284.632V284.632C328.063 284.496 327.52 284.817 327.384 285.349L326.889 287.279C326.753 287.811 327.074 288.354 327.606 288.491V288.491L340.146 291.705V291.705Z" fill="#95CFE4"/>
<path d="M341.877 284.953L329.337 281.738L328.596 284.632L341.136 287.847L341.877 284.953Z" fill="#514DCF"/>
<path d="M416.916 256.901L402.455 253.194C401.385 252.919 400.296 253.564 400.021 254.634L360.956 407.027C360.682 408.097 361.327 409.187 362.397 409.461L430.868 427.013C431.938 427.288 433.027 426.643 433.302 425.573L472.367 273.18C472.641 272.11 471.996 271.02 470.926 270.746L455.501 266.792M416.916 256.901L418.894 249.184L428.541 251.657M416.916 256.901L455.501 266.792M455.501 266.792L457.479 259.075L450.727 257.344M428.541 251.657L450.727 257.344M428.541 251.657C428.541 251.657 424.94 246.302 422.555 242.926C420.298 239.733 417.038 235.352 415.323 233.061C414.594 232.087 414.345 230.838 414.647 229.66L415.158 227.666M450.727 257.344C450.727 257.344 457.035 253.949 461.386 251.852C464.387 250.407 468.779 248.46 471.215 247.392C472.347 246.895 473.19 245.907 473.497 244.709L474 242.75M415.158 227.666L413.229 227.172L415.207 219.455L417.137 219.949M415.158 227.666L474 242.75M417.137 219.949L475.978 235.033M417.137 219.949L422.577 198.728M474 242.75L475.929 243.244L477.907 235.528L475.978 235.033M475.978 235.033L481.418 213.811M422.577 198.728L420.647 198.233L422.378 191.481L424.308 191.975M422.577 198.728L481.418 213.811M424.308 191.975L483.149 207.059M424.308 191.975L429.748 170.754M481.418 213.811L483.347 214.306L485.078 207.554L483.149 207.059M483.149 207.059L488.589 185.838M488.589 185.838L490.518 186.332L492.406 178.968L490.477 178.474M488.589 185.838L429.748 170.754M490.477 178.474L491.305 175.243C491.853 173.103 490.563 170.924 488.423 170.375L437.332 157.278C435.192 156.729 433.012 158.02 432.464 160.16L431.635 163.39M490.477 178.474L431.635 163.39M431.635 163.39L429.706 162.895L427.818 170.259L429.748 170.754M402.474 289.179L404.944 279.545C405.355 277.94 406.99 276.972 408.595 277.384L453.953 289.011C455.54 289.418 456.507 291.022 456.125 292.616L453.797 302.335M402.474 289.179L391.104 333.534C390.555 335.674 391.845 337.854 393.985 338.402L399.756 339.882M402.474 289.179L453.797 302.335M453.797 302.335L443.146 346.81C442.625 348.982 440.426 350.308 438.262 349.753L433.518 348.537M409.301 298.639L409.718 299.828C409.828 300.143 410.089 300.383 410.413 300.466L412.788 301.075M409.301 298.639L408.707 296.944L423.176 300.654L421.841 301.853M409.301 298.639L404.232 318.413M404.232 318.413L416.772 321.628M404.232 318.413C404.232 318.413 401.684 319.078 401.561 320.812C401.457 322.262 402.484 324.002 403.072 324.867C403.317 325.229 403.694 325.471 404.117 325.58L413.49 327.982C413.872 328.08 414.275 328.065 414.637 327.907C415.621 327.476 417.591 326.451 417.959 325.016C418.454 323.087 416.772 321.628 416.772 321.628M416.772 321.628L421.841 301.853M421.841 301.853L420.903 302.695C420.655 302.919 420.311 303.003 419.987 302.92L418.576 302.558M412.788 301.075L418.576 302.558M412.788 301.075L412.541 302.039M418.576 302.558L418.329 303.523M412.541 302.039L412.294 303.004L418.082 304.487L418.329 303.523M412.541 302.039L411.686 302.546C411.457 302.681 411.292 302.901 411.226 303.158L409.598 309.509L410.563 309.756M418.329 303.523L418.835 304.378C418.97 304.607 419.009 304.879 418.943 305.136L417.315 311.487L416.351 311.24M410.563 309.756L409.797 316.756L413.655 317.745L416.351 311.24M410.563 309.756L416.351 311.24M431.487 304.326L431.904 305.515C432.014 305.831 432.275 306.07 432.599 306.153L434.974 306.762M431.487 304.326L430.893 302.632L445.362 306.341L444.027 307.54M431.487 304.326L426.418 324.1M426.418 324.1L438.958 327.315M426.418 324.1C426.418 324.1 423.87 324.765 423.747 326.5C423.644 327.949 424.67 329.689 425.258 330.555C425.503 330.916 425.88 331.159 426.303 331.267L435.676 333.67C436.058 333.768 436.461 333.752 436.823 333.594C437.807 333.164 439.777 332.139 440.145 330.703C440.64 328.774 438.958 327.315 438.958 327.315M438.958 327.315L444.027 307.54M444.027 307.54L443.089 308.382C442.841 308.606 442.497 308.69 442.173 308.607L440.762 308.246M434.974 306.762L440.762 308.246M434.974 306.762L434.727 307.727M440.762 308.246L440.515 309.21M434.727 307.727L434.48 308.691L440.268 310.175L440.515 309.21M434.727 307.727L433.872 308.233C433.644 308.368 433.478 308.588 433.412 308.845L431.784 315.196L432.749 315.443M440.515 309.21L441.021 310.066C441.156 310.294 441.195 310.566 441.129 310.823L439.501 317.174L438.537 316.927M432.749 315.443L431.983 322.443L435.841 323.432L438.537 316.927M432.749 315.443L438.537 316.927M399.756 339.882L401.339 336.957C401.557 336.554 402.022 336.351 402.466 336.465L409.635 338.302C410.08 338.416 410.39 338.818 410.387 339.277L410.367 342.602M399.756 339.882L410.367 342.602M410.367 342.602L421.942 345.569M421.942 345.569L424.456 342.672C424.704 342.386 425.092 342.265 425.459 342.359L431.979 344.03C432.346 344.124 432.628 344.417 432.708 344.788L433.518 348.537M421.942 345.569L433.518 348.537M324.145 301.995C324.145 301.995 323.551 304.31 315.414 307.981C309.258 310.758 302.295 314.388 299.27 315.99C298.285 316.512 297.573 317.426 297.296 318.506L296.989 319.706M324.145 301.995L336.685 305.21M324.145 301.995L322.215 301.501M336.685 305.21C336.685 305.21 335.943 308.104 341.459 314.658C345.692 319.687 350.056 326.567 351.857 329.495C352.413 330.398 352.565 331.484 352.302 332.512L351.971 333.8M336.685 305.21L338.614 305.704M338.614 305.704L339.108 303.775C339.381 302.71 338.739 301.624 337.674 301.351V301.351M338.614 305.704L322.215 301.501M322.215 301.501L322.71 299.571C322.983 298.506 324.068 297.864 325.134 298.137V298.137M325.134 298.137L337.674 301.351M325.134 298.137L326.123 294.278M337.674 301.351L338.663 297.493M339.405 294.599V294.599C339.937 294.736 340.258 295.278 340.122 295.811L339.875 296.775C339.738 297.308 339.196 297.629 338.663 297.493V297.493M339.405 294.599L326.865 291.384M339.405 294.599L340.146 291.705M338.663 297.493L326.123 294.278M326.865 291.384V291.384C326.332 291.248 325.789 291.569 325.653 292.102L325.406 293.066C325.269 293.599 325.59 294.142 326.123 294.278V294.278M326.865 291.384L327.606 288.491M328.596 284.632L329.337 281.738L341.877 284.953L341.136 287.847M328.596 284.632V284.632C328.063 284.496 327.52 284.817 327.384 285.349L326.889 287.279C326.753 287.811 327.074 288.354 327.606 288.491V288.491M328.596 284.632L341.136 287.847M327.606 288.491L340.146 291.705M340.146 291.705V291.705C340.679 291.842 341.222 291.521 341.358 290.988L341.853 289.059C341.989 288.526 341.668 287.983 341.136 287.847V287.847M336.888 392.642L338.817 393.136L340.548 386.384L338.619 385.89M336.888 392.642L336.15 395.519C335.601 397.659 333.422 398.949 331.282 398.401L308.148 392.47L284.049 386.293C281.909 385.744 280.619 383.565 281.167 381.425L281.905 378.547M336.888 392.642L281.905 378.547M338.619 385.89L343.564 366.597M338.619 385.89L283.636 371.795M343.564 366.597L345.493 367.092L347.224 360.34L345.295 359.845M343.564 366.597L288.581 352.503M345.295 359.845L290.312 345.75M345.295 359.845L350.24 340.553M281.905 378.547L279.976 378.053L281.707 371.3L283.636 371.795M283.636 371.795L288.581 352.503M288.581 352.503L286.652 352.008L288.383 345.256L290.312 345.75M290.312 345.75L295.258 326.458M295.258 326.458L293.328 325.964L295.059 319.211L296.989 319.706M295.258 326.458L350.24 340.553M296.989 319.706L351.971 333.8M351.971 333.8L353.901 334.295L352.17 341.047L350.24 340.553" stroke="black" stroke-width="0.5" stroke-linecap="round" stroke-linejoin="round"/>
<path d="M61.5229 498.418L79.9676 487.252C79.9676 487.252 81.2423 477.7 79.7997 471.51C78.3165 465.145 72.4483 455.798 72.4483 455.798L59.2735 463.774L57.6926 464.731L55.5846 466.007L53.4766 467.283L50.8417 468.878L48.7337 470.154L35.5589 478.13C35.5589 478.13 41.1117 487.032 46.2805 491.082C51.4805 495.157 61.5229 498.418 61.5229 498.418Z" fill="#D9D9D9"/>
<path d="M4.33717 437.261C14.5061 442.02 31.7286 444.443 31.7286 444.443C31.7286 444.443 31.4812 444.059 31.036 443.422C31.036 443.422 20.6869 438.065 13.8371 435.11C5.66062 431.584 0.388517 431.227 -7.53541 427.165C-12.1319 424.809 -18.8668 420.343 -18.8668 420.343C-23.3695 423.068 -6.02139 432.413 4.33717 437.261Z" fill="#2C6206"/>
<path d="M6.41666 428.8C-3.5011 426.295 -12.5428 416.514 -18.8668 420.343C-18.8668 420.343 -12.1319 424.809 -7.53541 427.165C0.388517 431.227 5.66062 431.584 13.8371 435.11C20.6869 438.065 31.036 443.422 31.036 443.422C29.3258 440.972 24.696 434.77 19.953 432.128C14.7496 429.229 12.1916 430.259 6.41666 428.8Z" fill="#418D0C"/>
<path d="M26.8866 422.17C30.4799 424.749 35.999 428.895 35.999 428.895C35.999 428.895 32.3571 418.744 31.2819 411.587C30.5143 406.477 30.18 397.852 30.18 397.852C27.0413 397.744 23.4488 397.137 22.8763 396.512C21.998 395.554 21.1523 393.664 21.1523 393.664C20.5697 394.309 20.0138 394.981 19.4922 395.68C15.1625 401.481 13.4769 409.535 17.5661 416.29C19.4802 419.452 23.0367 419.407 26.8866 422.17Z" fill="#2C6206"/>
<path d="M44.8043 411.323C44.5409 404.909 39.5603 394.333 39.5603 394.333C39.5603 394.333 36.5693 396.753 34.2904 397.524C33.4019 397.824 31.8556 397.909 30.18 397.852C30.18 397.852 30.5143 406.477 31.2819 411.587C32.3571 418.744 35.999 428.895 35.999 428.895L37.2751 431.003C37.2751 431.003 45.162 420.033 44.8043 411.323Z" fill="#418D0C"/>
<path d="M21.1523 393.664C21.1523 393.664 21.998 395.554 22.8763 396.512C23.4488 397.137 27.0413 397.744 30.18 397.852C31.8556 397.909 33.4019 397.824 34.2904 397.524C34.2904 397.524 34.5171 394.2 33.8464 392.032C33.1185 389.679 30.596 386.663 30.596 386.663C27.3898 388.121 23.9605 390.559 21.1523 393.664Z" fill="#2C6206"/>
<path d="M39.5603 394.333C39.5603 394.333 41.6852 391.636 40.6973 387.885C39.8047 384.496 35.4569 384.452 30.596 386.663C30.596 386.663 33.1185 389.679 33.8464 392.032C34.5171 394.2 34.2904 397.524 34.2904 397.524C36.5693 396.753 39.5603 394.333 39.5603 394.333Z" fill="#418D0C"/>
<path d="M51.4611 411.613C46.2428 431.542 52.3095 439.185 52.3095 439.185C52.3095 439.185 58.2242 422.476 60.4482 413.374C62.9568 403.107 64.0523 389.588 64.0523 389.588C61.9415 388.918 54.598 399.633 51.4611 411.613Z" fill="#418D0C"/>
<path d="M68.4924 417.145C71.365 406.63 70.2934 391.571 64.0523 389.588C64.0523 389.588 62.9568 403.107 60.4482 413.374C58.2242 422.476 52.3095 439.185 52.3095 439.185C52.3095 439.185 64.0141 433.539 68.4924 417.145Z" fill="#2C6206"/>
<path d="M58.9946 446.659C57.1258 450.506 57.163 454.34 57.163 454.34C57.163 454.34 63.1008 451.983 68.4963 449.27C68.4963 449.27 71.8304 442.863 72.1693 438.683C72.5154 434.416 70.1113 428.147 70.1113 428.147C66.739 431.517 63.7631 436.385 62.8777 439.988C61.9519 443.756 60.1698 444.24 58.9946 446.659Z" fill="#2C6206"/>
<path d="M76.7329 443.843C79.8553 439.484 83.9573 427.227 78.7698 424.606L76.995 430.001L71.4975 426.868C71.031 427.262 70.5675 427.691 70.1113 428.147C70.1113 428.147 72.5154 434.416 72.1693 438.683C71.8304 442.863 68.4963 449.27 68.4963 449.27C72.1865 447.414 75.6232 445.392 76.7329 443.843Z" fill="#418D0C"/>
<path d="M71.4975 426.868L76.995 430.001C76.995 430.001 76.5217 427.663 75.6079 426.52C75.0915 425.874 74.0318 425.106 74.0318 425.106C73.1935 425.555 72.3405 426.155 71.4975 426.868Z" fill="#2C6206"/>
<path d="M76.995 430.001L78.7698 424.606C77.3921 423.91 75.7427 424.191 74.0318 425.106C74.0318 425.106 75.0915 425.874 75.6079 426.52C76.5217 427.663 76.995 430.001 76.995 430.001Z" fill="#418D0C"/>
<path d="M36.6104 466.781L34.8785 466.3C34.8785 466.3 26.222 467.653 22.5357 470.891C17.1619 475.612 17.8492 488.13 17.8492 488.13C22.4951 487.478 23.1317 478.126 28.2497 473.193C31.2123 470.338 36.6104 466.781 36.6104 466.781Z" fill="#418D0C"/>
<path d="M34.8785 466.3C34.8785 466.3 27.7456 460.604 18.7214 468.159C12.5087 473.361 15.4356 488.469 17.8492 488.13C17.8492 488.13 17.1619 475.612 22.5357 470.891C26.222 467.653 34.8785 466.3 34.8785 466.3Z" fill="#2C6206"/>
<path d="M15.933 457.605C19.962 454.473 25.4535 461.632 30.2043 459.768C31.6304 459.208 33.261 458.455 34.6205 457.547C36.8396 456.064 38.3361 454.168 37.041 452.029C34.9525 448.579 30.287 453.957 27.5409 454.179C27.529 454.18 27.5168 454.18 27.5041 454.18C27.2884 454.184 26.1109 454.179 23.6299 453.666C20.2602 452.969 16.4317 450.102 13.5888 452.543C11.623 454.231 12.0219 457.093 12.0219 457.093C12.5328 459.456 14.3662 462.155 14.3662 462.155C14.3662 462.155 13.9776 459.126 15.933 457.605Z" fill="#2C6206"/>
<path d="M14.9477 448.84C11.6155 450.384 11.2461 453.503 12.0219 457.093C12.0219 457.093 11.623 454.231 13.5888 452.543C16.4317 450.102 20.2602 452.969 23.6299 453.666C26.1109 454.179 27.2884 454.184 27.5041 454.18C26.0612 454.156 19.9657 446.516 14.9477 448.84Z" fill="#418D0C"/>
<path d="M20.4292 392.973C23.3243 389.778 26.8572 387.265 30.1826 385.753C30.191 385.749 30.1997 385.746 30.208 385.742C30.2096 385.741 30.2112 385.741 30.2127 385.74C32.712 384.608 35.1838 383.999 37.2221 384.177C38.2557 384.268 39.2235 384.566 40.0167 385.146C40.8228 385.737 41.3863 386.576 41.6639 387.63C42.2208 389.744 41.8996 391.566 41.4413 392.851C41.2125 393.493 40.9481 394.006 40.738 394.362C40.7256 394.383 40.7123 394.402 40.7004 394.422C40.8383 394.727 41.0318 395.158 41.2612 395.69C41.7373 396.793 42.3746 398.333 43.0211 400.076C44.3008 403.526 45.6649 407.903 45.8037 411.282C45.9935 415.903 44.0095 421.016 42.0667 424.878C41.0854 426.829 40.0946 428.502 39.3482 429.686C38.9747 430.279 38.6611 430.751 38.4405 431.076C38.426 431.097 38.4107 431.118 38.3969 431.138C38.5046 431.418 38.6564 431.809 38.8441 432.289C39.2442 433.314 39.8094 434.742 40.4694 436.36C41.7924 439.603 43.4864 443.582 44.9933 446.586C46.9115 450.411 49.7606 455.119 52.1433 458.89C53.3321 460.771 54.4006 462.411 55.1714 463.58C55.4511 464.005 55.6918 464.367 55.8846 464.657L56.2864 464.413C56.2805 464.404 56.2743 464.395 56.2684 464.386C55.9041 463.811 55.4071 462.993 54.8762 462.016C53.8214 460.075 52.5982 457.447 52.0261 454.819C51.4403 452.128 51.2688 448.18 51.2357 444.971C51.219 443.353 51.2373 441.898 51.2601 440.848C51.2716 440.322 51.2848 439.897 51.2944 439.603C51.2959 439.559 51.2966 439.517 51.2979 439.479C51.2718 439.439 51.2422 439.396 51.2125 439.349C51.0365 439.069 50.8008 438.658 50.5399 438.108C50.0176 437.006 49.3956 435.348 48.9472 433.065C48.0498 428.495 47.8524 421.449 50.494 411.36C52.0897 405.266 54.7506 399.503 57.2872 395.337C58.5536 393.257 59.8088 391.543 60.9079 390.376C61.4538 389.797 61.995 389.317 62.5092 389C62.9613 388.721 63.6118 388.433 64.2879 388.617C64.3372 388.629 64.385 388.644 64.4309 388.663C66.3086 389.289 67.6929 390.847 68.6768 392.802C69.678 394.793 70.3287 397.31 70.6817 400.039C71.3879 405.499 70.928 412.026 69.4573 417.409C67.1652 425.799 63.0165 431.458 59.426 435.023C57.6324 436.803 55.979 438.061 54.7668 438.877C54.1607 439.284 53.6639 439.582 53.3146 439.78C53.3061 439.784 53.2968 439.788 53.2885 439.793C53.2798 440.071 53.2696 440.444 53.2598 440.89C53.2373 441.925 53.219 443.358 53.2355 444.95C53.2686 448.161 53.4433 451.924 53.9809 454.394C54.3644 456.155 55.0869 457.959 55.8524 459.54C55.6187 458.39 55.6764 457.173 55.7889 456.232C55.8622 455.619 55.9631 455.084 56.0463 454.701C56.0881 454.51 56.1258 454.355 56.1532 454.246C56.1572 454.231 56.1606 454.216 56.1641 454.202C56.1644 454.184 56.1651 454.165 56.1656 454.144C56.1685 454.02 56.1743 453.842 56.188 453.619C56.2153 453.173 56.2723 452.542 56.3899 451.788C56.6244 450.284 57.1049 448.261 58.0951 446.223C58.7461 444.882 59.616 444.003 60.2454 443.208C60.8823 442.404 61.4838 441.468 61.9062 439.75C62.8461 435.925 65.9395 430.902 69.4046 427.439C69.7599 427.084 70.1212 426.744 70.486 426.421L70.852 426.104L71.1847 425.829C71.9631 425.199 72.7605 424.652 73.5603 424.224C73.5707 424.219 73.581 424.213 73.5914 424.208C73.5946 424.206 73.5979 424.205 73.6011 424.203C75.4107 423.245 77.3962 422.82 79.1707 423.69C79.1793 423.694 79.1877 423.698 79.1962 423.702C79.2041 423.706 79.2123 423.709 79.2203 423.714C79.2255 423.716 79.2308 423.72 79.2359 423.722C79.249 423.729 79.2622 423.736 79.2749 423.743C80.9078 424.594 81.7351 426.17 82.0621 427.921C82.3906 429.68 82.2448 431.733 81.849 433.764C81.0586 437.819 79.2032 442.111 77.5459 444.425C76.869 445.37 75.5841 446.35 74.1203 447.284C72.6207 448.241 70.8052 449.228 68.9454 450.163C66.223 451.532 63.3694 452.808 61.2011 453.741C60.1161 454.207 59.2004 454.589 58.5553 454.854C58.3447 454.94 58.1622 455.013 58.0127 455.074C58.0089 455.091 58.0051 455.109 58.0012 455.126C57.9281 455.462 57.8391 455.933 57.775 456.469C57.6426 457.577 57.6365 458.817 57.9775 459.736C58.1845 460.293 58.6827 461.13 59.1802 461.887C59.3105 462.085 59.4368 462.271 59.5512 462.437L71.9303 454.943L72.0197 454.895C72.4723 454.679 73.0229 454.833 73.295 455.267L73.3001 455.275C73.3032 455.28 73.3083 455.287 73.3141 455.296C73.3258 455.315 73.3428 455.343 73.365 455.378C73.4094 455.45 73.474 455.556 73.5568 455.691C73.7227 455.964 73.9612 456.358 74.2509 456.851C74.8299 457.837 75.6173 459.218 76.4522 460.801C78.1094 463.942 80.0006 467.968 80.7735 471.284C81.5268 474.517 81.563 478.564 81.4238 481.746C81.3537 483.348 81.2378 484.754 81.1395 485.76C81.0903 486.263 81.0451 486.667 81.0123 486.946C80.996 487.085 80.9829 487.194 80.9736 487.268C80.969 487.305 80.9659 487.334 80.9634 487.353C80.9621 487.363 80.9606 487.37 80.9599 487.376C80.9596 487.378 80.9593 487.38 80.9591 487.382L80.9588 487.383L80.9593 487.384C80.9192 487.684 80.7442 487.95 80.485 488.107L62.0408 499.273C61.7923 499.423 61.4906 499.459 61.2143 499.369L61.523 498.417L61.2138 499.368L61.213 499.369L61.2117 499.368C61.2102 499.368 61.208 499.366 61.2053 499.365C61.1999 499.364 61.1916 499.361 61.1815 499.358C61.1612 499.351 61.1316 499.342 61.0933 499.329C61.0161 499.304 60.9035 499.265 60.7585 499.216C60.4688 499.117 60.0506 498.972 59.5332 498.785C58.4987 498.411 57.0643 497.87 55.4651 497.2C52.2906 495.869 48.3753 493.994 45.6639 491.869C42.9687 489.758 40.2225 486.428 38.1793 483.684C37.15 482.302 36.2847 481.048 35.6764 480.14C35.3722 479.686 35.1313 479.318 34.9666 479.062C34.8842 478.934 34.821 478.833 34.7778 478.765C34.7564 478.731 34.7398 478.706 34.7286 478.688C34.7231 478.679 34.7181 478.672 34.7151 478.667L34.7101 478.659C34.5686 478.432 34.5237 478.158 34.5858 477.897C34.6479 477.637 34.8123 477.413 35.0411 477.275L46.2364 470.497L36.7852 467.868C36.65 467.959 36.4816 468.073 36.2859 468.207C35.7392 468.581 34.9788 469.109 34.1277 469.726C32.4148 470.967 30.3718 472.537 28.9435 473.913C26.556 476.215 25.1991 479.563 23.7826 482.68C23.0955 484.192 22.3804 485.673 21.5116 486.819C20.6366 487.973 19.5229 488.896 18.0143 489.117C18.0097 489.117 18.005 489.117 18.0004 489.118C17.9963 489.119 17.9924 489.12 17.9883 489.121C17.1192 489.243 16.4926 488.646 16.1442 488.19C15.756 487.683 15.4262 486.991 15.1515 486.22C14.5966 484.663 14.1851 482.547 14.0524 480.281C13.9195 478.012 14.063 475.537 14.6577 473.268C15.2508 471.005 16.3139 468.871 18.0795 467.393C22.8156 463.428 27.1487 462.883 30.3464 463.41C31.9254 463.67 33.1985 464.186 34.0799 464.638C34.5212 464.865 34.8672 465.077 35.1071 465.236C35.1921 465.292 35.2633 465.343 35.3215 465.385L36.8756 465.817L36.8783 465.818L48.5856 469.075L49.1879 468.711C48.7697 468.328 48.2409 467.847 47.6463 467.322C46.1918 466.038 44.3806 464.506 42.885 463.451C41.3071 462.337 39.1385 461.088 37.3413 460.107C36.4478 459.619 35.6546 459.202 35.085 458.907C34.9321 458.828 34.7944 458.758 34.6763 458.697C33.3498 459.516 31.8634 460.191 30.5692 460.699C29.0999 461.275 27.6209 461.131 26.2591 460.737C24.9173 460.349 23.5719 459.682 22.3712 459.116C21.1212 458.526 20.0257 458.044 19.0227 457.869C18.0705 457.703 17.2781 457.826 16.5467 458.395C15.8564 458.932 15.5332 459.775 15.4043 460.604C15.3417 461.007 15.3305 461.373 15.3356 461.639C15.3381 461.77 15.3451 461.874 15.3505 461.942C15.3532 461.976 15.3558 462.001 15.3573 462.016C15.3581 462.023 15.3587 462.028 15.3589 462.03L15.3584 462.029C15.4165 462.487 15.1529 462.926 14.7208 463.089C14.2881 463.253 13.7997 463.099 13.5396 462.717L14.366 462.155L13.5391 462.716L13.5386 462.715C13.5381 462.714 13.5369 462.714 13.5362 462.713C13.5349 462.711 13.5333 462.708 13.5311 462.705C13.5268 462.698 13.5203 462.689 13.5128 462.678C13.4975 462.655 13.4761 462.622 13.4488 462.58C13.3939 462.496 13.3164 462.374 13.2223 462.223C13.034 461.919 12.7778 461.49 12.5051 460.983C11.973 459.995 11.3407 458.646 11.0521 457.337C11.0512 457.333 11.0499 457.329 11.049 457.326C11.0474 457.319 11.0461 457.311 11.0446 457.303C10.6418 455.44 10.5051 453.573 10.9838 451.921C11.4785 450.214 12.6062 448.823 14.5276 447.933C16.0647 447.222 17.6505 447.295 19.1107 447.733C20.5571 448.167 21.9355 448.972 23.1379 449.809C24.3399 450.645 25.4343 451.563 26.2645 452.228C26.6914 452.57 27.0346 452.834 27.3054 453.012C27.4223 453.089 27.5085 453.138 27.5681 453.167C28.0045 453.1 28.6047 452.84 29.3997 452.393C29.8129 452.16 30.238 451.903 30.69 451.633C31.1349 451.368 31.6014 451.092 32.0681 450.844C32.9716 450.363 34.0117 449.908 35.0325 449.878C35.5659 449.862 36.1124 449.963 36.6269 450.245C37.1402 450.527 37.5614 450.957 37.8965 451.511C38.7376 452.9 38.6756 454.284 38.0326 455.501C37.6651 456.197 37.1166 456.822 36.4825 457.381C36.9957 457.65 37.6195 457.979 38.2999 458.351C40.1094 459.339 42.3611 460.634 44.0376 461.817C45.6264 462.938 47.506 464.53 48.9706 465.823C49.7064 466.473 50.3445 467.054 50.7992 467.473C50.8597 467.528 50.9169 467.582 50.9707 467.631L52.0534 466.976C51.9547 466.833 51.8454 466.674 51.7254 466.502C51.1437 465.668 50.3234 464.508 49.3676 463.207C47.4481 460.595 45.0102 457.453 42.8786 455.23C40.8184 453.081 37.8916 450.59 35.4561 448.62C34.2432 447.639 33.1607 446.794 32.3817 446.195C31.9923 445.895 31.6787 445.657 31.4632 445.494C31.4144 445.457 31.3701 445.425 31.3316 445.396C31.2042 445.377 31.0313 445.351 30.8167 445.318C30.3212 445.242 29.6031 445.127 28.7107 444.975C26.9264 444.672 24.4412 444.218 21.6357 443.614C16.0445 442.411 9.10428 440.596 3.91274 438.166C-1.28335 435.734 -8.257 432.164 -13.3816 428.846C-15.9257 427.198 -18.0992 425.558 -19.3536 424.108C-19.9666 423.399 -20.479 422.603 -20.5795 421.774C-20.6331 421.331 -20.5693 420.877 -20.343 420.456C-20.1301 420.059 -19.8065 419.753 -19.4318 419.517C-19.3994 419.495 -19.366 419.474 -19.3315 419.456C-17.4811 418.357 -15.4671 418.27 -13.4277 418.72C-11.3948 419.169 -9.26045 420.167 -7.1035 421.313C-2.69691 423.655 1.85864 426.617 6.66176 427.831C9.48134 428.543 11.4402 428.635 13.5403 428.935C15.6445 429.235 17.7082 429.732 20.4396 431.254C22.9557 432.656 25.387 434.965 27.376 437.179C29.3767 439.407 30.9876 441.605 31.856 442.849L32.3802 443.615C32.4135 443.664 32.442 443.709 32.4667 443.746C32.52 443.786 32.5876 443.838 32.6688 443.899C32.8885 444.065 33.2069 444.306 33.6012 444.61C34.39 445.216 35.4853 446.072 36.7137 447.066C39.1611 449.045 42.1705 451.601 44.3225 453.845C46.5491 456.167 49.0503 459.398 50.9793 462.022C51.9473 463.34 52.7778 464.514 53.3668 465.359C53.5168 465.574 53.6506 465.769 53.7676 465.938L54.172 465.693C53.9861 465.414 53.7597 465.074 53.5008 464.681C52.7248 463.503 51.6495 461.853 50.4526 459.959C48.0634 456.178 45.1705 451.4 43.2058 447.482C41.6624 444.405 39.9441 440.368 38.6176 437.116C37.9529 435.487 37.3836 434.048 36.9807 433.017C36.7793 432.501 36.6197 432.087 36.51 431.802C36.4551 431.659 36.4126 431.548 36.3839 431.473C36.3798 431.462 36.3759 431.452 36.3723 431.442L35.2445 429.579C35.2179 429.559 35.1879 429.537 35.155 429.512C34.9973 429.394 34.7682 429.222 34.4819 429.008C33.909 428.579 33.1072 427.981 32.1939 427.303C30.3659 425.944 28.0931 424.267 26.3035 422.983C24.483 421.676 22.7677 421.051 21.0876 420.29C19.4344 419.54 17.8304 418.658 16.7105 416.808C12.3501 409.605 14.1956 401.104 18.6907 395.082C19.2318 394.357 19.8081 393.66 20.4107 392.994C20.4168 392.987 20.4229 392.98 20.4292 392.973Z" stroke="black" stroke-width="2" stroke-linecap="round" stroke-linejoin="round"/>
<defs>
<filter id="filter0_f_3785_2914" x="258.274" y="361.423" width="200.562" height="85.8813" filterUnits="userSpaceOnUse" color-interpolation-filters="sRGB">
<feFlood flood-opacity="0" result="BackgroundImageFix"/>
<feBlend mode="normal" in="SourceGraphic" in2="BackgroundImageFix" result="shape"/>
<feGaussianBlur stdDeviation="7.15" result="effect1_foregroundBlur_3785_2914"/>
</filter>
<linearGradient id="paint0_linear_3785_2914" x1="206" y1="0" x2="206" y2="566.5" gradientUnits="userSpaceOnUse">
<stop offset="0.230769" stop-color="#31333E"/>
<stop offset="1" stop-color="#7A88C6"/>
</linearGradient>
<linearGradient id="paint1_linear_3785_2914" x1="206" y1="0" x2="206" y2="566.5" gradientUnits="userSpaceOnUse">
<stop offset="0.230769" stop-color="#31333E"/>
<stop offset="1" stop-color="#7A88C6"/>
</linearGradient>
<linearGradient id="paint2_linear_3785_2914" x1="206" y1="0" x2="206" y2="566.5" gradientUnits="userSpaceOnUse">
<stop offset="0.230769" stop-color="#31333E"/>
<stop offset="1" stop-color="#7A88C6"/>
</linearGradient>
<linearGradient id="paint3_linear_3785_2914" x1="408.629" y1="229.076" x2="475.187" y2="246.138" gradientUnits="userSpaceOnUse">
<stop offset="0.125" stop-color="#95CFE4"/>
<stop offset="0.3125" stop-color="white"/>
<stop offset="0.466346" stop-color="#95CFE4"/>
</linearGradient>
<linearGradient id="paint4_linear_3785_2914" x1="408.629" y1="229.076" x2="475.187" y2="246.138" gradientUnits="userSpaceOnUse">
<stop offset="0.125" stop-color="#95CFE4"/>
<stop offset="0.3125" stop-color="white"/>
<stop offset="0.466346" stop-color="#95CFE4"/>
</linearGradient>
<linearGradient id="paint5_linear_3785_2914" x1="408.629" y1="229.076" x2="475.187" y2="246.138" gradientUnits="userSpaceOnUse">
<stop offset="0.125" stop-color="#95CFE4"/>
<stop offset="0.3125" stop-color="white"/>
<stop offset="0.466346" stop-color="#95CFE4"/>
</linearGradient>
<linearGradient id="paint6_linear_3785_2914" x1="408.629" y1="229.076" x2="475.187" y2="246.138" gradientUnits="userSpaceOnUse">
<stop offset="0.125" stop-color="#95CFE4"/>
<stop offset="0.3125" stop-color="white"/>
<stop offset="0.466346" stop-color="#95CFE4"/>
</linearGradient>
<linearGradient id="paint7_linear_3785_2914" x1="372.304" y1="366.769" x2="438.862" y2="383.831" gradientUnits="userSpaceOnUse">
<stop stop-color="#DDE0E6"/>
<stop offset="0.269231" stop-color="white"/>
<stop offset="0.5" stop-color="#D8E0E6"/>
<stop offset="1" stop-color="#BBC8D6"/>
</linearGradient>
<linearGradient id="paint8_linear_3785_2914" x1="276.563" y1="383.346" x2="339.015" y2="400.383" gradientUnits="userSpaceOnUse">
<stop stop-color="#95CFE4"/>
<stop offset="0.264423" stop-color="white"/>
<stop offset="0.586538" stop-color="#95CFE4"/>
</linearGradient>
<linearGradient id="paint9_linear_3785_2914" x1="276.563" y1="383.346" x2="339.015" y2="400.383" gradientUnits="userSpaceOnUse">
<stop stop-color="#95CFE4"/>
<stop offset="0.264423" stop-color="white"/>
<stop offset="0.586538" stop-color="#95CFE4"/>
</linearGradient>
<linearGradient id="paint10_linear_3785_2914" x1="276.563" y1="383.346" x2="339.015" y2="400.383" gradientUnits="userSpaceOnUse">
<stop stop-color="#95CFE4"/>
<stop offset="0.264423" stop-color="white"/>
<stop offset="0.586538" stop-color="#95CFE4"/>
</linearGradient>
<linearGradient id="paint11_linear_3785_2914" x1="276.563" y1="383.346" x2="339.015" y2="400.383" gradientUnits="userSpaceOnUse">
<stop stop-color="#95CFE4"/>
<stop offset="0.264423" stop-color="white"/>
<stop offset="0.586538" stop-color="#95CFE4"/>
</linearGradient>
<linearGradient id="paint12_linear_3785_2914" x1="276.563" y1="383.346" x2="339.015" y2="400.383" gradientUnits="userSpaceOnUse">
<stop stop-color="#95CFE4"/>
<stop offset="0.264423" stop-color="white"/>
<stop offset="0.586538" stop-color="#95CFE4"/>
</linearGradient>
<linearGradient id="paint13_linear_3785_2914" x1="276.563" y1="383.346" x2="339.015" y2="400.383" gradientUnits="userSpaceOnUse">
<stop stop-color="#95CFE4"/>
<stop offset="0.264423" stop-color="white"/>
<stop offset="0.586538" stop-color="#95CFE4"/>
</linearGradient>
<linearGradient id="paint14_linear_3785_2914" x1="408.629" y1="229.076" x2="475.187" y2="246.138" gradientUnits="userSpaceOnUse">
<stop offset="0.125" stop-color="#95CFE4"/>
<stop offset="0.3125" stop-color="white"/>
<stop offset="0.466346" stop-color="#95CFE4"/>
</linearGradient>
<linearGradient id="paint15_linear_3785_2914" x1="408.629" y1="229.076" x2="475.187" y2="246.138" gradientUnits="userSpaceOnUse">
<stop offset="0.125" stop-color="#95CFE4"/>
<stop offset="0.3125" stop-color="white"/>
<stop offset="0.466346" stop-color="#95CFE4"/>
</linearGradient>
<linearGradient id="paint16_linear_3785_2914" x1="408.629" y1="229.076" x2="475.187" y2="246.138" gradientUnits="userSpaceOnUse">
<stop offset="0.125" stop-color="#95CFE4"/>
<stop offset="0.3125" stop-color="white"/>
<stop offset="0.466346" stop-color="#95CFE4"/>
</linearGradient>
<linearGradient id="paint17_linear_3785_2914" x1="408.629" y1="229.076" x2="475.187" y2="246.138" gradientUnits="userSpaceOnUse">
<stop offset="0.125" stop-color="#95CFE4"/>
<stop offset="0.3125" stop-color="white"/>
<stop offset="0.466346" stop-color="#95CFE4"/>
</linearGradient>
<linearGradient id="paint18_linear_3785_2914" x1="372.304" y1="366.769" x2="438.862" y2="383.831" gradientUnits="userSpaceOnUse">
<stop stop-color="#DDE0E6"/>
<stop offset="0.269231" stop-color="white"/>
<stop offset="0.5" stop-color="#D8E0E6"/>
<stop offset="1" stop-color="#BBC8D6"/>
</linearGradient>
<linearGradient id="paint19_linear_3785_2914" x1="276.563" y1="383.346" x2="339.015" y2="400.383" gradientUnits="userSpaceOnUse">
<stop stop-color="#95CFE4"/>
<stop offset="0.264423" stop-color="white"/>
<stop offset="0.586538" stop-color="#95CFE4"/>
</linearGradient>
<linearGradient id="paint20_linear_3785_2914" x1="276.563" y1="383.346" x2="339.015" y2="400.383" gradientUnits="userSpaceOnUse">
<stop stop-color="#95CFE4"/>
<stop offset="0.264423" stop-color="white"/>
<stop offset="0.586538" stop-color="#95CFE4"/>
</linearGradient>
<linearGradient id="paint21_linear_3785_2914" x1="276.563" y1="383.346" x2="339.015" y2="400.383" gradientUnits="userSpaceOnUse">
<stop stop-color="#95CFE4"/>
<stop offset="0.264423" stop-color="white"/>
<stop offset="0.586538" stop-color="#95CFE4"/>
</linearGradient>
<linearGradient id="paint22_linear_3785_2914" x1="276.563" y1="383.346" x2="339.015" y2="400.383" gradientUnits="userSpaceOnUse">
<stop stop-color="#95CFE4"/>
<stop offset="0.264423" stop-color="white"/>
<stop offset="0.586538" stop-color="#95CFE4"/>
</linearGradient>
<linearGradient id="paint23_linear_3785_2914" x1="276.563" y1="383.346" x2="339.015" y2="400.383" gradientUnits="userSpaceOnUse">
<stop stop-color="#95CFE4"/>
<stop offset="0.264423" stop-color="white"/>
<stop offset="0.586538" stop-color="#95CFE4"/>
</linearGradient>
<linearGradient id="paint24_linear_3785_2914" x1="276.563" y1="383.346" x2="339.015" y2="400.383" gradientUnits="userSpaceOnUse">
<stop stop-color="#95CFE4"/>
<stop offset="0.264423" stop-color="white"/>
<stop offset="0.586538" stop-color="#95CFE4"/>
</linearGradient>
</defs>
</svg>
